<svg width="18" height="18" viewBox="0 0 18 18" fill="none" xmlns="http://www.w3.org/2000/svg">
<path d="M6.7548 15.7356H1.8806C0.84435 15.7356 0 14.9296 0 13.8934V1.8806C0 0.84435 0.84435 0 1.8806 0H10.8998C11.936 0 12.7804 0.84435 12.7804 1.8806V6.40938C12.7804 6.60128 12.6269 6.79318 12.3966 6.79318C12.2047 6.79318 12.0128 6.63966 12.0128 6.40938V1.8806C12.0128 1.26652 11.5139 0.767591 10.8614 0.767591H1.8806C1.26652 0.767591 0.767591 1.26652 0.767591 1.8806V13.8934C0.767591 14.5075 1.26652 15.0064 1.8806 15.0064H6.7548C6.94669 15.0064 7.13859 15.1599 7.13859 15.3902C7.13859 15.6205 6.98507 15.7356 6.7548 15.7356Z" fill="#5B73E8"/>
<path d="M10.1327 6.75477H2.61036C2.41846 6.75477 2.22656 6.60126 2.22656 6.37098C2.22656 6.1407 2.38008 5.98718 2.61036 5.98718H10.0944C10.2863 5.98718 10.4782 6.1407 10.4782 6.37098C10.4782 6.60126 10.3246 6.75477 10.1327 6.75477Z" fill="#5B73E8"/>
<path d="M7.13914 9.74843H2.61036C2.41846 9.74843 2.22656 9.59491 2.22656 9.36463C2.22656 9.17273 2.38008 8.98083 2.61036 8.98083H7.10076C7.29266 8.98083 7.48456 9.13435 7.48456 9.36463C7.48456 9.59491 7.33104 9.74843 7.13914 9.74843Z" fill="#5B73E8"/>
<path d="M6.37155 3.76112H2.61036C2.41846 3.76112 2.22656 3.6076 2.22656 3.37733C2.22656 3.18543 2.38008 2.99353 2.61036 2.99353H6.37155C6.56345 2.99353 6.75535 3.14705 6.75535 3.37733C6.75535 3.56922 6.60183 3.76112 6.37155 3.76112Z" fill="#5B73E8"/>
<path d="M13.1252 18C10.4386 18 8.25098 15.8124 8.25098 13.1258C8.25098 10.4392 10.4386 8.25159 13.1252 8.25159C15.8117 8.25159 17.9994 10.4392 17.9994 13.1258C17.9994 15.8124 15.8117 18 13.1252 18ZM13.1252 9.01918C10.8608 9.01918 9.01857 10.8614 9.01857 13.1258C9.01857 15.3902 10.8608 17.2708 13.1252 17.2708C15.3896 17.2708 17.2702 15.3902 17.2702 13.1258C17.2702 10.8614 15.3896 9.01918 13.1252 9.01918Z" fill="#5B73E8"/>
<path d="M13.126 15.7357C12.9341 15.7357 12.7422 15.5821 12.7422 15.3519V10.8615C12.7422 10.6696 12.8957 10.4777 13.126 10.4777C13.3563 10.4777 13.5098 10.6312 13.5098 10.8615V15.3519C13.5098 15.5821 13.3179 15.7357 13.126 15.7357Z" fill="#5B73E8"/>
<path d="M15.3901 13.5095H10.8613C10.6694 13.5095 10.4775 13.356 10.4775 13.1257C10.4775 12.8955 10.6311 12.7419 10.8613 12.7419H15.3517C15.5436 12.7419 15.7355 12.8955 15.7355 13.1257C15.7355 13.356 15.582 13.5095 15.3901 13.5095Z" fill="#5B73E8"/>
</svg>
