<svg width="20" height="20" viewBox="0 0 20 20" fill="none" xmlns="http://www.w3.org/2000/svg">
<g clip-path="url(#clip0)">
<path d="M17.4299 14.922H15.514V13.0957C15.514 12.873 15.3271 12.6503 15.0468 12.6503C14.8131 12.6503 14.5795 12.8284 14.5795 13.0957V14.922H12.6636C12.4299 14.922 12.1963 15.1002 12.1963 15.3674C12.1963 15.5901 12.3832 15.8129 12.6636 15.8129H14.5795V17.6391C14.5795 17.8618 14.7664 18.0846 15.0468 18.0846C15.2804 18.0846 15.514 17.9064 15.514 17.6391V15.8129H17.4299C17.6636 15.8129 17.8972 15.6347 17.8972 15.3674C17.8972 15.1002 17.7103 14.922 17.4299 14.922Z" fill="#5B73E8"/>
<path d="M4.1128 9.755H11.0287C11.2623 9.755 11.496 9.57683 11.496 9.30957C11.496 9.04231 11.3091 8.86414 11.0287 8.86414H4.1128C3.87915 8.86414 3.64551 9.04231 3.64551 9.30957C3.64551 9.57683 3.83242 9.755 4.1128 9.755Z" fill="#5B73E8"/>
<path d="M8.22495 11.6704H4.1128C3.87915 11.6704 3.64551 11.8486 3.64551 12.1158C3.64551 12.3386 3.83242 12.5613 4.1128 12.5613H8.27168C8.50532 12.5613 8.73897 12.3831 8.73897 12.1158C8.69224 11.8486 8.50532 11.6704 8.22495 11.6704Z" fill="#5B73E8"/>
<path d="M15.9813 10.735V3.3853C15.9813 2.22717 15 1.24722 13.7383 1.24722H11.9159V0.445434C11.9159 0.222717 11.729 0 11.4486 0C11.215 0 10.9813 0.178174 10.9813 0.445434V1.24722H4.90654V0.445434C4.90654 0.222717 4.71963 0 4.43925 0C4.20561 0 3.97196 0.178174 3.97196 0.445434V1.24722H2.24299C0.981308 1.24722 0 2.18263 0 3.3853V14.922C0 16.0802 0.981308 17.0601 2.24299 17.0601H10.514C11.3551 19.1537 13.6916 20.3563 15.9813 19.9555C18.3178 19.5546 20 17.5947 20 15.3675C20 13.0512 18.271 11.1359 15.9813 10.735ZM2.24299 2.09354H4.06542V2.89532C4.06542 3.11804 4.25234 3.34076 4.53271 3.34076C4.76636 3.34076 5 3.16258 5 2.89532V2.09354H11.0748V2.89532C11.0748 3.11804 11.2617 3.34076 11.5421 3.34076C11.7757 3.34076 12.0093 3.16258 12.0093 2.89532V2.09354H13.8318C14.5794 2.09354 15.1869 2.67261 15.1869 3.3853V4.4098H0.88785V3.3853C0.88785 2.67261 1.49533 2.09354 2.24299 2.09354ZM2.24299 16.1693C1.49533 16.1693 0.88785 15.5902 0.88785 14.8775V5.25612H15.0935V10.6459C13.6449 10.6459 12.243 11.2695 11.3084 12.3385C10.3738 13.4076 10 14.833 10.2336 16.1693H2.24299ZM15.0935 19.1537C12.8505 19.1537 11.0748 17.4165 11.0748 15.3229C11.0748 13.2294 12.8972 11.4922 15.0935 11.4922C17.3364 11.4922 19.1122 13.2294 19.1122 15.3229C19.1122 17.461 17.2897 19.1537 15.0935 19.1537Z" fill="#5B73E8"/>
</g>
<defs>
<clipPath id="clip0">
<rect width="20" height="20" fill="white"/>
</clipPath>
</defs>
</svg>
