<svg width="31" height="32" viewBox="0 0 31 32" fill="none" xmlns="http://www.w3.org/2000/svg">
<path d="M15.4467 4.02721C15.7663 4.02721 16.0859 3.70068 16.0859 3.37415V0.653061C16.0859 0.326531 15.7663 0 15.4467 0C15.1271 0 14.9141 0.326531 14.9141 0.653061V3.37415C14.9141 3.70068 15.1271 4.02721 15.4467 4.02721Z" fill="#5B73E8"/>
<path d="M6.39177 7.51019C6.4983 7.61904 6.60483 7.61904 6.81789 7.61904C6.92442 7.61904 7.13748 7.61904 7.24401 7.51019C7.45706 7.18366 7.45706 6.85713 7.24401 6.5306L5.43301 4.68026C5.11342 4.35373 4.68731 4.35373 4.47425 4.68026C4.26119 4.89795 4.26119 5.33332 4.47425 5.55101L6.39177 7.51019Z" fill="#5B73E8"/>
<path d="M3.30241 15.2381H0.639175C0.319588 15.2381 0 15.5646 0 15.8912C0 15.8912 0 15.8912 0 16C0 16 0 16 0 16.1088C0 16.4354 0.319588 16.7619 0.639175 16.7619H3.30241C3.62199 16.7619 3.94158 16.4354 3.94158 16.1088C3.94158 16.1088 3.94158 16.1088 3.94158 16C3.94158 16 3.94158 16 3.94158 15.8912C3.94158 15.5646 3.62199 15.2381 3.30241 15.2381Z" fill="#5B73E8"/>
<path d="M31.0002 15.8912C31.0002 15.5646 30.6806 15.2381 30.361 15.2381H27.6978C27.3782 15.2381 27.0586 15.5646 27.0586 15.8912C27.0586 15.8912 27.0586 15.8912 27.0586 16C27.0586 16 27.0586 16 27.0586 16.1088C27.0586 16.4354 27.3782 16.7619 27.6978 16.7619H30.361C30.6806 16.7619 31.0002 16.4354 31.0002 16.1088C31.0002 16 31.0002 16 31.0002 15.8912C31.0002 16 31.0002 15.8912 31.0002 15.8912Z" fill="#5B73E8"/>
<path d="M24.1826 7.29252C24.3957 7.29252 24.5022 7.18367 24.6087 7.07483L26.5262 5.11565C26.7393 4.89796 26.7393 4.46259 26.5262 4.2449C26.3132 4.02721 25.8871 4.02721 25.674 4.2449L23.7565 6.20408C23.5434 6.42177 23.5434 6.85714 23.7565 7.07483C23.863 7.18367 23.9695 7.29252 24.1826 7.29252Z" fill="#5B73E8"/>
<path d="M15.4468 27.9728C15.1272 27.9728 14.8076 28.2993 14.8076 28.6259V31.3469C14.8076 31.6735 15.1272 32 15.4468 32C15.7664 32 16.086 31.6735 16.086 31.3469V28.6259C16.086 28.2993 15.8729 27.9728 15.4468 27.9728Z" fill="#5B73E8"/>
<path d="M24.6087 24.4898C24.5022 24.3809 24.2891 24.2721 24.1826 24.2721C23.9695 24.2721 23.863 24.3809 23.7565 24.4898C23.5434 24.7075 23.5434 25.1428 23.7565 25.3605L25.674 27.3197C25.8871 27.5374 26.3132 27.5374 26.5262 27.3197C26.7393 27.102 26.7393 26.6667 26.5262 26.449L24.6087 24.4898Z" fill="#5B73E8"/>
<path d="M6.81789 24.7075C6.60483 24.7075 6.4983 24.8163 6.39177 24.9252L4.47425 26.8844C4.26119 27.102 4.26119 27.5374 4.47425 27.7551C4.68731 27.9728 5.11342 27.9728 5.32648 27.7551L7.24401 25.7959C7.45706 25.5782 7.45706 25.1429 7.24401 24.9252C7.13748 24.8163 6.92442 24.7075 6.81789 24.7075Z" fill="#5B73E8"/>
<path d="M15.4467 6.74829C10.4398 6.74829 6.28516 10.9932 6.28516 16.1088C6.28516 21.2245 10.4398 25.4694 15.4467 25.4694C20.4535 25.4694 24.6082 21.2245 24.6082 16.1088C24.6082 10.8843 20.5601 6.74829 15.4467 6.74829ZM15.4467 24.0544C11.079 24.0544 7.56351 20.4626 7.56351 16C7.56351 11.5374 11.079 7.94557 15.4467 7.94557C19.8144 7.94557 23.3298 11.5374 23.3298 16C23.3298 20.4626 19.8144 24.0544 15.4467 24.0544Z" fill="#5B73E8"/>
</svg>
