<svg width="68" height="68" viewBox="0 0 68 68" fill="none" xmlns="http://www.w3.org/2000/svg">
<path d="M34 0C15.2234 0 0 15.2234 0 34C0 52.7787 15.2234 68 34 68C52.7787 68 68 52.7809 68 34C68 15.2234 52.7785 0 34 0ZM34 61.6249C18.7426 61.6249 6.3751 49.2574 6.3751 34C6.3751 18.7426 18.7426 6.3751 34 6.3751C49.2574 6.3751 61.6249 18.7426 61.6249 34C61.6249 49.2574 49.2574 61.6249 34 61.6249ZM34.0021 14.9111C31.567 14.9111 29.7244 16.1819 29.7244 18.2346V37.062C29.7244 39.1169 31.5667 40.3834 34.0021 40.3834C36.3779 40.3834 38.2799 39.0639 38.2799 37.062V18.2346C38.2796 16.2306 36.3779 14.9111 34.0021 14.9111ZM34.0021 44.625C31.6625 44.625 29.7584 46.5291 29.7584 48.8706C29.7584 51.2081 31.6625 53.1122 34.0021 53.1122C36.3418 53.1122 38.2437 51.2081 38.2437 48.8706C38.2435 46.5289 36.3418 44.625 34.0021 44.625Z" fill="#E2574C"/>
</svg>
