<svg width="70" height="70" viewBox="0 0 70 70" fill="none" xmlns="http://www.w3.org/2000/svg">
<g clip-path="url(#clip0)">
<path d="M63.8494 24.2083H45.6904C45.251 21.7292 43.9331 19.5417 42.0293 18.0833C48.0335 15.3125 51.2552 8.89582 53.0126 2.62499C53.3054 1.60415 52.7197 0.437488 51.5481 0.145821C50.523 -0.145845 49.3515 0.437488 49.0586 1.60415C47.3013 8.02082 43.3473 15.6042 35 15.6042C26.6527 15.6042 22.6987 7.87499 20.9414 1.45832C20.6485 0.437488 19.477 -0.291679 18.4519 -1.19135e-05C17.4268 0.291655 16.6946 1.45832 16.9874 2.47915C18.7448 8.74999 22.113 15.0208 27.9707 17.9375C26.0669 19.5417 24.749 21.7292 24.3096 24.0625H6.15063C2.78243 24.0625 0 26.8333 0 30.1875V63.7292C0 67.2292 2.78243 70 6.15063 70H63.8494C67.2176 70 70 67.2291 70 63.875V30.3333C70 26.9792 67.2176 24.2083 63.8494 24.2083ZM35 19.5417C37.9289 19.5417 40.5649 21.4375 41.4435 24.2083H28.7029C29.4351 21.4375 32.0711 19.5417 35 19.5417ZM65.8996 63.875C65.8996 65.0417 65.0209 65.9167 63.8494 65.9167H6.15063C4.97908 65.9167 4.10042 65.0417 4.10042 63.875V30.3333C4.10042 29.1667 4.97908 28.2917 6.15063 28.2917H63.8494C65.0209 28.2917 65.8996 29.1667 65.8996 30.3333V63.875Z" fill="#D9D3D6"/>
<path d="M27.3858 32.9583H12.0092C10.8376 32.9583 9.95898 33.8333 9.95898 35V59.0625C9.95898 60.2291 10.8376 61.1041 12.0092 61.1041H27.3858C28.5573 61.1041 29.436 60.2291 29.436 59.0625V35C29.436 33.8333 28.4109 32.9583 27.3858 32.9583ZM25.3356 57.0208H14.0594V37.0416H25.3356V57.0208Z" fill="#D9D3D6"/>
<path d="M58.1391 36.1667H40.5658C39.3943 36.1667 38.5156 37.0417 38.5156 38.2083C38.5156 39.375 39.3943 40.25 40.5658 40.25H58.1391C59.3106 40.25 60.1893 39.375 60.1893 38.2083C60.1893 37.1875 59.1642 36.1667 58.1391 36.1667Z" fill="#D9D3D6"/>
<path d="M58.1391 44.9167H40.5658C39.3943 44.9167 38.5156 45.7917 38.5156 46.9583C38.5156 48.125 39.3943 49 40.5658 49H58.1391C59.3106 49 60.1893 48.125 60.1893 46.9583C60.1893 45.9375 59.1642 44.9167 58.1391 44.9167Z" fill="#D9D3D6"/>
<path d="M58.1385 53.8125H52.5736C51.4021 53.8125 50.5234 54.6875 50.5234 55.8542C50.5234 57.0208 51.4021 57.8958 52.5736 57.8958H58.1385C59.3101 57.8958 60.1887 57.0208 60.1887 55.8542C60.1887 54.6875 59.1636 53.8125 58.1385 53.8125Z" fill="#D9D3D6"/>
</g>
<defs>
<clipPath id="clip0">
<rect width="70" height="70" fill="white"/>
</clipPath>
</defs>
</svg>
