<svg width="16" height="13" viewBox="0 0 16 13" fill="none" xmlns="http://www.w3.org/2000/svg">
<path d="M14.1176 13H1.82699C0.83045 13 0 12.2417 0 11.2125V3.08749C0 2.11249 0.83045 1.29999 1.82699 1.29999H5.81315C6.08997 1.29999 6.31142 1.51665 6.31142 1.78749C6.31142 2.05832 6.08997 2.27499 5.81315 2.27499H1.82699C1.38408 2.27499 0.99654 2.65415 0.99654 3.08749V11.2125C0.99654 11.6458 1.38408 12.025 1.82699 12.025H14.1176C14.5606 12.025 14.9481 11.6458 14.9481 11.2125V3.08749C14.9481 2.65415 14.5606 2.27499 14.1176 2.27499H10.1315C9.85467 2.27499 9.63322 2.05832 9.63322 1.78749C9.63322 1.51665 9.85467 1.29999 10.1315 1.29999H14.1176C15.1142 1.29999 15.9446 2.11249 15.9446 3.08749V11.2125C16 12.2417 15.1695 13 14.1176 13Z" fill="#5B73E8"/>
<path d="M9.4667 3.575H6.47708C5.81272 3.575 5.31445 3.0875 5.31445 2.4375V1.1375C5.31445 0.4875 5.81272 0 6.47708 0H9.4667C10.1311 0 10.6293 0.4875 10.6293 1.1375V2.4375C10.6293 3.0875 10.1311 3.575 9.4667 3.575ZM6.47708 0.975C6.36636 0.975 6.31099 1.02917 6.31099 1.1375V2.4375C6.31099 2.54583 6.36636 2.6 6.47708 2.6H9.4667C9.57743 2.6 9.63279 2.54583 9.63279 2.4375V1.1375C9.63279 1.02917 9.57743 0.975 9.4667 0.975H6.47708Z" fill="#5B73E8"/>
<path d="M4.98317 7.79999C4.04199 7.79999 3.32227 7.09582 3.32227 6.17499C3.32227 5.25415 4.04199 4.54999 4.98317 4.54999C5.92434 4.54999 6.64406 5.25415 6.64406 6.17499C6.64406 7.09582 5.92434 7.79999 4.98317 7.79999ZM4.98317 5.52499C4.59562 5.52499 4.31881 5.79582 4.31881 6.17499C4.31881 6.55415 4.59562 6.82499 4.98317 6.82499C5.37071 6.82499 5.64753 6.55415 5.64753 6.17499C5.64753 5.84999 5.37071 5.52499 4.98317 5.52499Z" fill="#5B73E8"/>
<path d="M7.47511 11.05C7.19829 11.05 6.97684 10.8333 6.97684 10.5625V10.2375C6.97684 9.80418 6.5893 9.42501 6.14639 9.42501H3.82113C3.37822 9.42501 2.99068 9.80418 2.99068 10.2375V10.5625C2.99068 10.8333 2.76923 11.05 2.49241 11.05C2.21559 11.05 1.99414 10.8333 1.99414 10.5625V10.2375C1.99414 9.26251 2.82459 8.45001 3.82113 8.45001H6.14639C7.14293 8.45001 7.97338 9.26251 7.97338 10.2375V10.5625C7.97338 10.8333 7.75193 11.05 7.47511 11.05Z" fill="#5B73E8"/>
<path d="M13.453 5.85H9.79905C9.52224 5.85 9.30078 5.63333 9.30078 5.3625C9.30078 5.09167 9.52224 4.875 9.79905 4.875H13.453C13.7298 4.875 13.9513 5.09167 13.9513 5.3625C13.9513 5.63333 13.7298 5.85 13.453 5.85Z" fill="#5B73E8"/>
<path d="M13.453 8.44998H9.79905C9.52224 8.44998 9.30078 8.23331 9.30078 7.96248C9.30078 7.69164 9.52224 7.47498 9.79905 7.47498H13.453C13.7298 7.47498 13.9513 7.69164 13.9513 7.96248C13.9513 8.23331 13.7298 8.44998 13.453 8.44998Z" fill="#5B73E8"/>
<path d="M13.453 11.05H9.79905C9.52224 11.05 9.30078 10.8333 9.30078 10.5625C9.30078 10.2917 9.52224 10.075 9.79905 10.075H13.453C13.7298 10.075 13.9513 10.2917 13.9513 10.5625C13.9513 10.8333 13.7298 11.05 13.453 11.05Z" fill="#5B73E8"/>
</svg>
