<svg width="6" height="4" viewBox="0 0 6 4" fill="none" xmlns="http://www.w3.org/2000/svg">
<path d="M4.4667 3.575H1.47708C0.812723 3.575 0.314453 3.0875 0.314453 2.4375V1.1375C0.314453 0.4875 0.812723 0 1.47708 0H4.4667C5.13106 0 5.62933 0.4875 5.62933 1.1375V2.4375C5.62933 3.0875 5.13106 3.575 4.4667 3.575ZM1.47708 0.975C1.36636 0.975 1.31099 1.02917 1.31099 1.1375V2.4375C1.31099 2.54583 1.36636 2.6 1.47708 2.6H4.4667C4.57743 2.6 4.63279 2.54583 4.63279 2.4375V1.1375C4.63279 1.02917 4.57743 0.975 4.4667 0.975H1.47708Z" fill="#5B73E8"/>
</svg>
