<svg width="13" height="18" viewBox="0 0 13 18" fill="none" xmlns="http://www.w3.org/2000/svg">
<path d="M6.09922 12.3C7.69922 12.3 8.99922 11 8.99922 9.4V2.9C8.99922 1.3 7.69922 0 6.09922 0C4.49922 0 3.19922 1.3 3.19922 2.9V9.4C3.19922 11.1 4.49922 12.3 6.09922 12.3ZM4.49922 3C4.49922 2.2 5.19922 1.5 5.99922 1.5C6.79922 1.5 7.49922 2.2 7.49922 3V9.5C7.49922 10.3 6.79922 11 5.99922 11C5.19922 11 4.49922 10.3 4.49922 9.5V3Z" fill="#616469"/>
<path d="M12.1 8.9H10.7C10.7 11.5 8.6 13.6 6 13.6C3.4 13.6 1.3 11.5 1.3 8.9H0C0 12 2.3 14.5 5.3 14.9V17.9H6.7V14.9C9.7 14.5 12.1 12 12.1 8.9Z" fill="#616469"/>
</svg>
