<svg width="40" height="39" viewBox="0 0 40 39" fill="none" xmlns="http://www.w3.org/2000/svg">
<path d="M1.53194 10.588C0.685799 10.588 0 11.2738 0 12.12V26.8804C0 27.7265 0.685799 28.4123 1.53194 28.4123C2.37808 28.4123 3.06388 27.7265 3.06388 26.8804V12.12C3.06388 11.2738 2.37808 10.588 1.53194 10.588Z" fill="#0AD406"/>
<path d="M8.84835 6.16113C8.00221 6.16113 7.31641 6.84693 7.31641 7.69307V31.3071C7.31641 32.1532 8.00221 32.839 8.84835 32.839C9.69449 32.839 10.3803 32.1532 10.3803 31.3071V7.69307C10.3803 6.84693 9.69449 6.16113 8.84835 6.16113Z" fill="#0AD406"/>
<path d="M16.1648 0C15.3186 0 14.6328 0.685799 14.6328 1.53194V37.4681C14.6328 38.3142 15.3186 39 16.1648 39C17.0109 39 17.6967 38.3142 17.6967 37.4681V1.53194C17.6967 0.685969 17.0109 0 16.1648 0Z" fill="#0AD406"/>
<path d="M23.4812 8.9303C22.635 8.9303 21.9492 9.6161 21.9492 10.4622V28.538C21.9492 29.3841 22.635 30.0699 23.4812 30.0699C24.3273 30.0699 25.0131 29.3841 25.0131 28.538V10.4622C25.0131 9.6161 24.3273 8.9303 23.4812 8.9303Z" fill="#0AD406"/>
<path d="M30.7956 10.588C29.9495 10.588 29.2637 11.2738 29.2637 12.12V26.8804C29.2637 27.7265 29.9495 28.4123 30.7956 28.4123C31.6418 28.4123 32.3276 27.7265 32.3276 26.8804V12.12C32.3276 11.2738 31.6416 10.588 30.7956 10.588Z" fill="#0AD406"/>
<path d="M38.114 15.4935C37.2678 15.4935 36.582 16.1793 36.582 17.0255V21.9748C36.582 22.821 37.2678 23.5068 38.114 23.5068C38.9601 23.5068 39.6459 22.821 39.6459 21.9748V17.0255C39.6459 16.1793 38.9601 15.4935 38.114 15.4935Z" fill="#0AD406"/>
</svg>
