<svg width="13" height="18" viewBox="0 0 13 18" fill="none" xmlns="http://www.w3.org/2000/svg">
<path d="M6.10019 12.3C7.70019 12.3 9.00019 11 9.00019 9.4V2.9C9.00019 1.3 7.70019 0 6.10019 0C4.50019 0 3.2002 1.3 3.2002 2.9V9.4C3.2002 11.1 4.50019 12.3 6.10019 12.3ZM4.50019 3C4.50019 2.2 5.20019 1.5 6.00019 1.5C6.80019 1.5 7.50019 2.2 7.50019 3V9.5C7.50019 10.3 6.80019 11 6.00019 11C5.20019 11 4.50019 10.3 4.50019 9.5V3Z" fill="#616469"/>
<path d="M12.1 8.9H10.7C10.7 11.5 8.6 13.6 6 13.6C3.4 13.6 1.3 11.5 1.3 8.9H0C0 12 2.3 14.5 5.3 14.9V17.9H6.7V14.9C9.7 14.5 12.1 12 12.1 8.9Z" fill="#616469"/>
</svg>
