<svg width="29" height="28" viewBox="0 0 29 28" fill="none" xmlns="http://www.w3.org/2000/svg">
<circle cx="14.4062" cy="14" r="14" fill="#5B73E8"/>
<path d="M11.8384 18.7H14.3973C14.3973 19.415 13.8215 20 13.1178 20C12.4141 20 11.8384 19.415 11.8384 18.7ZM14.3973 11.55C14.3973 13.24 15.4848 14.67 16.9562 15.255V16.75H18.2356V18.05H8V16.75H9.27946V12.2C9.27946 10.38 10.4949 8.885 12.1582 8.43V7.975C12.1582 7.455 12.606 7 13.1178 7C13.6296 7 14.0774 7.455 14.0774 7.975V8.43C14.5252 8.56 14.973 8.755 15.2929 9.015C14.7171 9.665 14.3973 10.575 14.3973 11.55ZM20.7946 10.9H18.8754V8.95H17.5959V10.9H15.6767V12.2H17.5959V14.15H18.8754V12.2H20.7946V10.9Z" fill="white"/>
</svg>
