<svg width="41" height="29" viewBox="0 0 41 29" fill="none" xmlns="http://www.w3.org/2000/svg">
<path d="M40.1673 15.2533C40.1604 15.2408 40.1573 15.2266 40.1505 15.2141C40.1487 15.2104 40.1431 15.2005 40.1393 15.1949C39.8941 14.6627 39.6028 14.1573 39.2663 13.6847C37.8604 11.2654 35.1474 6.66218 33.8272 4.84585C32.2003 2.6085 30.3045 0.538818 27.4722 0.538818C26.8475 0.538818 26.1937 0.645004 25.5298 0.853649C23.5042 1.49262 21.5333 2.52095 20.9372 5.0191H20.0635C19.4673 2.52095 17.4964 1.49262 15.4702 0.853649C14.807 0.645004 14.1531 0.538818 13.5284 0.538818C10.6955 0.538818 8.80035 2.6085 7.1728 4.84647C5.85262 6.6628 3.14023 11.266 1.73374 13.6847C1.39718 14.1579 1.10594 14.6627 0.860661 15.1949C0.857556 15.2005 0.851967 15.2104 0.849484 15.2141C0.842653 15.2266 0.839548 15.2402 0.832717 15.2533C0.302411 16.4269 0 17.7247 0 19.0946C0 24.2592 4.20209 28.4612 9.36667 28.4612C12.3889 28.4612 15.074 27.0163 16.7872 24.787H24.2128C25.9266 27.0163 28.6111 28.4612 31.6333 28.4612C36.7979 28.4612 41 24.2592 41 19.0946C41 17.7247 40.6976 16.4269 40.1673 15.2533ZM9.36667 25.3564C5.91347 25.3564 3.10484 22.5471 3.10484 19.0946C3.10484 15.642 5.91347 12.8334 9.36667 12.8334C12.8193 12.8334 15.6279 15.642 15.6279 19.0946C15.6279 22.5471 12.8193 25.3564 9.36667 25.3564ZM31.6333 25.3564C28.1807 25.3564 25.3721 22.5478 25.3721 19.0946C25.3721 15.642 28.1807 12.8334 31.6333 12.8334C35.0865 12.8334 37.8952 15.642 37.8952 19.0946C37.8952 22.5471 35.0865 25.3564 31.6333 25.3564Z" fill="white"/>
</svg>
