<svg width="15" height="11" viewBox="0 0 15 11" fill="none" xmlns="http://www.w3.org/2000/svg">
<path d="M14.6953 5.77555C14.6928 5.77101 14.6917 5.76578 14.6892 5.76124C14.6885 5.75988 14.6865 5.75624 14.6851 5.7542C14.5954 5.5595 14.4888 5.37458 14.3657 5.20169C13.8514 4.31658 12.8588 2.63247 12.3758 1.96796C11.7806 1.14942 11.087 0.39222 10.0508 0.39222C9.82227 0.39222 9.58304 0.431068 9.34018 0.507401C8.59911 0.741173 7.87803 1.11739 7.65994 2.03135H7.34029C7.12219 1.11739 6.40111 0.741173 5.65982 0.507401C5.41718 0.431068 5.17796 0.39222 4.94941 0.39222C3.913 0.39222 3.21964 1.14942 2.62419 1.96819C2.1412 2.6327 1.14887 4.31681 0.634296 5.20169C0.511162 5.3748 0.404613 5.5595 0.314876 5.7542C0.31374 5.75624 0.311695 5.75988 0.310787 5.76124C0.308288 5.76578 0.307152 5.77078 0.304653 5.77555C0.110638 6.20493 0 6.67974 0 7.18091C0 9.07039 1.53735 10.6077 3.42683 10.6077C4.53253 10.6077 5.51487 10.0791 6.14167 9.2635H8.85833C9.48535 10.0791 10.4675 10.6077 11.5732 10.6077C13.4627 10.6077 15 9.07039 15 7.18091C15 6.67974 14.8894 6.20493 14.6953 5.77555ZM3.42683 9.47183C2.16347 9.47183 1.13592 8.44405 1.13592 7.18091C1.13592 5.91777 2.16347 4.89022 3.42683 4.89022C4.68997 4.89022 5.71752 5.91777 5.71752 7.18091C5.71752 8.44405 4.68997 9.47183 3.42683 9.47183ZM11.5732 9.47183C10.31 9.47183 9.28248 8.44428 9.28248 7.18091C9.28248 5.91777 10.31 4.89022 11.5732 4.89022C12.8365 4.89022 13.8641 5.91777 13.8641 7.18091C13.8641 8.44405 12.8365 9.47183 11.5732 9.47183Z" fill="white"/>
</svg>
