<svg width="16" height="20" viewBox="0 0 16 20" fill="none" xmlns="http://www.w3.org/2000/svg">
<path d="M15.4498 4.52921L13.9683 3.06141V0.88068C13.9683 0.377434 13.545 0 13.0794 0H0.88889C0.380953 0 0 0.377434 0 0.88068V15.349C0 15.8103 0.380953 16.2297 0.88889 16.2297H1.39683V16.691C1.39683 17.1523 1.77778 17.5717 2.28572 17.5717H4.19048C4.35979 17.5717 4.48678 17.4459 4.48678 17.2781C4.48678 17.1104 4.35979 16.9846 4.19048 16.9846H2.24339C2.07408 16.9846 1.94709 16.8587 1.94709 16.691V5.11633C1.94709 4.94859 1.82011 4.82277 1.6508 4.82277C1.48148 4.82277 1.3545 4.94859 1.3545 5.11633V15.6426H0.88889C0.719577 15.6426 0.592593 15.5167 0.592593 15.349V0.88068C0.592593 0.712932 0.719577 0.58712 0.88889 0.58712H13.0794C13.2487 0.58712 13.3757 0.712932 13.3757 0.88068V2.51623L12.2751 1.42586C12.2328 1.38393 12.1482 1.34199 12.0635 1.34199H2.24339C1.77778 1.34199 1.3545 1.71942 1.3545 2.22267V3.77434C1.3545 3.94209 1.48148 4.0679 1.6508 4.0679C1.82011 4.0679 1.94709 3.94209 1.94709 3.77434V2.22267C1.94709 2.05492 2.07408 1.92911 2.24339 1.92911H11.8095V4.7389C11.8095 4.90665 11.9365 5.03246 12.1058 5.03246H14.9418V16.691C14.9418 16.8587 14.8148 16.9846 14.6455 16.9846H12.7831C12.6138 16.9846 12.4868 17.1104 12.4868 17.2781C12.4868 17.4459 12.6138 17.5717 12.7831 17.5717H14.6455C15.1111 17.5717 15.5344 17.1942 15.5344 16.691V4.7389C15.5344 4.65503 15.4921 4.61309 15.4498 4.52921ZM12.3598 4.44534V2.34848L14.5185 4.48728L12.3598 4.44534Z" fill="#5B73E8"/>
<path d="M11.9367 6.75171H4.95255C4.78323 6.75171 4.65625 6.87753 4.65625 7.0453C4.65625 7.21307 4.78323 7.3389 4.95255 7.3389H11.8943C12.0637 7.3389 12.1906 7.21307 12.1906 7.0453C12.1906 6.87753 12.106 6.75171 11.9367 6.75171Z" fill="#5B73E8"/>
<path d="M11.9367 8.42932H4.95255C4.78323 8.42932 4.65625 8.55512 4.65625 8.72285C4.65625 8.89058 4.78323 9.01638 4.95255 9.01638H11.8943C12.0637 9.01638 12.1906 8.89058 12.1906 8.72285C12.1906 8.55512 12.106 8.42932 11.9367 8.42932Z" fill="#5B73E8"/>
<path d="M11.9369 10.1907H10.5824C10.4131 10.1907 10.2861 10.3165 10.2861 10.4842C10.2861 10.652 10.4131 10.7778 10.5824 10.7778H11.9369C12.1062 10.7778 12.2332 10.652 12.2332 10.4842C12.2332 10.3165 12.1062 10.1907 11.9369 10.1907Z" fill="#5B73E8"/>
<path d="M9.18536 10.7359C9.35467 10.7359 9.48165 10.6101 9.48165 10.4424C9.48165 10.2746 9.35467 10.1488 9.18536 10.1488H4.95255C4.78323 10.1488 4.65625 10.2746 4.65625 10.4424C4.65625 10.6101 4.78323 10.7359 4.95255 10.7359H9.18536Z" fill="#5B73E8"/>
<path d="M9.52359 16.3135L8.76169 17.0684V14.3005C8.76169 14.1328 8.6347 14.007 8.46539 14.007C8.29608 14.007 8.1691 14.1328 8.1691 14.3005V17.0684L7.40719 16.3135C7.28021 16.1877 7.11089 16.1877 6.98391 16.3135C6.85693 16.4393 6.85693 16.6071 6.98391 16.7329L8.25375 17.991C8.29608 18.033 8.38074 18.0749 8.46539 18.0749C8.55005 18.0749 8.6347 18.033 8.67703 17.991L9.94687 16.7329C10.0739 16.6071 10.0739 16.4393 9.94687 16.3135C9.81989 16.2297 9.60825 16.2297 9.52359 16.3135Z" fill="#5B73E8"/>
<path d="M8.46542 12.4135C6.43367 12.4135 4.8252 14.049 4.8252 16.0201C4.8252 18.033 6.47599 19.6267 8.46542 19.6267C10.4548 19.6267 12.1056 17.9911 12.1056 16.0201C12.1056 14.049 10.4548 12.4135 8.46542 12.4135ZM8.46542 19.0815C6.77229 19.0815 5.37546 17.6975 5.37546 16.0201C5.37546 14.3426 6.77229 13.0006 8.46542 13.0006C10.1585 13.0006 11.5554 14.3845 11.5554 16.062C11.5554 17.7395 10.1585 19.0815 8.46542 19.0815Z" fill="#5B73E8"/>
</svg>
