<svg width="15" height="16" viewBox="0 0 15 16" fill="none" xmlns="http://www.w3.org/2000/svg">
<path d="M7.65741 15.3363C7.537 15.3363 7.41964 15.2887 7.33345 15.2019C7.22771 15.0961 7.18003 14.9451 7.20632 14.7984L7.53027 12.9617C7.54678 12.8688 7.5914 12.7832 7.65741 12.7172L12.1959 8.17874C12.389 7.98558 12.5938 7.86456 12.8046 7.82116C13.0956 7.76004 13.3786 7.84867 13.6005 8.07055L14.3566 8.82665C14.7734 9.24412 14.7734 9.92199 14.3566 10.3395L9.81875 14.8779C9.75212 14.9439 9.66655 14.9892 9.57425 15.005L7.73748 15.329C7.71059 15.3339 7.6843 15.3363 7.65741 15.3363ZM9.49479 14.5539H9.50091H9.49479ZM8.40801 13.263L8.22281 14.3125L9.2723 14.1273L13.7081 9.69094C13.7673 9.63104 13.7673 9.53446 13.7081 9.47456L12.9575 8.72396C12.9513 8.73557 12.9055 8.7643 12.8438 8.82604L8.40801 13.263Z" fill="white"/>
<path d="M6.11849 13.5026H1.6809C0.753657 13.5026 0 12.749 0 11.8217V3.57C0 2.64276 0.753657 1.8891 1.6809 1.8891H8.71014C9.63739 1.8891 10.391 2.64276 10.391 3.57V8.49658C10.391 8.74964 10.1857 8.95501 9.93262 8.95501C9.67957 8.95501 9.47419 8.74964 9.47419 8.49658V3.57C9.47419 3.14886 9.13129 2.80596 8.71014 2.80596H1.6809C1.25976 2.80596 0.916857 3.14886 0.916857 3.57V11.8217C0.916857 12.2429 1.25976 12.5858 1.6809 12.5858H6.11849C6.37155 12.5858 6.57692 12.7911 6.57692 13.0442C6.57692 13.2972 6.37155 13.5026 6.11849 13.5026Z" fill="white"/>
<path d="M2.29046 3.72288C2.03741 3.72288 1.83203 3.5175 1.83203 3.26445V1.12512C1.83203 0.872063 2.03741 0.666687 2.29046 0.666687C2.54351 0.666687 2.74889 0.872063 2.74889 1.12512V3.26445C2.74889 3.5175 2.54351 3.72288 2.29046 3.72288Z" fill="white"/>
<path d="M5.19671 3.72288C4.94366 3.72288 4.73828 3.5175 4.73828 3.26445V1.12512C4.73828 0.872063 4.94366 0.666687 5.19671 0.666687C5.44976 0.666687 5.65514 0.872063 5.65514 1.12512V3.26445C5.65514 3.5175 5.44976 3.72288 5.19671 3.72288Z" fill="white"/>
<path d="M8.09905 3.72288C7.846 3.72288 7.64062 3.5175 7.64062 3.26445V1.12512C7.64062 0.872063 7.846 0.666687 8.09905 0.666687C8.35211 0.666687 8.55748 0.872063 8.55748 1.12512V3.26445C8.55748 3.5175 8.35211 3.72288 8.09905 3.72288Z" fill="white"/>
<path d="M6.87475 8.91838H2.29046C2.03741 8.91838 1.83203 8.71301 1.83203 8.45995C1.83203 8.2069 2.03741 8.00153 2.29046 8.00153H6.87475C7.1278 8.00153 7.33318 8.2069 7.33318 8.45995C7.33318 8.71301 7.1278 8.91838 6.87475 8.91838Z" fill="white"/>
<path d="M5.04103 6.47344H2.29046C2.03741 6.47344 1.83203 6.26806 1.83203 6.01501C1.83203 5.76196 2.03741 5.55658 2.29046 5.55658H5.04103C5.29408 5.55658 5.49946 5.76196 5.49946 6.01501C5.49946 6.26806 5.29408 6.47344 5.04103 6.47344Z" fill="white"/>
</svg>
