<svg width="17" height="20" viewBox="0 0 17 20" fill="none" xmlns="http://www.w3.org/2000/svg">
<path d="M16.6624 0.661108C16.4905 0.414194 16.259 0.233626 15.9685 0.119082C15.7834 0.0398637 15.5895 0.000185197 15.3867 0.000185197V0H1.5333C1.33064 0 1.13688 0.0396785 0.951776 0.118897C0.661016 0.233348 0.429612 0.414147 0.257795 0.660923C0.0860241 0.907698 0 1.18077 0 1.48047V18.5195C0 18.8193 0.0860241 19.0923 0.257795 19.3393C0.429612 19.586 0.661016 19.7667 0.951776 19.8812C1.1367 19.9604 1.33064 20 1.5333 20C1.94763 20 2.31316 19.8545 2.6305 19.5639L8.46005 13.9588L14.2896 19.564C14.5981 19.8456 14.9638 19.9866 15.3867 19.9866C15.607 19.9866 15.801 19.9516 15.9684 19.8811C16.259 19.7667 16.4905 19.5859 16.6624 19.3389C16.8342 19.0922 16.92 18.8192 16.92 18.5194V1.48065C16.9201 1.18096 16.834 0.907883 16.6624 0.661108ZM15.2281 18.1095L9.63656 12.7427L8.46005 11.6193L7.28363 12.7427L1.69215 18.1095V1.69219H15.2281V18.1095Z" fill="#2E3A59"/>
</svg>
