<svg width="15" height="20" viewBox="0 0 15 20" fill="none" xmlns="http://www.w3.org/2000/svg">
<path d="M12.6623 1.5625H9.72367C9.40194 0.653076 8.53536 0 7.51948 0C6.5036 0 5.63702 0.653076 5.31529 1.5625H2.33766C1.0486 1.5625 0 2.61383 0 3.90625V17.6562C0 18.9487 1.0486 20 2.33766 20H12.6648C13.9525 19.9986 15 18.9473 15 17.6562V3.90625C15 2.61383 13.9514 1.5625 12.6623 1.5625ZM6.74026 3.125V2.34375C6.74026 1.91299 7.08984 1.5625 7.51948 1.5625C7.94912 1.5625 8.2987 1.91299 8.2987 2.34375V3.125H9.85714V4.64844H5.18182V3.125H6.74026ZM13.4416 17.6562C13.4416 18.0865 13.0923 18.437 12.664 18.4375H2.33766C1.90803 18.4375 1.55844 18.087 1.55844 17.6562V3.90625C1.55844 3.47549 1.90803 3.125 2.33766 3.125H3.62338V6.21094H11.4156V3.125H12.6623C13.092 3.125 13.4416 3.47549 13.4416 3.90625V17.6562ZM10.4886 8.9859L11.6411 10.0375L6.65062 15.5356L3.3543 12.3389L4.43791 11.2158L6.57939 13.2925L10.4886 8.9859Z" fill="#0AD406"/>
</svg>
