<svg width="28" height="28" viewBox="0 0 28 28" fill="none" xmlns="http://www.w3.org/2000/svg">
<g clip-path="url(#clip0)">
<path d="M25.6398 2.78927H23.2797V1.82375C23.2797 0.858238 22.5287 0 21.4559 0C20.3831 0 19.6322 0.858238 19.6322 1.82375V2.78927H15.8774V1.82375C15.8774 0.858238 15.0192 0 13.9464 0C12.8736 0 12.1226 0.858238 12.1226 1.82375V2.78927H8.36782V1.82375C8.36782 0.750958 7.50958 0 6.54406 0C5.57854 0 4.61303 0.858238 4.61303 1.82375V2.78927H2.36015C1.0728 2.78927 0 3.86207 0 5.14943V23.8161C0 25.1034 1.0728 26.1762 2.36015 26.1762H15.4483C15.6628 26.1762 15.8774 25.9617 15.8774 25.7471C15.8774 25.5326 15.6628 25.318 15.4483 25.318H2.36015C1.6092 25.318 0.965517 24.6743 0.965517 23.9234V9.33333H27.1418V17.272C27.1418 17.4866 27.3563 17.7011 27.5709 17.7011C27.7854 17.7011 28 17.4866 28 17.272V5.14943C28 3.86207 26.9272 2.78927 25.6398 2.78927ZM20.4904 1.82375C20.4904 1.28736 20.9195 0.858238 21.4559 0.858238C21.9923 0.858238 22.4215 1.28736 22.4215 1.82375V4.61303C22.4215 5.14943 21.9923 5.57854 21.4559 5.57854C20.9195 5.57854 20.4904 5.14943 20.4904 4.61303V1.82375ZM13.0881 1.82375C13.0881 1.28736 13.5172 0.858238 14.0536 0.858238C14.59 0.858238 15.0192 1.28736 15.0192 1.82375V4.61303C15.0192 5.14943 14.59 5.57854 14.0536 5.57854C13.5172 5.57854 13.0881 5.14943 13.0881 4.61303V1.82375ZM5.57854 1.82375C5.57854 1.28736 6.00766 0.858238 6.54406 0.858238C7.08046 0.858238 7.50958 1.39464 7.50958 1.82375V4.61303C7.50958 5.14943 7.08046 5.57854 6.54406 5.57854C6.00766 5.57854 5.57854 5.14943 5.57854 4.61303V1.82375ZM27.0345 8.36782H0.965517V5.14943C0.965517 4.39847 1.6092 3.75479 2.36015 3.75479H4.72031V4.72031C4.72031 5.7931 5.57854 6.54406 6.54406 6.54406C7.50958 6.54406 8.36782 5.68582 8.36782 4.72031V3.75479H12.1226V4.72031C12.1226 5.7931 12.9808 6.54406 13.9464 6.54406C14.9119 6.54406 15.7701 5.68582 15.7701 4.72031V3.75479H19.5249V4.72031C19.5249 5.7931 20.3831 6.54406 21.3487 6.54406C22.4215 6.54406 23.1724 5.68582 23.1724 4.72031V3.75479H25.5326C26.2835 3.75479 26.9272 4.39847 26.9272 5.14943V8.36782H27.0345Z" fill="#666A73"/>
<path d="M13.0888 12.5517C13.0888 12.0153 12.6597 11.5862 12.1233 11.5862H10.2995C9.7631 11.5862 9.33398 12.0153 9.33398 12.5517V13.9464C9.33398 14.4828 9.7631 14.9119 10.2995 14.9119H12.1233C12.6597 14.9119 13.0888 14.4828 13.0888 13.9464V12.5517ZM10.2995 13.9464V12.5517H12.1233V13.9464H10.2995Z" fill="#666A73"/>
<path d="M7.51051 12.5517C7.51051 12.0153 7.08139 11.5862 6.54499 11.5862H4.61395C4.07756 11.5862 3.64844 12.0153 3.64844 12.5517V13.9464C3.64844 14.4828 4.07756 14.9119 4.61395 14.9119H6.43771C7.08139 14.9119 7.51051 14.4828 7.51051 13.9464V12.5517ZM4.61395 13.9464V12.5517H6.43771V13.9464H4.61395Z" fill="#666A73"/>
<path d="M23.2795 14.9119C23.8159 14.9119 24.245 14.4828 24.245 13.9464V12.5517C24.245 12.0153 23.8159 11.5862 23.2795 11.5862H21.4558C20.9194 11.5862 20.4902 12.0153 20.4902 12.5517V13.9464C20.4902 14.4828 20.9194 14.9119 21.4558 14.9119H23.2795ZM21.4558 12.5517H23.2795V13.9464H21.4558V12.5517Z" fill="#666A73"/>
<path d="M13.0888 16.8429C13.0888 16.3065 12.6597 15.8774 12.1233 15.8774H10.2995C9.7631 15.8774 9.33398 16.3065 9.33398 16.8429V18.2375C9.33398 18.7739 9.7631 19.203 10.2995 19.203H12.1233C12.6597 19.203 13.0888 18.7739 13.0888 18.2375V16.8429ZM10.2995 18.2375V16.8429H12.1233V18.2375H10.2995Z" fill="#666A73"/>
<path d="M7.51051 16.8429C7.51051 16.3065 7.08139 15.8774 6.54499 15.8774H4.61395C4.07756 15.8774 3.64844 16.3065 3.64844 16.8429V18.2375C3.64844 18.7739 4.07756 19.203 4.61395 19.203H6.43771C7.08139 19.0958 7.51051 18.6667 7.51051 18.2375V16.8429ZM4.61395 18.2375V16.8429H6.43771V18.2375H4.61395Z" fill="#666A73"/>
<path d="M12.1233 20.0613H10.2995C9.7631 20.0613 9.33398 20.4904 9.33398 21.0268V22.4215C9.33398 22.9579 9.7631 23.387 10.2995 23.387H12.1233C12.6597 23.387 13.0888 22.9579 13.0888 22.4215V21.0268C13.0888 20.4904 12.6597 20.0613 12.1233 20.0613ZM10.2995 22.4215V21.0268H12.1233V22.4215H10.2995Z" fill="#666A73"/>
<path d="M15.8776 14.9119H17.7014C18.2378 14.9119 18.6669 14.4828 18.6669 13.9464V12.5517C18.6669 12.0153 18.2378 11.5862 17.7014 11.5862H15.8776C15.3412 11.5862 14.9121 12.0153 14.9121 12.5517V13.9464C14.9121 14.4828 15.3412 14.9119 15.8776 14.9119ZM15.8776 12.5517H17.7014V13.9464H15.8776V12.5517Z" fill="#666A73"/>
<path d="M14.9121 18.2376C14.9121 18.774 15.3412 19.2031 15.8776 19.2031C16.0922 19.2031 16.3067 18.9885 16.3067 18.774C16.3067 18.5594 16.0922 18.2376 15.8776 18.2376V16.8429H17.7014C17.9159 16.8429 18.1305 16.6284 18.1305 16.4138C18.1305 16.1992 17.9159 15.9847 17.7014 15.9847H15.8776C15.3412 15.9847 14.9121 16.4138 14.9121 16.9502V18.2376Z" fill="#666A73"/>
<path d="M6.54499 20.0613H4.61395C4.07756 20.0613 3.64844 20.4904 3.64844 21.0268V22.4215C3.64844 22.9579 4.07756 23.387 4.61395 23.387H6.43771C6.97411 23.387 7.40323 22.9579 7.40323 22.4215V21.0268C7.51051 20.4904 7.08139 20.0613 6.54499 20.0613ZM4.61395 22.4215V21.0268H6.43771V22.4215H4.61395Z" fill="#666A73"/>
<path d="M21.8845 15.8774C18.5588 15.8774 15.7695 18.5594 15.7695 21.9923C15.7695 25.4253 18.4515 28.1073 21.8845 28.1073C25.3174 28.1073 27.9994 25.4253 27.9994 21.9923C27.9994 18.5594 25.3174 15.8774 21.8845 15.8774ZM21.8845 27.0345C19.0952 27.0345 16.735 24.7816 16.735 21.885C16.735 18.9885 18.9879 16.7356 21.8845 16.7356C24.781 16.7356 27.0339 18.9885 27.0339 21.885C27.0339 24.7816 24.781 27.0345 21.8845 27.0345Z" fill="#666A73"/>
<path d="M24.6744 19.954L21.0269 23.6015L19.3105 21.9923C19.0959 21.7778 18.8813 21.7778 18.6668 21.9923C18.4522 22.2069 18.4522 22.4215 18.6668 22.636L20.5978 24.5671C20.8124 24.7816 21.0269 24.7816 21.2415 24.5671L25.2108 20.5977C25.4254 20.3831 25.4254 20.1686 25.2108 19.954C25.1036 19.8467 24.7817 19.8467 24.6744 19.954Z" fill="#666A73"/>
</g>
<defs>
<clipPath id="clip0">
<rect width="28" height="28" fill="white"/>
</clipPath>
</defs>
</svg>
