<svg width="29" height="29" viewBox="0 0 29 29" fill="none" xmlns="http://www.w3.org/2000/svg">
<g clip-path="url(#clip0)">
<path d="M26.6283 2.91078H24.2565V1.94052C24.2565 0.862454 23.3941 0 22.316 0C21.2379 0 20.3755 0.862454 20.3755 1.94052V2.91078H16.4944V1.94052C16.4944 0.862454 15.632 0 14.5539 0C13.4758 0 12.6134 0.862454 12.6134 1.94052V2.91078H8.73234V1.94052C8.73234 0.862454 7.86989 0 6.79182 0C5.71376 0 4.8513 0.862454 4.8513 1.94052V2.91078H2.37175C1.07807 2.91078 0 3.98885 0 5.28253V24.6877C0 25.9814 1.07807 27.0595 2.37175 27.0595H15.9554C16.171 27.0595 16.3866 26.8439 16.3866 26.6283C16.3866 26.4126 16.171 26.197 15.9554 26.197H2.37175C1.6171 26.197 0.97026 25.5502 0.97026 24.7955V9.7026H28.0297V17.8959C28.0297 18.1115 28.2454 18.3271 28.461 18.3271C28.6766 18.3271 28.8922 18.1115 28.8922 17.8959V5.28253C29 3.98885 27.9219 2.91078 26.6283 2.91078ZM21.3457 1.94052C21.3457 1.40149 21.777 0.97026 22.316 0.97026C22.855 0.97026 23.2862 1.40149 23.2862 1.94052V4.8513C23.2862 5.39033 22.855 5.82156 22.316 5.82156C21.777 5.82156 21.3457 5.39033 21.3457 4.8513V1.94052ZM13.5836 1.94052C13.5836 1.40149 14.0149 0.97026 14.5539 0.97026C15.0929 0.97026 15.5242 1.40149 15.5242 1.94052V4.8513C15.5242 5.39033 15.0929 5.82156 14.5539 5.82156C14.0149 5.82156 13.5836 5.39033 13.5836 4.8513V1.94052ZM5.82156 1.94052C5.82156 1.40149 6.25279 0.97026 6.79182 0.97026C7.33086 0.97026 7.76208 1.40149 7.76208 1.94052V4.8513C7.76208 5.39033 7.33086 5.82156 6.79182 5.82156C6.25279 5.82156 5.82156 5.39033 5.82156 4.8513V1.94052ZM28.0297 8.73234H0.97026V5.28253C0.97026 4.52788 1.6171 3.88104 2.37175 3.88104H4.74349V4.8513C4.74349 5.92937 5.60595 6.79182 6.68401 6.79182C7.76208 6.79182 8.62454 5.92937 8.62454 4.8513V3.88104H12.5056V4.8513C12.5056 5.92937 13.368 6.79182 14.4461 6.79182C15.5242 6.79182 16.3866 5.92937 16.3866 4.8513V3.88104H20.2677V4.8513C20.2677 5.92937 21.1301 6.79182 22.2082 6.79182C23.2862 6.79182 24.1487 5.92937 24.1487 4.8513V3.88104H26.5204C27.2751 3.88104 27.9219 4.52788 27.9219 5.28253V8.73234H28.0297Z" fill="#626365"/>
<path d="M13.5842 13.0446C13.5842 12.5056 13.1529 12.0743 12.6139 12.0743H10.6734C10.1344 12.0743 9.70312 12.5056 9.70312 13.0446V14.4461C9.70312 14.9851 10.1344 15.4163 10.6734 15.4163H12.6139C13.1529 15.4163 13.5842 14.9851 13.5842 14.4461V13.0446ZM10.6734 14.5539V13.1524H12.6139V14.5539H10.6734Z" fill="#626365"/>
<path d="M7.75995 13.0446C7.75995 12.5056 7.32872 12.0743 6.78969 12.0743H4.84917C4.31013 12.0743 3.87891 12.5056 3.87891 13.0446V14.4461C3.87891 14.9851 4.31013 15.4163 4.84917 15.4163H6.78969C7.32872 15.4163 7.75995 14.9851 7.75995 14.4461V13.0446ZM4.84917 14.5539V13.1524H6.78969V14.5539H4.84917Z" fill="#626365"/>
<path d="M24.2584 15.5242C24.7975 15.5242 25.2287 15.0929 25.2287 14.5539V13.1524C25.2287 12.6134 24.7975 12.1822 24.2584 12.1822H22.3179C21.7789 12.1822 21.3477 12.6134 21.3477 13.1524V14.5539C21.3477 15.0929 21.7789 15.5242 22.3179 15.5242H24.2584ZM22.3179 13.0446H24.2584V14.4461H22.3179V13.0446Z" fill="#626365"/>
<path d="M13.5842 17.4647C13.5842 16.9257 13.1529 16.4944 12.6139 16.4944H10.6734C10.1344 16.4944 9.70312 16.9257 9.70312 17.4647V18.8662C9.70312 19.4052 10.1344 19.8365 10.6734 19.8365H12.6139C13.1529 19.8365 13.5842 19.4052 13.5842 18.8662V17.4647ZM10.6734 18.8662V17.4647H12.6139V18.8662H10.6734Z" fill="#626365"/>
<path d="M7.75995 17.4647C7.75995 16.9257 7.32872 16.4944 6.78969 16.4944H4.84917C4.31013 16.4944 3.87891 16.9257 3.87891 17.4647V18.8662C3.87891 19.4052 4.31013 19.8365 4.84917 19.8365H6.78969C7.32872 19.8365 7.75995 19.4052 7.75995 18.8662V17.4647ZM4.84917 18.8662V17.4647H6.78969V18.8662H4.84917Z" fill="#626365"/>
<path d="M12.6139 20.8067H10.6734C10.1344 20.8067 9.70312 21.2379 9.70312 21.7769V23.1784C9.70312 23.7175 10.1344 24.1487 10.6734 24.1487H12.6139C13.1529 24.1487 13.5842 23.7175 13.5842 23.1784V21.7769C13.5842 21.2379 13.1529 20.8067 12.6139 20.8067ZM10.6734 23.2862V21.8847H12.6139V23.2862H10.6734Z" fill="#626365"/>
<path d="M16.4937 15.5242H18.4342C18.9733 15.5242 19.4045 15.0929 19.4045 14.5539V13.1524C19.4045 12.6134 18.9733 12.1822 18.4342 12.1822H16.4937C15.9547 12.1822 15.5234 12.6134 15.5234 13.1524V14.5539C15.5234 15.0929 15.9547 15.5242 16.4937 15.5242ZM16.4937 13.0446H18.4342V14.4461H16.4937V13.0446Z" fill="#626365"/>
<path d="M15.5234 18.8662C15.5234 19.4052 15.9547 19.8364 16.4937 19.8364C16.7093 19.8364 16.9249 19.6208 16.9249 19.4052C16.9249 19.1896 16.7093 18.974 16.4937 18.974V17.5725H18.4342C18.6498 17.5725 18.8654 17.3569 18.8654 17.1412C18.8654 16.9256 18.6498 16.71 18.4342 16.71H16.4937C15.9547 16.71 15.5234 17.1412 15.5234 17.6803V18.8662Z" fill="#626365"/>
<path d="M6.78969 20.8067H4.84917C4.31013 20.8067 3.87891 21.2379 3.87891 21.7769V23.1784C3.87891 23.7175 4.31013 24.1487 4.84917 24.1487H6.78969C7.32872 24.1487 7.75995 23.7175 7.75995 23.1784V21.7769C7.75995 21.2379 7.32872 20.8067 6.78969 20.8067ZM4.84917 23.2862V21.8847H6.78969V23.2862H4.84917Z" fill="#626365"/>
<path d="M22.7489 16.4944C19.2991 16.4944 16.4961 19.2974 16.4961 22.7472C16.4961 26.1971 19.2991 29 22.7489 29C26.1987 29 29.0017 26.1971 29.0017 22.7472C29.0017 19.2974 26.1987 16.4944 22.7489 16.4944ZM22.7489 28.0298C19.8381 28.0298 17.4664 25.658 17.4664 22.7472C17.4664 19.8365 19.8381 17.4647 22.7489 17.4647C25.6597 17.4647 28.0314 19.8365 28.0314 22.7472C28.0314 25.658 25.6597 28.0298 22.7489 28.0298Z" fill="#626365"/>
<path d="M25.5489 20.6989L21.7756 24.4721L20.0507 22.7472C19.8351 22.5316 19.5117 22.5316 19.4039 22.7472C19.1883 22.9628 19.1883 23.1785 19.4039 23.3941L21.4522 25.4424C21.6678 25.658 21.9913 25.658 22.0991 25.4424L26.1957 21.3457C26.4113 21.1301 26.4113 20.8067 26.1957 20.6989C26.0879 20.5911 25.7645 20.5911 25.5489 20.6989Z" fill="#626365"/>
</g>
<defs>
<clipPath id="clip0">
<rect width="29" height="29" fill="white"/>
</clipPath>
</defs>
</svg>
