<svg width="19" height="11" viewBox="0 0 19 11" fill="none" xmlns="http://www.w3.org/2000/svg">
<path d="M13.3 0H5.3C2.6 0 0 2.1 0 5.6C0 8.3 1.9 10.5 4.5 10.9L9.5 11H13.3C16 11 18.6 8.9 18.6 5.4C18.6 2.4 16.2 0 13.3 0ZM13.7 5.3C11.1 7.9 7.1 8.1 4.8 5.9C4.7 5.7 4.8 5.4 4.9 5.3L5.9 4.3C6.1 4.1 6.3 4.1 6.4 4.3C6.7 4.6 7 4.8 7.4 5C7.6 5 7.6 5.2 7.6 5.3L7.5 6.3C8.6 6.6 9.9 6.5 11.1 6V5.1C11.1 5 11.2 4.8 11.3 4.8C11.7 4.6 12.1 4.3 12.4 4C12.5 3.9 12.8 3.8 12.9 4L13.7 4.8C13.8 4.8 13.9 5.1 13.7 5.3Z" fill="white"/>
</svg>
