<svg width="17" height="17" viewBox="0 0 17 17" fill="none" xmlns="http://www.w3.org/2000/svg">
<path d="M14.2325 0H2.66421C1.19188 0 0 1.19188 0 2.66421V11.0775C0 12.5498 1.19188 13.7417 2.66421 13.7417H12.9705L15.9852 16.7565C16.0554 16.8266 16.1956 16.8967 16.3358 16.8967C16.6162 16.8967 16.8967 16.6863 16.8967 16.3358V2.66421C16.8266 1.19188 15.7048 0 14.2325 0ZM15.7749 15.0738L13.5314 12.8303C13.4613 12.69 13.321 12.6199 13.1808 12.6199H2.66421C1.82288 12.6199 1.05166 11.9188 1.05166 11.0074V2.5941C1.05166 1.75277 1.75277 0.98155 2.66421 0.98155H14.2325C15.0738 0.98155 15.845 1.68266 15.845 2.5941L15.7749 15.0738Z" fill="#5B73E8"/>
<path d="M8.41299 7.92247C8.9938 7.92247 9.46465 7.45163 9.46465 6.87081C9.46465 6.29 8.9938 5.81915 8.41299 5.81915C7.83217 5.81915 7.36133 6.29 7.36133 6.87081C7.36133 7.45163 7.83217 7.92247 8.41299 7.92247Z" fill="#5B73E8"/>
<path d="M12.1288 7.92247C12.7096 7.92247 13.1805 7.45163 13.1805 6.87081C13.1805 6.29 12.7096 5.81915 12.1288 5.81915C11.548 5.81915 11.0771 6.29 11.0771 6.87081C11.0771 7.45163 11.548 7.92247 12.1288 7.92247Z" fill="#5B73E8"/>
<path d="M4.76748 7.92247C5.3483 7.92247 5.81914 7.45163 5.81914 6.87081C5.81914 6.29 5.3483 5.81915 4.76748 5.81915C4.18666 5.81915 3.71582 6.29 3.71582 6.87081C3.71582 7.45163 4.18666 7.92247 4.76748 7.92247Z" fill="#5B73E8"/>
</svg>
