<svg width="19" height="16" viewBox="0 0 19 16" fill="#5B73E8" xmlns="http://www.w3.org/2000/svg">
<path d="M13.3049 0H5.29547C2.58981 0 0 2.11673 0 5.61797C0 8.30281 1.94029 10.5374 4.47219 10.9414V14.5226C4.47219 15.2927 5.41131 15.6504 5.90776 15.078L9.47392 11.0045H13.3049C16.0105 11.0045 18.6003 8.88776 18.6003 5.38652C18.6003 2.41552 16.2256 0 13.3049 0ZM4.36462 6.54799C3.79784 6.54799 3.33449 6.08087 3.33449 5.50014C3.33449 4.92361 3.79371 4.45229 4.36462 4.45229C4.93554 4.45229 5.39476 4.91941 5.39476 5.50014C5.39476 6.07667 4.9314 6.54799 4.36462 6.54799ZM10.3882 5.89992C10.169 6.43436 9.56907 6.68686 9.04366 6.46803C8.51826 6.2492 8.27003 5.6348 8.48516 5.10036C8.70442 4.56592 9.3043 4.31342 9.82971 4.53225C10.3551 4.75108 10.6033 5.36548 10.3882 5.89992ZM14.4963 6.54799C13.9296 6.54799 13.4662 6.08087 13.4662 5.50014C13.4662 4.92361 13.9254 4.45229 14.4963 4.45229C15.0673 4.45229 15.5265 4.91941 15.5265 5.50014C15.5265 6.07667 15.0673 6.54799 14.4963 6.54799Z" />
</svg>
