<svg width="82" height="66" viewBox="0 0 82 66" fill="none" xmlns="http://www.w3.org/2000/svg">
<path d="M59.1865 0H4.62161C2.08718 0 0 2.08718 0 4.62161V37.4202C0 39.9546 2.08718 42.0418 4.62161 42.0418H8.19963V54.2667C8.19963 55.0121 8.64689 55.7575 9.39231 56.0557C9.69048 56.2048 9.83956 56.2048 10.1377 56.2048C10.585 56.2048 11.1813 56.0557 11.4795 55.6084L25.0462 42.0418H27.7297C28.7733 42.0418 29.6678 41.1473 29.6678 40.1037C29.6678 39.0601 28.7733 38.1656 27.7297 38.1656H24.1517C23.7044 38.1656 23.2571 38.3147 22.959 38.7619L11.9267 49.496C11.9267 49.496 11.9267 39.9546 11.9267 39.8055C11.7777 38.7619 11.0322 38.0165 9.98864 38.0165H4.62161C4.17436 38.0165 3.87619 37.7183 3.87619 37.2711V4.47253C3.87619 4.02527 4.17436 3.72711 4.62161 3.72711H59.1865C59.6337 3.72711 59.9319 4.02527 59.9319 4.47253V16.9956C59.9319 18.0392 60.8264 18.9337 61.87 18.9337C62.9136 18.9337 63.8081 18.0392 63.8081 16.9956V4.62161C63.8081 2.08718 61.7209 0 59.1865 0Z" fill="#D9D3D6"/>
<path d="M76.7774 23.5553H38.6118C36.0774 23.5553 33.9902 25.6425 33.9902 28.1769V50.5396C33.9902 53.074 36.0774 55.1612 38.6118 55.1612H62.4653L72.1558 64.8516C72.454 65.1498 73.0503 65.448 73.4976 65.448C73.7957 65.448 73.9448 65.448 74.243 65.2989C74.9884 65.0007 75.4357 64.2553 75.4357 63.5099V55.1612H76.7774C79.3118 55.1612 81.399 53.074 81.399 50.5396V28.1769C81.399 25.4934 79.3118 23.5553 76.7774 23.5553ZM77.5228 50.3905C77.5228 50.8377 77.2247 51.1359 76.7774 51.1359H73.4976C72.454 51.1359 71.7085 51.8813 71.5595 52.9249V58.7392L64.5525 51.7322C64.5525 51.7322 64.5525 51.7322 64.4034 51.7322C64.1053 51.4341 63.658 51.285 63.2108 51.285H38.6118C38.1646 51.285 37.8664 50.9868 37.8664 50.5396V28.1769C37.8664 27.7297 38.1646 27.4315 38.6118 27.4315H76.7774C77.2247 27.4315 77.5228 27.7297 77.5228 28.1769V50.3905Z" fill="#D9D3D6"/>
<path d="M57.6959 37.2711C56.6523 37.2711 55.7578 38.1656 55.7578 39.2092C55.7578 40.2527 56.6523 41.1472 57.6959 41.1472C58.7395 41.1472 59.634 40.2527 59.634 39.2092C59.634 38.1656 58.7395 37.2711 57.6959 37.2711Z" fill="#D9D3D6"/>
<path d="M49.3472 12.6721H14.4615C13.4179 12.6721 12.5234 13.5667 12.5234 14.6102C12.5234 15.6538 13.4179 16.5483 14.4615 16.5483H49.3472C50.3908 16.5483 51.2853 15.6538 51.2853 14.6102C51.2853 13.5667 50.3908 12.6721 49.3472 12.6721Z" fill="#D9D3D6"/>
<path d="M27.73 25.3443H14.4615C13.4179 25.3443 12.5234 26.2388 12.5234 27.2824C12.5234 28.326 13.4179 29.2205 14.4615 29.2205H27.73C28.7736 29.2205 29.6681 28.326 29.6681 27.2824C29.6681 26.2388 28.7736 25.3443 27.73 25.3443Z" fill="#D9D3D6"/>
<path d="M48.7506 37.2711C47.707 37.2711 46.8125 38.1656 46.8125 39.2092C46.8125 40.2527 47.707 41.1472 48.7506 41.1472C49.7942 41.1472 50.6887 40.2527 50.6887 39.2092C50.6887 38.1656 49.7942 37.2711 48.7506 37.2711Z" fill="#D9D3D6"/>
<path d="M66.6412 37.2711C65.5976 37.2711 64.7031 38.1656 64.7031 39.2092C64.7031 40.2527 65.5976 41.1472 66.6412 41.1472C67.6848 41.1472 68.5793 40.2527 68.5793 39.2092C68.5793 38.1656 67.6848 37.2711 66.6412 37.2711Z" fill="#D9D3D6"/>
</svg>
