<svg width="20" height="20" viewBox="0 0 20 20" fill="none" xmlns="http://www.w3.org/2000/svg">
<path d="M10 0C4.48529 0 0 4.48529 0 10C0 15.5147 4.48529 20 10 20C15.5147 20 20 15.5147 20 10C20 4.48529 15.5515 0 10 0ZM10 18.6765C5.22059 18.6765 1.32353 14.7794 1.32353 10C1.32353 5.22059 5.22059 1.32353 10 1.32353C14.7794 1.32353 18.6765 5.22059 18.6765 10C18.6765 14.7794 14.7794 18.6765 10 18.6765Z" fill="#0AD406"/>
<path d="M15.293 6.32353C15.0356 6.06618 14.5944 6.06618 14.3371 6.32353L8.41797 12.2794L5.66062 9.52206C5.40326 9.26471 4.96209 9.26471 4.70473 9.52206C4.44738 9.77941 4.44738 10.2206 4.70473 10.4779L7.94003 13.7132C8.19738 13.9706 8.63856 13.9706 8.89591 13.7132L15.293 7.31618C15.5503 7.02206 15.5503 6.58088 15.293 6.32353Z" fill="#0AD406"/>
</svg>
