<svg width="24" height="24" viewBox="0 0 24 24" fill="none" xmlns="http://www.w3.org/2000/svg">
<path d="M11.6124 0.775269C5.1766 0.775269 0 5.95187 0 12.3876C0 18.8234 5.1766 24 11.6124 24C18.0481 24 23.2247 18.8234 23.2247 12.3876C23.2247 5.95187 18.0481 0.775269 11.6124 0.775269ZM11.6124 22.461C6.086 22.461 1.53899 17.984 1.53899 12.3876C1.53899 6.79131 6.086 2.31426 11.6124 2.31426C17.1387 2.31426 21.6857 6.86127 21.6857 12.3876C21.6857 17.914 17.2087 22.461 11.6124 22.461Z" fill="#4BB58C"/>
<path d="M17.7679 8.12045C17.488 7.84063 16.9984 7.84063 16.6486 8.12045L9.7931 15.0459L6.57522 11.828C6.2954 11.5482 5.80573 11.5482 5.45596 11.828C5.17614 12.1078 5.17614 12.5975 5.45596 12.9473L9.23347 16.7248C9.51329 17.0046 10.003 17.0046 10.3527 16.7248L17.8378 9.23971C18.1176 8.88994 18.1176 8.40026 17.7679 8.12045Z" fill="#4BB58C"/>
</svg>
