<svg width="132" height="80" viewBox="0 0 132 80" fill="none" xmlns="http://www.w3.org/2000/svg">
<g clip-path="url(#clip0)">
<path d="M57.2171 51.3976C57.2171 47.0639 53.6519 43.5103 49.3041 43.5103H36.5214V28.3424C36.5214 24.3554 34.3475 20.8884 31.1301 18.9816C33.2171 17.5081 34.6084 15.1679 34.6084 12.3944V7.974C34.6084 3.55363 31.0432 0 26.6084 0H24.5214C20.0867 0 16.5214 3.55363 16.5214 7.974V12.3944C16.5214 15.0813 17.9127 17.5081 19.9997 18.9816C16.7823 20.8884 14.6084 24.3554 14.6084 28.3424V48.364C14.6084 54.3445 19.5649 59.2849 25.5649 59.2849H25.6519H25.7388H41.3041V72.1127C41.3041 76.4464 44.8693 80 49.2171 80C53.5649 80 57.1301 76.4464 57.1301 72.1127V51.831C57.1301 51.7443 57.1301 51.6576 57.1301 51.571C57.2171 51.4843 57.2171 51.3976 57.2171 51.3976Z" fill="#5B73E8"/>
<path d="M29.913 66.0455H24.3478C15.1304 66.0455 7.73913 58.5916 7.73913 49.4908V26.9556C7.73913 24.7887 6 23.1419 3.91304 23.1419C1.82609 23.1419 0 24.7887 0 26.9556V49.4908C0 62.9252 10.9565 73.7595 24.3478 73.7595H29.8261C32 73.7595 33.6522 72.026 33.6522 69.9458C33.7391 67.779 32 66.0455 29.913 66.0455Z" fill="#5B73E8"/>
<path d="M112 18.9816C114.087 17.5081 115.478 15.1679 115.478 12.3944V7.974C115.478 3.55363 111.913 0 107.478 0H105.391C100.956 0 97.3909 3.55363 97.3909 7.974V12.3944C97.3909 15.0813 98.7822 17.5081 100.869 18.9816C97.6518 20.8884 95.4779 24.3554 95.4779 28.3424V43.4236H82.6953C78.3474 43.4236 74.7822 46.9772 74.7822 51.3109C74.7822 51.3976 74.7822 51.4843 74.7822 51.571C74.7822 51.6576 74.7822 51.7443 74.7822 51.831V72.1127C74.7822 76.4464 78.3474 80 82.6953 80C87.0431 80 90.6083 76.4464 90.6083 72.1127V59.2849H106.174H106.26H106.347C112.347 59.2849 117.304 54.4312 117.304 48.364V28.3424C117.391 24.3554 115.217 20.8884 112 18.9816Z" fill="#5B73E8"/>
<path d="M128.174 23.0552C126 23.0552 124.348 24.7887 124.348 26.8689V49.4041C124.348 58.5915 116.869 65.9588 107.739 65.9588H102.261C100.087 65.9588 98.4346 67.6923 98.4346 69.7725C98.4346 71.9393 100.174 73.5861 102.261 73.5861H107.739C121.217 73.5861 132.087 62.6652 132.087 49.3174V26.7822C132 24.7887 130.261 23.0552 128.174 23.0552Z" fill="#5B73E8"/>
</g>
<defs>
<clipPath id="clip0">
<rect width="132" height="80" fill="white"/>
</clipPath>
</defs>
</svg>
