<svg width="25" height="25" viewBox="0 0 25 25" fill="none" xmlns="http://www.w3.org/2000/svg">
<path d="M21.3489 3.65112C16.4807 -1.21704 8.51927 -1.21704 3.65112 3.65112C-1.21704 8.51927 -1.21704 16.4807 3.65112 21.3489C6.08519 23.783 9.27992 25 12.4746 25C15.6694 25 18.8641 23.783 21.2982 21.3489C26.217 16.4807 26.217 8.51927 21.3489 3.65112Z" fill="#E20D18"/>
<path d="M17.6471 16.2779L13.8438 12.4747L17.5456 8.77284C17.9513 8.36716 17.9513 7.75865 17.5456 7.35297C17.14 6.94729 16.5314 6.94729 16.1258 7.35297L12.4239 11.0548L8.77282 7.40368C8.36714 6.998 7.75862 6.998 7.35295 7.40368C6.94727 7.80936 6.94727 8.41787 7.35295 8.82355L11.0041 12.4747L7.25153 16.2272C6.84585 16.6329 6.84585 17.2414 7.25153 17.6471C7.45437 17.8499 7.70791 17.9513 7.96146 17.9513C8.21501 17.9513 8.46856 17.8499 8.6714 17.6471L12.3732 13.9453L16.2272 17.7485C16.43 17.9513 16.6836 18.0528 16.9371 18.0528C17.1907 18.0528 17.4442 17.9513 17.6471 17.7485C18.0527 17.3428 18.0527 16.6836 17.6471 16.2779Z" fill="white"/>
</svg>
