<svg width="12" height="12" viewBox="0 0 12 12" fill="none" xmlns="http://www.w3.org/2000/svg">
<path d="M11.6471 9.27791L7.84382 5.47467L11.5456 1.77284C11.9513 1.36716 11.9513 0.758645 11.5456 0.352966C11.14 -0.0527138 10.5314 -0.0527138 10.1258 0.352966L6.42394 4.05479L2.77282 0.403676C2.36714 -0.00200368 1.75862 -0.00200368 1.35295 0.403676C0.947266 0.809355 0.947266 1.41787 1.35295 1.82355L5.00406 5.47467L1.25153 9.2272C0.845846 9.63288 0.845846 10.2414 1.25153 10.6471C1.45437 10.8499 1.70791 10.9513 1.96146 10.9513C2.21501 10.9513 2.46856 10.8499 2.6714 10.6471L6.37323 6.94526L10.2272 10.7485C10.43 10.9513 10.6836 11.0528 10.9371 11.0528C11.1907 11.0528 11.4442 10.9513 11.6471 10.7485C12.0527 10.3428 12.0527 9.68359 11.6471 9.27791Z" fill="white"/>
</svg>
