<svg width="12" height="12" viewBox="0 0 12 12" fill="none" xmlns="http://www.w3.org/2000/svg">
<path d="M10.6998 9.27791L6.89655 5.47467L10.5984 1.77284C11.0041 1.36716 11.0041 0.758645 10.5984 0.352966C10.1927 -0.0527138 9.58418 -0.0527138 9.1785 0.352966L5.47667 4.05479L1.82556 0.403676C1.41988 -0.00200368 0.811359 -0.00200368 0.405679 0.403676C-9.06765e-08 0.809355 -9.06765e-08 1.41787 0.405679 1.82355L4.0568 5.47467L0.30426 9.2272C-0.10142 9.63288 -0.10142 10.2414 0.30426 10.6471C0.507099 10.8499 0.760649 10.9513 1.0142 10.9513C1.26775 10.9513 1.5213 10.8499 1.72414 10.6471L5.42596 6.94526L9.27992 10.7485C9.48276 10.9513 9.73631 11.0528 9.98986 11.0528C10.2434 11.0528 10.497 10.9513 10.6998 10.7485C11.1055 10.3428 11.1055 9.68359 10.6998 9.27791Z" fill="#565656"/>
</svg>
