<svg width="12" height="12" viewBox="0 0 12 12" fill="none" xmlns="http://www.w3.org/2000/svg">
<path d="M10.2475 1.75254C7.91075 -0.584179 4.08925 -0.584179 1.75254 1.75254C-0.584179 4.08925 -0.584179 7.91075 1.75254 10.2475C2.92089 11.4158 4.45436 12 5.98783 12C7.5213 12 9.05477 11.4158 10.2231 10.2475C12.5842 7.91075 12.5842 4.08925 10.2475 1.75254Z" fill="#E20D18"/>
<path d="M8.47086 7.81332L6.64531 5.98776L8.42218 4.21089C8.61691 4.01616 8.61691 3.72407 8.42218 3.52935C8.22746 3.33462 7.93537 3.33462 7.74064 3.52935L5.96376 5.30622L4.21123 3.55369C4.0165 3.35896 3.72441 3.35896 3.52969 3.55369C3.33496 3.74841 3.33496 4.0405 3.52969 4.23523L5.28222 5.98776L3.48101 7.78898C3.28628 7.98371 3.28628 8.27579 3.48101 8.47052C3.57837 8.56788 3.70007 8.61657 3.82178 8.61657C3.94348 8.61657 4.06518 8.56788 4.16255 8.47052L5.93942 6.69365L7.78932 8.5192C7.88669 8.61657 8.00839 8.66525 8.13009 8.66525C8.2518 8.66525 8.3735 8.61657 8.47086 8.5192C8.66559 8.32448 8.66559 8.00805 8.47086 7.81332Z" fill="white"/>
</svg>
