<svg width="20" height="21" viewBox="0 0 20 21" fill="none" xmlns="http://www.w3.org/2000/svg">
<path d="M12.59 6.98928L10 9.5758L7.41 6.98928L6 8.39739L8.59 10.9839L6 13.5704L7.41 14.9785L10 12.392L12.59 14.9785L14 13.5704L11.41 10.9839L14 8.39739L12.59 6.98928ZM10 0.997334C8.02219 0.997334 6.08879 1.58304 4.4443 2.68038C2.79981 3.77771 1.51809 5.3374 0.761209 7.16221C0.00433284 8.98702 -0.193701 10.995 0.192152 12.9322C0.578004 14.8694 1.53041 16.6488 2.92894 18.0455C4.32746 19.4421 6.10929 20.3933 8.0491 20.7786C9.98891 21.1639 11.9996 20.9662 13.8268 20.2103C15.6541 19.4544 17.2159 18.1744 18.3147 16.5322C19.4135 14.8899 20 12.9591 20 10.9839C20.0012 9.67212 19.7433 8.37298 19.2412 7.16081C18.7391 5.94865 18.0025 4.84727 17.0737 3.9197C16.1449 2.99212 15.042 2.25656 13.8282 1.75511C12.6144 1.25366 11.3136 0.996152 10 0.997334ZM10 18.9732C8.41775 18.9732 6.87104 18.5046 5.55544 17.6267C4.23985 16.7489 3.21447 15.5011 2.60897 14.0413C2.00347 12.5814 1.84504 10.975 2.15372 9.42528C2.4624 7.87552 3.22433 6.45197 4.34315 5.33465C5.46197 4.21733 6.88743 3.45643 8.43928 3.14816C9.99113 2.83989 11.5997 2.99811 13.0615 3.6028C14.5233 4.20748 15.7727 5.23149 16.6518 6.54531C17.5308 7.85914 18 9.40378 18 10.9839C17.9971 13.1019 17.1533 15.1323 15.6536 16.63C14.154 18.1276 12.1208 18.9703 10 18.9732Z" fill="#7B8190"/>
</svg>
