<svg width="24" height="24" viewBox="0 0 24 24" fill="none" xmlns="http://www.w3.org/2000/svg">
<path d="M11.6124 0.775269C5.1766 0.775269 0 5.95187 0 12.3876C0 18.8234 5.1766 24 11.6124 24C18.0481 24 23.2247 18.8234 23.2247 12.3876C23.2247 5.95187 18.0481 0.775269 11.6124 0.775269ZM11.6124 22.461C6.01605 22.461 1.53899 17.914 1.53899 12.3876C1.53899 6.86127 6.01605 2.31426 11.6124 2.31426C17.2087 2.31426 21.6857 6.79131 21.6857 12.3876C21.6857 17.984 17.1387 22.461 11.6124 22.461Z" fill="#ED6B6C"/>
<path d="M7.34443 17.2844C7.20452 17.2844 6.99466 17.2145 6.92471 17.0746C6.64489 16.7947 6.64489 16.445 6.92471 16.1651L15.3891 7.63076C15.669 7.35094 16.0187 7.35094 16.2985 7.63076C16.5784 7.91058 16.5784 8.26035 16.2985 8.54016L7.76415 17.0746C7.62425 17.2145 7.48434 17.2844 7.34443 17.2844Z" fill="#ED6B6C"/>
<path d="M15.8824 17.2844C15.7425 17.2844 15.5326 17.2145 15.4626 17.0746L6.8583 8.54016C6.57848 8.26035 6.57848 7.91058 6.8583 7.63076C7.13812 7.35094 7.48789 7.35094 7.7677 7.63076L16.3021 16.1651C16.5819 16.445 16.5819 16.7947 16.3021 17.0746C16.2321 17.2145 16.0223 17.2844 15.8824 17.2844Z" fill="#ED6B6C"/>
</svg>
