<svg width="16" height="16" viewBox="0 0 16 16" fill="none" xmlns="http://www.w3.org/2000/svg">
<path d="M13.1879 0H2.81212C1.26061 0 0 1.26061 0 2.81212V9.21212C0 10.7636 1.26061 12.0242 2.81212 12.0242H9.45455L12.6061 15.1758C12.703 15.2727 12.8485 15.3212 12.9939 15.3212C13.0424 15.3212 13.1394 15.3212 13.1879 15.2727C13.3818 15.1758 13.5273 14.9818 13.5273 14.7394V11.9273C14.9333 11.8303 16 10.6667 16 9.21212V2.81212C16 1.26061 14.7394 0 13.1879 0ZM14.8848 9.21212C14.8848 10.1333 14.1091 10.9091 13.1879 10.9091H12.9939C12.703 10.9091 12.4121 11.1515 12.4121 11.4909V13.4788L10.0364 11.103C9.93939 11.0061 9.79394 10.9576 9.64849 10.9576H2.81212C1.89091 10.9576 1.11515 10.1818 1.11515 9.26061V2.81212C1.11515 1.89091 1.89091 1.11515 2.81212 1.11515H13.2364C14.1576 1.11515 14.9333 1.89091 14.9333 2.81212V9.21212H14.8848Z" fill="#5B73E8"/>
<path d="M12.1211 3.97583H3.87869C3.58778 3.97583 3.29688 4.21825 3.29688 4.55765C3.29688 4.84856 3.5393 5.13947 3.87869 5.13947H12.1211C12.412 5.13947 12.7029 4.89704 12.7029 4.55765C12.7029 4.21825 12.4605 3.97583 12.1211 3.97583Z" fill="#5B73E8"/>
<path d="M12.1211 7.1272H3.87869C3.58778 7.1272 3.29688 7.36962 3.29688 7.70902C3.29688 7.99992 3.58778 8.24235 3.87869 8.24235H12.1211C12.412 8.24235 12.7029 7.99992 12.7029 7.66053C12.7029 7.36962 12.4605 7.1272 12.1211 7.1272Z" fill="#5B73E8"/>
</svg>
