<svg width="85" height="85" viewBox="0 0 85 85" fill="none" xmlns="http://www.w3.org/2000/svg">
<g clip-path="url(#clip0)">
<path d="M83.2291 49.5834H1.77089C0.792061 49.5834 0 50.3755 0 51.3541V54.8957C0 55.8745 0.792061 56.6666 1.77089 56.6666H83.2293C84.2081 56.6666 85.0002 55.8745 85.0002 54.8957V51.3541C85 50.3755 84.2079 49.5834 83.2291 49.5834Z" fill="white"/>
<path d="M1.77089 38.9584H33.6459C34.6247 38.9584 35.4168 38.1663 35.4168 37.1875V33.6459C35.4168 32.6671 34.6247 31.875 33.6459 31.875H1.77089C0.792061 31.875 0 32.6671 0 33.6459V37.1875C0 38.1663 0.792061 38.9584 1.77089 38.9584Z" fill="white"/>
<path d="M1.77089 21.25H33.6459C34.6247 21.25 35.4168 20.4579 35.4168 19.4791V15.9375C35.4168 14.9587 34.6247 14.1666 33.6459 14.1666H1.77089C0.792061 14.1666 0 14.9587 0 15.9375V19.4791C0 20.4579 0.792061 21.25 1.77089 21.25Z" fill="white"/>
<path d="M54.8959 67.2916H1.77089C0.792061 67.2916 0 68.0837 0 69.0625V72.6041C0 73.5829 0.792061 74.375 1.77089 74.375H54.8959C55.8747 74.375 56.6668 73.5829 56.6668 72.6041V69.0625C56.6666 68.0837 55.8747 67.2916 54.8959 67.2916Z" fill="white"/>
<path d="M83.2291 10.625H44.2709C43.2921 10.625 42.5 11.4171 42.5 12.3959V40.7293C42.5 41.7081 43.2921 42.5002 44.2709 42.5002H56.6668H83.2293C84.2081 42.5002 85.0002 41.7081 85.0002 40.7293V35.4168V12.3959C85 11.4171 84.2079 10.625 83.2291 10.625ZM81.4584 31.1417L72.0855 21.7688C71.3937 21.077 70.2731 21.077 69.5815 21.7688L63.9647 27.3856C63.2729 28.0774 63.2729 29.198 63.9647 29.8896L65.7355 31.6605C66.0711 31.996 66.2543 32.4404 66.2543 32.9126C66.2543 33.3847 66.0711 33.8292 65.7355 34.1647C65.0645 34.8322 63.9024 34.8322 63.2315 34.1647L61.4606 32.3938L56.1481 27.0813C55.4564 26.3895 54.3358 26.3895 53.6441 27.0813L46.0419 34.6835V14.1666H81.4586V31.1417H81.4584Z" fill="white"/>
<path d="M60.2057 24.7916C62.1616 24.7916 63.7473 23.206 63.7473 21.25C63.7473 19.294 62.1616 17.7084 60.2057 17.7084C58.2497 17.7084 56.6641 19.294 56.6641 21.25C56.6641 23.206 58.2497 24.7916 60.2057 24.7916Z" fill="white"/>
</g>
<defs>
<clipPath id="clip0">
<rect width="85" height="85" fill="white"/>
</clipPath>
</defs>
</svg>
