<svg width="70" height="70" viewBox="0 0 70 70" fill="none" xmlns="http://www.w3.org/2000/svg">
<path d="M7.66536 14.5H0.832031V62.3333C0.832031 66.0916 3.90703 69.1666 7.66536 69.1666H55.4987V62.3333H7.66536V14.5ZM62.332 0.833313H21.332C17.5737 0.833313 14.4987 3.90831 14.4987 7.66665V48.6666C14.4987 52.425 17.5737 55.5 21.332 55.5H62.332C66.0904 55.5 69.1654 52.425 69.1654 48.6666V7.66665C69.1654 3.90831 66.0904 0.833313 62.332 0.833313ZM62.332 48.6666H21.332V7.66665H62.332V48.6666ZM40.1579 28.7133C41.5587 26.2191 44.1895 24.75 45.727 22.5633C47.367 20.24 46.4445 15.935 41.832 15.935C38.8254 15.935 37.322 18.2241 36.707 20.1375L32.0262 18.19C33.3245 14.3633 36.7754 11.0833 41.7979 11.0833C46.0004 11.0833 48.9045 12.9966 50.3737 15.3883C51.6379 17.4383 52.3554 21.2991 50.4079 24.1691C48.2554 27.3466 46.2054 28.3033 45.0779 30.3533C44.6337 31.1733 44.4629 31.72 44.4629 34.385H39.2695C39.3037 32.9841 39.0645 30.695 40.1579 28.7133ZM38.2445 41.6625C38.2445 39.6466 39.8504 38.1091 41.832 38.1091C43.8479 38.1091 45.3854 39.6466 45.3854 41.6625C45.3854 43.6441 43.882 45.25 41.832 45.25C39.8504 45.25 38.2445 43.6441 38.2445 41.6625Z" fill="white"/>
</svg>
