<svg width="90" height="80" viewBox="0 0 90 80" fill="none" xmlns="http://www.w3.org/2000/svg">
<path d="M0.0234803 6.8451C0.164362 6.37626 0.258283 5.88398 0.422645 5.41513C1.50274 2.13323 4.5317 0 8.14767 0C17.3519 0 26.5327 0 35.737 0C47.4302 0 59.1234 0 70.7931 0C76.0057 0 79.293 3.30534 79.293 8.48605C79.293 15.8 79.293 23.1139 79.293 30.4279C79.293 30.7795 79.293 31.1312 79.293 31.6C80.1383 31.6 80.9601 31.6 81.7584 31.6C86.5954 31.6234 90 34.9757 90 39.8282C90 46.6498 90 53.4481 90 60.2697C90 65.0519 86.5954 68.451 81.8054 68.451C80.9836 68.451 80.1852 68.451 79.2695 68.451C79.2695 70.7484 79.2695 72.9519 79.2695 75.1789C79.2695 75.554 79.2695 75.9291 79.2695 76.3276C79.246 77.4528 78.7295 78.2967 77.6963 78.7656C76.6162 79.2344 75.6301 79.0234 74.7848 78.2264C73.8221 77.3122 72.9063 76.3745 71.9906 75.4368C69.8774 73.327 67.7642 71.2406 65.6509 69.1074C65.2048 68.662 64.7822 68.451 64.1247 68.4745C59.64 68.4979 55.1552 68.4979 50.6705 68.4979C45.7162 68.4979 42.3585 65.1223 42.3585 60.1525C42.3585 59.4493 42.3585 58.7694 42.3585 57.9958C42.0063 57.9724 41.7245 57.949 41.4427 57.949C37.9207 57.949 34.4221 57.949 30.9001 57.9255C30.3366 57.9255 29.9374 58.0896 29.5147 58.4881C24.7952 63.2234 20.0757 67.9353 15.3561 72.6472C14.6752 73.327 13.9473 73.7958 12.9611 73.7255C11.5288 73.6083 10.5427 72.4831 10.5427 70.889C10.5427 66.9038 10.5427 62.9421 10.5427 58.957C10.5427 58.6522 10.5427 58.324 10.5427 57.9255C9.74433 57.9255 9.01644 57.9255 8.28855 57.9255C4.08557 57.9255 1.12705 55.5579 0.140882 51.4789C0.117402 51.3383 0.0469606 51.2211 0 51.0804C0.0234803 36.3353 0.0234803 21.5902 0.0234803 6.8451ZM73.9864 31.6C74.0099 31.389 74.0334 31.2718 74.0334 31.1546C74.0334 23.4421 74.0334 15.7062 74.0334 7.99377C74.0334 6.37626 72.8829 5.27448 71.2158 5.27448C50.1774 5.27448 29.1391 5.27448 8.12418 5.27448C6.41012 5.27448 5.30655 6.37626 5.30655 8.06409C5.30655 21.9887 5.30655 35.9133 5.30655 49.838C5.30655 51.5727 6.41012 52.651 8.19463 52.651C9.72085 52.651 11.2471 52.651 12.7733 52.651C14.8396 52.651 15.8727 53.659 15.8727 55.6985C15.8727 58.2771 15.8727 60.8558 15.8727 63.411C15.8727 63.7626 15.8727 64.1377 15.8727 64.4893C15.9666 64.5362 16.0605 64.6065 16.1544 64.6534C16.3423 64.3955 16.4832 64.0908 16.718 63.8798C20.0757 60.5276 23.4333 57.1754 26.7675 53.8231C27.5894 53.0027 28.4816 52.6276 29.6556 52.6276C33.5768 52.6745 37.498 52.651 41.4427 52.651C41.748 52.651 42.0532 52.651 42.4289 52.651C42.4289 52.2056 42.4289 51.9009 42.4289 51.5727C42.4289 47.7047 42.4289 43.8602 42.4289 39.9923C42.4289 34.9288 45.7631 31.5766 50.8349 31.5766C58.1842 31.5766 65.5335 31.5766 72.8829 31.5766C73.2116 31.6 73.5638 31.6 73.9864 31.6ZM73.963 69.9748C74.0099 69.7169 74.0099 69.67 74.0099 69.6466C74.0099 68.451 74.0099 67.2555 74.0334 66.0599C74.0569 64.3018 75.1135 63.2234 76.8745 63.2C78.5181 63.2 80.1618 63.2 81.7819 63.2C83.6603 63.2 84.7404 62.1451 84.7404 60.2697C84.7404 53.4481 84.7404 46.6498 84.7404 39.8282C84.7404 37.9059 83.6838 36.8745 81.7349 36.8745C71.3801 36.8745 61.0018 36.8745 50.647 36.8745C48.6982 36.8745 47.665 37.9294 47.6415 39.8516C47.6415 46.6264 47.6415 53.4246 47.6415 60.1994C47.6415 62.1685 48.6747 63.2 50.694 63.2C55.4605 63.2 60.2505 63.2469 65.017 63.1766C66.5901 63.1531 67.7407 63.6219 68.7973 64.7706C70.4409 66.5053 72.155 68.1463 73.963 69.9748Z" fill="white"/>
<path d="M39.6824 21.0745C32.6853 21.0745 25.6882 21.0745 18.691 21.0745C16.6248 21.0745 15.3099 19.246 16.0613 17.4644C16.5074 16.4329 17.3292 15.8703 18.4562 15.8234C19.4894 15.8 20.499 15.8234 21.5322 15.8234C34.4463 15.8234 47.3605 15.8234 60.2747 15.8234C60.6504 15.8234 61.0495 15.8 61.4017 15.8938C62.7401 16.1751 63.6324 17.441 63.4915 18.7303C63.3271 20.0899 62.2235 21.0745 60.7678 21.0745C55.8604 21.0979 50.9295 21.0745 46.0221 21.0745C43.8854 21.0745 41.7722 21.0745 39.6824 21.0745Z" fill="white"/>
<path d="M29.024 31.6C25.6194 31.6 22.2382 31.6 18.8336 31.6C17.0491 31.6 15.8516 30.5451 15.8516 28.9745C15.8516 27.4039 17.0491 26.3255 18.8101 26.3255C25.6898 26.3255 32.5695 26.3255 39.4258 26.3255C41.1868 26.3255 42.3843 27.4273 42.3608 28.9979C42.3373 30.5217 41.1633 31.6 39.4493 31.6C35.9742 31.6 32.4991 31.6 29.024 31.6Z" fill="white"/>
<path d="M26.4647 42.1255C23.8819 42.1255 21.3225 42.1255 18.7397 42.1255C17.0256 42.1255 15.8516 41.0472 15.8281 39.5C15.8281 37.9763 17.0021 36.851 18.6927 36.851C23.8584 36.851 29.0475 36.851 34.2132 36.851C35.9038 36.851 37.1013 37.9763 37.0778 39.5C37.0543 41.0003 35.8803 42.1021 34.2367 42.1021C31.6773 42.1255 29.071 42.1255 26.4647 42.1255Z" fill="white"/>
<path d="M63.4201 51.643C65.5333 49.5332 67.4822 47.5407 69.4545 45.6184C71.0277 44.0947 73.4227 44.751 73.9393 46.814C74.1741 47.7516 73.9158 48.5721 73.2583 49.2285C70.6286 51.8775 67.9988 54.5499 65.322 57.1519C64.2184 58.2303 62.7157 58.1834 61.6121 57.1285C60.2737 55.8626 58.9823 54.5499 57.6909 53.2137C56.6108 52.0884 56.6343 50.4475 57.6674 49.4395C58.6771 48.4549 60.2972 48.4549 61.3773 49.4864C62.0817 50.1427 62.6922 50.8695 63.4201 51.643Z" fill="white"/>
</svg>
