<svg width="10" height="12" viewBox="0 0 10 12" fill="none" xmlns="http://www.w3.org/2000/svg">
<path d="M9.77052 2.68222L9.50557 1.888C9.40468 1.58551 9.1226 1.38226 8.80382 1.38226H6.57698V0.657257C6.57698 0.294891 6.28236 0 5.92009 0H3.88084C3.51866 0 3.22395 0.294891 3.22395 0.657257V1.38226H0.997205C0.678327 1.38226 0.396253 1.58551 0.295362 1.888L0.0304084 2.68222C-0.0299249 2.86304 0.000653766 3.06326 0.112073 3.2179C0.223493 3.37253 0.40376 3.4649 0.594373 3.4649H0.87132L1.48088 11.0025C1.5262 11.5618 2.00081 12 2.56157 12H7.36305C7.92372 12 8.39842 11.5618 8.44365 11.0024L9.05321 3.4649H9.20656C9.39717 3.4649 9.57744 3.37253 9.68886 3.21799C9.80027 3.06335 9.83085 2.86304 9.77052 2.68222ZM3.92708 0.703125H5.87385V1.38226H3.92708V0.703125ZM7.74281 10.9458C7.72688 11.1427 7.56007 11.2969 7.36305 11.2969H2.56157C2.36455 11.2969 2.19774 11.1427 2.18181 10.9458L1.57673 3.4649H8.34779L7.74281 10.9458ZM0.745161 2.76178L0.962415 2.11047C0.967359 2.09546 0.981367 2.08539 0.997205 2.08539H8.80382C8.81965 2.08539 8.83357 2.09546 8.83861 2.11047L9.05586 2.76178H0.745161Z" fill="white"/>
<path d="M6.62234 10.9209C6.62857 10.9212 6.6347 10.9213 6.64093 10.9213C6.82669 10.9213 6.98197 10.7757 6.99167 10.5881L7.32181 4.2506C7.33188 4.05669 7.18283 3.89125 6.98901 3.88118C6.79465 3.87084 6.62976 4.02007 6.6196 4.21398L6.28954 10.5514C6.27947 10.7453 6.42843 10.9108 6.62234 10.9209Z" fill="white"/>
<path d="M2.8267 10.5889C2.83695 10.7763 2.99204 10.9213 3.17743 10.9213C3.18384 10.9213 3.19043 10.9211 3.19693 10.9208C3.39075 10.9102 3.53934 10.7445 3.52881 10.5506L3.18302 4.21315C3.17249 4.01924 3.00678 3.87065 2.81287 3.88127C2.61906 3.8918 2.47047 4.05751 2.481 4.25142L2.8267 10.5889Z" fill="white"/>
<path d="M4.90625 10.9213C5.10043 10.9213 5.25781 10.7639 5.25781 10.5698V4.2323C5.25781 4.03812 5.10043 3.88074 4.90625 3.88074C4.71207 3.88074 4.55469 4.03812 4.55469 4.2323V10.5698C4.55469 10.7639 4.71207 10.9213 4.90625 10.9213Z" fill="white"/>
</svg>
