<svg width="24" height="20" viewBox="0 0 24 20" fill="none" xmlns="http://www.w3.org/2000/svg">
<path d="M21.1925 20H2.71698C1.17736 20 0 18.733 0 17.2851V4.70587C0 3.16741 1.26792 1.99094 2.71698 1.99094H8.69434C9.14717 1.99094 9.41887 2.35293 9.41887 2.71492C9.41887 3.07691 9.0566 3.4389 8.69434 3.4389H2.71698C1.99245 3.4389 1.44906 3.98189 1.44906 4.70587V17.1946C1.44906 17.9185 1.99245 18.4615 2.71698 18.4615H21.1925C21.917 18.4615 22.4604 17.9185 22.4604 17.1946V4.70587C22.4604 3.98189 21.917 3.4389 21.1925 3.4389H15.2151C14.8528 3.5294 14.4906 3.16741 14.4906 2.71492C14.4906 2.26243 14.8528 1.99094 15.2151 1.99094H21.1925C22.7321 1.99094 23.9094 3.2579 23.9094 4.70587V17.1946C24 18.733 22.7321 20 21.1925 20Z" fill="#5B73E8"/>
<path d="M14.2189 5.52036H9.69057C8.69435 5.52036 7.96982 4.70588 7.96982 3.8009V1.71946C7.96982 0.81448 8.78491 0 9.78114 0H14.3094C15.3057 0 16.0302 0.81448 16.0302 1.71946V3.71041C15.9396 4.70588 15.2151 5.52036 14.2189 5.52036ZM9.78114 1.53846C9.60001 1.53846 9.50944 1.62896 9.50944 1.80995V3.8009C9.50944 3.9819 9.60001 4.0724 9.78114 4.0724H14.3094C14.4906 4.0724 14.5811 3.9819 14.5811 3.8009V1.71946C14.5811 1.53846 14.4906 1.44796 14.3094 1.44796H9.78114V1.53846Z" fill="#5B73E8"/>
<path d="M7.51699 11.9457C6.1585 11.9457 4.98114 10.8597 4.98114 9.41177C4.98114 8.05431 6.06793 6.87784 7.51699 6.87784C8.96605 6.87784 9.96227 8.14481 9.96227 9.50227C9.96227 10.8597 8.87548 11.9457 7.51699 11.9457ZM7.51699 8.5068C6.97359 8.5068 6.52076 8.95929 6.52076 9.50227C6.52076 10.0453 6.97359 10.4977 7.51699 10.4977C8.06039 10.4977 8.51321 10.0453 8.51321 9.50227C8.51321 8.95929 8.06039 8.5068 7.51699 8.5068Z" fill="#5B73E8"/>
<path d="M11.2302 16.9231C10.7774 16.9231 10.5057 16.5611 10.5057 16.1991V15.6561C10.5057 14.9321 9.96227 14.3891 9.23774 14.3891H5.70567C5.07171 14.4796 4.52831 15.0226 4.52831 15.7466V16.2896C4.52831 16.7421 4.16605 17.0136 3.80378 17.0136C3.44152 17.0136 3.07925 16.6516 3.07925 16.2896V15.7466C3.07925 14.2081 4.34718 13.0317 5.79624 13.0317H9.32831C10.8679 13.0317 12.0453 14.2986 12.0453 15.7466V16.2896C11.9547 16.6516 11.683 16.9231 11.2302 16.9231Z" fill="#5B73E8"/>
<path d="M20.1962 8.95929H14.6717C14.2189 8.95929 13.9472 8.59729 13.9472 8.2353C13.9472 7.78282 14.3094 7.51132 14.6717 7.51132H20.1962C20.6491 7.51132 20.9208 7.87331 20.9208 8.2353C21.0113 8.68779 20.6491 8.95929 20.1962 8.95929Z" fill="#5B73E8"/>
<path d="M20.1962 12.9412H14.6717C14.2189 12.9412 13.9472 12.5792 13.9472 12.2172C13.9472 11.7647 14.3094 11.4932 14.6717 11.4932H20.1962C20.6491 11.4932 20.9208 11.8552 20.9208 12.2172C21.0113 12.6697 20.6491 12.9412 20.1962 12.9412Z" fill="#5B73E8"/>
<path d="M20.1962 16.9231H14.6717C14.2189 16.9231 13.9472 16.5611 13.9472 16.1991C13.9472 15.7466 14.3094 15.4751 14.6717 15.4751H20.1962C20.6491 15.4751 20.9208 15.8371 20.9208 16.1991C21.0113 16.6516 20.6491 16.9231 20.1962 16.9231Z" fill="#5B73E8"/>
</svg>
