<svg width="13" height="16" viewBox="0 0 13 16" fill="none" xmlns="http://www.w3.org/2000/svg">
<path d="M4.88574 0.96582H7.55981V1.41577H8.52551V0.902832C8.52563 0.405029 8.12085 0 7.62329 0H4.82227C4.32471 0 3.91992 0.405029 3.91992 0.902832V1.41577H4.88574V0.96582Z" fill="#666A73"/>
<path d="M10.7569 5.24219H1.69099C1.44257 5.24219 1.24702 5.4541 1.26704 5.70178L2.02497 15.0739C2.06721 15.597 2.50361 16 3.0279 16H9.41987C9.94416 16 10.3806 15.597 10.4228 15.0737L11.1807 5.70178C11.2009 5.4541 11.0053 5.24219 10.7569 5.24219ZM3.88618 15.0004C3.87604 15.001 3.86591 15.0013 3.8559 15.0013C3.60273 15.0013 3.3902 14.8042 3.37446 14.5481L2.89948 6.85413C2.88312 6.58789 3.08564 6.35876 3.35175 6.34241C3.61701 6.32629 3.84711 6.52832 3.86347 6.79468L4.33833 14.4886C4.3548 14.7549 4.15229 14.9839 3.88618 15.0004ZM6.71223 14.5184C6.71223 14.785 6.49604 15.0012 6.22932 15.0012C5.96259 15.0012 5.74641 14.785 5.74641 14.5184V6.82434C5.74641 6.55762 5.96259 6.34143 6.22932 6.34143C6.49592 6.34143 6.71223 6.55762 6.71223 6.82434V14.5184ZM9.54841 6.85278L9.09492 14.5468C9.0799 14.8033 8.86701 15.0012 8.61335 15.0012C8.60383 15.0012 8.59418 15.001 8.58454 15.0005C8.31831 14.9847 8.11518 14.7562 8.13093 14.49L8.5843 6.7959C8.59992 6.52966 8.8277 6.32654 9.09467 6.34229C9.36091 6.35791 9.56403 6.58655 9.54841 6.85278Z" fill="#666A73"/>
<path d="M12.4265 3.7522L12.1094 2.80151C12.0257 2.5509 11.7911 2.38184 11.5268 2.38184H0.920272C0.656111 2.38184 0.42137 2.5509 0.337874 2.80151L0.0207355 3.7522C-0.0404217 3.93555 0.0391681 4.12256 0.187728 4.21582C0.248275 4.25378 0.31993 4.27661 0.398665 4.27661H12.0486C12.1273 4.27661 12.1991 4.25378 12.2595 4.2157C12.4081 4.12244 12.4877 3.93542 12.4265 3.7522Z" fill="#666A73"/>
</svg>
