<svg width="16" height="20" viewBox="0 0 16 20" fill="none" xmlns="http://www.w3.org/2000/svg">
<path d="M15.9504 4.37872L15.5178 3.08216C15.3531 2.58834 14.8926 2.25654 14.3722 2.25654H10.7369V1.07297C10.7369 0.48141 10.2559 0 9.66453 0H6.33547C5.7442 0 5.26309 0.48141 5.26309 1.07297V2.25654H1.62794C1.10737 2.25654 0.646883 2.58834 0.482178 3.08216L0.0496417 4.37872C-0.0488523 4.6739 0.00106727 5.00077 0.18296 5.25321C0.364852 5.50565 0.659138 5.65645 0.970313 5.65645H1.42243L2.41753 17.9616C2.49151 18.8747 3.26631 19.59 4.18175 19.59H12.0202C12.9355 19.59 13.7104 18.8747 13.7842 17.9615L14.7793 5.65645H15.0297C15.3409 5.65645 15.6351 5.50565 15.817 5.25336C15.9989 5.00092 16.0489 4.6739 15.9504 4.37872ZM6.41094 1.14785H9.58906V2.25654H6.41094V1.14785ZM12.6401 17.869C12.6141 18.1904 12.3418 18.4421 12.0202 18.4421H4.18175C3.86012 18.4421 3.5878 18.1904 3.56179 17.869L2.57402 5.65645H13.6278L12.6401 17.869ZM1.21647 4.5086L1.57114 3.44534C1.57921 3.42083 1.60208 3.40439 1.62794 3.40439H14.3722C14.3981 3.40439 14.4208 3.42083 14.429 3.44534L14.7837 4.5086H1.21647Z" fill="#FF000D"/>
<path d="M10.8097 17.8283C10.8199 17.8289 10.8299 17.829 10.84 17.829C11.1433 17.829 11.3968 17.5914 11.4126 17.285L11.9516 6.9391C11.968 6.62255 11.7247 6.35247 11.4083 6.33603C11.091 6.31914 10.8218 6.56276 10.8052 6.87932L10.2664 17.2252C10.25 17.5418 10.4931 17.8118 10.8097 17.8283Z" fill="#FF000D"/>
<path d="M4.616 17.2864C4.63274 17.5923 4.88592 17.8291 5.18857 17.8291C5.19904 17.8291 5.2098 17.8288 5.22041 17.8282C5.53681 17.811 5.77938 17.5404 5.7622 17.2239L5.19769 6.87799C5.1805 6.56144 4.90998 6.31886 4.59343 6.3362C4.27702 6.35339 4.03445 6.62391 4.05164 6.94047L4.616 17.2864Z" fill="#FF000D"/>
<path d="M8.00752 17.8291C8.32452 17.8291 8.58144 17.5722 8.58144 17.2551V6.90925C8.58144 6.59225 8.32452 6.33533 8.00752 6.33533C7.69051 6.33533 7.43359 6.59225 7.43359 6.90925V17.2551C7.43359 17.5722 7.69051 17.8291 8.00752 17.8291Z" fill="#FF000D"/>
</svg>
