<svg width="30" height="30" viewBox="0 0 30 30" fill="none" xmlns="http://www.w3.org/2000/svg">
<path d="M11.258 26.226H3.13433C1.40725 26.226 0 24.8827 0 23.1556V3.13433C0 1.40725 1.40725 0 3.13433 0H18.1663C19.8934 0 21.3006 1.40725 21.3006 3.13433V10.6823C21.3006 11.0021 21.0448 11.322 20.661 11.322C20.3412 11.322 20.0213 11.0661 20.0213 10.6823V3.13433C20.0213 2.11087 19.1898 1.27932 18.1023 1.27932H3.13433C2.11087 1.27932 1.27932 2.11087 1.27932 3.13433V23.1556C1.27932 24.1791 2.11087 25.0107 3.13433 25.0107H11.258C11.5778 25.0107 11.8977 25.2665 11.8977 25.6503C11.8977 26.0341 11.6418 26.226 11.258 26.226Z" fill="#5B73E8"/>
<path d="M16.8869 11.258H4.34962C4.02979 11.258 3.70996 11.0021 3.70996 10.6183C3.70996 10.2345 3.96582 9.97867 4.34962 9.97867H16.823C17.1428 9.97867 17.4626 10.2345 17.4626 10.6183C17.4626 11.0021 17.2068 11.258 16.8869 11.258Z" fill="#5B73E8"/>
<path d="M11.8976 16.2473H4.34962C4.02979 16.2473 3.70996 15.9915 3.70996 15.6077C3.70996 15.2878 3.96582 14.968 4.34962 14.968H11.8336C12.1535 14.968 12.4733 15.2239 12.4733 15.6077C12.4733 15.9915 12.2174 16.2473 11.8976 16.2473Z" fill="#5B73E8"/>
<path d="M10.6183 6.26867H4.34962C4.02979 6.26867 3.70996 6.0128 3.70996 5.62901C3.70996 5.30918 3.96582 4.98935 4.34962 4.98935H10.6183C10.9381 4.98935 11.2579 5.24521 11.2579 5.62901C11.2579 5.94884 11.0021 6.26867 10.6183 6.26867Z" fill="#5B73E8"/>
<path d="M21.8766 30C17.399 30 13.7529 26.3539 13.7529 21.8763C13.7529 17.3987 17.399 13.7527 21.8766 13.7527C26.3542 13.7527 30.0003 17.3987 30.0003 21.8763C30.0003 26.3539 26.3542 30 21.8766 30ZM21.8766 15.032C18.1026 15.032 15.0322 18.1023 15.0322 21.8763C15.0322 25.6503 18.1026 28.7846 21.8766 28.7846C25.6506 28.7846 28.7849 25.6503 28.7849 21.8763C28.7849 18.1023 25.6506 15.032 21.8766 15.032Z" fill="#5B73E8"/>
<path d="M21.876 26.226C21.5562 26.226 21.2363 25.9702 21.2363 25.5864V18.1024C21.2363 17.7825 21.4922 17.4627 21.876 17.4627C22.2598 17.4627 22.5156 17.7186 22.5156 18.1024V25.5864C22.5156 25.9702 22.1958 26.226 21.876 26.226Z" fill="#5B73E8"/>
<path d="M25.6505 22.516H18.1025C17.7827 22.516 17.4629 22.2601 17.4629 21.8763C17.4629 21.4925 17.7188 21.2367 18.1025 21.2367H25.5866C25.9064 21.2367 26.2262 21.4925 26.2262 21.8763C26.2262 22.2601 25.9704 22.516 25.6505 22.516Z" fill="#5B73E8"/>
</svg>
