<svg width="18" height="18" viewBox="0 0 18 18" fill="none" xmlns="http://www.w3.org/2000/svg">
<path d="M8.97534 16.8658C13.3151 16.8658 16.8164 13.3644 16.8164 8.97534C16.8164 4.5863 13.3151 1.08493 8.97534 1.08493C4.63562 1.08493 1.13425 4.5863 1.13425 8.97534C1.13425 13.3644 4.63562 16.8658 8.97534 16.8658ZM8.97534 0C13.9562 0 17.9507 4.04384 17.9507 8.97534C17.9507 13.9562 13.9068 17.9507 8.97534 17.9507C4.04384 18 0 13.9562 0 8.97534C0 4.04384 4.04384 0 8.97534 0Z" fill="#5B73E8"/>
<path d="M8.433 13.2658V2.81097H9.56725V13.2658L12.5262 10.3069L13.3152 11.0959L9.36999 15.0411C9.17273 15.2384 8.77821 15.2384 8.58095 15.0411L4.63574 11.0959L5.42478 10.3069L8.433 13.2658Z" fill="#5B73E8"/>
</svg>
