<svg width="14" height="14" viewBox="0 0 14 14" fill="none" xmlns="http://www.w3.org/2000/svg">
<path d="M6.98082 13.1178C10.3562 13.1178 13.0795 10.3945 13.0795 6.98082C13.0795 3.56712 10.3562 0.843836 6.98082 0.843836C3.60548 0.843836 0.882192 3.56712 0.882192 6.98082C0.882192 10.3945 3.60548 13.1178 6.98082 13.1178ZM6.98082 0C10.8548 0 13.9616 3.14521 13.9616 6.98082C13.9616 10.8548 10.8164 13.9616 6.98082 13.9616C3.14521 14 0 10.8548 0 6.98082C0 3.14521 3.14521 0 6.98082 0Z" fill="white"/>
<path d="M6.55889 10.3178V2.18628H7.44109V10.3178L9.74246 8.01642L10.3562 8.63012L7.28766 11.6986C7.13424 11.852 6.82739 11.852 6.67396 11.6986L3.60547 8.63012L4.21917 8.01642L6.55889 10.3178Z" fill="white"/>
</svg>
