<svg width="16" height="16" viewBox="0 0 16 16" fill="none" xmlns="http://www.w3.org/2000/svg">
<path d="M7.97808 14.9918C11.8356 14.9918 14.9479 11.8795 14.9479 7.97808C14.9479 4.07671 11.8356 0.964384 7.97808 0.964384C4.12055 0.964384 1.00822 4.07671 1.00822 7.97808C1.00822 11.8795 4.12055 14.9918 7.97808 14.9918ZM7.97808 0C12.4055 0 15.9562 3.59452 15.9562 7.97808C15.9562 12.4055 12.3616 15.9562 7.97808 15.9562C3.59452 16 0 12.4055 0 7.97808C0 3.59452 3.59452 0 7.97808 0Z" fill="white"/>
<path d="M7.49644 11.7918V2.49863H8.50465V11.7918L11.1348 9.16164L11.8362 9.86301L8.32931 13.3699C8.15397 13.5452 7.80329 13.5452 7.62794 13.3699L4.12109 9.86301L4.82246 9.16164L7.49644 11.7918Z" fill="white"/>
</svg>
