<svg width="12" height="12" viewBox="0 0 12 12" fill="none" xmlns="http://www.w3.org/2000/svg">
<g clip-path="url(#clip0)">
<path d="M11.0755 7.53833C10.9105 7.53833 10.7767 7.67212 10.7767 7.83719V10.4908C10.7761 10.9858 10.3751 11.3869 9.88008 11.3874H1.49431C0.99932 11.3869 0.598308 10.9858 0.597724 10.4908V2.70271C0.598308 2.20784 0.99932 1.80671 1.49431 1.80612H4.14788C4.31295 1.80612 4.44674 1.67234 4.44674 1.50726C4.44674 1.3423 4.31295 1.2084 4.14788 1.2084H1.49431C0.669405 1.20933 0.000933944 1.8778 0 2.70271V10.4909C0.000933944 11.3158 0.669405 11.9843 1.49431 11.9852H9.88008C10.705 11.9843 11.3735 11.3158 11.3744 10.4909V7.83719C11.3744 7.67212 11.2406 7.53833 11.0755 7.53833Z" fill="white"/>
<path d="M11.257 0.439412C10.7318 -0.0858145 9.88026 -0.0858145 9.35503 0.439412L4.02314 5.7713C3.9866 5.80784 3.96022 5.85314 3.94644 5.90287L3.24528 8.43421C3.21645 8.53799 3.24575 8.64913 3.32186 8.72536C3.3981 8.80148 3.50924 8.83078 3.61302 8.80206L6.14436 8.10079C6.1941 8.08701 6.23939 8.06063 6.27593 8.02409L11.6077 2.69209C12.1321 2.16651 12.1321 1.31569 11.6077 0.790108L11.257 0.439412ZM4.67433 5.96556L9.03807 1.60171L10.4454 3.00904L6.08156 7.3729L4.67433 5.96556ZM4.39322 6.52966L5.51757 7.65413L3.96232 8.08503L4.39322 6.52966ZM11.1851 2.26948L10.8681 2.58643L9.46069 1.17898L9.77776 0.862022C10.0695 0.570281 10.5425 0.570281 10.8343 0.862022L11.1851 1.21272C11.4764 1.50481 11.4764 1.9775 11.1851 2.26948Z" fill="white"/>
</g>
<defs>
<clipPath id="clip0">
<rect width="12" height="12" fill="white"/>
</clipPath>
</defs>
</svg>
