<svg width="25" height="10" viewBox="0 0 25 10" fill="none" xmlns="http://www.w3.org/2000/svg">
<path d="M0 8.3V6.9C0 5.1 1 3.4 2.5 2.5C4.1 1.5 5.9 0.9 7.7 0.6C9.4 0.2 11.1 0 12.7 0C14.3 0 15.8 0.1 17.3 0.5C19 0.9 20.5 1.3 22 2.1C23.8 2.9 24.9 4.7 24.9 6.8V8.5C24.9 9 24.5 9.3 24.1 9.3H18.9C18.4 9.3 18.1 8.9 18.1 8.5V5.5C18.1 4.7 17.5 3.9 16.7 3.8C15.4 3.6 14.1 3.4 12.7 3.4C11.3 3.4 9.8 3.5 8.3 3.8C7.5 3.9 6.9 4.6 6.9 5.5V8.5C6.9 9 6.5 9.3 6.1 9.3H0.9C0.4 9.2 0 8.8 0 8.3Z" fill="#E2131B"/>
</svg>
