<svg width="24" height="19" viewBox="0 0 24 19" fill="none" xmlns="http://www.w3.org/2000/svg">
<path d="M8.24768 19C5.94428 19 3.64087 18.3133 1.33747 16.8635L0.0743103 16.1004H2.67493C4.3096 16.1004 5.79567 15.7189 7.05883 14.8795C5.42415 14.498 4.161 13.2771 3.64087 11.5221L3.34366 10.5301L3.93809 10.8353C2.82354 9.91968 2.15481 8.54619 2.15481 6.94378V6.40964L2.74923 6.63855C2.89784 6.71486 3.04645 6.79116 3.19505 6.79116C2.37772 5.95181 2.0062 4.95984 2.0062 3.89157C2.0062 2.82329 2.15481 2.06024 2.60063 1.29719L2.97214 0.763052L3.34366 1.22088C5.27555 3.81526 8.32199 5.49398 11.517 5.72289C11.517 5.57028 11.517 5.41767 11.517 5.18876C11.517 2.51807 13.6718 0.228916 16.1981 0.228916C17.387 0.228916 18.6502 0.686747 19.5418 1.5261C20.4334 1.29719 21.3251 0.991968 21.9938 0.534137L22.9598 0L22.6625 1.06827C22.5139 1.67871 22.2167 2.21285 21.8452 2.67068C22.1424 2.59438 22.4396 2.44177 22.7368 2.36546L24 1.75502L23.3313 2.9759C22.8111 3.89157 22.0681 4.73092 21.1022 5.49398V5.7992C21.1022 12.2851 16.2725 19 8.24768 19ZM3.19505 16.9398C4.90403 17.7791 6.53871 18.1606 8.24768 18.1606C15.7523 18.1606 20.2848 11.9036 20.2848 5.7992V5.03614L20.4334 4.88353C20.9536 4.50201 21.3994 4.04418 21.8452 3.66265C21.3994 3.73896 20.9536 3.81526 20.5077 3.89157L18.3529 4.19679L20.2105 3.05221C20.7307 2.74699 21.1765 2.36546 21.4737 1.90763C20.8793 2.13655 20.2848 2.36546 19.6161 2.51807H19.3189L19.1703 2.36546C18.4272 1.60241 17.3127 1.14458 16.2725 1.14458C14.192 1.14458 12.4087 3.05221 12.4087 5.26506C12.4087 5.64659 12.4087 5.8755 12.483 6.02811L12.7802 6.71486H12.0372C8.6192 6.48594 5.34985 4.88353 3.12075 2.28916C2.97214 2.74699 2.89784 3.20482 2.89784 3.81526C2.89784 5.11245 3.56657 6.40964 4.75542 7.17269L5.94428 7.93574H4.45821C3.93809 7.93574 3.41796 7.78313 2.89784 7.63052C3.12075 9.30924 4.38391 10.6064 6.01858 10.988L7.57895 11.2932L6.09289 11.8273C5.57276 11.9799 5.12694 11.9799 4.60682 11.9799C5.27555 13.2771 6.61301 14.1165 8.09908 14.1165H9.28793L8.39629 14.8795C6.91022 16.1004 5.12694 16.7871 3.19505 16.9398Z" fill="#565656"/>
</svg>
