<svg width="40" height="23" viewBox="0 0 40 23" fill="none" xmlns="http://www.w3.org/2000/svg">
<path d="M19.9599 23C20.2818 23 20.5232 22.7491 20.5232 22.4145V19.9054C20.5232 19.5709 20.2818 19.32 19.9599 19.32C19.6379 19.32 19.3965 19.5709 19.3965 19.9054V22.4145C19.3965 22.7491 19.6379 23 19.9599 23Z" fill="#5B73E8"/>
<path d="M27.6059 16.8946L29.296 18.6509C29.5375 18.9018 29.8594 18.9018 30.1009 18.6509C30.3423 18.4 30.3423 18.0655 30.1009 17.8146L28.4107 16.0582C28.3302 15.9746 28.1693 15.8909 28.0083 15.8909C27.8473 15.8909 27.6864 15.9746 27.6059 16.0582C27.3644 16.2255 27.3644 16.6436 27.6059 16.8946Z" fill="#5B73E8"/>
<path d="M31.2274 8.69818H33.6419C33.9639 8.69818 34.2053 8.44727 34.2053 8.11272C34.2053 7.77818 33.9639 7.52727 33.6419 7.52727H31.2274C30.9055 7.52727 30.6641 7.77818 30.6641 8.11272C30.6641 8.44727 30.9055 8.69818 31.2274 8.69818Z" fill="#5B73E8"/>
<path d="M6.27725 8.69818H8.69173C9.01367 8.69818 9.25511 8.44727 9.25511 8.11272C9.25511 7.77818 9.01367 7.52727 8.69173 7.52727H6.27725C5.95532 7.52727 5.71387 7.77818 5.71387 8.11272C5.71387 8.44727 5.95532 8.69818 6.27725 8.69818Z" fill="#5B73E8"/>
<path d="M9.81878 19.0691C10.0602 19.32 10.3822 19.32 10.6236 19.0691L12.3138 17.3127C12.5552 17.0618 12.5552 16.7273 12.3138 16.4764C12.2333 16.3927 12.0723 16.3091 11.9113 16.3091C11.7504 16.3091 11.5894 16.3927 11.5089 16.4764L9.81878 18.2327C9.57733 18.4 9.57733 18.8182 9.81878 19.0691Z" fill="#5B73E8"/>
<path d="M0.56338 5.26909H12.0724C11.7505 6.18909 11.5895 7.10909 11.5895 8.11273C11.5895 12.88 15.3722 16.8109 19.9598 16.8109C22.6157 16.8109 25.1911 15.4727 26.8008 13.1309C26.9618 12.88 26.9618 12.4618 26.6398 12.2945C26.3984 12.1273 25.996 12.1273 25.835 12.4618C24.4668 14.3855 22.2938 15.5564 19.9598 15.5564C16.0161 15.5564 12.7163 12.2109 12.7163 8.02909C12.7163 7.02545 12.8773 6.10545 13.2797 5.18545H26.6398C26.9618 6.10545 27.2032 7.02545 27.2032 8.02909C27.2032 8.44727 27.2032 8.86545 27.1227 9.28364C27.0423 9.61818 27.2837 9.95273 27.6056 9.95273C27.9276 10.0364 28.2495 9.78545 28.2495 9.45091C28.33 8.94909 28.4105 8.44727 28.4105 7.94545C28.4105 6.94182 28.2495 6.02182 27.9276 5.10182H39.4366C39.7585 5.10182 40 4.85091 40 4.51636C40 4.18182 39.7585 3.93091 39.4366 3.93091H27.0423H12.9577H0.56338C0.241449 4.09818 0 4.34909 0 4.68364C0 5.01818 0.241449 5.26909 0.56338 5.26909Z" fill="#5B73E8"/>
<path d="M2.81729 1.25455H27.767C28.0889 1.25455 28.3304 1.00364 28.3304 0.669091C28.3304 0.334545 28.0889 0 27.767 0H2.81729C2.49535 0 2.25391 0.250909 2.25391 0.585455C2.25391 0.92 2.49535 1.25455 2.81729 1.25455Z" fill="#5B73E8"/>
<path d="M31.2274 1.25455H37.1832C37.5051 1.25455 37.7466 1.00364 37.7466 0.669091C37.7466 0.334545 37.5051 0 37.1832 0H31.2274C30.9055 0 30.6641 0.250909 30.6641 0.585455C30.6641 0.92 30.9055 1.25455 31.2274 1.25455Z" fill="#5B73E8"/>
</svg>
