<svg width="17" height="18" viewBox="0 0 17 18" fill="none" xmlns="http://www.w3.org/2000/svg">
<g clip-path="url(#clip0)">
<path d="M9.78352 0.457498C9.69948 0.385216 9.58885 0.357584 9.48319 0.382509L0.274871 2.63251C0.112807 2.67195 -0.00154477 2.82545 1.57783e-05 3.00151V15.7515C8.21846e-05 15.9365 0.127615 16.0939 0.300338 16.122L9.50866 17.622C9.702 17.6535 9.88283 17.5131 9.91254 17.3084C9.91527 17.2896 9.91666 17.2706 9.91666 17.2516V0.751509C9.91699 0.637146 9.86795 0.5289 9.78352 0.457498Z" fill="#5B73E8"/>
<path d="M16.6465 16.1265H9.56316C9.36756 16.1265 9.20898 15.9586 9.20898 15.7515C9.20898 15.5444 9.36756 15.3765 9.56316 15.3765H16.2923V2.62651H9.56316C9.36756 2.62651 9.20898 2.45861 9.20898 2.2515C9.20898 2.0444 9.36756 1.87653 9.56316 1.87653H16.6465C16.8421 1.87653 17.0007 2.04443 17.0007 2.25154V15.7515C17.0007 15.9586 16.8421 16.1265 16.6465 16.1265Z" fill="#5B73E8"/>
<path d="M6.72911 12.3773C6.60699 12.3773 6.4935 12.3106 6.42879 12.201L2.88711 6.20102C2.77824 6.02896 2.82174 5.79602 2.98423 5.68074C3.14673 5.56546 3.36673 5.61152 3.4756 5.78357C3.47989 5.79032 3.48394 5.79721 3.48779 5.80424L7.02947 11.8043C7.13273 11.9801 7.0818 12.2114 6.91568 12.3207C6.85967 12.3576 6.79505 12.3772 6.72911 12.3773Z" fill="#FAFAFA"/>
<path d="M3.18841 12.3766C2.99281 12.3761 2.83456 12.2079 2.83496 12.0008C2.83509 11.9308 2.85375 11.8622 2.88878 11.8028L6.43046 5.80281C6.52854 5.62361 6.74526 5.56255 6.91446 5.6664C7.0837 5.77025 7.14137 5.99972 7.04329 6.17887C7.03944 6.1859 7.03539 6.19279 7.0311 6.19954L3.48946 12.1996C3.42478 12.3097 3.31093 12.3767 3.18841 12.3766Z" fill="#FAFAFA"/>
<path d="M12.3952 16.1265C12.1996 16.1265 12.041 15.9586 12.041 15.7515V2.25154C12.041 2.04443 12.1996 1.87653 12.3952 1.87653C12.5908 1.87653 12.7494 2.04443 12.7494 2.25154V15.7515C12.7493 15.9587 12.5908 16.1265 12.3952 16.1265Z" fill="#5B73E8"/>
<path d="M16.6455 13.8765H9.56219C9.36659 13.8765 9.20801 13.7086 9.20801 13.5015C9.20801 13.2944 9.36659 13.1265 9.56219 13.1265H16.6455C16.8411 13.1265 16.9997 13.2944 16.9997 13.5015C16.9997 13.7087 16.8411 13.8765 16.6455 13.8765Z" fill="#5B73E8"/>
<path d="M16.6455 11.6265H9.56219C9.36659 11.6265 9.20801 11.4586 9.20801 11.2515C9.20801 11.0444 9.36659 10.8765 9.56219 10.8765H16.6455C16.8411 10.8765 16.9997 11.0444 16.9997 11.2515C16.9997 11.4587 16.8411 11.6265 16.6455 11.6265Z" fill="#5B73E8"/>
<path d="M16.6455 9.37655H9.56219C9.36659 9.37655 9.20801 9.20864 9.20801 9.00154C9.20801 8.79443 9.36659 8.62653 9.56219 8.62653H16.6455C16.8411 8.62653 16.9997 8.79443 16.9997 9.00154C16.9997 9.20868 16.8411 9.37655 16.6455 9.37655Z" fill="#5B73E8"/>
<path d="M16.6455 7.12655H9.56219C9.36659 7.12655 9.20801 6.95864 9.20801 6.75154C9.20801 6.54443 9.36659 6.37653 9.56219 6.37653H16.6455C16.8411 6.37653 16.9997 6.54443 16.9997 6.75154C16.9997 6.95864 16.8411 7.12655 16.6455 7.12655Z" fill="#5B73E8"/>
<path d="M16.6455 4.87655H9.56219C9.36659 4.87655 9.20801 4.70864 9.20801 4.50154C9.20801 4.29443 9.36659 4.12653 9.56219 4.12653H16.6455C16.8411 4.12653 16.9997 4.29443 16.9997 4.50154C16.9997 4.70868 16.8411 4.87655 16.6455 4.87655Z" fill="#5B73E8"/>
</g>
<defs>
<clipPath id="clip0">
<rect width="17" height="18" fill="white"/>
</clipPath>
</defs>
</svg>
