<svg width="27" height="22" viewBox="0 0 27 22" fill="none" xmlns="http://www.w3.org/2000/svg">
<g clip-path="url(#clip0)">
<path d="M14.4795 22C13.7129 22 12.9464 21.8288 12.265 21.4008L0.511041 14.8949C0.170347 14.7237 0 14.2957 0 13.9533C0 13.5253 0.340694 13.1829 0.681388 13.0973L2.5552 12.4125C2.72555 12.3269 2.81073 12.4125 2.8959 12.5837C2.98107 12.7549 2.8959 12.8405 2.72555 12.9261L0.851735 13.5253C0.681388 13.6109 0.511041 13.7821 0.511041 13.9533C0.511041 14.1245 0.596214 14.3813 0.766561 14.4669L12.5205 20.9728C13.6278 21.572 14.9905 21.6576 16.183 21.144L26.3186 16.607C26.489 16.5214 26.5741 16.4358 26.5741 16.2646C26.5741 16.0934 26.489 15.9222 26.3186 15.9222L24.9558 15.4086C24.7855 15.323 24.7855 15.2374 24.7855 15.0662C24.8707 14.8949 24.9558 14.8949 25.1262 14.8949L26.489 15.4086C26.8297 15.5798 27.0852 15.8366 27.0852 16.2646C27.0852 16.607 26.9148 16.9494 26.5741 17.1206L16.4385 21.6576C15.7571 21.9144 15.0757 22 14.4795 22Z" fill="#5B73E8"/>
<path d="M13.2019 18.8327C13.0316 18.8327 12.9464 18.7471 12.9464 18.5759V13.8677C12.9464 13.6965 13.0316 13.6109 13.2019 13.6109C13.3722 13.6109 13.4574 13.6965 13.4574 13.8677V18.5759C13.4574 18.6615 13.3722 18.8327 13.2019 18.8327Z" fill="#5B73E8"/>
<path d="M19.3344 18.8327C19.1641 18.8327 19.0789 18.7471 19.0789 18.5759V13.8677C19.0789 13.6965 19.1641 13.6109 19.3344 13.6109C19.5048 13.6109 19.5899 13.6965 19.5899 13.7821V18.4903C19.5899 18.6615 19.4196 18.8327 19.3344 18.8327Z" fill="#5B73E8"/>
<path d="M16.2681 14.895C15.0757 14.895 12.9464 14.6382 12.9464 13.7821C12.9464 12.9261 14.9905 12.6693 16.2681 12.6693C17.4606 12.6693 19.5899 12.9261 19.5899 13.7821C19.5899 14.6382 17.4606 14.895 16.2681 14.895ZM16.2681 13.1829C14.3943 13.1829 13.5426 13.6109 13.4574 13.7821C13.5426 13.9533 14.3943 14.3813 16.2681 14.3813C18.142 14.3813 18.9937 13.9533 19.0789 13.7821C18.9937 13.6109 18.0568 13.1829 16.2681 13.1829Z" fill="#5B73E8"/>
<path d="M16.2681 19.6031C15.0757 19.6031 12.9464 19.3463 12.9464 18.4903C12.9464 18.3191 13.0316 18.2335 13.2019 18.2335C13.3722 18.2335 13.4574 18.3191 13.4574 18.4903C13.5426 18.6615 14.3943 19.0895 16.2681 19.0895C18.142 19.0895 18.9937 18.6615 19.0789 18.4903C19.0789 18.3191 19.164 18.2335 19.3344 18.2335C19.5047 18.2335 19.5899 18.3191 19.5899 18.4903C19.5899 19.4319 17.4606 19.6031 16.2681 19.6031Z" fill="#5B73E8"/>
<path d="M15.9275 13.1829H15.8423L10.4763 10.8716C10.306 10.786 10.306 10.7004 10.306 10.5292C10.3912 10.358 10.4763 10.358 10.6467 10.358L16.0126 12.6693C16.183 12.7549 16.183 12.8405 16.183 13.0117C16.183 13.1829 16.0978 13.1829 15.9275 13.1829Z" fill="#5B73E8"/>
<path d="M23.3375 16.4358H23.2524L19.2492 14.7238L19.4196 14.2957L23.082 15.9222V4.7938L12.4353 1.79769C12.265 1.79769 12.1798 1.62648 12.265 1.45528C12.265 1.28407 12.4353 1.19847 12.6057 1.28407L23.4227 4.19458C23.5079 4.19458 23.5931 4.36578 23.5931 4.45139V16.179C23.5931 16.2646 23.5079 16.3502 23.5079 16.3502C23.4227 16.4358 23.3375 16.4358 23.3375 16.4358Z" fill="#5B73E8"/>
<path d="M23.3375 4.70818C23.2524 4.70818 23.1672 4.62257 23.082 4.53697C22.9969 4.45137 23.082 4.28016 23.2524 4.28016L25.1262 3.33853C25.2114 3.25292 25.3817 3.33853 25.4669 3.42413C25.5521 3.50973 25.4669 3.68094 25.3817 3.76654L23.5079 4.70818C23.4227 4.70818 23.3375 4.70818 23.3375 4.70818Z" fill="#5B73E8"/>
<path d="M23.3375 16.4358C23.2523 16.4358 23.1672 16.3502 23.082 16.3502C22.9968 16.2646 23.082 16.0934 23.1672 16.0078L25.041 14.895C25.1262 14.8094 25.2965 14.895 25.3817 14.9806C25.4669 15.0662 25.3817 15.2374 25.2965 15.323L23.4227 16.4358H23.3375Z" fill="#5B73E8"/>
<path d="M25.2114 15.323C25.041 15.323 24.9558 15.2374 24.9558 15.0662V3.68095L12.3502 0.513632C12.1798 0.513632 12.0946 0.342426 12.1798 0.171219C12.1798 1.31801e-05 12.3502 -0.0855899 12.5205 1.31838e-05L25.2965 3.25293C25.3817 3.25293 25.4669 3.42414 25.4669 3.50974V15.0662C25.4669 15.1518 25.3817 15.323 25.2114 15.323Z" fill="#5B73E8"/>
<path d="M4.68455 14.895C4.59938 14.895 4.59938 14.895 4.51421 14.8093C4.42903 14.7237 4.42903 14.7237 4.42903 14.6381V3.42414C4.42903 3.33853 4.51421 3.16733 4.59938 3.16733L12.4353 1.28406C12.5205 1.28406 12.6057 1.28406 12.6909 1.36966C12.6909 1.36966 12.776 1.45526 12.776 1.54087V5.64982C12.776 5.82102 12.6909 5.90663 12.5205 5.90663C12.3502 5.90663 12.265 5.82102 12.265 5.64982V1.88328L4.94007 3.68094V14.2957L8.00632 13.0973C8.17667 13.0117 8.26184 13.0973 8.34701 13.2685C8.43219 13.4397 8.34701 13.5253 8.17667 13.6109L4.76973 14.895C4.68455 14.895 4.68455 14.895 4.68455 14.895Z" fill="#5B73E8"/>
<path d="M4.68454 14.8949H4.59937L2.64038 14.0389C2.47003 13.9533 2.47003 13.8677 2.47003 13.6965C2.55521 13.5253 2.64038 13.5253 2.81073 13.5253L4.76972 14.3813C4.94006 14.4669 4.94006 14.5525 4.94006 14.7237C4.85489 14.8949 4.76972 14.8949 4.68454 14.8949Z" fill="#5B73E8"/>
<path d="M8.0063 13.6109C7.83595 13.6109 7.75078 13.5253 7.75078 13.3541V6.93386C7.75078 6.84826 7.83595 6.67705 7.92112 6.67705L12.3501 5.39301C12.5205 5.39301 12.6057 5.39301 12.6908 5.56421C12.6908 5.73542 12.6908 5.82102 12.5205 5.90662L8.26182 7.10507V13.2685C8.26182 13.5253 8.17664 13.6109 8.0063 13.6109Z" fill="#5B73E8"/>
<path d="M2.72555 14.0389C2.55521 14.0389 2.47003 13.9533 2.47003 13.7821V2.56809C2.47003 2.48249 2.55521 2.31128 2.64038 2.31128L12.3502 0L12.4353 0.513619L2.98107 2.7393V13.7821C2.98107 13.9533 2.81073 14.0389 2.72555 14.0389Z" fill="#5B73E8"/>
<path d="M4.68454 3.68096H4.59937L2.55521 2.82493C2.47003 2.73933 2.38486 2.56812 2.47003 2.48252C2.55521 2.31131 2.64038 2.31131 2.81073 2.31131L4.76972 3.16734C4.85489 3.25294 4.94006 3.42415 4.85489 3.50975C4.85489 3.68096 4.76972 3.68096 4.68454 3.68096Z" fill="#5B73E8"/>
<path d="M10.5615 10.8716C10.3912 10.8716 10.306 10.786 10.306 10.6148V6.24903C10.306 6.07782 10.3912 5.99222 10.5615 5.99222C10.7319 5.99222 10.817 6.07782 10.817 6.24903V10.6148C10.817 10.786 10.7319 10.8716 10.5615 10.8716Z" fill="#5B73E8"/>
<path d="M20.612 13.3541H20.5268L13.8833 10.7004C13.7981 10.7004 13.7129 10.5292 13.7129 10.4436V4.28018C13.7129 4.19457 13.7129 4.10897 13.7981 4.10897C13.8833 4.02337 13.9684 4.02337 14.0536 4.10897L20.6971 6.16345C20.7823 6.16345 20.8675 6.33465 20.8675 6.42026V13.1829C20.8675 13.2685 20.8675 13.3541 20.7823 13.3541C20.6971 13.3541 20.6971 13.3541 20.612 13.3541ZM14.224 10.2724L20.3565 12.7549V6.59146L14.224 4.70819V10.2724Z" fill="#5B73E8"/>
<path d="M13.9684 3.50975C13.7129 3.50975 13.4574 3.25294 13.4574 2.99613C13.4574 2.73932 13.7129 2.48251 13.9684 2.48251C14.224 2.48251 14.4795 2.73932 14.4795 2.99613C14.4795 3.25294 14.3091 3.50975 13.9684 3.50975ZM13.9684 2.99613C13.9684 3.08174 13.9684 3.08174 13.9684 2.99613V2.99613Z" fill="#5B73E8"/>
<path d="M15.6719 4.02336C15.4164 4.02336 15.1609 3.76655 15.1609 3.50974C15.1609 3.25293 15.4164 2.99612 15.6719 2.99612C15.9275 2.99612 16.183 3.25293 16.183 3.50974C16.183 3.76655 15.9275 4.02336 15.6719 4.02336Z" fill="#5B73E8"/>
<path d="M17.2902 4.45137C17.0347 4.45137 16.7792 4.19456 16.7792 3.93775C16.7792 3.68094 17.0347 3.42413 17.2902 3.42413C17.5457 3.42413 17.8013 3.68094 17.8013 3.93775C17.8013 4.19456 17.5457 4.45137 17.2902 4.45137ZM17.2902 3.93775C17.2902 3.93775 17.2902 4.02336 17.2902 3.93775V3.93775Z" fill="#5B73E8"/>
<path d="M18.9937 4.87938C18.7382 4.87938 18.4826 4.62257 18.4826 4.36576C18.4826 4.10895 18.7382 3.85214 18.9937 3.85214C19.2492 3.85214 19.5047 4.10895 19.5047 4.36576C19.5047 4.62257 19.2492 4.87938 18.9937 4.87938Z" fill="#5B73E8"/>
<path d="M20.8675 5.47862C20.612 5.47862 20.3565 5.22181 20.3565 4.965C20.3565 4.7082 20.612 4.45139 20.8675 4.45139C21.123 4.45139 21.3786 4.7082 21.3786 4.965C21.2934 5.22181 21.123 5.47862 20.8675 5.47862ZM20.7823 4.965C20.7823 4.965 20.8675 4.965 20.7823 4.965V4.965Z" fill="#5B73E8"/>
<path d="M8.0063 11.7276C7.92112 11.7276 7.83595 11.642 7.75078 11.5564C7.75078 11.3852 7.75078 11.2996 7.92113 11.214L10.4763 10.4436C10.6467 10.4436 10.7318 10.4436 10.817 10.6148C10.817 10.786 10.817 10.8716 10.6467 10.9572L8.0063 11.7276C8.09147 11.7276 8.09147 11.7276 8.0063 11.7276Z" fill="#5B73E8"/>
</g>
<defs>
<clipPath id="clip0">
<rect width="27" height="22" fill="white"/>
</clipPath>
</defs>
</svg>
