<svg width="12" height="12" viewBox="0 0 12 12" fill="none" xmlns="http://www.w3.org/2000/svg">
<path d="M5.06342 5.57857V0.929762C5.06342 0.416739 5.48321 0 6 0C6.51679 0 6.93658 0.416739 6.93658 0.929762V5.57857C6.93658 6.09159 6.51679 6.50833 6 6.50833C5.48321 6.50833 5.06342 6.09159 5.06342 5.57857ZM9.71251 1.36329C9.4091 1.1248 8.96643 1.17714 8.72619 1.47883C8.48595 1.78101 8.53817 2.21948 8.84258 2.45846C9.95673 3.33095 10.5954 4.63745 10.5954 6.0437C10.5954 8.55894 8.5337 10.6056 6.0005 10.6056C3.4668 10.6056 1.40512 8.55894 1.40512 6.0437C1.40512 4.63795 2.04327 3.33193 3.15643 2.45994C3.46083 2.22145 3.51306 1.78299 3.27282 1.48031C3.03258 1.17813 2.5914 1.12677 2.286 1.36477C0.833126 2.5029 0 4.20837 0 6.0437C0 9.32823 2.69187 12 6 12C9.30813 12 12 9.32774 12 6.0437C12 4.20738 11.1659 2.50191 9.71251 1.36329Z" fill="#C4C4C4"/>
</svg>
