<svg width="18" height="18" viewBox="0 0 18 18" fill="none" xmlns="http://www.w3.org/2000/svg">
<g clip-path="url(#clip0)">
<path d="M9.03983 1.50662H15.7799C16.1764 1.50662 16.4936 1.8238 16.4936 2.22027V15.7004C16.4936 16.0969 16.1764 16.4141 15.7799 16.4141H9.03983C8.64335 16.4141 8.32617 16.7313 8.32617 17.1278C8.32617 17.5242 8.64335 17.8414 9.03983 17.8414H15.7799C17.0486 17.8414 18.0002 16.8106 18.0002 15.6212V2.14098C18.0002 0.872257 16.9693 -0.0792847 15.7799 -0.0792847H9.03983C8.64335 -0.0792847 8.32617 0.237896 8.32617 0.634372C8.32617 1.18944 8.64335 1.50662 9.03983 1.50662Z" fill="white"/>
<path d="M0.237885 9.51544L4.75771 14.0353C5.07489 14.3524 5.55066 14.3524 5.78855 14.0353C6.10573 13.7181 6.10573 13.2423 5.78855 13.0044L2.53745 9.83262H11.2599C11.6564 9.83262 11.9736 9.51544 11.9736 9.11897C11.9736 8.72249 11.6564 8.40531 11.2599 8.40531H2.53745L5.78855 5.23351C6.10573 4.91633 6.10573 4.44055 5.78855 4.20267C5.70925 3.80619 5.47137 3.7269 5.31278 3.7269C5.07489 3.7269 4.9163 3.80619 4.75771 3.96478L0.237885 8.48461C0.0792952 8.5639 0 8.80179 0 8.96038C0 9.19826 0.0792952 9.35685 0.237885 9.51544Z" fill="white"/>
</g>
<defs>
<clipPath id="clip0">
<rect width="18" height="18" fill="white"/>
</clipPath>
</defs>
</svg>
