<svg width="33" height="33" viewBox="0 0 33 33" fill="none" xmlns="http://www.w3.org/2000/svg">
<path d="M22.5 15C23.8807 15 25 13.8807 25 12.5C25 11.1193 23.8807 10 22.5 10C21.1193 10 20 11.1193 20 12.5C20 13.8807 21.1193 15 22.5 15Z" fill="#5B73E8"/>
<path d="M11.5 15C12.8807 15 14 13.8807 14 12.5C14 11.1193 12.8807 10 11.5 10C10.1193 10 9 11.1193 9 12.5C9 13.8807 10.1193 15 11.5 15Z" fill="#5B73E8"/>
<path d="M16.5 19.8C12.6555 19.8 9.372 22.1925 8.052 25.575H10.8075C11.946 23.6115 14.058 22.275 16.5 22.275C18.942 22.275 21.0375 23.6115 22.1925 25.575H24.948C23.628 22.1925 20.3445 19.8 16.5 19.8ZM16.4835 0C7.3755 0 0 7.392 0 16.5C0 25.608 7.3755 33 16.4835 33C25.608 33 33 25.608 33 16.5C33 7.392 25.608 0 16.4835 0ZM16.5 29.7C9.207 29.7 3.3 23.793 3.3 16.5C3.3 9.207 9.207 3.3 16.5 3.3C23.793 3.3 29.7 9.207 29.7 16.5C29.7 23.793 23.793 29.7 16.5 29.7Z" fill="#5B73E8"/>
</svg>
