<svg width="33" height="33" viewBox="0 0 33 33" fill="none" xmlns="http://www.w3.org/2000/svg">
<path d="M16.5 18.975C12.6555 18.975 9.3885 21.384 8.0685 24.75H24.9315C23.6115 21.384 20.3445 18.975 16.5 18.975ZM9.603 16.5L11.352 14.751L13.101 16.5L14.85 14.751L13.101 13.002L14.85 11.253L13.101 9.504L11.352 11.253L9.603 9.504L7.854 11.253L9.603 13.002L7.854 14.751L9.603 16.5ZM16.4835 0C7.3755 0 0 7.3755 0 16.5C0 25.6245 7.3755 33 16.4835 33C25.5915 33 33 25.6245 33 16.5C33 7.3755 25.608 0 16.4835 0ZM16.5 29.7C9.207 29.7 3.3 23.793 3.3 16.5C3.3 9.207 9.207 3.3 16.5 3.3C23.793 3.3 29.7 9.207 29.7 16.5C29.7 23.793 23.793 29.7 16.5 29.7ZM23.397 9.504L21.648 11.253L19.899 9.504L18.15 11.253L19.899 13.002L18.15 14.751L19.899 16.5L21.648 14.751L23.397 16.5L25.146 14.751L23.397 13.002L25.146 11.253L23.397 9.504Z" fill="#5B73E8"/>
</svg>
