<svg width="33" height="33" viewBox="0 0 33 33" fill="none" xmlns="http://www.w3.org/2000/svg">
<path d="M12 20H22V22H12V20Z" fill="#5B73E8"/>
<path d="M22.5 15C23.8807 15 25 13.8807 25 12.5C25 11.1193 23.8807 10 22.5 10C21.1193 10 20 11.1193 20 12.5C20 13.8807 21.1193 15 22.5 15Z" fill="#5B73E8"/>
<path d="M10.5 15C11.8807 15 13 13.8807 13 12.5C13 11.1193 11.8807 10 10.5 10C9.11929 10 8 11.1193 8 12.5C8 13.8807 9.11929 15 10.5 15Z" fill="#5B73E8"/>
<path d="M16.4835 0C7.3755 0 0 7.392 0 16.5C0 25.608 7.3755 33 16.4835 33C25.608 33 33 25.608 33 16.5C33 7.392 25.608 0 16.4835 0ZM16.5 29.7C9.207 29.7 3.3 23.793 3.3 16.5C3.3 9.207 9.207 3.3 16.5 3.3C23.793 3.3 29.7 9.207 29.7 16.5C29.7 23.793 23.793 29.7 16.5 29.7Z" fill="#5B73E8"/>
</svg>
