<svg width="20" height="20" viewBox="0 0 20 20" fill="none" xmlns="http://www.w3.org/2000/svg">
<path d="M16.4275 0H3.50292C1.57027 0 0 1.57027 0 3.50292V11.4751C0 13.4077 1.57027 14.978 3.50292 14.978H11.777L15.7027 18.9037C15.8235 19.0245 16.0047 19.0848 16.1859 19.0848C16.2463 19.0848 16.3671 19.0848 16.4275 19.0245C16.669 18.9037 16.8502 18.6621 16.8502 18.3601V14.8572C18.6017 14.7364 19.9304 13.2869 19.9304 11.4751V3.50292C19.9304 1.57027 18.3601 0 16.4275 0ZM18.5413 11.4751C18.5413 12.6226 17.575 13.5889 16.4275 13.5889H16.1859C15.8235 13.5889 15.4611 13.8909 15.4611 14.3136V16.7898L12.5018 13.8305C12.381 13.7097 12.1998 13.6493 12.0186 13.6493H3.50292C2.35541 13.6493 1.38909 12.683 1.38909 11.5355V3.50292C1.38909 2.35541 2.35541 1.38909 3.50292 1.38909H16.4879C17.6354 1.38909 18.6017 2.35541 18.6017 3.50292V11.4751H18.5413Z" fill="#5B73E8"/>
<path d="M15.0993 4.95241H4.83216C4.46979 4.95241 4.10742 5.25439 4.10742 5.67715C4.10742 6.03952 4.4094 6.40189 4.83216 6.40189H15.0993C15.4617 6.40189 15.8241 6.09992 15.8241 5.67715C15.8241 5.25439 15.5221 4.95241 15.0993 4.95241Z" fill="#5B73E8"/>
<path d="M15.0993 8.87806H4.83216C4.46979 8.87806 4.10742 9.18004 4.10742 9.6028C4.10742 9.96517 4.46979 10.2671 4.83216 10.2671H15.0993C15.4617 10.2671 15.8241 9.96517 15.8241 9.54241C15.8241 9.18004 15.5221 8.87806 15.0993 8.87806Z" fill="#5B73E8"/>
</svg>
