<svg width="19" height="20" viewBox="0 0 19 20" fill="none" xmlns="http://www.w3.org/2000/svg">
<path d="M19.0004 9.52288C18.946 14.7418 14.8688 18.8915 9.70424 19.0002C4.32226 19.109 0.0456695 14.8505 0.000366612 9.57724C-0.0449362 4.32212 4.11387 0.0364719 9.42336 0.000229626C14.7691 -0.0360126 18.9732 4.22245 19.0004 9.52288ZM16.3185 14.1256C18.2937 11.4165 18.493 6.77753 15.3309 3.64258C12.0962 0.435136 6.94076 0.426076 3.69708 3.63352C0.498698 6.79565 0.734273 11.4528 2.69136 14.1256C4.57596 12.2682 6.83204 11.2716 9.48678 11.2716C12.1597 11.2716 14.4248 12.2682 16.3185 14.1256Z" fill="#5B73E8"/>
<path d="M13.3019 6.33333C13.2475 8.43538 11.671 10.0844 9.53268 10.1297C7.47593 10.166 5.72725 8.42632 5.70913 6.36052C5.691 4.27659 7.42157 2.53696 9.51456 2.5279C11.5713 2.51884 13.2928 4.24941 13.3019 6.33333Z" fill="#5B73E8"/>
</svg>
