<svg width="21" height="20" viewBox="0 0 21 20" fill="none" xmlns="http://www.w3.org/2000/svg">
<path d="M16.7717 13.8609C17.4022 13.8082 17.4779 13.5446 17.3013 13.0702C16.8474 11.8052 16.4186 10.5139 15.9647 9.22252C15.8638 8.93262 15.8133 8.72179 16.0403 8.40553C16.5699 7.66761 16.0655 6.13906 15.2333 5.92823C14.8549 5.82281 14.7541 5.61198 14.628 5.29572C14.174 3.97801 13.7452 2.63394 13.266 1.34258C13.2156 1.18445 12.9886 0.999969 12.8373 0.999969C12.5599 0.999969 12.3833 1.13174 12.4842 1.52706C12.5346 1.68518 12.4085 1.94872 12.2824 2.0805C11.0971 3.3455 9.91169 4.63687 8.65065 5.82281C7.44006 6.9824 6.12858 8.01022 4.53968 8.61637C4.16137 8.74814 4.11093 9.01168 4.23703 9.35429C4.64056 10.5666 5.06931 11.8052 5.47285 13.0175C5.59895 13.3601 5.80071 13.4656 6.1538 13.3601C6.58256 13.2284 7.01131 13.0966 7.44006 13.0175C10.1639 12.5432 12.8877 12.8331 15.5863 13.2284C16.0908 13.2547 16.6456 13.202 16.7717 13.8609ZM3.40475 9.22252C2.57247 9.53877 1.74018 9.7496 1.00878 10.1713C0.605254 10.3821 0.252164 10.8828 0.126061 11.3309C-0.151367 12.306 0.126061 13.202 0.807019 13.9399C1.31143 14.4934 1.91673 14.7569 2.62291 14.467C2.95078 14.3353 3.1021 14.467 3.27865 14.7569C4.01005 15.9956 4.76667 17.2079 5.47285 18.4465C5.92682 19.2372 6.25469 19.1317 7.23829 18.631C7.86881 18.3148 7.51572 17.7877 7.23829 17.3396C5.67461 14.915 4.28747 12.4377 3.55607 9.59148C3.53085 9.48606 3.48041 9.407 3.40475 9.22252ZM19.2686 10.4875C20.9079 7.98386 19.7478 3.26644 16.4186 2.13321C16.3682 2.39675 16.2925 2.66029 16.2421 2.89748C18.9911 4.47874 19.6973 6.58709 18.6885 10.0131C18.8902 10.1976 19.0668 10.3558 19.2686 10.4875ZM17.7553 9.7496C19.1172 7.72032 17.7805 4.2679 15.7377 3.74082C15.4855 4.2152 15.5107 4.5578 16.0403 4.82135C16.3682 4.97947 16.6204 5.32208 16.8474 5.61198C17.6292 6.74521 17.6797 7.95751 17.15 9.24887C17.3518 9.43335 17.5536 9.59148 17.7553 9.7496Z" fill="#5B73E8"/>
<path d="M16.7732 13.8609C16.6219 13.202 16.0923 13.2547 15.6383 13.1757C12.9145 12.7804 10.2158 12.4905 7.49201 12.9648C7.06326 13.0439 6.63451 13.1757 6.20576 13.3074C5.85267 13.4392 5.62568 13.3338 5.5248 12.9648C5.09605 11.7525 4.69252 10.5402 4.28899 9.30158C4.1881 8.98533 4.21333 8.72179 4.59164 8.56366C6.15532 7.95751 7.46679 6.9297 8.70261 5.77011C9.96364 4.58416 11.1238 3.2928 12.3344 2.02779C12.4605 1.89602 12.5866 1.63248 12.5362 1.47435C12.4353 1.07904 12.6118 0.947266 12.8892 0.947266C13.0406 0.947266 13.2423 1.13175 13.2928 1.26352C13.772 2.58123 14.2259 3.89895 14.6547 5.21666C14.7556 5.53292 14.8565 5.74375 15.26 5.84917C16.0923 6.06 16.5967 7.58855 16.067 8.32647C15.8401 8.64273 15.8905 8.87991 15.9914 9.14346C16.4201 10.4348 16.8489 11.6998 17.3281 12.9912C17.4794 13.5446 17.4037 13.8082 16.7732 13.8609Z" fill="#5B73E8"/>
<path d="M3.40475 9.2225C3.48041 9.38063 3.53085 9.48605 3.55607 9.59146C4.28747 12.4377 5.67461 14.915 7.23829 17.3133C7.51572 17.7349 7.86881 18.262 7.23829 18.6046C6.25469 19.1054 5.92682 19.2108 5.47285 18.4202C4.76667 17.1815 3.98482 15.9692 3.27865 14.7306C3.1021 14.4407 2.95078 14.3089 2.62291 14.4407C1.91673 14.7306 1.31143 14.467 0.807019 13.9136C0.126061 13.1756 -0.151367 12.2796 0.126061 11.3045C0.252164 10.8565 0.630475 10.3557 1.00878 10.1449C1.71496 9.74959 2.54725 9.53876 3.40475 9.2225Z" fill="#5B73E8"/>
<path d="M19.2687 10.4875C19.0669 10.3294 18.8904 10.1713 18.6886 10.0395C19.6974 6.61344 18.9912 4.5051 16.2422 2.92384C16.2926 2.68665 16.3683 2.4231 16.4187 2.15956C19.7479 3.2928 20.908 8.01022 19.2687 10.4875Z" fill="#5B73E8"/>
<path d="M17.7567 9.7496C17.5549 9.59147 17.3531 9.43335 17.1514 9.27522C17.681 7.98386 17.6306 6.77156 16.8487 5.63832C16.6217 5.32207 16.3695 5.00582 16.0417 4.84769C15.512 4.5578 15.4868 4.24154 15.739 3.76717C17.7819 4.2679 19.1186 7.72031 17.7567 9.7496Z" fill="#5B73E8"/>
</svg>
