<svg width="20" height="16" viewBox="0 0 20 16" fill="none" xmlns="http://www.w3.org/2000/svg">
<path d="M18.7234 0H1.2766C0.567376 0 0 0.581818 0 1.30909V14.6909C0 15.4182 0.567376 16 1.2766 16H18.7234C19.4326 16 20 15.4182 20 14.6909V1.30909C20 0.581818 19.4326 0 18.7234 0ZM18.7234 1.30909V10.7636L16.1702 8.43636C15.7447 8.14546 15.1773 8.14546 14.8936 8.43636L12.3404 11.0545L7.37589 4.94545C6.95035 4.50909 6.24113 4.50909 5.95745 4.94545L1.2766 10.4727V1.30909H18.7234ZM13.3333 4.65455C13.3333 3.78182 14.0426 2.90909 15.0355 2.90909C16.0284 2.90909 16.7376 3.78182 16.7376 4.65455C16.7376 5.52727 15.8865 6.4 15.0355 6.4C14.0426 6.54545 13.3333 5.67273 13.3333 4.65455Z" fill="#5B73E8"/>
</svg>
