<svg width="16" height="20" viewBox="0 0 16 20" fill="none" xmlns="http://www.w3.org/2000/svg">
<path d="M9.92057 0H1.98411C0.892852 0 0.0099208 0.896651 0.0099208 1.99256L0 17.933C0 19.0289 0.882931 19.9256 1.97419 19.9256H13.8888C14.9801 19.9256 15.8729 19.0289 15.8729 17.933V5.97767L9.92057 0ZM13.8888 17.933H1.98411V1.99256H8.92852V6.97395H13.8888V17.933Z" fill="#5B73E8"/>
<path d="M8.65776 12.327L10.6428 10.342C10.8622 10.1226 10.8622 9.76701 10.6428 9.54803L10.3782 9.28338C10.1588 9.06403 9.8032 9.06403 9.58422 9.28338L7.59917 11.2684L5.61411 9.28301C5.39476 9.06365 5.03915 9.06365 4.82017 9.28301L4.55514 9.54766C4.33579 9.76701 4.33579 10.1226 4.55514 10.3416L6.54057 12.327L4.55552 14.3121C4.33616 14.5314 4.33616 14.8871 4.55552 15.106L4.82017 15.3707C5.03952 15.59 5.39513 15.59 5.61411 15.3707L7.59917 13.3856L9.58422 15.3707C9.80358 15.59 10.1592 15.59 10.3782 15.3707L10.6428 15.106C10.8622 14.8867 10.8622 14.5311 10.6428 14.3121L8.65776 12.327Z" fill="#5B73E8"/>
</svg>
