<svg width="16" height="14" viewBox="0 0 16 14" fill="none" xmlns="http://www.w3.org/2000/svg">
<g clip-path="url(#clip0)">
<path d="M13.4174 10.0029C13.9218 9.96193 13.9823 9.75695 13.8411 9.38799C13.4779 8.4041 13.1349 7.39971 12.7717 6.39531C12.691 6.16984 12.6507 6.00586 12.8322 5.75988C13.256 5.18594 12.8524 3.99707 12.1866 3.83309C11.884 3.7511 11.8032 3.58712 11.7024 3.34114C11.3392 2.31625 10.9962 1.27086 10.6128 0.266471C10.5725 0.143485 10.3909 0 10.2698 0C10.0479 0 9.90665 0.102489 9.98736 0.409956C10.0277 0.532943 9.92683 0.737921 9.82594 0.84041C8.87765 1.8243 7.92935 2.8287 6.92052 3.7511C5.95205 4.653 4.90287 5.45242 3.63174 5.92387C3.3291 6.02635 3.28874 6.23133 3.38963 6.4978C3.71245 7.4407 4.05545 8.4041 4.37828 9.347C4.47916 9.61347 4.64057 9.69546 4.92304 9.61347C5.26605 9.51098 5.60905 9.40849 5.95205 9.347C8.13111 8.97804 10.3102 9.20351 12.4691 9.51098C12.8726 9.53148 13.3165 9.49048 13.4174 10.0029ZM2.7238 6.39531C2.05797 6.64129 1.39215 6.80527 0.807028 7.13324C0.484203 7.29722 0.201731 7.68668 0.100849 8.03514C-0.121093 8.79356 0.100849 9.49048 0.645616 10.0644C1.04915 10.4949 1.53338 10.6999 2.09833 10.4744C2.36062 10.3719 2.48168 10.4744 2.62292 10.6999C3.20804 11.6632 3.81333 12.6061 4.37828 13.5695C4.74146 14.1845 5.00375 14.1025 5.79064 13.713C6.29505 13.4671 6.01258 13.0571 5.79064 12.7086C4.53969 10.8228 3.42998 8.89605 2.84486 6.68228C2.82468 6.60029 2.78433 6.5388 2.7238 6.39531ZM15.4148 7.37921C16.7263 5.43192 15.7982 1.76281 13.1349 0.881406C13.0945 1.08638 13.034 1.29136 12.9937 1.47584C15.1929 2.70571 15.7578 4.34553 14.9508 7.01025C15.1122 7.15373 15.2534 7.27672 15.4148 7.37921ZM14.2043 6.80527C15.2938 5.22694 14.2244 2.54173 12.5901 2.13177C12.3884 2.50073 12.4085 2.7672 12.8322 2.97218C13.0945 3.09517 13.2963 3.36164 13.4779 3.58712C14.1034 4.46852 14.1437 5.41142 13.72 6.41581C13.8814 6.5593 14.0428 6.68228 14.2043 6.80527Z" fill="white"/>
<path d="M13.4186 10.0029C13.2975 9.49049 12.8738 9.53149 12.5106 9.47C10.3316 9.16253 8.17268 8.93705 5.99361 9.30601C5.65061 9.36751 5.30761 9.47 4.96461 9.57248C4.68214 9.67497 4.50055 9.59298 4.41984 9.30601C4.07684 8.36311 3.75401 7.42022 3.43119 6.45682C3.35048 6.21084 3.37066 6.00587 3.67331 5.88288C4.92425 5.41143 5.97344 4.61202 6.96209 3.71011C7.97091 2.78771 8.89903 1.78332 9.86751 0.799425C9.96839 0.696936 10.0693 0.491958 10.0289 0.368971C9.94822 0.0615039 10.0895 -0.0409851 10.3114 -0.0409851C10.4325 -0.0409851 10.5939 0.1025 10.6342 0.204989C11.0176 1.22988 11.3808 2.25477 11.7238 3.27966C11.8045 3.52563 11.8852 3.68962 12.208 3.77161C12.8738 3.93559 13.2773 5.12446 12.8536 5.6984C12.672 5.94437 12.7124 6.12885 12.7931 6.33383C13.1361 7.33822 13.4791 8.32212 13.8625 9.32651C13.9835 9.75696 13.923 9.96194 13.4186 10.0029Z" fill="white"/>
<path d="M2.7238 6.39531C2.78433 6.5183 2.82468 6.60029 2.84486 6.68228C3.42998 8.89604 4.53969 10.8228 5.79063 12.6881C6.01258 13.0161 6.29505 13.4261 5.79063 13.6925C5.00375 14.082 4.74145 14.164 4.37828 13.549C3.81333 12.5856 3.18786 11.6427 2.62292 10.6793C2.48168 10.4539 2.36062 10.3514 2.09833 10.4539C1.53338 10.6793 1.04915 10.4744 0.645615 10.0439C0.100849 9.46998 -0.121093 8.77305 0.100849 8.01463C0.201731 7.66617 0.50438 7.27671 0.807028 7.11273C1.37197 6.80527 2.0378 6.64128 2.7238 6.39531Z" fill="white"/>
<path d="M15.4153 7.37922C15.2539 7.25624 15.1127 7.13325 14.9513 7.03076C15.7583 4.36605 15.1934 2.72622 12.9941 1.49635C13.0345 1.31187 13.095 1.10689 13.1354 0.901917C15.7987 1.78332 16.7268 5.45243 15.4153 7.37922Z" fill="white"/>
<path d="M14.2049 6.80527C14.0435 6.68228 13.8821 6.5593 13.7207 6.43631C14.1444 5.43192 14.1041 4.48902 13.4786 3.60761C13.297 3.36164 13.0952 3.11566 12.8329 2.99268C12.4092 2.7672 12.3891 2.52123 12.5908 2.15227C14.2251 2.54173 15.2945 5.22694 14.2049 6.80527Z" fill="white"/>
</g>
<defs>
<clipPath id="clip0">
<rect width="16" height="14" fill="white"/>
</clipPath>
</defs>
</svg>
