<svg width="36" height="32" viewBox="0 0 36 32" fill="none" xmlns="http://www.w3.org/2000/svg">
<g clip-path="url(#clip0)">
<path d="M30.1891 22.8638C31.324 22.7701 31.4602 22.3016 31.1424 21.4583C30.3253 19.2094 29.5535 16.9136 28.7364 14.6179C28.5548 14.1025 28.464 13.7277 28.8726 13.1654C29.8259 11.8536 28.918 9.13616 27.4199 8.76135C26.7389 8.57394 26.5573 8.19912 26.3303 7.6369C25.5132 5.29429 24.7414 2.90483 23.8789 0.609078C23.7881 0.327965 23.3795 0 23.1071 0C22.6077 0 22.29 0.234261 22.4716 0.937042C22.5623 1.21816 22.3354 1.68668 22.1084 1.92094C19.9747 4.16984 17.841 6.46559 15.5712 8.57394C13.3921 10.6354 11.0315 12.4627 8.17142 13.5403C7.49047 13.7745 7.39967 14.243 7.62666 14.8521C8.35301 17.0073 9.12477 19.2094 9.85112 21.3646C10.0781 21.9736 10.4413 22.1611 11.0768 21.9736C11.8486 21.7394 12.6204 21.5051 13.3921 21.3646C18.295 20.5212 23.1979 21.0366 28.0554 21.7394C28.9634 21.7862 29.9621 21.6925 30.1891 22.8638ZM6.12855 14.6179C4.63044 15.1801 3.13233 15.5549 1.81581 16.3045C1.08946 16.6794 0.453896 17.5695 0.22691 18.366C-0.27246 20.0996 0.22691 21.6925 1.45263 23.0044C2.36058 23.9883 3.45011 24.4568 4.72124 23.9414C5.3114 23.7072 5.58378 23.9414 5.90156 24.4568C7.21808 26.6589 8.58 28.8141 9.85112 31.0161C10.6683 32.4217 11.2584 32.2343 13.0289 31.3441C14.1639 30.7818 13.5283 29.8448 13.0289 29.0483C10.2143 24.7379 7.71745 20.3338 6.40093 15.2738C6.35554 15.0864 6.26474 14.9458 6.12855 14.6179ZM34.6834 16.8668C37.6342 12.4158 35.546 4.02928 29.5535 2.01464C29.4627 2.48316 29.3265 2.95168 29.2357 3.37335C34.184 6.18448 35.4552 9.93265 33.6393 16.0234C34.0024 16.3514 34.3202 16.6325 34.6834 16.8668ZM31.9596 15.5549C34.411 11.9473 32.005 5.80966 28.3278 4.87262C27.8738 5.71596 27.9192 6.32504 28.8726 6.79356C29.4627 7.07467 29.9167 7.68375 30.3253 8.19912C31.7326 10.2138 31.8234 12.369 30.87 14.6647C31.2332 14.9927 31.5964 15.2738 31.9596 15.5549Z" fill="white"/>
<path d="M30.1918 22.8638C29.9194 21.6925 28.9661 21.7862 28.1489 21.6456C23.246 20.9429 18.3885 20.4275 13.4856 21.2708C12.7139 21.4114 11.9421 21.6456 11.1704 21.8799C10.5348 22.1142 10.1262 21.9267 9.94464 21.2708C9.17289 19.1156 8.44653 16.9604 7.72018 14.7584C7.53859 14.1961 7.58399 13.7276 8.26494 13.4465C11.0796 12.3689 13.4402 10.5417 15.6647 8.48019C17.9346 6.37184 20.0228 4.07609 22.2019 1.82719C22.4289 1.59293 22.6559 1.12441 22.5651 0.843292C22.3835 0.140511 22.7013 -0.09375 23.2006 -0.09375C23.473 -0.09375 23.8362 0.234215 23.927 0.468475C24.7895 2.81108 25.6067 5.15369 26.3784 7.49629C26.56 8.05852 26.7416 8.43334 27.468 8.62074C28.9661 8.99556 29.874 11.713 28.9207 13.0248C28.5121 13.5871 28.6029 14.0087 28.7845 14.4773C29.5562 16.773 30.328 19.0219 31.1905 21.3177C31.4629 22.3016 31.3267 22.7701 30.1918 22.8638Z" fill="white"/>
<path d="M6.12855 14.6178C6.26474 14.8989 6.35554 15.0863 6.40093 15.2737C7.71745 20.3338 10.2143 24.7378 13.0289 29.0014C13.5283 29.751 14.1639 30.6881 13.0289 31.2971C11.2584 32.1873 10.6683 32.3747 9.85112 30.9692C8.58 28.7671 7.17269 26.6119 5.90156 24.4099C5.58378 23.8945 5.3114 23.6603 4.72123 23.8945C3.45011 24.4099 2.36058 23.9414 1.45263 22.9575C0.22691 21.6456 -0.27246 20.0526 0.22691 18.3191C0.453896 17.5226 1.13485 16.6324 1.81581 16.2576C3.08693 15.5548 4.58504 15.18 6.12855 14.6178Z" fill="white"/>
<path d="M34.684 16.8667C34.3208 16.5856 34.003 16.3044 33.6399 16.0702C35.4557 9.97941 34.1846 6.23124 29.2363 3.42011C29.3271 2.99844 29.4633 2.52992 29.5541 2.0614C35.5465 4.07604 37.6348 12.4626 34.684 16.8667Z" fill="white"/>
<path d="M31.9616 15.5549C31.5984 15.2738 31.2353 14.9926 30.8721 14.7115C31.8254 12.4158 31.7346 10.2606 30.3273 8.24593C29.9187 7.68371 29.4648 7.12148 28.8746 6.84037C27.9213 6.325 27.8759 5.76277 28.3298 4.91943C32.007 5.80962 34.4131 11.9473 31.9616 15.5549Z" fill="white"/>
</g>
<defs>
<clipPath id="clip0">
<rect width="36" height="32" fill="white"/>
</clipPath>
</defs>
</svg>
