<svg width="99" height="62" viewBox="0 0 99 62" fill="none" xmlns="http://www.w3.org/2000/svg">
<path d="M42.851 39.9556C42.851 36.5111 40.1729 33.7556 36.8253 33.7556H27.1173V22.0444C27.1173 18.9444 25.4435 16.1889 23.1002 14.8111C24.774 13.7778 25.7782 11.7111 25.7782 9.64444V6.2C25.7782 2.75556 23.1002 0 19.7526 0H18.4135C15.0659 0 12.3879 2.75556 12.3879 6.2V9.64444C12.3879 11.7111 13.3921 13.4333 15.0659 14.8111C12.3879 16.5333 11.0488 19.2889 11.0488 22.0444V37.5444C11.0488 42.0222 14.7312 45.8111 19.083 45.8111H30.7996V55.8C30.7996 59.2444 33.4777 62 36.8253 62C40.1729 62 42.851 59.2444 42.851 55.8V39.9556C42.851 40.3 42.851 40.3 42.851 39.9556Z" fill="#C4C4C4"/>
<path d="M22.429 51.3223H18.0771C11.3819 51.3223 5.69093 45.4667 5.69093 38.5778V21.0111C5.69093 19.2889 4.35189 17.9111 2.67809 17.9111C1.00428 17.9111 0 19.6334 0 21.0111V38.2334C0 48.5667 8.03426 56.8334 18.0771 56.8334H22.0942C23.768 56.8334 25.1071 55.4556 25.1071 53.7334C25.1071 52.0112 23.768 51.3223 22.429 51.3223Z" fill="#C4C4C4"/>
<path d="M83.6874 14.8111C85.3612 13.7778 86.3654 11.7111 86.3654 9.64444V6.2C86.3654 2.75555 83.6874 0 80.3398 0H78.666C75.3184 0 72.6403 2.75555 72.6403 6.2V9.64444C72.6403 11.7111 73.6446 13.4333 75.3184 14.8111C72.9751 16.1889 71.3013 18.9444 71.3013 22.0444V33.7555H61.928C58.5804 33.7555 55.9023 36.5111 55.9023 39.9555V55.4555C55.9023 58.9 58.5804 61.6555 61.928 61.6555C65.2756 61.6555 67.9537 58.9 67.9537 55.4555V45.4666H79.6702C84.0221 45.4666 87.7045 41.6778 87.7045 37.2V22.0444C87.7045 19.2889 86.0307 16.5333 83.6874 14.8111Z" fill="#C4C4C4"/>
<path d="M95.7415 18.2555C94.0677 18.2555 92.7286 19.6333 92.7286 21.3555V38.5777C92.7286 45.4666 87.0377 51.3222 80.3425 51.3222H76.3253C74.6515 51.3222 73.3125 52.7 73.3125 54.4222C73.3125 56.1444 74.6515 57.5222 76.3253 57.5222H80.3425C90.3853 57.5222 98.4196 49.2555 98.4196 38.9222V21.0111C98.4196 19.6333 97.0805 18.2555 95.7415 18.2555Z" fill="#C4C4C4"/>
</svg>
