<svg width="79" height="55" viewBox="0 0 79 55" fill="none" xmlns="http://www.w3.org/2000/svg">
<path d="M73.8757 0.85602V10.2724C73.8757 11.1284 73.0217 11.3424 72.3811 10.9144L69.819 8.34629C69.6055 8.13228 69.6055 7.91828 69.6055 7.70427V3.42411C69.6055 3.21011 69.6055 2.9961 69.819 2.78209L72.5947 0.428005C73.0217 -0.214019 73.8757 0.213997 73.8757 0.85602Z" fill="#5B73E8"/>
<path d="M68.9624 11.3424H58.7137C56.7921 11.3424 55.084 9.63035 55.084 7.70428V0H65.3326C67.2543 0 68.9624 1.71206 68.9624 3.63813V11.3424Z" fill="#5B73E8"/>
<path d="M74.0903 12.4124H72.5957V47.0817H74.0903V12.4124Z" fill="#5B73E8"/>
<path d="M7.04484 25.6809H7.68538V6.20624H24.98V5.56421C24.98 5.1362 25.1935 4.92219 25.6205 4.92219C26.0475 4.92219 26.2611 5.1362 26.2611 5.56421V6.20624H53.5908V4.70818H7.04484C6.61781 4.70818 6.4043 5.1362 6.4043 5.35021V26.323C6.4043 25.895 6.61781 25.6809 7.04484 25.6809Z" fill="#5B73E8"/>
<path d="M78.3595 47.0817H74.0892V47.7237C74.0892 48.1518 73.8757 48.3658 73.4487 48.3658H77.7189V49.2218C77.7189 51.5759 75.7973 53.2879 73.6622 53.2879H5.55135C3.2027 53.2879 1.49459 51.3619 1.49459 49.2218V48.3658H7.25946C6.83243 48.3658 6.61892 48.1518 6.61892 47.7237V47.2957V47.0817H0.640541C0.213514 47.0817 0 47.2957 0 47.7237V49.4358C0 52.4319 2.56216 55 5.55135 55H73.4487C76.4378 55 79 52.4319 79 49.4358V47.7237C79 47.2957 78.573 47.0817 78.3595 47.0817Z" fill="#5B73E8"/>
<path d="M63.6259 47.0817C63.6259 47.7237 63.4124 47.9378 62.9854 47.9378C62.5584 47.9378 62.3448 47.7237 62.3448 47.2957V47.0817H37.3638V47.2957C37.3638 47.7237 37.1502 47.9378 36.7232 47.9378C36.2962 47.9378 36.0827 47.7237 36.0827 47.2957V47.0817H26.6881V47.2957C26.6881 47.7237 26.4746 47.9378 26.0475 47.9378H24.1259H9.607H7.04484C6.61781 47.9378 6.4043 47.7237 6.4043 47.2957V47.7237C6.4043 48.1518 6.61781 48.3658 7.04484 48.3658H73.234C73.6611 48.3658 73.8746 48.1518 73.8746 47.7237V47.0817H72.5935H63.6259Z" fill="#5B73E8"/>
<path d="M25.8326 25.6809C26.2596 25.6809 26.4731 25.8949 26.4731 26.323V6.20622H24.9785V25.6809H25.8326Z" fill="#5B73E8"/>
<path d="M26.4744 5.56421C26.4744 5.1362 26.2609 4.92219 25.8339 4.92219C25.4069 4.92219 25.1934 5.1362 25.1934 5.56421V6.20623H26.688V5.56421H26.4744Z" fill="#5B73E8"/>
<path d="M10.4629 46.4397C10.4629 46.6537 10.4629 46.8677 10.4629 46.8677H23.2737C23.2737 46.6537 23.2737 46.4397 23.2737 46.4397H10.4629Z" fill="#5B73E8"/>
<path d="M25.8377 26.965H25.1972V46.4397H24.5566C24.5566 46.6537 24.5566 46.8677 24.5566 46.8677H26.4783V26.1089C26.4783 26.751 26.2648 26.965 25.8377 26.965Z" fill="#5B73E8"/>
<path d="M7.89844 46.4397V47.0817H9.17952C9.17952 46.8677 9.17952 46.6537 9.17952 46.6537H7.89844V46.4397Z" fill="#5B73E8"/>
<path d="M7.89889 46.4397V26.965H7.04484C6.61781 26.965 6.4043 26.751 6.4043 26.323V47.0818H7.89889V46.4397Z" fill="#5B73E8"/>
<path d="M24.5566 47.2957C24.5566 47.7237 24.343 47.9378 23.916 47.9378H25.8376C26.2647 47.9378 26.4782 47.7237 26.4782 47.2957V47.0817L24.5566 47.2957C24.5566 47.0817 24.5566 47.0817 24.5566 47.2957Z" fill="#5B73E8"/>
<path d="M23.2736 47.2957C23.2736 47.0817 23.0601 47.0817 23.2736 47.2957L10.4628 47.0817V47.2957C10.4628 47.7237 10.2493 47.9378 9.82227 47.9378H24.1277C23.4871 47.9378 23.2736 47.5097 23.2736 47.2957Z" fill="#5B73E8"/>
<path d="M7.04484 47.9378H9.607C9.17997 47.9378 8.96646 47.7237 8.96646 47.2957V47.0817H7.89889H6.4043V47.2957C6.4043 47.5097 6.61781 47.9378 7.04484 47.9378Z" fill="#5B73E8"/>
<path d="M26.4782 26.3229C26.4782 25.8949 26.2647 25.6809 25.8376 25.6809H25.1971H24.5566C24.5566 25.8949 24.5566 26.1089 24.5566 26.3229C24.5566 26.751 24.343 26.965 23.916 26.965H25.1971H25.8376C26.2647 26.965 26.4782 26.751 26.4782 26.3229Z" fill="#5B73E8"/>
<path d="M23.2736 26.3229C23.2736 26.1089 23.2736 25.8949 23.2736 25.6809H10.4628C10.4628 25.8949 10.4628 26.1089 10.4628 26.3229C10.4628 26.751 10.2493 26.965 9.82227 26.965H24.1277C23.4871 26.965 23.2736 26.751 23.2736 26.3229Z" fill="#5B73E8"/>
<path d="M8.966 26.3229C8.966 26.1089 8.966 25.8949 8.966 25.6809H7.89844V27.179H9.82006C9.17952 26.965 8.966 26.751 8.966 26.3229Z" fill="#5B73E8"/>
<path d="M7.04484 26.965H7.68538V25.6809H7.04484C6.61781 25.6809 6.4043 25.8949 6.4043 26.3229C6.4043 26.751 6.61781 26.965 7.04484 26.965Z" fill="#5B73E8"/>
<path d="M52.098 33.5993C56.3683 32.5292 59.571 28.6771 59.571 23.9689C59.571 18.6187 55.0872 14.1246 49.7494 14.1246C44.4115 14.1246 39.9277 18.6187 39.9277 23.9689C39.9277 28.6771 43.1304 32.5292 47.4007 33.5993C48.2548 33.3853 48.8953 33.3853 49.7494 33.3853C50.6034 33.3853 51.4575 33.3853 52.098 33.5993ZM41.2088 23.9689C41.2088 19.2607 45.0521 15.4086 49.7494 15.4086C54.4467 15.4086 58.2899 19.2607 58.2899 23.9689C58.2899 28.6771 54.4467 32.5292 49.7494 32.5292C45.0521 32.5292 41.2088 28.6771 41.2088 23.9689Z" fill="#5B73E8"/>
<path d="M52.0962 33.5993C51.2421 33.8133 50.6016 34.0273 49.7475 34.0273C48.8935 34.0273 48.0394 33.8133 47.3989 33.5993C40.9935 34.6693 36.0827 40.2335 35.8691 47.0817H37.3637C37.3637 40.2335 42.9151 34.6693 49.7475 34.6693C56.58 34.6693 62.1313 40.2335 62.1313 47.0817H63.6259C63.6259 40.2335 58.7151 34.6693 52.0962 33.5993Z" fill="#5B73E8"/>
<path d="M35.8691 47.2957C35.8691 47.7237 36.0827 47.9378 36.5097 47.9378C36.9367 47.9378 37.1502 47.7237 37.1502 47.2957V47.0817L35.8691 47.2957C35.8691 47.0817 35.8691 47.0817 35.8691 47.2957Z" fill="#5B73E8"/>
<path d="M62.3477 47.2957C62.3477 47.7237 62.5612 47.9378 62.9882 47.9378C63.4152 47.9378 63.6287 47.7237 63.6287 47.2957V47.0817L62.3477 47.2957C62.3477 47.0817 62.3477 47.0817 62.3477 47.2957Z" fill="#5B73E8"/>
<path d="M52.0957 33.5993C51.2417 33.3852 50.6011 33.3852 49.7471 33.3852C48.893 33.3852 48.039 33.3852 47.3984 33.5993C48.2525 33.8133 48.893 34.0273 49.7471 34.0273C50.6011 34.0273 51.4552 33.8133 52.0957 33.5993Z" fill="#5B73E8"/>
<path d="M19.217 18.8327C21.1386 17.9767 22.4197 16.0506 22.4197 13.6965C22.4197 10.4864 19.8576 8.13234 16.8684 8.13234C13.6657 8.13234 11.1035 10.7004 11.1035 13.6965C11.1035 16.0506 12.3846 17.9767 14.3062 18.8327C15.1603 18.6187 15.8008 18.4047 16.6549 18.4047C17.5089 18.6187 18.363 18.6187 19.217 18.8327ZM12.5981 13.6965C12.5981 11.3425 14.5197 9.41639 16.8684 9.41639C19.217 9.41639 21.1386 11.3425 21.1386 13.6965C21.1386 16.0506 19.217 17.9767 16.8684 17.9767C14.5197 17.9767 12.5981 16.0506 12.5981 13.6965Z" fill="#5B73E8"/>
<path d="M16.8668 19.9027C20.0695 19.9027 22.8452 22.4708 23.2722 25.6809H24.7668C24.5533 22.4708 22.4181 19.9027 19.429 19.0467C18.3614 19.2607 17.5073 19.4747 16.8668 19.4747C16.0127 19.4747 15.1587 19.2607 14.3046 18.8327C11.529 19.9027 9.39382 22.4708 8.9668 25.6809H10.4614C10.8884 22.4708 13.4506 19.9027 16.8668 19.9027Z" fill="#5B73E8"/>
<path d="M10.4614 26.3229C10.4614 26.1089 10.4614 25.8949 10.4614 25.6809H8.9668C8.9668 25.8949 8.9668 26.1089 8.9668 26.3229C8.9668 26.751 9.18031 26.965 9.60734 26.965C10.0344 26.965 10.4614 26.751 10.4614 26.3229Z" fill="#5B73E8"/>
<path d="M24.5551 26.3229C24.5551 26.1089 24.5551 25.8949 24.5551 25.6809H23.0605C23.0605 25.8949 23.0605 26.1089 23.0605 26.3229C23.0605 26.751 23.2741 26.965 23.7011 26.965C24.3416 26.965 24.5551 26.751 24.5551 26.3229Z" fill="#5B73E8"/>
<path d="M19.2188 18.8327C18.3647 18.6187 17.5107 18.6187 16.8701 18.6187C16.0161 18.6187 15.162 18.8327 14.5215 19.0467C15.162 19.2607 16.0161 19.4747 16.8701 19.4747C17.5107 19.4747 18.3647 19.2607 19.2188 18.8327Z" fill="#5B73E8"/>
<path d="M19.2164 39.8055C21.138 38.9494 22.4191 37.0234 22.4191 34.6693C22.4191 31.4592 19.8569 29.1051 16.8678 29.1051C13.6651 29.1051 11.3164 31.6732 11.3164 34.6693C11.3164 37.0234 12.5975 38.9494 14.5191 39.8055C15.3732 39.5915 16.0137 39.3774 16.8678 39.3774C17.5083 39.3774 18.3624 39.5915 19.2164 39.8055ZM12.5975 34.6693C12.5975 32.3152 14.5191 30.3891 16.8678 30.3891C19.2164 30.3891 21.138 32.3152 21.138 34.6693C21.138 37.0234 19.2164 38.9494 16.8678 38.9494C14.5191 38.9494 12.5975 37.0234 12.5975 34.6693Z" fill="#5B73E8"/>
<path d="M16.8675 40.8755C20.0702 40.8755 22.8459 43.4436 23.2729 46.6537H24.7675C24.554 43.4436 22.4189 40.8755 19.4297 40.0195C18.7891 40.4475 17.9351 40.6615 17.081 40.6615C16.227 40.6615 15.3729 40.4475 14.7324 40.0195C11.7432 40.8755 9.60804 43.6576 9.39453 46.6537H10.8891C10.8891 43.2296 13.4513 40.8755 16.8675 40.8755Z" fill="#5B73E8"/>
<path d="M24.5551 46.4397H23.0605C23.0605 46.6537 23.0605 46.8677 23.0605 46.8677H24.5551C24.5551 46.8677 24.5551 46.6537 24.5551 46.4397Z" fill="#5B73E8"/>
<path d="M10.4614 46.4397H8.9668C8.9668 46.6537 8.9668 46.8677 8.9668 46.8677H10.4614C10.4614 46.8677 10.4614 46.6537 10.4614 46.4397Z" fill="#5B73E8"/>
<path d="M10.4614 47.2957C10.4614 47.0817 10.4614 47.0817 10.4614 47.2957L8.9668 47.0817V47.2957C8.9668 47.7237 9.18031 47.9378 9.60734 47.9378C10.0344 47.9378 10.4614 47.5097 10.4614 47.2957Z" fill="#5B73E8"/>
<path d="M24.5551 47.2957C24.5551 47.0817 24.5551 47.0817 24.5551 47.2957L23.0605 47.0817V47.2957C23.0605 47.7237 23.2741 47.9378 23.7011 47.9378C24.3416 47.9378 24.5551 47.5097 24.5551 47.2957Z" fill="#5B73E8"/>
<path d="M19.2188 39.8055C18.3647 39.5915 17.7242 39.3775 16.8701 39.3775C16.0161 39.3775 15.162 39.5915 14.5215 39.8055C15.162 40.2335 16.0161 40.4475 16.8701 40.4475C17.5107 40.4475 18.3647 40.2335 19.2188 39.8055Z" fill="#5B73E8"/>
</svg>
