<svg width="21" height="21" viewBox="0 0 21 21" fill="none" xmlns="http://www.w3.org/2000/svg">
<g clip-path="url(#clip0)">
<path d="M8.2831 13.525L7.96957 15.3627C7.92684 15.614 8.03129 15.8672 8.23971 16.0171C8.44846 16.1667 8.72564 16.1868 8.95371 16.0688L10.6279 15.2063L12.3022 16.069C12.4012 16.1197 12.5098 16.1452 12.6172 16.1452C12.7578 16.1452 12.8981 16.1018 13.0165 16.0173C13.2251 15.8673 13.3298 15.6141 13.2868 15.3629L12.9736 13.5251L14.3217 12.2201C14.506 12.0419 14.5717 11.7759 14.4926 11.5339C14.4132 11.292 14.2007 11.1149 13.9456 11.0778L12.0775 10.8044L11.2362 9.13547C11.122 8.90765 10.8856 8.76337 10.6278 8.76337C10.3704 8.76337 10.1341 8.90765 10.019 9.13547L9.1785 10.8044L7.31043 11.0776C7.05486 11.1148 6.84333 11.2919 6.76376 11.5337C6.68419 11.7758 6.74968 12.042 6.93436 12.2199L8.2831 13.525Z" fill="#56DBA2"/>
<path d="M18.6561 2.68557H16.517V1.51463C16.517 0.977232 16.0756 0.541626 15.5309 0.541626H15.3746C14.83 0.541626 14.3888 0.977232 14.3888 1.51463V2.68557H6.84169V1.51463C6.84169 0.977232 6.4003 0.541626 5.85592 0.541626H5.6994C5.15486 0.541626 4.71363 0.977232 4.71363 1.51463V2.68557H2.59949C1.48077 2.68557 0.570312 3.58376 0.570312 4.68813V18.7059C0.570312 19.8096 1.48077 20.7085 2.59949 20.7085H18.6562C19.7748 20.7085 20.6854 19.8098 20.6854 18.7059V4.68813C20.6852 3.58376 19.7746 2.68557 18.6561 2.68557ZM18.3913 18.4446H2.86422V7.53265H18.3913V18.4446Z" fill="#56DBA2"/>
</g>
<defs>
<clipPath id="clip0">
<rect width="20.4347" height="20.1667" fill="white" transform="translate(0.410156 0.541626)"/>
</clipPath>
</defs>
</svg>
