<svg width="21" height="21" viewBox="0 0 21 21" fill="none" xmlns="http://www.w3.org/2000/svg">
<g clip-path="url(#clip0)">
<path d="M8.02919 13.525L7.71566 15.3627C7.67293 15.614 7.77739 15.8672 7.98581 16.0171C8.19455 16.1667 8.47173 16.1868 8.6998 16.0688L10.374 15.2063L12.0482 16.069C12.1473 16.1197 12.2558 16.1452 12.3632 16.1452C12.5039 16.1452 12.6442 16.1018 12.7626 16.0173C12.9711 15.8673 13.0759 15.6141 13.0329 15.3629L12.7197 13.5251L14.0678 12.2201C14.2521 12.0419 14.3178 11.7759 14.2387 11.5339C14.1593 11.292 13.9468 11.1149 13.6917 11.0778L11.8236 10.8044L10.9823 9.13547C10.8681 8.90765 10.6317 8.76337 10.3739 8.76337C10.1165 8.76337 9.88024 8.90765 9.76514 9.13547L8.92459 10.8044L7.05652 11.0776C6.80095 11.1148 6.58942 11.2919 6.50985 11.5337C6.43028 11.7758 6.49577 12.042 6.68045 12.2199L8.02919 13.525Z" fill="#FF9F00"/>
<path d="M18.4021 2.68557H16.2631V1.51463C16.2631 0.977232 15.8217 0.541626 15.277 0.541626H15.1207C14.5761 0.541626 14.1349 0.977232 14.1349 1.51463V2.68557H6.58779V1.51463C6.58779 0.977232 6.14639 0.541626 5.60201 0.541626H5.4455C4.90096 0.541626 4.45972 0.977232 4.45972 1.51463V2.68557H2.34558C1.22687 2.68557 0.316406 3.58376 0.316406 4.68813V18.7059C0.316406 19.8096 1.22687 20.7085 2.34558 20.7085H18.4023C19.5209 20.7085 20.4315 19.8098 20.4315 18.7059V4.68813C20.4313 3.58376 19.5207 2.68557 18.4021 2.68557ZM18.1374 18.4446H2.61032V7.53265H18.1374V18.4446Z" fill="#FF9F00"/>
</g>
<defs>
<clipPath id="clip0">
<rect width="20.4347" height="20.1667" fill="white" transform="translate(0.15625 0.541626)"/>
</clipPath>
</defs>
</svg>
