<svg width="33" height="33" viewBox="0 0 33 33" fill="none" xmlns="http://www.w3.org/2000/svg">
<path d="M16.4835 0C7.3755 0 0 7.3755 0 16.5C0 25.6245 7.3755 33 16.4835 33C25.5915 33 33 25.6245 33 16.5C33 7.3755 25.608 0 16.4835 0ZM16.5 29.7C9.207 29.7 3.3 23.793 3.3 16.5C3.3 9.207 9.207 3.3 16.5 3.3C23.793 3.3 29.7 9.207 29.7 16.5C29.7 23.793 23.793 29.7 16.5 29.7ZM18.15 13.101L19.899 14.85L21.648 13.101L23.397 14.85L25.146 13.101L21.648 9.603L18.15 13.101ZM11.352 13.101L13.101 14.85L14.85 13.101L11.352 9.603L7.854 13.101L9.603 14.85L11.352 13.101ZM16.5 25.575C20.3445 25.575 23.6115 23.166 24.9315 19.8H8.0685C9.3885 23.166 12.6555 25.575 16.5 25.575Z" fill="#5B73E8"/>
</svg>
