<svg width="33" height="33" viewBox="0 0 33 33" fill="none" xmlns="http://www.w3.org/2000/svg">
<path d="M16.5 23.1C14.058 23.1 11.9625 21.7635 10.8075 19.8H8.052C9.372 23.1825 12.6555 25.575 16.5 25.575C20.3445 25.575 23.628 23.1825 24.948 19.8H22.1925C21.0375 21.7635 18.942 23.1 16.5 23.1ZM16.4835 0C7.3755 0 0 7.392 0 16.5C0 25.608 7.3755 33 16.4835 33C25.608 33 33 25.608 33 16.5C33 7.392 25.608 0 16.4835 0ZM16.5 29.7C9.207 29.7 3.3 23.793 3.3 16.5C3.3 9.207 9.207 3.3 16.5 3.3C23.793 3.3 29.7 9.207 29.7 16.5C29.7 23.793 23.793 29.7 16.5 29.7Z" fill="#949090"/>
</svg>
