<svg width="48" height="31" viewBox="0 0 48 31" fill="none" xmlns="http://www.w3.org/2000/svg">
<g clip-path="url(#clip0)">
<path d="M33.7243 17.4345C33.973 17.3868 34.2217 17.4345 34.4207 17.5778C34.6196 17.7211 34.7191 17.9599 34.7191 18.1988V27.7997C34.7191 29.0894 33.8735 30.2358 32.63 30.7612C31.8341 31.0955 33.1771 31 3.28284 31C1.44242 31 -6.37472e-05 29.567 -0.0498047 27.7997V15.8583C-0.0498047 14.0909 1.44242 12.6579 3.28284 12.6579H29.0486C29.2973 12.6579 29.5461 12.7535 29.6953 12.9445C29.8445 13.1356 29.8942 13.3744 29.8445 13.6133C29.6455 14.6641 29.944 15.715 30.7398 16.4792C31.5357 17.2912 32.63 17.6256 33.7243 17.4345Z" fill="#FF000D"/>
<path d="M11.5897 27.7997C11.1421 27.7997 10.7441 27.4653 10.7441 26.9877V16.6703C10.7441 16.2404 11.0923 15.8582 11.5897 15.8582C12.0374 15.8582 12.4353 16.1926 12.4353 16.6703V26.9877C12.4353 27.4653 12.0374 27.7997 11.5897 27.7997Z" fill="white"/>
<path d="M18.2054 27.7997H17.3598C16.9619 27.7997 16.6634 27.5609 16.5639 27.1787L14.0769 16.8613C13.9774 16.4314 14.2759 16.0015 14.6738 15.906C15.1215 15.8105 15.5691 16.0971 15.6686 16.4792L17.7577 25.1726L19.8966 16.527C19.9463 16.2404 20.195 16.0493 20.4437 15.9538C20.7422 15.8582 21.0406 15.9538 21.2396 16.1448C21.4386 16.3359 21.538 16.6225 21.4883 16.9091L19.0012 27.2265C18.9018 27.5609 18.6033 27.7997 18.2054 27.7997Z" fill="white"/>
<path d="M28.1538 27.7997H24.0253C23.5776 27.7997 23.1797 27.4653 23.1797 26.9877V16.6703C23.1797 16.2404 23.5279 15.8582 24.0253 15.8582C24.473 15.8582 24.8709 16.1926 24.8709 16.6703V26.2234H28.2035C28.6512 26.2234 29.0491 26.5578 29.0491 27.0354C28.9496 27.4653 28.6014 27.7997 28.1538 27.7997Z" fill="white"/>
<path d="M8.2573 27.7997H4.1288C3.68113 27.7997 3.2832 27.4653 3.2832 26.9877V16.6703C3.2832 16.2404 3.63139 15.8582 4.1288 15.8582C4.62621 15.8582 4.97439 16.2404 4.97439 16.6703V26.2234H8.30704C8.75471 26.2234 9.15263 26.5578 9.15263 27.0354C9.10289 27.4653 8.75471 27.7997 8.2573 27.7997Z" fill="white"/>
<path d="M28.1538 23.0231H24.0253C23.5776 23.0231 23.1797 22.6888 23.1797 22.2111C23.1797 21.7334 23.5279 21.3991 24.0253 21.3991H28.1538C28.6014 21.3991 28.9994 21.7334 28.9994 22.2111C28.9994 22.6888 28.6014 23.0231 28.1538 23.0231Z" fill="white"/>
<path d="M28.1538 17.4823H24.0253C23.5776 17.4823 23.1797 17.1479 23.1797 16.6703C23.1797 16.2404 23.5279 15.8582 24.0253 15.8582H28.1538C28.6014 15.8582 28.9994 16.1926 28.9994 16.6703C28.9496 17.1479 28.6014 17.4823 28.1538 17.4823Z" fill="white"/>
<path d="M24.2735 7.11711C27.059 3.96456 31.4859 2.53159 35.6642 3.43914C39.8424 4.34669 43.2248 7.45147 44.3191 11.5116C45.4134 15.5717 44.0704 19.8228 40.8372 22.5932C40.3398 22.9753 40.1409 23.5485 40.2403 24.1217C40.3398 24.6949 40.7875 25.1726 41.3844 25.3636C41.9813 25.5547 42.6279 25.4114 43.0258 24.9815C47.1543 21.3991 48.8953 15.906 47.5025 10.7473C46.1098 5.54083 41.832 1.52851 36.4103 0.382129C30.9885 -0.76425 25.3181 1.00308 21.7367 5.06318C21.3388 5.49307 21.1896 6.11402 21.3885 6.63945C21.5875 7.16487 22.0849 7.59476 22.6818 7.6903C23.2787 7.78583 23.9253 7.547 24.2735 7.11711Z" fill="#FF000D"/>
<path d="M30.1925 10.4129C32.1822 9.02773 34.9179 9.26656 36.6091 10.9384C38.3501 12.6102 38.549 15.2373 37.1065 17.1002C36.7086 17.6256 36.7086 18.2943 37.0568 18.8197C37.3552 19.2974 37.8526 19.584 38.3998 19.6317C38.9469 19.6795 39.4941 19.4407 39.8423 19.0108C42.2298 15.8582 41.9314 11.5116 39.0464 8.74114C36.1615 5.97072 31.635 5.5886 28.3521 7.88135C27.9045 8.21572 27.6558 8.74114 27.7055 9.31433C27.7552 9.88752 28.1034 10.3174 28.6008 10.604C29.0485 10.7951 29.6951 10.7473 30.1925 10.4129Z" fill="#FF000D"/>
<path d="M33.078 15.8582C33.9845 15.8582 34.7194 15.1525 34.7194 14.282C34.7194 13.4114 33.9845 12.7057 33.078 12.7057C32.1714 12.7057 31.4365 13.4114 31.4365 14.282C31.4365 15.1525 32.1714 15.8582 33.078 15.8582Z" fill="#FF000D"/>
</g>
<defs>
<clipPath id="clip0">
<rect width="48" height="31" fill="white"/>
</clipPath>
</defs>
</svg>
