<svg width="19" height="27" viewBox="0 0 19 27" fill="none" xmlns="http://www.w3.org/2000/svg">
<path d="M17.9543 11.6369V8.24686C17.9543 3.69951 14.1617 0 9.5 0C4.83829 0 1.04574 3.69951 1.04574 8.24686V11.6049C0.520065 11.8006 0 12.2419 0 13.1162V17.733C0 22.8428 4.26175 27 9.50007 27C14.7384 27 19 22.8428 19 17.733V13.1162C19 12.2866 18.4927 11.8468 17.9543 11.6369ZM11.3057 21.5571C11.3354 21.7108 11.2285 21.8366 11.0682 21.8366H7.96757C7.80724 21.8366 7.7004 21.7108 7.73013 21.5571L8.22673 18.9897C7.84769 18.6525 7.60981 18.1669 7.60981 17.6271C7.60981 16.6088 8.45608 15.7833 9.5 15.7833C10.5439 15.7833 11.3902 16.6088 11.3902 17.6271C11.3902 18.1523 11.1648 18.6257 10.8036 18.9616L11.3057 21.5571ZM15.0391 11.4723H3.9609V8.24686C3.9609 5.26757 6.44571 2.84365 9.5 2.84365C12.5542 2.84365 15.0391 5.26757 15.0391 8.24686V11.4723Z" fill="#626365"/>
</svg>
