<svg width="67" height="22" viewBox="0 0 67 22" fill="none" xmlns="http://www.w3.org/2000/svg">
<g clip-path="url(#clip0)">
<path d="M42.735 4.17627C41.7911 4.17627 41.0322 4.95932 41.0322 5.89152C41.0322 6.84237 41.7911 7.60678 42.735 7.60678C43.6789 7.60678 44.4378 6.84237 44.4378 5.89152C44.4563 4.94068 43.6789 4.17627 42.735 4.17627Z" fill="#E20E17"/>
<path d="M61.2254 0.074585C59.3376 0.074585 57.6533 0.988145 56.5983 2.40509C55.5434 0.988145 53.8591 0.074585 51.9713 0.074585C50.0834 0.074585 48.3992 0.988145 47.3442 2.40509C46.9185 1.82713 46.3818 1.34238 45.771 0.950856V5.89154C45.771 7.5695 44.4014 8.94916 42.7356 8.94916C41.0514 8.94916 39.7003 7.5695 39.7003 5.89154C39.7003 4.19492 41.0699 2.83391 42.7356 2.83391C43.2909 2.83391 43.8461 2.98306 44.3273 3.28137L44.4569 3.35594V0.335602C43.9202 0.167805 43.3464 0.074585 42.7541 0.074585C40.8663 0.074585 39.182 0.988145 38.1271 2.40509C37.0721 0.988145 35.3878 0.074585 33.5 0.074585C31.6122 0.074585 29.9279 0.988145 28.8729 2.40509C27.818 0.988145 26.1337 0.074585 24.2459 0.074585C22.358 0.074585 20.6738 0.988145 19.6188 2.40509C18.5638 0.988145 16.8796 0.074585 14.9917 0.074585C13.1039 0.074585 11.4196 0.988145 10.3646 2.40509C9.30967 0.988145 7.62541 0.074585 5.73757 0.074585C2.59116 0.074585 0 2.68476 0 5.89154C0 9.09832 2.59116 11.7085 5.77459 11.7085C7.66243 11.7085 9.34669 10.7949 10.4017 9.37798C11.4566 10.7949 13.1409 11.7085 15.0287 11.7085C16.9166 11.7085 18.6008 10.7949 19.6558 9.37798C20.7108 10.7949 22.395 11.7085 24.2829 11.7085C26.1707 11.7085 27.855 10.7949 28.9099 9.37798C29.9649 10.7949 31.6492 11.7085 33.537 11.7085C35.4249 11.7085 37.1091 10.7949 38.1641 9.37798C39.2191 10.7949 40.9033 11.7085 42.7912 11.7085C44.679 11.7085 46.3633 10.7949 47.4182 9.37798C48.4732 10.7949 50.139 11.7085 52.0453 11.7085C53.9332 11.7085 55.6174 10.7949 56.6724 9.37798C57.7273 10.7949 59.4116 11.7085 61.2994 11.7085C64.4829 11.7085 67.074 9.09832 67.074 5.89154C67 2.68476 64.4088 0.074585 61.2254 0.074585Z" fill="#E20E17"/>
<path d="M44.3273 3.28133C43.846 2.98303 43.3093 2.83388 42.7356 2.83388C41.0513 2.83388 39.7002 4.21354 39.7002 5.8915C39.7002 7.56947 41.0698 8.94913 42.7356 8.94913C44.4013 8.94913 45.7709 7.56947 45.7709 5.8915V0.950826C45.3637 0.689809 44.9195 0.484724 44.4383 0.335571V3.35591L44.3273 3.28133ZM42.7356 7.60676C41.7916 7.60676 41.0328 6.84235 41.0328 5.8915C41.0328 4.94066 41.7916 4.17625 42.7356 4.17625C43.6795 4.17625 44.4383 4.9593 44.4383 5.8915C44.4568 6.84235 43.6795 7.60676 42.7356 7.60676Z" fill="white"/>
<path d="M51.9895 8.94912C50.3237 8.94912 48.9541 7.56946 48.9541 5.89149C48.9541 4.19488 50.3237 2.83386 51.9895 2.83386C53.6552 2.83386 55.0248 4.21352 55.0248 5.89149C55.0248 7.56946 53.6552 8.94912 51.9895 8.94912ZM51.9895 4.17624C51.0455 4.17624 50.2867 4.95929 50.2867 5.89149C50.2867 6.84234 51.064 7.60674 51.9895 7.60674C52.9334 7.60674 53.6922 6.84234 53.6922 5.89149C53.6922 4.94064 52.9334 4.17624 51.9895 4.17624Z" fill="white"/>
<path d="M61.2248 8.94912C59.5406 8.94912 58.1895 7.56946 58.1895 5.89149C58.1895 4.19488 59.5591 2.83386 61.2248 2.83386C62.8906 2.83386 64.2602 4.21352 64.2602 5.89149C64.2602 7.56946 62.8906 8.94912 61.2248 8.94912ZM61.2248 4.17624C60.2809 4.17624 59.5221 4.95929 59.5221 5.89149C59.5221 6.84234 60.2809 7.60674 61.2248 7.60674C62.1687 7.60674 62.9276 6.84234 62.9276 5.89149C62.9276 4.94064 62.1687 4.17624 61.2248 4.17624Z" fill="white"/>
<path d="M15.01 8.94912C13.3257 8.94912 11.9746 7.56946 11.9746 5.89149C11.9746 4.19488 13.3442 2.83386 15.01 2.83386C16.6757 2.83386 18.0453 4.21352 18.0453 5.89149C18.0638 7.56946 16.6942 8.94912 15.01 8.94912ZM15.01 4.17624C14.066 4.17624 13.3072 4.94064 13.3072 5.89149C13.3072 6.84234 14.066 7.60674 15.01 7.60674C15.9539 7.60674 16.7127 6.84234 16.7127 5.89149C16.7312 4.94064 15.9539 4.17624 15.01 4.17624Z" fill="white"/>
<path d="M5.77462 8.94912C4.09036 8.94912 2.73926 7.56946 2.73926 5.89149C2.73926 4.19488 4.10887 2.83386 5.77462 2.83386C7.44036 2.83386 8.80997 4.21352 8.80997 5.89149C8.80997 7.56946 7.45887 8.94912 5.77462 8.94912ZM5.77462 4.17624C4.83069 4.17624 4.07185 4.94064 4.07185 5.89149C4.07185 6.84234 4.83069 7.60674 5.77462 7.60674C6.71854 7.60674 7.47738 6.84234 7.47738 5.89149C7.47738 4.94064 6.71854 4.17624 5.77462 4.17624Z" fill="white"/>
<path d="M33.6113 8.94912C33.5187 8.94912 33.4262 8.94912 33.3336 8.93047H33.2596H33.1671C31.6309 8.76268 30.4648 7.45759 30.4648 5.89149C30.4648 4.19488 31.8345 2.83386 33.5002 2.83386C35.1845 2.83386 36.5356 4.21352 36.5356 5.89149C36.5356 6.09657 36.5171 6.26437 36.48 6.46946H31.89L31.9825 6.69318C32.2231 7.15929 32.6673 7.47623 33.1671 7.5881C33.3151 7.62539 33.4632 7.62539 33.6298 7.62539H33.7038C34.148 7.60674 34.5737 7.45759 34.8513 7.19657L34.8883 7.15929L36.1284 7.83047L36.0729 7.90505C35.5176 8.57624 34.7218 8.93047 33.7038 8.96776C33.6668 8.94912 33.6483 8.94912 33.6113 8.94912ZM33.5002 4.17624C32.7969 4.17624 32.1676 4.60505 31.9085 5.25759V5.27624H35.0919V5.25759C34.8143 4.5864 34.2035 4.17624 33.5002 4.17624Z" fill="white"/>
<path d="M21.3955 8.79996V5.89149V5.72369C21.488 4.10166 22.8206 2.83386 24.4309 2.83386C25.5784 2.83386 26.6333 3.4864 27.1516 4.53047L25.9856 5.16437C25.7079 4.56776 25.0972 4.17624 24.4494 4.17624C23.5055 4.17624 22.7466 4.95929 22.7466 5.89149V8.79996H21.3955Z" fill="white"/>
<path d="M6.34828 19.7068C6.34828 20.0238 6.08916 20.2475 5.77452 20.2475H3.18336C2.92425 20.2475 2.70215 20.0797 2.70215 19.8V15.7729C2.70215 15.4 2.96126 15.1949 3.27591 15.1949H5.75601C6.07065 15.1949 6.32977 15.4187 6.32977 15.7356C6.32977 16.0526 6.07065 16.2763 5.75601 16.2763H3.86817V17.1712H5.42286C5.73751 17.1712 5.99662 17.3949 5.99662 17.7119C5.99662 18.0288 5.75601 18.2712 5.44137 18.2712H3.88668V19.1475H5.77452C6.08916 19.1475 6.34828 19.3712 6.34828 19.7068Z" fill="#E20E17"/>
<path d="M10.4756 17.7678V20.0424C10.4756 20.1729 10.4015 20.2475 10.272 20.2475H9.64269C9.51313 20.2475 9.4391 20.1729 9.4391 20.0424V18.0661C9.4391 17.5814 9.14296 17.3017 8.71727 17.3017C8.31009 17.3017 7.99545 17.5814 7.99545 18.0661V20.0424C7.99545 20.1729 7.92142 20.2475 7.79186 20.2475H7.16258C7.03302 20.2475 6.95898 20.1729 6.95898 20.0424V16.8356C6.95898 16.5373 7.19959 16.3136 7.47722 16.3136C7.73633 16.3136 7.95843 16.5187 7.99545 16.7797C8.23606 16.5187 8.58772 16.3136 9.08744 16.3136C9.97584 16.3136 10.4756 16.9289 10.4756 17.7678Z" fill="#E20E17"/>
<path d="M11.8817 16.3136C12.1778 16.3136 12.3999 16.556 12.3999 16.8356V20.0983C12.3999 20.6763 12.1963 21.2729 11.8261 21.5899C11.5485 21.8509 11.3449 21.9255 10.7897 21.9255C10.438 21.9255 10.2529 21.6644 10.2529 21.4034C10.2529 21.1238 10.475 20.8814 10.7712 20.8814C11.2524 20.8814 11.3634 20.4339 11.3634 19.8933V16.8356C11.3634 16.5373 11.5855 16.3136 11.8817 16.3136ZM11.2524 15.3068C11.2524 14.9712 11.53 14.7102 11.8632 14.7102C12.1963 14.7102 12.4554 14.9899 12.4554 15.3068C12.4554 15.6424 12.1778 15.9221 11.8632 15.9221C11.53 15.9221 11.2524 15.6424 11.2524 15.3068Z" fill="#E20E17"/>
<path d="M13.0488 18.3085C13.0488 17.2085 13.9372 16.3136 15.0292 16.3136C16.1212 16.3136 17.0096 17.2085 17.0096 18.3085C17.0096 19.4272 16.1212 20.3221 15.0292 20.3221C13.9372 20.3221 13.0488 19.4272 13.0488 18.3085ZM16.0102 18.3085C16.0102 17.7678 15.5845 17.339 15.0292 17.339C14.4925 17.339 14.0483 17.7678 14.0483 18.3085C14.0483 18.8678 14.4925 19.2967 15.0292 19.2967C15.5845 19.2967 16.0102 18.8678 16.0102 18.3085Z" fill="#E20E17"/>
<path d="M20.933 16.8729C20.933 16.9848 20.8959 17.078 20.8589 17.1526L19.6374 19.9492L19.6189 19.9865L19.3968 20.4899C19.1562 21.0119 18.823 21.4594 18.3233 21.6831C18.1382 21.7577 17.9716 21.7763 17.8236 21.7763C17.4164 21.7763 17.1758 21.5339 17.1758 21.2543C17.1758 20.9746 17.4164 20.7322 17.694 20.7322C17.8976 20.7322 18.0272 20.6577 18.1197 20.5831C18.3048 20.4153 18.4343 20.1729 18.5639 19.9119L17.3609 17.1526C17.3238 17.078 17.2868 16.9848 17.2868 16.8729C17.2868 16.5746 17.5274 16.3136 17.8421 16.3136C18.0642 16.3136 18.2863 16.4628 18.3788 16.7238C18.6194 17.339 18.86 17.9543 19.1006 18.5882C19.3412 17.9729 19.5819 17.3577 19.8225 16.7238C19.9335 16.4441 20.1371 16.3136 20.3592 16.3136C20.6924 16.3136 20.933 16.5746 20.933 16.8729Z" fill="#E20E17"/>
<path d="M25.3933 19.7254C25.3933 20.0237 25.1527 20.2475 24.8751 20.2475H24.4309C23.9127 20.2475 23.6536 20.1543 23.45 19.9492C23.2464 19.7254 23.1723 19.3712 23.1723 18.8119V17.3949H23.0798C22.8022 17.3949 22.5801 17.1712 22.5801 16.8915C22.5801 16.6119 22.8022 16.3882 23.0798 16.3882H23.1723V15.8288C23.1723 15.5119 23.413 15.3254 23.7091 15.3254C23.9867 15.3254 24.2273 15.5305 24.2273 15.8288V16.3882H24.8936C25.1712 16.3882 25.3933 16.6119 25.3933 16.8915C25.3933 17.1712 25.1712 17.3949 24.8936 17.3949H24.2273V18.7373C24.2273 19.1102 24.3939 19.2034 24.69 19.2034H24.8936C25.1712 19.2034 25.3933 19.4458 25.3933 19.7254Z" fill="#E20E17"/>
<path d="M25.9307 20.0424V15.2322C25.9307 14.9339 26.1713 14.7102 26.4489 14.7102C26.745 14.7102 26.9671 14.9526 26.9671 15.2322V16.6305C27.2262 16.4255 27.5779 16.295 27.9666 16.295C28.8735 16.295 29.4472 16.9661 29.4472 18.0475V20.0238C29.4472 20.1543 29.3732 20.2288 29.2436 20.2288H28.6144C28.4848 20.2288 28.4108 20.1543 28.4108 20.0238V18.0661C28.4108 17.6373 28.1146 17.3017 27.689 17.3017C27.2818 17.3017 26.9671 17.6373 26.9671 18.0661V20.0424C26.9671 20.1729 26.8931 20.2475 26.7635 20.2475H26.1343C26.0047 20.2475 25.9307 20.1729 25.9307 20.0424Z" fill="#E20E17"/>
<path d="M33.4814 18.7559H31.0013C31.1309 19.1474 31.5751 19.4084 32.1118 19.4084C32.445 19.4084 32.7226 19.3152 32.9077 19.2033C33.0002 19.1474 33.0927 19.1101 33.2038 19.1101C33.4444 19.1101 33.6665 19.3152 33.6665 19.5949C33.6665 19.7999 33.5555 19.9491 33.3519 20.061C33.0187 20.2474 32.482 20.3406 32.0748 20.3406C30.8347 20.3406 29.9648 19.5203 29.9648 18.3457C29.9648 17.2271 30.8162 16.3322 31.9637 16.3322C33.0372 16.3322 33.9256 17.2644 33.9256 18.1779C33.8886 18.5881 33.685 18.7559 33.4814 18.7559ZM32.8706 17.9915C32.7781 17.6 32.4079 17.2644 31.9267 17.2644C31.4455 17.2644 31.0568 17.6 30.9828 17.9915H32.8706Z" fill="#E20E17"/>
<path d="M36.2207 20.0051V15.717C36.2207 15.4001 36.4798 15.139 36.7945 15.139C37.1091 15.139 37.3867 15.4001 37.3867 15.717V20.0051C37.3867 20.1543 37.2942 20.2475 37.1461 20.2475H36.4613C36.3132 20.2475 36.2207 20.1543 36.2207 20.0051Z" fill="#E20E17"/>
<path d="M41.8847 17.7678V20.0424C41.8847 20.1729 41.8107 20.2475 41.6811 20.2475H41.0519C40.9223 20.2475 40.8483 20.1729 40.8483 20.0424V18.0661C40.8483 17.5814 40.5521 17.3017 40.1265 17.3017C39.7193 17.3017 39.4046 17.5814 39.4046 18.0661V20.0424C39.4046 20.1729 39.3306 20.2475 39.201 20.2475H38.5718C38.4422 20.2475 38.3682 20.1729 38.3682 20.0424V16.8356C38.3682 16.5373 38.6088 16.3136 38.8864 16.3136C39.1455 16.3136 39.3676 16.5187 39.4046 16.7797C39.6452 16.5187 39.9969 16.3136 40.4966 16.3136C41.385 16.3136 41.8847 16.9289 41.8847 17.7678Z" fill="#E20E17"/>
<path d="M45.0857 19.7254C45.0857 20.0237 44.8451 20.2475 44.5675 20.2475H44.1233C43.6051 20.2475 43.3459 20.1543 43.1424 19.9492C42.9388 19.7254 42.8647 19.3712 42.8647 18.8119V17.3949H42.7722C42.4946 17.3949 42.2725 17.1712 42.2725 16.8915C42.2725 16.6119 42.4946 16.3882 42.7722 16.3882H42.8647V15.8288C42.8647 15.5119 43.1053 15.3254 43.4015 15.3254C43.6791 15.3254 43.9197 15.5305 43.9197 15.8288V16.3882H44.586C44.8636 16.3882 45.0857 16.6119 45.0857 16.8915C45.0857 17.1712 44.8636 17.3949 44.586 17.3949H43.9197V18.7373C43.9197 19.1102 44.0863 19.2034 44.3824 19.2034H44.586C44.8636 19.2034 45.0857 19.4458 45.0857 19.7254Z" fill="#E20E17"/>
<path d="M48.9736 18.7559H46.4935C46.6231 19.1474 47.0673 19.4084 47.604 19.4084C47.9371 19.4084 48.2148 19.3152 48.3998 19.2033C48.4924 19.1474 48.5849 19.1101 48.696 19.1101C48.9366 19.1101 49.1587 19.3152 49.1587 19.5949C49.1587 19.7999 49.0476 19.9491 48.844 20.061C48.5109 20.2474 47.9742 20.3406 47.567 20.3406C46.3269 20.3406 45.457 19.5203 45.457 18.3457C45.457 17.2271 46.3084 16.3322 47.4559 16.3322C48.5294 16.3322 49.4178 17.2644 49.4178 18.1779C49.3808 18.5881 49.1772 18.7559 48.9736 18.7559ZM48.3628 17.9915C48.2703 17.6 47.9001 17.2644 47.4189 17.2644C46.9377 17.2644 46.549 17.6 46.475 17.9915H48.3628Z" fill="#E20E17"/>
<path d="M51.8602 17.3389C51.3605 17.3389 50.8978 17.7491 50.8978 18.3457V20.061C50.8978 20.1915 50.8238 20.2661 50.6942 20.2661H50.0649C49.9354 20.2661 49.8613 20.1915 49.8613 20.061V18.3644C49.8613 17.6186 50.2685 16.9661 50.8423 16.6118C51.2309 16.3694 51.5641 16.3322 51.9713 16.3322C52.1378 16.3322 52.2859 16.3322 52.4155 16.3881C52.6191 16.4627 52.7301 16.6491 52.7301 16.8728C52.7301 17.1338 52.5265 17.3762 52.2304 17.3762C52.1008 17.3576 52.0083 17.3389 51.8602 17.3389Z" fill="#E20E17"/>
<path d="M56.709 17.7678V20.0424C56.709 20.1729 56.6349 20.2475 56.5054 20.2475H55.8761C55.7465 20.2475 55.6725 20.1729 55.6725 20.0424V18.0661C55.6725 17.5814 55.3764 17.3017 54.9507 17.3017C54.5435 17.3017 54.2288 17.5814 54.2288 18.0661V20.0424C54.2288 20.1729 54.1548 20.2475 54.0253 20.2475H53.396C53.2664 20.2475 53.1924 20.1729 53.1924 20.0424V16.8356C53.1924 16.5373 53.433 16.3136 53.7106 16.3136C53.9697 16.3136 54.1918 16.5187 54.2288 16.7797C54.4695 16.5187 54.8211 16.3136 55.3208 16.3136C56.2092 16.3136 56.709 16.9289 56.709 17.7678Z" fill="#E20E17"/>
<path d="M60.873 18.7559H58.3929C58.5225 19.1474 58.9667 19.4084 59.5034 19.4084C59.8366 19.4084 60.1142 19.3152 60.2993 19.2033C60.3918 19.1474 60.4843 19.1101 60.5954 19.1101C60.836 19.1101 61.0581 19.3152 61.0581 19.5949C61.0581 19.7999 60.9471 19.9491 60.7435 20.061C60.4103 20.2474 59.8736 20.3406 59.4664 20.3406C58.2263 20.3406 57.3564 19.5203 57.3564 18.3457C57.3564 17.2271 58.2078 16.3322 59.3553 16.3322C60.4288 16.3322 61.3172 17.2644 61.3172 18.1779C61.2987 18.5881 61.0951 18.7559 60.873 18.7559ZM60.2622 17.9915C60.1697 17.6 59.7995 17.2644 59.3183 17.2644C58.8371 17.2644 58.4484 17.6 58.3744 17.9915H60.2622Z" fill="#E20E17"/>
<path d="M64.2234 19.7254C64.2234 20.0237 63.9828 20.2475 63.7052 20.2475H63.261C62.7428 20.2475 62.4836 20.1543 62.28 19.9492C62.0765 19.7254 62.0024 19.3712 62.0024 18.8119V17.3949H61.9099C61.6323 17.3949 61.4102 17.1712 61.4102 16.8915C61.4102 16.6119 61.6323 16.3882 61.9099 16.3882H62.0024V15.8288C62.0024 15.5119 62.243 15.3254 62.5392 15.3254C62.8168 15.3254 63.0574 15.5305 63.0574 15.8288V16.3882H63.7237C64.0013 16.3882 64.2234 16.6119 64.2234 16.8915C64.2234 17.1712 64.0013 17.3949 63.7237 17.3949H63.0574V18.7373C63.0574 19.1102 63.224 19.2034 63.5201 19.2034H63.7237C64.0013 19.2034 64.2234 19.4458 64.2234 19.7254Z" fill="#E20E17"/>
</g>
<defs>
<clipPath id="clip0">
<rect width="67" height="22" fill="white"/>
</clipPath>
</defs>
</svg>
