<svg width="107" height="42" viewBox="0 0 107 42" fill="none" xmlns="http://www.w3.org/2000/svg">
<path d="M15.4391 21.0204C14.7786 21.0204 14.2007 21.5918 14.2007 22.2449C14.2007 22.8979 14.7786 23.4694 15.4391 23.4694C16.0996 23.4694 16.6775 22.8979 16.6775 22.2449C16.6775 21.5918 16.0996 21.0204 15.4391 21.0204Z" fill="#666A73"/>
<path d="M15.4391 24.6122C14.7786 24.6122 14.2007 25.1837 14.2007 25.8367C14.2007 26.4898 14.7786 27.0612 15.4391 27.0612C16.0996 27.0612 16.6775 26.4898 16.6775 25.8367C16.6775 25.102 16.0996 24.6122 15.4391 24.6122Z" fill="#666A73"/>
<path d="M10.8156 25.0204C10.1551 25.0204 9.57715 25.5918 9.57715 26.2449C9.57715 26.8979 10.1551 27.4694 10.8156 27.4694C11.4761 27.4694 12.054 26.8979 12.054 26.2449C12.054 25.5918 11.4761 25.0204 10.8156 25.0204Z" fill="#666A73"/>
<path d="M10.8156 28.6122C10.1551 28.6122 9.57715 29.1836 9.57715 29.8367C9.57715 30.4897 10.1551 31.0612 10.8156 31.0612C11.4761 31.0612 12.054 30.4897 12.054 29.8367C12.054 29.102 11.4761 28.6122 10.8156 28.6122Z" fill="#666A73"/>
<path d="M6.19204 36.6122C5.53155 36.6122 4.95361 37.1836 4.95361 37.8367C4.95361 38.4897 5.53155 39.0612 6.19204 39.0612C6.85253 39.0612 7.43047 38.4897 7.43047 37.8367C7.43047 37.102 6.85253 36.6122 6.19204 36.6122Z" fill="#666A73"/>
<path d="M6.19204 33.0204C5.53155 33.0204 4.95361 33.5918 4.95361 34.2449C4.95361 34.8979 5.53155 35.4694 6.19204 35.4694C6.85253 35.4694 7.43047 34.8979 7.43047 34.2449C7.43047 33.5918 6.85253 33.0204 6.19204 33.0204Z" fill="#666A73"/>
<path d="M15.439 28.2857C14.8611 28.2857 14.3657 28.7755 14.3657 29.3469V37.9184C14.3657 38.4898 14.7785 38.9796 15.3565 38.9796C15.6041 38.9796 15.9344 38.8979 16.0995 38.653C16.2646 38.4898 16.4298 38.1633 16.4298 37.9184V29.3469C16.5123 28.7755 16.017 28.2857 15.439 28.2857Z" fill="#666A73"/>
<path d="M20.0626 23.7143C19.4846 23.7143 18.9893 24.2041 18.9893 24.7755V35.3061C18.9893 35.8776 19.4846 36.3674 20.0626 36.3674C20.6405 36.3674 21.1359 35.8776 21.1359 35.3061V24.7755C21.0533 24.2041 20.6405 23.7143 20.0626 23.7143Z" fill="#666A73"/>
<path d="M10.8155 32.2857C10.2376 32.2857 9.74219 32.7755 9.74219 33.3469V40.5306C9.74219 41.102 10.155 41.5918 10.7329 41.5918C10.9806 41.5918 11.3109 41.5102 11.476 41.2653C11.6411 41.0204 11.8062 40.7755 11.8062 40.5306V33.3469C11.8888 32.7755 11.3934 32.2857 10.8155 32.2857Z" fill="#666A73"/>
<path d="M6.19216 31.7143C6.77009 31.7143 7.26546 31.2245 7.26546 30.6531V22.1633C7.26546 21.5918 6.85265 21.1021 6.27472 21.1021C6.02703 21.1021 5.77935 21.1837 5.53166 21.4286C5.28398 21.5918 5.20142 21.8367 5.20142 22.0816V30.6531C5.20142 31.2245 5.61422 31.7143 6.19216 31.7143Z" fill="#666A73"/>
<path d="M10.8155 23.7143C11.3934 23.7143 11.8888 23.2245 11.8888 22.653V19.4694C11.8888 18.8979 11.4759 18.4081 10.898 18.4081C10.6503 18.4081 10.4026 18.4898 10.155 18.7347C9.98983 18.8979 9.82471 19.2245 9.82471 19.4694V22.653C9.74215 23.2245 10.2375 23.7143 10.8155 23.7143Z" fill="#666A73"/>
<path d="M1.56862 23.7143C0.990689 23.7143 0.577881 24.2041 0.577881 24.7755V35.3061C0.577881 35.8776 1.07325 36.3674 1.65118 36.3674C2.22912 36.3674 2.72449 35.8776 2.72449 35.3061V24.7755C2.64192 24.2041 2.14655 23.7143 1.56862 23.7143Z" fill="#666A73"/>
<path d="M67.2879 36.2857C65.4715 36.2857 64.068 35.551 63.0773 34.1633C62.3342 33.0204 61.9214 31.6327 61.9214 30.0816C61.9214 28.2041 62.4168 26.6531 63.4901 25.4286C64.3982 24.2857 65.6367 23.7143 67.2879 23.7143C69.1043 23.7143 70.5078 24.449 71.4985 25.9184C72.2416 27.0612 72.6544 28.449 72.6544 30.0816C72.6544 31.9592 72.159 33.5102 71.0857 34.6531C70.095 35.7959 68.8566 36.2857 67.2879 36.2857ZM67.2879 34.8163C68.5263 34.8163 69.4345 34.3265 70.0124 33.3469C70.5078 32.5306 70.7555 31.4694 70.7555 30.1633C70.7555 28.6123 70.4252 27.3878 69.7648 26.5714C69.1868 25.7551 68.3612 25.3469 67.2879 25.3469C66.132 25.3469 65.2239 25.8367 64.5634 26.898C64.068 27.7143 63.8203 28.8572 63.8203 30.1633C63.8203 31.7143 64.1506 32.8572 64.811 33.6735C65.389 34.4082 66.2146 34.8163 67.2879 34.8163Z" fill="#666A73"/>
<path d="M36.2445 34.7347H31.1257V30.4898H35.3363C35.7491 30.4898 36.0794 30.1633 36.0794 29.7551C36.0794 29.347 35.7491 29.0204 35.3363 29.0204H35.2538H31.1257V25.2653H36.2445C36.6573 25.2653 36.9876 24.9388 36.9876 24.5307C36.9876 24.1225 36.6573 23.796 36.2445 23.796H30.7954H29.3093V36.3674H30.7954H35.6666H36.2445C36.6573 36.3674 36.9876 36.0409 36.9876 35.6327C37.0701 35.1429 36.6573 34.7347 36.2445 34.7347Z" fill="#666A73"/>
<path d="M55.0688 23.7143C54.078 23.7143 53.0047 23.7959 51.8489 23.9592V29.8367V35.3878C51.8489 35.8776 52.2617 36.2857 52.7571 36.2857C53.2524 36.2857 53.6652 35.8776 53.6652 35.3878V34.4898V31.4694C54.1606 31.551 54.7385 31.6327 55.3165 31.6327C56.4723 31.6327 57.4631 31.3061 58.2887 30.7347C59.1969 30 59.6922 28.9388 59.6922 27.551C59.6922 25.0204 58.1236 23.7143 55.0688 23.7143ZM55.3165 30.1633C54.7385 30.1633 54.1606 30.0816 53.6652 30V29.8367V25.3469C54.078 25.2653 54.5734 25.1837 55.1513 25.1837C56.8851 25.1837 57.7108 26 57.7108 27.551C57.7108 29.2653 56.8851 30.1633 55.3165 30.1633Z" fill="#666A73"/>
<path d="M84.9561 24.6939C84.9561 24.2041 84.5433 23.7959 84.048 23.7959C83.5526 23.7959 83.1398 24.2041 83.1398 24.6939V26.1633V27.4694V30.2449V31.2245C83.1398 33.5918 82.2316 34.7347 80.3327 34.7347C78.5163 34.7347 77.5256 33.5918 77.5256 31.2245V29.7551V24.6123C77.5256 24.1225 77.1128 23.7143 76.6174 23.7143C76.122 23.7143 75.7092 24.1225 75.7092 24.6123V30.2449V30.8163C75.7092 34.4898 77.2779 36.3674 80.4153 36.3674C83.5526 36.3674 85.1213 34.4898 85.1213 30.8163V30.2449V24.6939H84.9561Z" fill="#666A73"/>
<path d="M105.762 34.7347H100.643V30.4898H104.853C105.266 30.4898 105.596 30.1633 105.596 29.7551C105.596 29.347 105.266 29.0204 104.853 29.0204H104.771H100.643V25.2653H105.762C106.174 25.2653 106.505 24.9388 106.505 24.5307C106.505 24.1225 106.174 23.796 105.762 23.796H100.313H98.8264V36.3674H100.313H105.184H105.762C106.174 36.3674 106.505 36.0409 106.505 35.6327C106.587 35.1429 106.174 34.7347 105.762 34.7347Z" fill="#666A73"/>
<path d="M94.8635 30.4081C94.203 29.7551 93.0471 29.1837 91.4785 28.5306C90.4052 28.1224 89.8272 27.551 89.8272 26.7347C89.8272 26.3265 89.9924 25.9183 90.4052 25.5918C90.818 25.2653 91.3133 25.1837 91.9738 25.1837C92.882 25.1837 93.7902 25.4285 94.6158 25.8367C94.9461 25.9183 95.2763 25.8367 95.4414 25.5102C95.6065 25.2653 95.524 25.0204 95.4414 24.7755C95.4414 24.6939 95.3589 24.6939 95.3589 24.6939C95.3589 24.6939 95.2763 24.6939 95.2763 24.6122C94.2856 23.9592 93.1297 23.6326 91.8913 23.6326C91.561 23.6326 91.2308 23.6326 90.9005 23.7143C90.24 23.7959 89.5795 24.0408 89.0842 24.449C88.3411 25.0204 87.9283 25.8367 87.9283 26.8163C87.9283 27.6326 88.2586 28.3673 88.8365 28.9388C89.497 29.5102 90.4877 30 91.8913 30.4898C93.2123 30.8979 93.8727 31.6326 93.8727 32.6939C93.8727 34 93.0471 34.653 91.4785 34.653C90.5703 34.653 89.6621 34.4898 88.9191 34.0816L88.2586 33.6734C87.9283 33.5102 87.5155 33.5918 87.3504 33.9183C87.1853 34.2449 87.2678 34.653 87.5981 34.8163L87.6806 34.8979C89.0842 35.7959 90.4052 36.2041 91.6436 36.2041C91.8087 36.2041 91.9738 36.2041 92.139 36.2041C92.9646 36.1224 93.7076 35.8775 94.3681 35.4694C95.2763 34.8163 95.6891 33.9183 95.6891 32.7755C95.8542 31.8775 95.524 31.0612 94.8635 30.4081Z" fill="#666A73"/>
<path d="M49.1242 35.8776L45.1612 29.8368L48.2986 25.2653L49.0416 24.2041C48.959 24.1225 48.959 24.1225 48.8765 24.0408C48.2986 23.6327 47.4729 23.6327 47.0601 24.2041L44.1705 28.6123L41.3634 24.2041C41.2808 24.1225 41.2808 24.0408 41.1982 24.0408C40.6203 23.6327 39.7947 23.6327 39.3819 24.2041L43.0146 29.8368L38.804 35.8776C38.8865 35.9592 38.8865 35.9592 38.9691 36.0408C39.547 36.449 40.3726 36.449 40.7854 35.8776L44.0879 30.898L47.1427 35.8776C47.2252 35.9592 47.2252 35.9592 47.3078 36.0408C47.8857 36.449 48.7114 36.3674 49.1242 35.8776Z" fill="#666A73"/>
<path d="M7.78 8.18C7.78 8.55333 7.69 8.90333 7.51 9.23C7.33667 9.55667 7.06 9.82 6.68 10.02C6.30667 10.22 5.83333 10.32 5.26 10.32H4.09V13H2.69V6.02H5.26C5.8 6.02 6.26 6.11333 6.64 6.3C7.02 6.48667 7.30333 6.74333 7.49 7.07C7.68333 7.39667 7.78 7.76667 7.78 8.18ZM5.2 9.19C5.58667 9.19 5.87333 9.10333 6.06 8.93C6.24667 8.75 6.34 8.5 6.34 8.18C6.34 7.5 5.96 7.16 5.2 7.16H4.09V9.19H5.2ZM11.234 13.09C10.7007 13.09 10.2207 12.9733 9.79398 12.74C9.36732 12.5 9.03065 12.1633 8.78398 11.73C8.54398 11.2967 8.42398 10.7967 8.42398 10.23C8.42398 9.66333 8.54732 9.16333 8.79398 8.73C9.04732 8.29667 9.39065 7.96333 9.82398 7.73C10.2573 7.49 10.7407 7.37 11.274 7.37C11.8073 7.37 12.2907 7.49 12.724 7.73C13.1573 7.96333 13.4973 8.29667 13.744 8.73C13.9973 9.16333 14.124 9.66333 14.124 10.23C14.124 10.7967 13.994 11.2967 13.734 11.73C13.4807 12.1633 13.134 12.5 12.694 12.74C12.2607 12.9733 11.774 13.09 11.234 13.09ZM11.234 11.87C11.4873 11.87 11.724 11.81 11.944 11.69C12.1707 11.5633 12.3507 11.3767 12.484 11.13C12.6173 10.8833 12.684 10.5833 12.684 10.23C12.684 9.70333 12.544 9.3 12.264 9.02C11.9907 8.73333 11.654 8.59 11.254 8.59C10.854 8.59 10.5173 8.73333 10.244 9.02C9.97732 9.3 9.84398 9.70333 9.84398 10.23C9.84398 10.7567 9.97398 11.1633 10.234 11.45C10.5007 11.73 10.834 11.87 11.234 11.87ZM22.8309 7.46L21.2109 13H19.7009L18.6909 9.13L17.6809 13H16.1609L14.5309 7.46H15.9509L16.9309 11.68L17.9909 7.46H19.4709L20.5109 11.67L21.4909 7.46H22.8309ZM28.7384 10.11C28.7384 10.31 28.7251 10.49 28.6984 10.65H24.6484C24.6818 11.05 24.8218 11.3633 25.0684 11.59C25.3151 11.8167 25.6184 11.93 25.9784 11.93C26.4984 11.93 26.8684 11.7067 27.0884 11.26H28.5984C28.4384 11.7933 28.1318 12.2333 27.6784 12.58C27.2251 12.92 26.6684 13.09 26.0084 13.09C25.4751 13.09 24.9951 12.9733 24.5684 12.74C24.1484 12.5 23.8184 12.1633 23.5784 11.73C23.3451 11.2967 23.2284 10.7967 23.2284 10.23C23.2284 9.65667 23.3451 9.15333 23.5784 8.72C23.8118 8.28667 24.1384 7.95333 24.5584 7.72C24.9784 7.48667 25.4618 7.37 26.0084 7.37C26.5351 7.37 27.0051 7.48333 27.4184 7.71C27.8384 7.93667 28.1618 8.26 28.3884 8.68C28.6218 9.09333 28.7384 9.57 28.7384 10.11ZM27.2884 9.71C27.2818 9.35 27.1518 9.06333 26.8984 8.85C26.6451 8.63 26.3351 8.52 25.9684 8.52C25.6218 8.52 25.3284 8.62667 25.0884 8.84C24.8551 9.04667 24.7118 9.33667 24.6584 9.71H27.2884ZM31.1603 8.32C31.3403 8.02667 31.5736 7.79667 31.8603 7.63C32.1536 7.46333 32.487 7.38 32.8603 7.38V8.85H32.4903C32.0503 8.85 31.717 8.95333 31.4903 9.16C31.2703 9.36667 31.1603 9.72667 31.1603 10.24V13H29.7603V7.46H31.1603V8.32ZM38.9533 10.11C38.9533 10.31 38.9399 10.49 38.9133 10.65H34.8633C34.8966 11.05 35.0366 11.3633 35.2833 11.59C35.5299 11.8167 35.8333 11.93 36.1933 11.93C36.7133 11.93 37.0833 11.7067 37.3033 11.26H38.8133C38.6533 11.7933 38.3466 12.2333 37.8933 12.58C37.4399 12.92 36.8833 13.09 36.2233 13.09C35.6899 13.09 35.2099 12.9733 34.7833 12.74C34.3633 12.5 34.0333 12.1633 33.7933 11.73C33.5599 11.2967 33.4433 10.7967 33.4433 10.23C33.4433 9.65667 33.5599 9.15333 33.7933 8.72C34.0266 8.28667 34.3533 7.95333 34.7733 7.72C35.1933 7.48667 35.6766 7.37 36.2233 7.37C36.7499 7.37 37.2199 7.48333 37.6333 7.71C38.0533 7.93667 38.3766 8.26 38.6033 8.68C38.8366 9.09333 38.9533 9.57 38.9533 10.11ZM37.5033 9.71C37.4966 9.35 37.3666 9.06333 37.1133 8.85C36.8599 8.63 36.5499 8.52 36.1833 8.52C35.8366 8.52 35.5433 8.62667 35.3033 8.84C35.0699 9.04667 34.9266 9.33667 34.8733 9.71H37.5033ZM39.6152 10.21C39.6152 9.65 39.7252 9.15333 39.9452 8.72C40.1718 8.28667 40.4785 7.95333 40.8652 7.72C41.2518 7.48667 41.6818 7.37 42.1552 7.37C42.5152 7.37 42.8585 7.45 43.1852 7.61C43.5118 7.76333 43.7718 7.97 43.9652 8.23V5.6H45.3852V13H43.9652V12.18C43.7918 12.4533 43.5485 12.6733 43.2352 12.84C42.9218 13.0067 42.5585 13.09 42.1452 13.09C41.6785 13.09 41.2518 12.97 40.8652 12.73C40.4785 12.49 40.1718 12.1533 39.9452 11.72C39.7252 11.28 39.6152 10.7767 39.6152 10.21ZM43.9752 10.23C43.9752 9.89 43.9085 9.6 43.7752 9.36C43.6418 9.11333 43.4618 8.92667 43.2352 8.8C43.0085 8.66667 42.7652 8.6 42.5052 8.6C42.2452 8.6 42.0052 8.66333 41.7852 8.79C41.5652 8.91667 41.3852 9.10333 41.2452 9.35C41.1118 9.59 41.0452 9.87667 41.0452 10.21C41.0452 10.5433 41.1118 10.8367 41.2452 11.09C41.3852 11.3367 41.5652 11.5267 41.7852 11.66C42.0118 11.7933 42.2518 11.86 42.5052 11.86C42.7652 11.86 43.0085 11.7967 43.2352 11.67C43.4618 11.5367 43.6418 11.35 43.7752 11.11C43.9085 10.8633 43.9752 10.57 43.9752 10.23ZM53.0953 9.42C53.4886 9.49333 53.812 9.69 54.0653 10.01C54.3186 10.33 54.4453 10.6967 54.4453 11.11C54.4453 11.4833 54.352 11.8133 54.1653 12.1C53.9853 12.38 53.722 12.6 53.3753 12.76C53.0286 12.92 52.6186 13 52.1453 13H49.1353V6.02H52.0153C52.4886 6.02 52.8953 6.09667 53.2353 6.25C53.582 6.40333 53.842 6.61667 54.0153 6.89C54.1953 7.16333 54.2853 7.47333 54.2853 7.82C54.2853 8.22667 54.1753 8.56667 53.9553 8.84C53.742 9.11333 53.4553 9.30667 53.0953 9.42ZM50.5353 8.9H51.8153C52.1486 8.9 52.4053 8.82667 52.5853 8.68C52.7653 8.52667 52.8553 8.31 52.8553 8.03C52.8553 7.75 52.7653 7.53333 52.5853 7.38C52.4053 7.22667 52.1486 7.15 51.8153 7.15H50.5353V8.9ZM51.9453 11.86C52.2853 11.86 52.5486 11.78 52.7353 11.62C52.9286 11.46 53.0253 11.2333 53.0253 10.94C53.0253 10.64 52.9253 10.4067 52.7253 10.24C52.5253 10.0667 52.2553 9.98 51.9153 9.98H50.5353V11.86H51.9453ZM60.8611 7.46L57.4311 15.62H55.9411L57.1411 12.86L54.9211 7.46H56.4911L57.9211 11.33L59.3711 7.46H60.8611Z" fill="#666A73"/>
</svg>
