<svg width="128" height="42" viewBox="0 0 128 42" fill="none" xmlns="http://www.w3.org/2000/svg">
<g clip-path="url(#clip0)">
<path d="M81.6437 7.97284C79.8404 7.97284 78.3906 9.46776 78.3906 11.2474C78.3906 13.0627 79.8404 14.522 81.6437 14.522C83.447 14.522 84.8967 13.0627 84.8967 11.2474C84.9321 9.43216 83.447 7.97284 81.6437 7.97284Z" fill="#E20E17"/>
<path d="M116.968 0.142334C113.361 0.142334 110.144 1.8864 108.128 4.59149C106.113 1.8864 102.895 0.142334 99.2884 0.142334C95.6818 0.142334 92.4641 1.8864 90.4486 4.59149C89.6354 3.4881 88.6099 2.56267 87.4431 1.81522V11.2474C87.4431 14.4508 84.8265 17.0847 81.6442 17.0847C78.4265 17.0847 75.8453 14.4508 75.8453 11.2474C75.8453 8.00844 78.4619 5.41013 81.6442 5.41013C82.705 5.41013 83.7657 5.69488 84.6851 6.26437L84.9326 6.40674V0.640639C83.9072 0.3203 82.811 0.142334 81.6796 0.142334C78.0729 0.142334 74.8552 1.8864 72.8398 4.59149C70.8243 1.8864 67.6066 0.142334 64 0.142334C60.3934 0.142334 57.1757 1.8864 55.1602 4.59149C53.1447 1.8864 49.9271 0.142334 46.3204 0.142334C42.7138 0.142334 39.4961 1.8864 37.4807 4.59149C35.4652 1.8864 32.2475 0.142334 28.6409 0.142334C25.0343 0.142334 21.8166 1.8864 19.8011 4.59149C17.7856 1.8864 14.568 0.142334 10.9613 0.142334C4.95028 0.142334 0 5.12539 0 11.2474C0 17.3695 4.95028 22.3525 11.032 22.3525C14.6387 22.3525 17.8564 20.6084 19.8718 17.9034C21.8873 20.6084 25.105 22.3525 28.7116 22.3525C32.3182 22.3525 35.5359 20.6084 37.5514 17.9034C39.5668 20.6084 42.7845 22.3525 46.3912 22.3525C49.9978 22.3525 53.2155 20.6084 55.2309 17.9034C57.2464 20.6084 60.4641 22.3525 64.0707 22.3525C67.6773 22.3525 70.895 20.6084 72.9105 17.9034C74.926 20.6084 78.1436 22.3525 81.7503 22.3525C85.3569 22.3525 88.5746 20.6084 90.5901 17.9034C92.6055 20.6084 95.7878 22.3525 99.4298 22.3525C103.036 22.3525 106.254 20.6084 108.27 17.9034C110.285 20.6084 113.503 22.3525 117.109 22.3525C123.191 22.3525 128.141 17.3695 128.141 11.2474C128 5.12539 123.05 0.142334 116.968 0.142334Z" fill="#E20E17"/>
<path d="M84.6855 6.26429C83.7661 5.6948 82.7407 5.41006 81.6446 5.41006C78.4269 5.41006 75.8457 8.04396 75.8457 11.2473C75.8457 14.4507 78.4623 17.0846 81.6446 17.0846C84.8269 17.0846 87.4435 14.4507 87.4435 11.2473V1.81514C86.6656 1.31684 85.817 0.92531 84.8976 0.640564V6.40667L84.6855 6.26429ZM81.6446 14.5219C79.8413 14.5219 78.3916 13.0626 78.3916 11.2473C78.3916 9.43209 79.8413 7.97277 81.6446 7.97277C83.4479 7.97277 84.8976 9.46769 84.8976 11.2473C84.933 13.0626 83.4479 14.5219 81.6446 14.5219Z" fill="white"/>
<path d="M99.3233 17.0847C96.141 17.0847 93.5244 14.4508 93.5244 11.2474C93.5244 8.00846 96.141 5.41016 99.3233 5.41016C102.506 5.41016 105.122 8.04405 105.122 11.2474C105.122 14.4508 102.506 17.0847 99.3233 17.0847ZM99.3233 7.97287C97.52 7.97287 96.0703 9.46778 96.0703 11.2474C96.0703 13.0627 97.5554 14.522 99.3233 14.522C101.127 14.522 102.576 13.0627 102.576 11.2474C102.576 9.43219 101.127 7.97287 99.3233 7.97287Z" fill="white"/>
<path d="M116.967 17.0847C113.749 17.0847 111.168 14.4508 111.168 11.2474C111.168 8.00846 113.785 5.41016 116.967 5.41016C120.149 5.41016 122.766 8.04405 122.766 11.2474C122.766 14.4508 120.149 17.0847 116.967 17.0847ZM116.967 7.97287C115.164 7.97287 113.714 9.46778 113.714 11.2474C113.714 13.0627 115.164 14.522 116.967 14.522C118.77 14.522 120.22 13.0627 120.22 11.2474C120.22 9.43219 118.77 7.97287 116.967 7.97287Z" fill="white"/>
<path d="M28.6758 17.0847C25.4582 17.0847 22.877 14.4508 22.877 11.2474C22.877 8.00846 25.4935 5.41016 28.6758 5.41016C31.8582 5.41016 34.4747 8.04405 34.4747 11.2474C34.5101 14.4508 31.8935 17.0847 28.6758 17.0847ZM28.6758 7.97287C26.8725 7.97287 25.4228 9.43219 25.4228 11.2474C25.4228 13.0627 26.8725 14.522 28.6758 14.522C30.4792 14.522 31.9289 13.0627 31.9289 11.2474C31.9642 9.43219 30.4792 7.97287 28.6758 7.97287Z" fill="white"/>
<path d="M11.0323 17.0847C7.81461 17.0847 5.2334 14.4508 5.2334 11.2474C5.2334 8.00846 7.84997 5.41016 11.0323 5.41016C14.2146 5.41016 16.8312 8.04405 16.8312 11.2474C16.8312 14.4508 14.25 17.0847 11.0323 17.0847ZM11.0323 7.97287C9.22898 7.97287 7.77925 9.43219 7.77925 11.2474C7.77925 13.0627 9.22898 14.522 11.0323 14.522C12.8356 14.522 14.2853 13.0627 14.2853 11.2474C14.2853 9.43219 12.8356 7.97287 11.0323 7.97287Z" fill="white"/>
<path d="M64.2122 17.0847C64.0354 17.0847 63.8586 17.0847 63.6818 17.0491H63.5404H63.3636C60.4288 16.7288 58.2012 14.2373 58.2012 11.2474C58.2012 8.00846 60.8177 5.41016 64.0001 5.41016C67.2178 5.41016 69.799 8.04405 69.799 11.2474C69.799 11.639 69.7636 11.9593 69.6929 12.3508H60.9238L61.1006 12.778C61.5603 13.6678 62.4089 14.2729 63.3636 14.4864C63.6465 14.5576 63.9293 14.5576 64.2476 14.5576H64.389C65.2376 14.522 66.0509 14.2373 66.5813 13.739L66.652 13.6678L69.0211 14.9491L68.915 15.0915C67.8542 16.3729 66.3338 17.0491 64.389 17.1203C64.3183 17.0847 64.2829 17.0847 64.2122 17.0847ZM64.0001 7.97287C62.6564 7.97287 61.4542 8.79151 60.9592 10.0373V10.0729H67.041V10.0373C66.5106 8.75592 65.3437 7.97287 64.0001 7.97287Z" fill="white"/>
<path d="M40.875 16.8V11.2474V10.9271C41.0518 7.8305 43.5976 5.41016 46.6739 5.41016C48.8662 5.41016 50.8816 6.65592 51.8717 8.64914L49.644 9.85931C49.1137 8.72033 47.9468 7.97287 46.7092 7.97287C44.9059 7.97287 43.4562 9.46778 43.4562 11.2474V16.8H40.875Z" fill="white"/>
<path d="M12.1288 37.622C12.1288 38.2271 11.6338 38.6542 11.0327 38.6542H6.08242C5.5874 38.6542 5.16309 38.3339 5.16309 37.8V30.1119C5.16309 29.4 5.65811 29.0085 6.25922 29.0085H10.9973C11.5984 29.0085 12.0935 29.4356 12.0935 30.0407C12.0935 30.6458 11.5984 31.0729 10.9973 31.0729H7.39071V32.7814H10.3609C10.962 32.7814 11.457 33.2085 11.457 33.8136C11.457 34.4187 10.9973 34.8814 10.3962 34.8814H7.42607V36.5542H11.0327C11.6338 36.5542 12.1288 36.9814 12.1288 37.622Z" fill="#E20E17"/>
<path d="M20.0132 33.9203V38.2627C20.0132 38.5118 19.8717 38.6542 19.6242 38.6542H18.422C18.1745 38.6542 18.033 38.5118 18.033 38.2627V34.4898C18.033 33.5644 17.4673 33.0305 16.654 33.0305C15.8761 33.0305 15.275 33.5644 15.275 34.4898V38.2627C15.275 38.5118 15.1336 38.6542 14.8861 38.6542H13.6839C13.4364 38.6542 13.2949 38.5118 13.2949 38.2627V32.1407C13.2949 31.5712 13.7546 31.144 14.285 31.144C14.78 31.144 15.2043 31.5356 15.275 32.0339C15.7347 31.5356 16.4065 31.144 17.3612 31.144C19.0585 31.144 20.0132 32.3186 20.0132 33.9203Z" fill="#E20E17"/>
<path d="M22.6995 31.144C23.2652 31.144 23.6895 31.6067 23.6895 32.1406V38.3694C23.6895 39.4728 23.3006 40.6118 22.5934 41.2169C22.063 41.7152 21.6741 41.8576 20.6133 41.8576C19.9415 41.8576 19.5879 41.3593 19.5879 40.861C19.5879 40.3271 20.0122 39.8644 20.5779 39.8644C21.4973 39.8644 21.7094 39.0101 21.7094 37.9779V32.1406C21.7094 31.5711 22.1337 31.144 22.6995 31.144ZM21.4973 29.222C21.4973 28.5813 22.0277 28.083 22.6641 28.083C23.3006 28.083 23.7956 28.6169 23.7956 29.222C23.7956 29.8627 23.2652 30.3966 22.6641 30.3966C22.0277 30.3966 21.4973 29.8627 21.4973 29.222Z" fill="#E20E17"/>
<path d="M24.9287 34.9525C24.9287 32.8525 26.6259 31.144 28.7121 31.144C30.7983 31.144 32.4956 32.8525 32.4956 34.9525C32.4956 37.0881 30.7983 38.7966 28.7121 38.7966C26.6259 38.7966 24.9287 37.0881 24.9287 34.9525ZM30.5862 34.9525C30.5862 33.9203 29.7729 33.1017 28.7121 33.1017C27.6867 33.1017 26.8381 33.9203 26.8381 34.9525C26.8381 36.0203 27.6867 36.839 28.7121 36.839C29.7729 36.839 30.5862 36.0203 30.5862 34.9525Z" fill="#E20E17"/>
<path d="M39.9914 32.2118C39.9914 32.4254 39.9207 32.6034 39.8499 32.7457L37.5162 38.0847L37.4809 38.1559L37.0566 39.1169C36.5969 40.1135 35.9604 40.9678 35.0057 41.3949C34.6521 41.5373 34.3339 41.5729 34.051 41.5729C33.2731 41.5729 32.8135 41.1101 32.8135 40.5762C32.8135 40.0424 33.2731 39.5796 33.8035 39.5796C34.1925 39.5796 34.44 39.4373 34.6168 39.2949C34.9704 38.9746 35.2179 38.5118 35.4654 38.0135L33.1671 32.7457C33.0963 32.6034 33.0256 32.4254 33.0256 32.2118C33.0256 31.6423 33.4853 31.144 34.0864 31.144C34.5107 31.144 34.935 31.4288 35.1118 31.9271C35.5715 33.1017 36.0312 34.2762 36.4908 35.4864C36.9505 34.3118 37.4102 33.1373 37.8698 31.9271C38.082 31.3932 38.4709 31.144 38.8952 31.144C39.5317 31.144 39.9914 31.6423 39.9914 32.2118Z" fill="#E20E17"/>
<path d="M48.5123 37.6576C48.5123 38.2271 48.0526 38.6542 47.5222 38.6542H46.6736C45.6836 38.6542 45.1885 38.4762 44.7996 38.0847C44.4106 37.6576 44.2692 36.9813 44.2692 35.9135V33.2084H44.0924C43.562 33.2084 43.1377 32.7813 43.1377 32.2474C43.1377 31.7135 43.562 31.2864 44.0924 31.2864H44.2692V30.2186C44.2692 29.6135 44.7289 29.2576 45.2946 29.2576C45.825 29.2576 46.2847 29.6491 46.2847 30.2186V31.2864H47.5576C48.088 31.2864 48.5123 31.7135 48.5123 32.2474C48.5123 32.7813 48.088 33.2084 47.5576 33.2084H46.2847V35.7711C46.2847 36.483 46.6029 36.661 47.1686 36.661H47.5576C48.088 36.661 48.5123 37.1237 48.5123 37.6576Z" fill="#E20E17"/>
<path d="M49.5391 38.2627V29.0796C49.5391 28.5101 49.9987 28.083 50.5291 28.083C51.0949 28.083 51.5192 28.5457 51.5192 29.0796V31.7491C52.0142 31.3576 52.686 31.1084 53.4286 31.1084C55.1612 31.1084 56.2573 32.3898 56.2573 34.4542V38.2271C56.2573 38.4762 56.1159 38.6186 55.8683 38.6186H54.6661C54.4186 38.6186 54.2772 38.4762 54.2772 38.2271V34.4898C54.2772 33.6711 53.7114 33.0305 52.8982 33.0305C52.1203 33.0305 51.5192 33.6711 51.5192 34.4898V38.2627C51.5192 38.5118 51.3777 38.6542 51.1302 38.6542H49.928C49.6805 38.6542 49.5391 38.5118 49.5391 38.2627Z" fill="#E20E17"/>
<path d="M63.9643 35.8067H59.2262C59.4737 36.5542 60.3223 37.0525 61.3478 37.0525C61.9842 37.0525 62.5146 36.8745 62.8682 36.661C63.045 36.5542 63.2218 36.483 63.4339 36.483C63.8936 36.483 64.3179 36.8745 64.3179 37.4084C64.3179 37.8 64.1058 38.0847 63.7168 38.2983C63.0804 38.6542 62.0549 38.8322 61.277 38.8322C58.908 38.8322 57.2461 37.2661 57.2461 35.0237C57.2461 32.8881 58.8726 31.1796 61.0649 31.1796C63.1157 31.1796 64.813 32.9593 64.813 34.7034C64.7422 35.4864 64.3533 35.8067 63.9643 35.8067ZM62.7975 34.3474C62.6207 33.6 61.9135 32.9593 60.9942 32.9593C60.0748 32.9593 59.3323 33.6 59.1908 34.3474H62.7975Z" fill="#E20E17"/>
<path d="M69.1973 38.1915V30.0051C69.1973 29.4 69.6923 28.9017 70.2934 28.9017C70.8945 28.9017 71.4249 29.4 71.4249 30.0051V38.1915C71.4249 38.4762 71.2481 38.6542 70.9652 38.6542H69.6569C69.3741 38.6542 69.1973 38.4762 69.1973 38.1915Z" fill="#E20E17"/>
<path d="M80.018 33.9203V38.2627C80.018 38.5118 79.8766 38.6542 79.6291 38.6542H78.4269C78.1794 38.6542 78.0379 38.5118 78.0379 38.2627V34.4898C78.0379 33.5644 77.4722 33.0305 76.6589 33.0305C75.881 33.0305 75.2799 33.5644 75.2799 34.4898V38.2627C75.2799 38.5118 75.1385 38.6542 74.891 38.6542H73.6888C73.4412 38.6542 73.2998 38.5118 73.2998 38.2627V32.1407C73.2998 31.5712 73.7595 31.144 74.2899 31.144C74.7849 31.144 75.2092 31.5356 75.2799 32.0339C75.7396 31.5356 76.4114 31.144 77.3661 31.144C79.0633 31.144 80.018 32.3186 80.018 33.9203Z" fill="#E20E17"/>
<path d="M86.1343 37.6576C86.1343 38.2271 85.6747 38.6542 85.1443 38.6542H84.2957C83.3056 38.6542 82.8106 38.4762 82.4216 38.0847C82.0327 37.6576 81.8913 36.9813 81.8913 35.9135V33.2084H81.7145C81.1841 33.2084 80.7598 32.7813 80.7598 32.2474C80.7598 31.7135 81.1841 31.2864 81.7145 31.2864H81.8913V30.2186C81.8913 29.6135 82.3509 29.2576 82.9167 29.2576C83.4471 29.2576 83.9067 29.6491 83.9067 30.2186V31.2864H85.1796C85.71 31.2864 86.1343 31.7135 86.1343 32.2474C86.1343 32.7813 85.71 33.2084 85.1796 33.2084H83.9067V35.7711C83.9067 36.483 84.225 36.661 84.7907 36.661H85.1796C85.71 36.661 86.1343 37.1237 86.1343 37.6576Z" fill="#E20E17"/>
<path d="M93.561 35.8067H88.8229C89.0704 36.5542 89.919 37.0525 90.9444 37.0525C91.5809 37.0525 92.1113 36.8745 92.4649 36.661C92.6417 36.5542 92.8185 36.483 93.0306 36.483C93.4903 36.483 93.9146 36.8745 93.9146 37.4084C93.9146 37.8 93.7024 38.0847 93.3135 38.2983C92.677 38.6542 91.6516 38.8322 90.8737 38.8322C88.5046 38.8322 86.8428 37.2661 86.8428 35.0237C86.8428 32.8881 88.4693 31.1796 90.6616 31.1796C92.7124 31.1796 94.4096 32.9593 94.4096 34.7034C94.3389 35.4864 93.95 35.8067 93.561 35.8067ZM92.3941 34.3474C92.2174 33.6 91.5102 32.9593 90.5908 32.9593C89.6715 32.9593 88.929 33.6 88.7875 34.3474H92.3941Z" fill="#E20E17"/>
<path d="M99.0756 33.1017C98.1209 33.1017 97.2369 33.8847 97.2369 35.0237V38.2983C97.2369 38.5474 97.0955 38.6898 96.848 38.6898H95.6458C95.3983 38.6898 95.2568 38.5474 95.2568 38.2983V35.0593C95.2568 33.6356 96.0347 32.3898 97.1309 31.7135C97.8734 31.2508 98.5099 31.1796 99.2878 31.1796C99.606 31.1796 99.8889 31.1796 100.136 31.2864C100.525 31.4288 100.737 31.7847 100.737 32.2118C100.737 32.7101 100.349 33.1728 99.7828 33.1728C99.5353 33.1373 99.3585 33.1017 99.0756 33.1017Z" fill="#E20E17"/>
<path d="M108.339 33.9203V38.2627C108.339 38.5118 108.198 38.6542 107.95 38.6542H106.748C106.501 38.6542 106.359 38.5118 106.359 38.2627V34.4898C106.359 33.5644 105.793 33.0305 104.98 33.0305C104.202 33.0305 103.601 33.5644 103.601 34.4898V38.2627C103.601 38.5118 103.46 38.6542 103.212 38.6542H102.01C101.763 38.6542 101.621 38.5118 101.621 38.2627V32.1407C101.621 31.5712 102.081 31.144 102.611 31.144C103.106 31.144 103.53 31.5356 103.601 32.0339C104.061 31.5356 104.733 31.144 105.687 31.144C107.385 31.144 108.339 32.3186 108.339 33.9203Z" fill="#E20E17"/>
<path d="M116.295 35.8067H111.557C111.805 36.5542 112.653 37.0525 113.679 37.0525C114.315 37.0525 114.846 36.8745 115.199 36.661C115.376 36.5542 115.553 36.483 115.765 36.483C116.225 36.483 116.649 36.8745 116.649 37.4084C116.649 37.8 116.437 38.0847 116.048 38.2983C115.411 38.6542 114.386 38.8322 113.608 38.8322C111.239 38.8322 109.577 37.2661 109.577 35.0237C109.577 32.8881 111.204 31.1796 113.396 31.1796C115.447 31.1796 117.144 32.9593 117.144 34.7034C117.109 35.4864 116.72 35.8067 116.295 35.8067ZM115.129 34.3474C114.952 33.6 114.245 32.9593 113.325 32.9593C112.406 32.9593 111.663 33.6 111.522 34.3474H115.129Z" fill="#E20E17"/>
<path d="M122.696 37.6576C122.696 38.2271 122.236 38.6542 121.706 38.6542H120.857C119.867 38.6542 119.372 38.4762 118.983 38.0847C118.594 37.6576 118.453 36.9813 118.453 35.9135V33.2084H118.276C117.746 33.2084 117.321 32.7813 117.321 32.2474C117.321 31.7135 117.746 31.2864 118.276 31.2864H118.453V30.2186C118.453 29.6135 118.912 29.2576 119.478 29.2576C120.009 29.2576 120.468 29.6491 120.468 30.2186V31.2864H121.741C122.272 31.2864 122.696 31.7135 122.696 32.2474C122.696 32.7813 122.272 33.2084 121.741 33.2084H120.468V35.7711C120.468 36.483 120.786 36.661 121.352 36.661H121.741C122.272 36.661 122.696 37.1237 122.696 37.6576Z" fill="#E20E17"/>
</g>
<defs>
<clipPath id="clip0">
<rect width="128" height="42" fill="white"/>
</clipPath>
</defs>
</svg>
