<svg width="26" height="18" viewBox="0 0 26 18" fill="none" xmlns="http://www.w3.org/2000/svg">
<path d="M24.3135 0.28015V3.36186C24.3135 3.64202 24.0324 3.71206 23.8216 3.57198L22.9784 2.73151C22.9081 2.66147 22.9081 2.59143 22.9081 2.52139V1.12062C22.9081 1.05058 22.9081 0.980539 22.9784 0.9105L23.8919 0.140072C24.0324 -0.0700447 24.3135 0.0700331 24.3135 0.28015Z" fill="#5B73E8"/>
<path d="M22.6973 3.71206H19.3243C18.6919 3.71206 18.1297 3.15175 18.1297 2.5214V0H21.5027C22.1351 0 22.6973 0.560311 22.6973 1.19066V3.71206Z" fill="#5B73E8"/>
<path d="M24.3838 4.06226H23.8919V15.4086H24.3838V4.06226Z" fill="#5B73E8"/>
<path d="M2.31892 8.40468H2.52973V2.03114H8.22162V1.82102C8.22162 1.68094 8.29189 1.6109 8.43243 1.6109C8.57297 1.6109 8.64324 1.68094 8.64324 1.82102V2.03114H17.6378V1.54086H2.31892C2.17838 1.54086 2.10811 1.68094 2.10811 1.75098V8.61479C2.10811 8.47472 2.17838 8.40468 2.31892 8.40468Z" fill="#5B73E8"/>
<path d="M25.7892 15.4086H24.3838V15.6187C24.3838 15.7588 24.3135 15.8288 24.173 15.8288H25.5784V16.109C25.5784 16.8794 24.9459 17.4397 24.2432 17.4397H1.82703C1.05405 17.4397 0.491892 16.8093 0.491892 16.109V15.8288H2.38919C2.24865 15.8288 2.17838 15.7588 2.17838 15.6187V15.4786V15.4086H0.210811C0.0702703 15.4086 0 15.4786 0 15.6187V16.179C0 17.1595 0.843243 18 1.82703 18H24.173C25.1568 18 26 17.1595 26 16.179V15.6187C26 15.4786 25.8595 15.4086 25.7892 15.4086Z" fill="#5B73E8"/>
<path d="M20.9405 15.4086C20.9405 15.6187 20.8703 15.6887 20.7297 15.6887C20.5892 15.6887 20.5189 15.6187 20.5189 15.4786V15.4086H12.2973V15.4786C12.2973 15.6187 12.227 15.6887 12.0865 15.6887C11.9459 15.6887 11.8757 15.6187 11.8757 15.4786V15.4086H8.78378V15.4786C8.78378 15.6187 8.71351 15.6887 8.57297 15.6887H7.94054H3.16216H2.31892C2.17838 15.6887 2.10811 15.6187 2.10811 15.4786V15.6187C2.10811 15.7588 2.17838 15.8288 2.31892 15.8288H24.1027C24.2432 15.8288 24.3135 15.7588 24.3135 15.6187V15.4086H23.8919H20.9405Z" fill="#5B73E8"/>
<path d="M8.5027 8.40467C8.64324 8.40467 8.71351 8.47471 8.71351 8.61479V2.03113H8.22162V8.40467H8.5027Z" fill="#5B73E8"/>
<path d="M8.71351 1.82102C8.71351 1.68094 8.64324 1.6109 8.5027 1.6109C8.36216 1.6109 8.29189 1.68094 8.29189 1.82102V2.03113H8.78378V1.82102H8.71351Z" fill="#5B73E8"/>
<path d="M3.44324 15.1985C3.44324 15.2685 3.44324 15.3385 3.44324 15.3385H7.65946C7.65946 15.2685 7.65946 15.1985 7.65946 15.1985H3.44324Z" fill="#5B73E8"/>
<path d="M8.50271 8.82489H8.2919V15.1984H8.08109C8.08109 15.2685 8.08109 15.3385 8.08109 15.3385H8.71352V8.54474C8.71352 8.75486 8.64325 8.82489 8.50271 8.82489Z" fill="#5B73E8"/>
<path d="M2.6 15.1985V15.4086H3.02162C3.02162 15.3385 3.02162 15.2685 3.02162 15.2685H2.6V15.1985Z" fill="#5B73E8"/>
<path d="M2.6 15.1985V8.82492H2.31892C2.17838 8.82492 2.10811 8.75488 2.10811 8.61481V15.4086H2.6V15.1985Z" fill="#5B73E8"/>
<path d="M8.08108 15.4786C8.08108 15.6187 8.01081 15.6887 7.87027 15.6887H8.5027C8.64324 15.6887 8.71351 15.6187 8.71351 15.4786V15.4086L8.08108 15.4786C8.08108 15.4086 8.08108 15.4086 8.08108 15.4786Z" fill="#5B73E8"/>
<path d="M7.65945 15.4786C7.65945 15.4086 7.58918 15.4086 7.65945 15.4786L3.44324 15.4086V15.4786C3.44324 15.6187 3.37297 15.6887 3.23243 15.6887H7.94053C7.72972 15.6887 7.65945 15.5486 7.65945 15.4786Z" fill="#5B73E8"/>
<path d="M2.31892 15.6887H3.16216C3.02162 15.6887 2.95135 15.6187 2.95135 15.4786V15.4086H2.6H2.10811V15.4786C2.10811 15.5486 2.17838 15.6887 2.31892 15.6887Z" fill="#5B73E8"/>
<path d="M8.71351 8.61478C8.71351 8.4747 8.64324 8.40466 8.5027 8.40466H8.29189H8.08108C8.08108 8.4747 8.08108 8.54474 8.08108 8.61478C8.08108 8.75486 8.01081 8.8249 7.87027 8.8249H8.29189H8.5027C8.64324 8.8249 8.71351 8.75486 8.71351 8.61478Z" fill="#5B73E8"/>
<path d="M7.65945 8.61478C7.65945 8.54474 7.65945 8.4747 7.65945 8.40466H3.44324C3.44324 8.4747 3.44324 8.54474 3.44324 8.61478C3.44324 8.75486 3.37297 8.8249 3.23243 8.8249H7.94053C7.72972 8.8249 7.65945 8.75486 7.65945 8.61478Z" fill="#5B73E8"/>
<path d="M2.95135 8.61478C2.95135 8.54474 2.95135 8.4747 2.95135 8.40466H2.6V8.89494H3.23243C3.02162 8.8249 2.95135 8.75486 2.95135 8.61478Z" fill="#5B73E8"/>
<path d="M2.31892 8.8249H2.52973V8.40466H2.31892C2.17838 8.40466 2.10811 8.4747 2.10811 8.61478C2.10811 8.75486 2.17838 8.8249 2.31892 8.8249Z" fill="#5B73E8"/>
<path d="M17.1459 10.9961C18.5513 10.6459 19.6054 9.38523 19.6054 7.84438C19.6054 6.09341 18.1297 4.62259 16.373 4.62259C14.6162 4.62259 13.1405 6.09341 13.1405 7.84438C13.1405 9.38523 14.1946 10.6459 15.6 10.9961C15.8811 10.9261 16.0919 10.9261 16.373 10.9261C16.654 10.9261 16.9351 10.9261 17.1459 10.9961ZM13.5622 7.84438C13.5622 6.30352 14.827 5.04282 16.373 5.04282C17.9189 5.04282 19.1838 6.30352 19.1838 7.84438C19.1838 9.38523 17.9189 10.6459 16.373 10.6459C14.827 10.6459 13.5622 9.38523 13.5622 7.84438Z" fill="#5B73E8"/>
<path d="M17.1459 10.9961C16.8649 11.0662 16.654 11.1362 16.373 11.1362C16.0919 11.1362 15.8108 11.0662 15.6 10.9961C13.4919 11.3463 11.8757 13.1673 11.8054 15.4086H12.2973C12.2973 13.1673 14.1243 11.3463 16.373 11.3463C18.6216 11.3463 20.4486 13.1673 20.4486 15.4086H20.9405C20.9405 13.1673 19.3243 11.3463 17.1459 10.9961Z" fill="#5B73E8"/>
<path d="M11.8054 15.4786C11.8054 15.6187 11.8757 15.6887 12.0162 15.6887C12.1568 15.6887 12.227 15.6187 12.227 15.4786V15.4086L11.8054 15.4786C11.8054 15.4086 11.8054 15.4086 11.8054 15.4786Z" fill="#5B73E8"/>
<path d="M20.5189 15.4786C20.5189 15.6187 20.5892 15.6887 20.7297 15.6887C20.8703 15.6887 20.9405 15.6187 20.9405 15.4786V15.4086L20.5189 15.4786C20.5189 15.4086 20.5189 15.4086 20.5189 15.4786Z" fill="#5B73E8"/>
<path d="M17.1459 10.9961C16.8649 10.9261 16.6541 10.9261 16.373 10.9261C16.0919 10.9261 15.8108 10.9261 15.6 10.9961C15.8811 11.0662 16.0919 11.1362 16.373 11.1362C16.6541 11.1362 16.9351 11.0662 17.1459 10.9961Z" fill="#5B73E8"/>
<path d="M6.32432 6.16344C6.95675 5.88329 7.37837 5.25294 7.37837 4.48251C7.37837 3.43193 6.53513 2.6615 5.55134 2.6615C4.49729 2.6615 3.65405 3.50197 3.65405 4.48251C3.65405 5.25294 4.07567 5.88329 4.7081 6.16344C4.98918 6.09341 5.19999 6.02337 5.48107 6.02337C5.76215 6.09341 6.04323 6.09341 6.32432 6.16344ZM4.14594 4.48251C4.14594 3.71208 4.77837 3.08173 5.55134 3.08173C6.32432 3.08173 6.95675 3.71208 6.95675 4.48251C6.95675 5.25294 6.32432 5.88329 5.55134 5.88329C4.77837 5.88329 4.14594 5.25294 4.14594 4.48251Z" fill="#5B73E8"/>
<path d="M5.55136 6.51362C6.60541 6.51362 7.51892 7.35408 7.65946 8.40467H8.15136C8.08109 7.35408 7.37838 6.51362 6.3946 6.23346C6.04325 6.3035 5.76217 6.37354 5.55136 6.37354C5.27027 6.37354 4.98919 6.3035 4.70811 6.16342C3.7946 6.51362 3.0919 7.35408 2.95135 8.40467H3.44325C3.58379 7.35408 4.42703 6.51362 5.55136 6.51362Z" fill="#5B73E8"/>
<path d="M3.44325 8.61478C3.44325 8.54474 3.44325 8.4747 3.44325 8.40466H2.95135C2.95135 8.4747 2.95135 8.54474 2.95135 8.61478C2.95135 8.75486 3.02163 8.8249 3.16217 8.8249C3.30271 8.8249 3.44325 8.75486 3.44325 8.61478Z" fill="#5B73E8"/>
<path d="M8.08107 8.61478C8.08107 8.54474 8.08107 8.4747 8.08107 8.40466H7.58918C7.58918 8.4747 7.58918 8.54474 7.58918 8.61478C7.58918 8.75486 7.65945 8.8249 7.79999 8.8249C8.0108 8.8249 8.08107 8.75486 8.08107 8.61478Z" fill="#5B73E8"/>
<path d="M6.32432 6.16342C6.04324 6.09338 5.76216 6.09338 5.55135 6.09338C5.27027 6.09338 4.98919 6.16342 4.77838 6.23346C4.98919 6.3035 5.27027 6.37354 5.55135 6.37354C5.76216 6.37354 6.04324 6.3035 6.32432 6.16342Z" fill="#5B73E8"/>
<path d="M6.32433 13.0272C6.95676 12.7471 7.37839 12.1167 7.37839 11.3463C7.37839 10.2957 6.53514 9.5253 5.55136 9.5253C4.4973 9.5253 3.72433 10.3658 3.72433 11.3463C3.72433 12.1167 4.14595 12.7471 4.77839 13.0272C5.05947 12.9572 5.27028 12.8872 5.55136 12.8872C5.76217 12.8872 6.04325 12.9572 6.32433 13.0272ZM4.14595 11.3463C4.14595 10.5759 4.77839 9.94553 5.55136 9.94553C6.32433 9.94553 6.95676 10.5759 6.95676 11.3463C6.95676 12.1167 6.32433 12.7471 5.55136 12.7471C4.77839 12.7471 4.14595 12.1167 4.14595 11.3463Z" fill="#5B73E8"/>
<path d="M5.55135 13.3774C6.6054 13.3774 7.51892 14.2179 7.65946 15.2685H8.15135C8.08108 14.2179 7.37838 13.3774 6.39459 13.0973C6.18378 13.2374 5.9027 13.3074 5.62162 13.3074C5.34054 13.3074 5.05946 13.2374 4.84865 13.0973C3.86486 13.3774 3.16216 14.288 3.09189 15.2685H3.58378C3.58378 14.1479 4.42702 13.3774 5.55135 13.3774Z" fill="#5B73E8"/>
<path d="M8.08107 15.1985H7.58918C7.58918 15.2685 7.58918 15.3385 7.58918 15.3385H8.08107C8.08107 15.3385 8.08107 15.2685 8.08107 15.1985Z" fill="#5B73E8"/>
<path d="M3.44325 15.1985H2.95135C2.95135 15.2685 2.95135 15.3385 2.95135 15.3385H3.44325C3.44325 15.3385 3.44325 15.2685 3.44325 15.1985Z" fill="#5B73E8"/>
<path d="M3.44325 15.4786C3.44325 15.4086 3.44325 15.4086 3.44325 15.4786L2.95135 15.4086V15.4786C2.95135 15.6187 3.02163 15.6887 3.16217 15.6887C3.30271 15.6887 3.44325 15.5486 3.44325 15.4786Z" fill="#5B73E8"/>
<path d="M8.08107 15.4786C8.08107 15.4086 8.08107 15.4086 8.08107 15.4786L7.58918 15.4086V15.4786C7.58918 15.6187 7.65945 15.6887 7.79999 15.6887C8.0108 15.6887 8.08107 15.5486 8.08107 15.4786Z" fill="#5B73E8"/>
<path d="M6.32432 13.0273C6.04324 12.9572 5.83243 12.8872 5.55135 12.8872C5.27027 12.8872 4.98919 12.9572 4.77838 13.0273C4.98919 13.1673 5.27027 13.2374 5.55135 13.2374C5.76216 13.2374 6.04324 13.1673 6.32432 13.0273Z" fill="#5B73E8"/>
</svg>
