<svg width="25" height="23" viewBox="0 0 25 23" fill="none" xmlns="http://www.w3.org/2000/svg">
<g clip-path="url(#clip0)">
<path d="M24.5885 21.8904C24.5885 22.4956 23.7654 23 22.8395 23H1.85185C1.33745 23 0.925924 22.8991 0.617282 22.6974C0.30864 22.4956 0.102879 22.193 0.102879 21.8904C0.102879 21.7895 0.205759 21.6886 0.30864 21.6886H24.3827C24.4856 21.6886 24.4856 21.6886 24.5885 21.6886C24.5885 21.7895 24.5885 21.7895 24.5885 21.8904Z" fill="#5B73E8"/>
<path d="M22.8395 23H1.85185C1.33745 23 0.925926 22.8991 0.514403 22.6974C0.205761 22.4956 0 22.193 0 21.8904C0 21.7895 0.102881 21.6886 0.308642 21.6886H24.3827C24.4856 21.6886 24.5885 21.6886 24.5885 21.7895C24.6914 21.7895 24.6914 21.8904 24.6914 21.9912C24.6914 22.4956 23.8683 23 22.8395 23ZM0.308642 21.7895C0.205761 21.7895 0.205761 21.7895 0.205761 21.8904C0.205761 22.193 0.411523 22.3947 0.720165 22.5965C1.02881 22.7982 1.44033 22.8991 1.95473 22.8991H22.9424C23.8683 22.8991 24.5885 22.3947 24.5885 21.8904H24.4856H0.308642V21.7895Z" fill="#5B73E8"/>
<path d="M22.2222 20.2763H2.46913C1.13169 20.2763 0.102879 19.2675 0.102879 17.9561V5.64912C0.102879 4.33772 1.13169 3.32895 2.46913 3.32895H14.8148C15.0206 3.32895 15.1235 3.42983 15.1235 3.63158C15.1235 3.83333 15.0206 3.93421 14.8148 3.93421H2.46913C1.54321 4.03509 0.823043 4.74123 0.823043 5.64912V17.9561C0.823043 18.864 1.64609 19.6711 2.57201 19.6711H22.2222C23.1481 19.6711 23.9712 18.864 23.9712 17.9561V6.55702C23.9712 6.35526 24.0741 6.25439 24.2798 6.25439C24.4856 6.25439 24.5885 6.35526 24.5885 6.55702V17.8553C24.5885 19.2675 23.5597 20.2763 22.2222 20.2763Z" fill="#5B73E8"/>
<path d="M15.8436 21.8904C15.8436 21.9913 15.7407 22.193 15.7407 22.2939C15.6379 22.3948 15.535 22.3948 15.4321 22.3948H9.36214C9.05349 22.3948 8.84773 22.193 8.84773 21.8904H15.8436Z" fill="#5B73E8"/>
<path d="M15.3292 22.4956H9.36214C9.0535 22.4956 8.74485 22.193 8.74485 21.8904C8.74485 21.8904 8.74485 21.7895 8.84774 21.7895H15.8436C15.8436 21.7895 15.9465 21.7895 15.9465 21.8904C15.9465 22.0921 15.8436 22.193 15.7407 22.2939C15.6379 22.3948 15.535 22.4956 15.3292 22.4956ZM8.95062 21.8904C8.95062 22.0921 9.15638 22.2939 9.36214 22.2939H15.3292C15.4321 22.2939 15.535 22.2939 15.6379 22.193C15.7407 22.0921 15.7407 21.9912 15.7407 21.9912H8.95062V21.8904Z" fill="#5B73E8"/>
<path d="M17.9012 13.4167V15.2324C17.9012 15.7368 18.3128 16.1403 18.8272 16.1403H19.0329C19.5473 16.1403 19.9588 15.7368 19.9588 15.2324V12.307C19.9588 11.8026 19.5473 11.3991 19.0329 11.3991H18.7243C18.5185 11.3991 18.4156 11.5 18.3128 11.6009C18.2099 11.7017 18.107 11.7017 18.107 11.7017L16.2551 12.9123C16.2551 12.9123 16.2551 12.9123 16.1523 12.9123H14.609C14.4033 12.9123 14.1975 13.114 14.1975 13.3158C14.1975 13.5175 14.4033 13.7193 14.609 13.7193H16.6667C16.6667 13.7193 16.6667 13.7193 16.7695 13.7193L17.6955 13.114C17.7983 13.3158 17.9012 13.3158 17.9012 13.4167Z" fill="#5B73E8"/>
<path d="M18.7243 10.9956C19.3493 10.9956 19.856 10.4988 19.856 9.88596C19.856 9.27311 19.3493 8.77631 18.7243 8.77631C18.0993 8.77631 17.5926 9.27311 17.5926 9.88596C17.5926 10.4988 18.0993 10.9956 18.7243 10.9956Z" fill="#5B73E8"/>
<path d="M5.8642 13.3158L6.79012 13.921C6.79012 13.921 6.79012 13.921 6.89301 13.921H8.95062C9.15638 13.921 9.36214 13.7193 9.36214 13.5175C9.36214 13.3158 9.15638 13.114 8.95062 13.114H7.30453C7.30453 13.114 7.30453 13.114 7.20165 13.114L5.3498 11.9035C5.3498 11.9035 5.24691 11.7017 5.14403 11.6009C5.04115 11.5 4.83539 11.3991 4.73251 11.3991H4.42387C3.90947 11.3991 3.49794 11.8026 3.49794 12.307V15.2324C3.49794 15.7368 3.90947 16.1403 4.42387 16.1403H4.62963C5.14403 16.1403 5.55556 15.7368 5.55556 15.2324V13.3158C5.65844 13.3158 5.76132 13.2149 5.8642 13.3158Z" fill="#5B73E8"/>
<path d="M4.93827 10.9956C5.56329 10.9956 6.06996 10.4988 6.06996 9.88596C6.06996 9.27311 5.56329 8.77631 4.93827 8.77631C4.31326 8.77631 3.80659 9.27311 3.80659 9.88596C3.80659 10.4988 4.31326 10.9956 4.93827 10.9956Z" fill="#5B73E8"/>
<path d="M10.3909 12.1053C10.4938 12.1053 10.5967 12.2061 10.5967 12.307V13.8202C10.5967 13.9211 10.8025 14.0219 10.8025 14.0219H12.8601C12.8601 14.0219 13.0658 13.9211 13.0658 13.8202V12.307C13.0658 12.2061 13.1687 12.1053 13.2716 12.1053C13.3745 12.1053 13.4774 12.2061 13.4774 12.307V13.9211C13.4774 14.0219 13.6831 14.1228 13.6831 14.1228H14.0946C14.1975 14.1228 14.3004 14.0219 14.3004 13.9211V12.1053V10.693C14.3004 10.2895 13.9918 9.98685 13.5802 9.98685H10.4938C10.0823 9.98685 9.77366 10.2895 9.77366 10.693V12.1053V13.9211C9.77366 14.0219 9.87654 14.1228 9.97942 14.1228H10.3909C10.3909 14.1228 10.5967 14.0219 10.5967 13.9211V12.307C10.2881 12.1053 10.2881 12.1053 10.3909 12.1053Z" fill="#5B73E8"/>
<path d="M11.8313 9.58334C12.4563 9.58334 12.963 9.08653 12.963 8.47369C12.963 7.86085 12.4563 7.36404 11.8313 7.36404C11.2063 7.36404 10.6996 7.86085 10.6996 8.47369C10.6996 9.08653 11.2063 9.58334 11.8313 9.58334Z" fill="#5B73E8"/>
<path d="M17.4897 16.1404H6.17283C6.06995 16.1404 5.96707 16.0395 5.96707 15.9386V15.2325C5.96707 14.6272 6.48147 14.2237 6.99588 14.2237H16.5638C17.1811 14.2237 17.5926 14.7281 17.5926 15.2325V15.9386C17.6955 16.0395 17.5926 16.1404 17.4897 16.1404Z" fill="#5B73E8"/>
<path d="M25 0.403497V4.84209C25 5.2456 24.5885 5.34648 24.2798 5.14472L23.0453 3.9342C22.9424 3.83332 22.9424 3.73244 22.9424 3.63157V1.61402C22.9424 1.51315 22.9424 1.41227 23.0453 1.31139L24.2798 0.100866C24.5885 -0.100889 25 0.100866 25 0.403497Z" fill="#5B73E8"/>
<path d="M22.6338 5.34649H17.6955C16.7696 5.34649 15.9465 4.53947 15.9465 3.63158V0H20.8848C21.8107 0 22.6338 0.807018 22.6338 1.71491V5.34649Z" fill="#5B73E8"/>
</g>
<defs>
<clipPath id="clip0">
<rect width="25" height="23" fill="white"/>
</clipPath>
</defs>
</svg>
