<svg width="45" height="26" viewBox="0 0 45 26" fill="none" xmlns="http://www.w3.org/2000/svg">
<path d="M22.4541 0C22.0919 0 21.8203 0.283636 21.8203 0.661818V3.49818C21.8203 3.87636 22.0919 4.16 22.4541 4.16C22.8163 4.16 23.0879 3.87636 23.0879 3.49818V0.661818C23.1785 0.283636 22.8163 0 22.4541 0Z" fill="#5B73E8"/>
<path d="M13.9442 6.99637L12.0427 5.01091C11.7711 4.72728 11.4089 4.72728 11.1373 5.01091C10.8657 5.29455 10.8657 5.67273 11.1373 5.95637L13.0387 7.94182C13.1293 8.03637 13.3104 8.13091 13.4914 8.13091C13.6725 8.13091 13.8536 8.03637 13.9442 7.94182C14.2158 7.65819 14.2158 7.18546 13.9442 6.99637Z" fill="#5B73E8"/>
<path d="M9.77881 16.1673H7.06251C6.70034 16.1673 6.42871 16.4509 6.42871 16.8291C6.42871 17.2073 6.70034 17.4909 7.06251 17.4909H9.77881C10.141 17.4909 10.4126 17.2073 10.4126 16.8291C10.5032 16.4509 10.141 16.1673 9.77881 16.1673Z" fill="#5B73E8"/>
<path d="M37.938 16.1673H35.2217C34.8595 16.1673 34.5879 16.4509 34.5879 16.8291C34.5879 17.2073 34.8595 17.4909 35.2217 17.4909H37.938C38.3002 17.4909 38.5718 17.2073 38.5718 16.8291C38.5718 16.4509 38.3002 16.1673 37.938 16.1673Z" fill="#5B73E8"/>
<path d="M33.8631 4.44362C33.5915 4.15999 33.2293 4.15999 32.9577 4.44362L31.0563 6.42908C30.7846 6.71271 30.7846 7.0909 31.0563 7.37453C31.1468 7.46908 31.3279 7.56362 31.509 7.56362C31.6901 7.56362 31.8711 7.46908 31.9617 7.37453L33.8631 5.38908C34.1347 5.19999 34.1347 4.72726 33.8631 4.44362Z" fill="#5B73E8"/>
<path d="M44.2757 20.0436H31.4185C31.7807 19.0036 31.9618 17.9636 31.9618 16.8291C31.9618 11.44 27.7062 6.99637 22.5453 6.99637C19.5573 6.99637 16.66 8.5091 14.8491 11.1564C14.668 11.44 14.668 11.9127 15.0302 12.1018C15.3018 12.2909 15.7545 12.2909 15.9356 11.9127C17.4748 9.73819 19.9195 8.41455 22.5453 8.41455C26.9819 8.41455 30.6942 12.1964 30.6942 16.9236C30.6942 18.0582 30.5131 19.0982 30.0604 20.1382H14.9396C14.5775 19.0982 14.3058 18.0582 14.3058 16.9236C14.3058 16.4509 14.3058 15.9782 14.3964 15.5055C14.4869 15.1273 14.2153 14.7491 13.8531 14.7491C13.4909 14.6546 13.1288 14.9382 13.1288 15.3164C13.0382 15.8836 12.9477 16.4509 12.9477 17.0182C12.9477 18.1527 13.1288 19.1927 13.4909 20.2327H0.633803C0.27163 20.2327 0 20.5164 0 20.8946C0 21.2727 0.27163 21.5564 0.633803 21.5564H14.4869H30.332H44.1851C44.5473 21.5564 44.8189 21.2727 44.8189 20.8946C45 20.3273 44.6378 20.0436 44.2757 20.0436Z" fill="#5B73E8"/>
<path d="M41.8311 24.6764H13.7627C13.4005 24.6764 13.1289 24.96 13.1289 25.3382C13.1289 25.7164 13.4005 26 13.7627 26H41.8311C42.1933 26 42.4649 25.7164 42.4649 25.3382C42.4649 24.96 42.1933 24.6764 41.8311 24.6764Z" fill="#5B73E8"/>
<path d="M9.77862 24.6764H3.16896C2.80679 24.6764 2.53516 24.96 2.53516 25.3382C2.53516 25.7164 2.80679 26 3.16896 26H9.86916C10.2313 26 10.503 25.7164 10.503 25.3382C10.503 24.96 10.1408 24.6764 9.77862 24.6764Z" fill="#5B73E8"/>
</svg>
