<svg width="16" height="16" viewBox="0 0 16 16" fill="none" xmlns="http://www.w3.org/2000/svg">
<g clip-path="url(#clip0)">
<path d="M9.20802 0.406691C9.12892 0.342441 9.0248 0.317879 8.92536 0.340035L0.258702 2.34003C0.106171 2.3751 -0.0014539 2.51153 1.48502e-05 2.66803V14.0014C7.73502e-05 14.1658 0.120109 14.3057 0.282671 14.3307L8.94933 15.6641C9.1313 15.692 9.30148 15.5672 9.32945 15.3853C9.33202 15.3686 9.33333 15.3517 9.33333 15.3348V0.668035C9.33364 0.566379 9.28748 0.47016 9.20802 0.406691Z" fill="#5B73E8"/>
<path d="M15.666 14.3347H8.99936C8.81527 14.3347 8.66602 14.1854 8.66602 14.0013C8.66602 13.8172 8.81527 13.668 8.99936 13.668H15.3327V2.33469H8.99936C8.81527 2.33469 8.66602 2.18544 8.66602 2.00134C8.66602 1.81725 8.81527 1.66803 8.99936 1.66803H15.666C15.8501 1.66803 15.9994 1.81728 15.9994 2.00137V14.0014C15.9994 14.1855 15.8501 14.3347 15.666 14.3347Z" fill="#5B73E8"/>
<path d="M5.66654 11.0014C5.51801 11.0012 5.38754 10.9028 5.34654 10.76L4.3332 7.21468L3.31985 10.76C3.24667 10.9369 3.04392 11.021 2.86698 10.9478C2.78192 10.9127 2.71435 10.8451 2.67917 10.76L1.34585 6.09337C1.29004 5.91793 1.38704 5.7305 1.56248 5.67468C1.73792 5.61887 1.92535 5.71587 1.98117 5.89131C1.98313 5.8975 1.98492 5.90375 1.98654 5.91003L2.99985 9.45468L4.0132 5.90937C4.08638 5.73247 4.28913 5.64837 4.46607 5.72156C4.55113 5.75675 4.6187 5.82431 4.65388 5.90937L5.66654 9.45471L6.67988 5.91006C6.72785 5.73462 6.90898 5.63128 7.08442 5.67925C7.08692 5.67993 7.08939 5.68065 7.09188 5.68137C7.26876 5.73206 7.3711 5.91647 7.32054 6.09337L5.9872 10.76C5.94613 10.903 5.81529 11.0015 5.66654 11.0014Z" fill="#FAFAFA"/>
<path d="M14.3327 4.33469H8.99936C8.81527 4.33469 8.66602 4.18544 8.66602 4.00135C8.66602 3.81726 8.81527 3.66801 8.99936 3.66801H14.3327C14.5168 3.66801 14.666 3.81726 14.666 4.00135C14.666 4.18547 14.5168 4.33469 14.3327 4.33469Z" fill="#5B73E8"/>
<path d="M14.3327 6.3347H8.99936C8.81527 6.3347 8.66602 6.18545 8.66602 6.00136C8.66602 5.81726 8.81527 5.66801 8.99936 5.66801H14.3327C14.5168 5.66801 14.666 5.81726 14.666 6.00136C14.666 6.18545 14.5168 6.3347 14.3327 6.3347Z" fill="#5B73E8"/>
<path d="M14.3327 8.33469H8.99936C8.81527 8.33469 8.66602 8.18544 8.66602 8.00135C8.66602 7.81726 8.81527 7.66801 8.99936 7.66801H14.3327C14.5168 7.66801 14.666 7.81726 14.666 8.00135C14.666 8.18548 14.5168 8.33469 14.3327 8.33469Z" fill="#5B73E8"/>
<path d="M14.3327 10.3347H8.99936C8.81527 10.3347 8.66602 10.1854 8.66602 10.0013C8.66602 9.81725 8.81527 9.668 8.99936 9.668H14.3327C14.5168 9.668 14.666 9.81725 14.666 10.0013C14.666 10.1855 14.5168 10.3347 14.3327 10.3347Z" fill="#5B73E8"/>
<path d="M14.3327 12.3347H8.99936C8.81527 12.3347 8.66602 12.1854 8.66602 12.0014C8.66602 11.8173 8.81527 11.668 8.99936 11.668H14.3327C14.5168 11.668 14.666 11.8173 14.666 12.0014C14.666 12.1855 14.5168 12.3347 14.3327 12.3347Z" fill="#5B73E8"/>
</g>
<defs>
<clipPath id="clip0">
<rect width="16" height="16" fill="white"/>
</clipPath>
</defs>
</svg>
