<svg width="29" height="30" viewBox="0 0 29 30" fill="none" xmlns="http://www.w3.org/2000/svg">
<ellipse cx="14.5" cy="15" rx="14.5" ry="15" fill="#5B73E8" fill-opacity="0.2"/>
<path d="M28.5 15C28.5 23.0242 22.2161 29.5 14.5 29.5C6.78386 29.5 0.5 23.0242 0.5 15C0.5 6.97576 6.78386 0.5 14.5 0.5C22.2161 0.5 28.5 6.97576 28.5 15Z" stroke="#5B73E8" stroke-opacity="0.3"/>
<g clip-path="url(#clip0)">
<path d="M16.7835 6.45753C16.6995 6.38525 16.5888 6.35761 16.4832 6.38254L7.27487 8.63254C7.11281 8.67198 6.99846 8.82548 7.00002 9.00154V21.7515C7.00008 21.9366 7.12762 22.0939 7.30034 22.1221L16.5087 23.6221C16.702 23.6535 16.8828 23.5131 16.9125 23.3084C16.9153 23.2896 16.9167 23.2706 16.9167 23.2516V6.75154C16.917 6.63718 16.868 6.52893 16.7835 6.45753Z" fill="#5B73E8"/>
<path d="M23.6465 22.1265H16.5632C16.3676 22.1265 16.209 21.9586 16.209 21.7515C16.209 21.5444 16.3676 21.3765 16.5632 21.3765H23.2923V8.62651H16.5632C16.3676 8.62651 16.209 8.45861 16.209 8.2515C16.209 8.0444 16.3676 7.87653 16.5632 7.87653H23.6465C23.8421 7.87653 24.0007 8.04443 24.0007 8.25154V21.7515C24.0007 21.9586 23.8421 22.1265 23.6465 22.1265Z" fill="#5B73E8"/>
<path d="M13.7281 18.3772C13.606 18.3772 13.4925 18.3106 13.4278 18.201L9.88614 12.201C9.77726 12.0289 9.82076 11.796 9.98325 11.6807C10.1458 11.5654 10.3658 11.6115 10.4746 11.7835C10.4789 11.7903 10.483 11.7972 10.4868 11.8042L14.0285 17.8042C14.1318 17.9801 14.0808 18.2113 13.9147 18.3207C13.8587 18.3575 13.7941 18.3771 13.7281 18.3772Z" fill="#FAFAFA"/>
<path d="M10.1874 18.3765C9.99183 18.3761 9.83359 18.2079 9.83399 18.0008C9.83412 17.9308 9.85278 17.8622 9.88781 17.8028L13.4295 11.8028C13.5276 11.6236 13.7443 11.5625 13.9135 11.6664C14.0827 11.7702 14.1404 11.9997 14.0423 12.1788C14.0385 12.1859 14.0344 12.1928 14.0301 12.1995L10.4885 18.1995C10.4238 18.3097 10.31 18.3766 10.1874 18.3765Z" fill="#FAFAFA"/>
<path d="M19.3971 22.1265C19.2015 22.1265 19.043 21.9586 19.043 21.7515V8.25151C19.043 8.0444 19.2015 7.8765 19.3971 7.8765C19.5927 7.8765 19.7513 8.0444 19.7513 8.25151V21.7515C19.7513 21.9586 19.5927 22.1265 19.3971 22.1265Z" fill="#5B73E8"/>
<path d="M23.6465 19.8765H16.5632C16.3676 19.8765 16.209 19.7086 16.209 19.5015C16.209 19.2944 16.3676 19.1265 16.5632 19.1265H23.6465C23.8421 19.1265 24.0007 19.2944 24.0007 19.5015C24.0007 19.7086 23.8421 19.8765 23.6465 19.8765Z" fill="#5B73E8"/>
<path d="M23.6465 17.6265H16.5632C16.3676 17.6265 16.209 17.4586 16.209 17.2515C16.209 17.0444 16.3676 16.8765 16.5632 16.8765H23.6465C23.8421 16.8765 24.0007 17.0444 24.0007 17.2515C24.0007 17.4586 23.8421 17.6265 23.6465 17.6265Z" fill="#5B73E8"/>
<path d="M23.6465 15.3765H16.5632C16.3676 15.3765 16.209 15.2086 16.209 15.0015C16.209 14.7944 16.3676 14.6265 16.5632 14.6265H23.6465C23.8421 14.6265 24.0007 14.7944 24.0007 15.0015C24.0007 15.2086 23.8421 15.3765 23.6465 15.3765Z" fill="#5B73E8"/>
<path d="M23.6465 13.1265H16.5632C16.3676 13.1265 16.209 12.9586 16.209 12.7515C16.209 12.5444 16.3676 12.3765 16.5632 12.3765H23.6465C23.8421 12.3765 24.0007 12.5444 24.0007 12.7515C24.0007 12.9586 23.8421 13.1265 23.6465 13.1265Z" fill="#5B73E8"/>
<path d="M23.6465 10.8765H16.5632C16.3676 10.8765 16.209 10.7086 16.209 10.5015C16.209 10.2944 16.3676 10.1265 16.5632 10.1265H23.6465C23.8421 10.1265 24.0007 10.2944 24.0007 10.5015C24.0007 10.7086 23.8421 10.8765 23.6465 10.8765Z" fill="#5B73E8"/>
</g>
<defs>
<clipPath id="clip0">
<rect width="17" height="18" fill="white" transform="translate(7 6)"/>
</clipPath>
</defs>
</svg>
