<svg width="27" height="33" viewBox="0 0 27 33" fill="none" xmlns="http://www.w3.org/2000/svg">
<path d="M21.213 28.0103C20.9954 28.2371 20.9954 28.6907 21.213 28.9175C21.3218 29.0309 21.5393 29.1443 21.6481 29.1443C21.7569 29.1443 21.9745 29.0309 22.0833 28.9175C22.3008 28.6907 22.3008 28.2371 22.0833 28.0103C21.7569 27.6701 21.4306 27.6701 21.213 28.0103Z" fill="#5B73E8"/>
<path d="M26 18.0309C25.7824 14.6289 24.3682 11.4536 22.0837 8.95876C20.887 7.71134 19.4728 6.69072 17.9498 6.01031C17.7322 5.8969 17.4059 6.01031 17.2971 6.12371C17.0795 6.35051 17.0795 6.57732 17.1883 6.80412C19.2552 11.6804 18.1674 17.2371 14.5774 20.9794C10.9874 24.7216 5.6569 25.7423 0.979079 23.701C0.761506 23.5876 0.435146 23.701 0.32636 23.8144C0 24.0412 0 24.268 0 24.4948C0.65272 26.0825 1.6318 27.5567 2.82845 28.8041C5.43933 31.5258 8.9205 32.8866 12.4017 32.8866C15.0126 32.8866 17.7322 32.0928 20.0167 30.5051C20.3431 30.2783 20.3431 29.9381 20.2343 29.5979C20.0167 29.2577 19.6904 29.2577 19.364 29.4845C14.4686 32.8866 7.94142 32.3196 3.80753 27.8969C3.04603 27.1031 2.39331 26.3093 1.95816 25.4021C4.0251 26.0825 6.09205 26.1959 8.26778 25.7423C10.9874 25.1753 13.4895 23.9278 15.4477 21.8866C17.4059 19.8454 18.7113 17.2371 19.1464 14.5155C19.5816 12.3608 19.364 10.0928 18.8201 7.93814C19.6904 8.50515 20.5607 9.18556 21.2134 9.86598C25.5649 14.4021 26 21.5464 22.3013 26.6495C22.0837 26.8763 22.1925 27.3299 22.41 27.5567C22.7364 27.7835 23.0628 27.6701 23.2803 27.4433C25.2385 24.7216 26.2176 21.433 26 18.0309Z" fill="#5B73E8"/>
<path d="M0.32636 6.91753L3.80753 8.73196L5.54812 12.3608C5.6569 12.5876 5.87448 12.701 6.09205 12.701C6.30962 12.701 6.5272 12.5876 6.63598 12.3608L8.37657 8.73196L11.8577 6.91753C11.9665 6.80412 12.0753 6.57732 12.0753 6.35051C12.0753 6.12371 11.9665 5.7835 11.749 5.6701L8.37657 3.96907L6.63598 0.340206C6.5272 0.113402 6.30962 0 6.09205 0C5.76569 0 5.54812 0.113402 5.54812 0.340206L3.80753 3.96907L0.32636 5.6701C0.108787 5.7835 0 6.01031 0 6.35051C0 6.57732 0.108787 6.80412 0.32636 6.91753ZM4.46025 4.98969C4.56904 4.87629 4.67782 4.87629 4.78661 4.64948L6.09205 2.04124L7.39749 4.64948C7.39749 4.87629 7.50628 4.87629 7.61506 4.98969L10.1172 6.35051L7.61506 7.59794C7.50628 7.71134 7.39749 7.82474 7.2887 7.93814L6.09205 10.5464L4.78661 7.93814C4.67782 7.82474 4.67782 7.71134 4.46025 7.59794L1.95816 6.35051L4.46025 4.98969Z" fill="#5B73E8"/>
<path d="M11.532 11.9072C11.3144 11.9072 11.0968 12.0206 10.988 12.2474L10.1177 14.0618L8.37714 14.9691C8.15957 15.0825 8.05078 15.3093 8.05078 15.5361C8.05078 15.7629 8.15957 15.9897 8.37714 16.1031L10.1177 17.0103L10.988 18.8247C11.0968 19.0515 11.3144 19.1649 11.532 19.1649C11.7495 19.1649 11.9671 19.0515 12.0759 18.8247L12.9462 17.0103L14.6868 16.1031C14.9043 15.9897 15.0131 15.7629 15.0131 15.5361C15.0131 15.3093 14.9043 15.0825 14.6868 14.9691L12.9462 14.0618L12.0759 12.2474C11.9671 12.134 11.7495 11.9072 11.532 11.9072ZM12.9462 15.5361L12.1847 15.9897C12.0759 16.1031 11.9671 16.1031 11.8583 16.3299L11.4232 17.1237L10.988 16.3299C10.8792 16.2165 10.8792 16.1031 10.6617 15.9897L9.90015 15.5361L10.6617 15.0825C10.7704 14.9691 10.8792 14.9691 10.988 14.7423L11.4232 13.9484L11.8583 14.7423C11.9671 14.8557 11.9671 14.9691 12.1847 15.0825L12.9462 15.5361Z" fill="#5B73E8"/>
<path d="M0.32636 19.8454L1.74059 20.6392L2.50209 22.1134C2.61088 22.3402 2.82845 22.4536 3.04603 22.4536C3.2636 22.4536 3.48117 22.3402 3.58996 22.1134L4.35146 20.5258L5.76569 19.732C5.98326 19.6186 6.09205 19.3917 6.09205 19.1649C6.09205 18.9381 5.98326 18.7113 5.76569 18.5979L4.35146 17.9175L3.58996 16.4433C3.48117 16.2165 3.2636 16.1031 3.04603 16.1031C2.82845 16.1031 2.61088 16.2165 2.50209 16.4433L1.74059 17.9175L0.32636 18.7113C0.108787 18.8247 0 19.0515 0 19.2783C0 19.5052 0.108787 19.732 0.32636 19.8454ZM2.50209 18.9381C2.61088 18.8247 2.71967 18.8247 2.82845 18.5979L3.04603 18.1443L3.2636 18.7113C3.37238 18.8247 3.37238 18.9381 3.58996 19.0515L4.13389 19.2783L3.58996 19.5052C3.48117 19.6186 3.37238 19.6186 3.2636 19.8454L3.04603 20.4124L2.82845 19.8454C2.71967 19.732 2.71967 19.6186 2.50209 19.5052L1.95816 19.2783L2.50209 18.9381Z" fill="#5B73E8"/>
<path d="M1.63193 2.60825C1.74072 2.72165 1.95829 2.83505 2.06708 2.83505C2.17586 2.83505 2.39344 2.72165 2.50222 2.60825C2.7198 2.38144 2.7198 1.92784 2.50222 1.70103C2.28465 1.47423 1.8495 1.47423 1.63193 1.70103C1.41436 1.92784 1.41436 2.38144 1.63193 2.60825Z" fill="#5B73E8"/>
<path d="M1.63193 9.97938C1.41436 10.2062 1.41436 10.6598 1.63193 10.8866C1.74072 11 1.95829 11.1134 2.06708 11.1134C2.17586 11.1134 2.39344 11 2.50222 10.8866C2.7198 10.6598 2.7198 10.2062 2.50222 9.97938C2.28465 9.75258 1.8495 9.75258 1.63193 9.97938Z" fill="#5B73E8"/>
<path d="M10.0085 11.1134C10.1173 11.1134 10.3348 11 10.4436 10.8866C10.6612 10.6598 10.6612 10.2062 10.4436 9.97938C10.2261 9.75258 9.79091 9.75258 9.57334 9.97938C9.35576 10.2062 9.35576 10.6598 9.57334 10.8866C9.68212 11 9.8997 11.1134 10.0085 11.1134Z" fill="#5B73E8"/>
<path d="M10.0085 2.83505C10.1173 2.83505 10.3348 2.72165 10.4436 2.60825C10.6612 2.38144 10.6612 1.92784 10.4436 1.70103C10.2261 1.47423 9.79091 1.47423 9.57334 1.70103C9.35576 1.92784 9.35576 2.38144 9.57334 2.60825C9.68212 2.72165 9.8997 2.83505 10.0085 2.83505Z" fill="#5B73E8"/>
</svg>
