<svg width="29" height="28" viewBox="0 0 29 28" fill="none" xmlns="http://www.w3.org/2000/svg">
<circle cx="14.9902" cy="14" r="14" fill="#5B73E8"/>
<path d="M18.1857 13.3H11.6245V14.7H18.1857V13.3ZM19.498 8.4H18.8419V7H17.5296V8.4H12.2806V7H10.9684V8.4H10.3122C9.59051 8.4 9 9.03 9 9.8V19.6C9 20.37 9.59051 21 10.3122 21H19.498C20.2197 21 20.8102 20.37 20.8102 19.6V9.8C20.8102 9.03 20.2197 8.4 19.498 8.4ZM19.498 19.6H10.3122V11.9H19.498V19.6ZM16.2174 16.1H11.6245V17.5H16.2174V16.1Z" fill="white"/>
</svg>
