<svg width="20" height="20" viewBox="0 0 20 20" fill="none" xmlns="http://www.w3.org/2000/svg">
<path d="M10.4372 19.9996C10.273 19.9996 10.113 19.9346 9.99551 19.8162C9.85134 19.6721 9.78634 19.4662 9.82218 19.2662L10.2638 16.7621C10.2863 16.6354 10.3472 16.5187 10.4372 16.4287L16.6247 10.2412C16.888 9.9779 17.1672 9.8129 17.4547 9.75373C17.8514 9.6704 18.2372 9.79123 18.5397 10.0937L19.5705 11.1246C20.1389 11.6937 20.1389 12.6179 19.5705 13.1871L13.3839 19.3746C13.293 19.4646 13.1764 19.5262 13.0505 19.5479L10.5463 19.9896C10.5097 19.9962 10.4738 19.9996 10.4372 19.9996ZM12.9422 18.9329H12.9505H12.9422ZM11.4605 17.1729L11.208 18.6037L12.6388 18.3512L18.6864 12.3029C18.7672 12.2212 18.7672 12.0896 18.6864 12.0079L17.663 10.9846C17.6547 11.0004 17.5922 11.0396 17.508 11.1237L11.4605 17.1729Z" fill="#5B73E8"/>
<path d="M8.34168 17.5004H2.29167C1.0275 17.5004 0 16.4729 0 15.2087V3.95866C0 2.69449 1.0275 1.66699 2.29167 1.66699H11.875C13.1392 1.66699 14.1667 2.69449 14.1667 3.95866V10.6753C14.1667 11.0203 13.8867 11.3003 13.5417 11.3003C13.1967 11.3003 12.9167 11.0203 12.9167 10.6753V3.95866C12.9167 3.3845 12.4492 2.91699 11.875 2.91699H2.29167C1.7175 2.91699 1.25 3.3845 1.25 3.95866V15.2087C1.25 15.7829 1.7175 16.2504 2.29167 16.2504H8.34168C8.68668 16.2504 8.96668 16.5304 8.96668 16.8754C8.96668 17.2204 8.68668 17.5004 8.34168 17.5004Z" fill="#5B73E8"/>
<path d="M3.125 4.16667C2.78 4.16667 2.5 3.88667 2.5 3.54167V0.625001C2.5 0.28 2.78 0 3.125 0C3.47 0 3.75 0.28 3.75 0.625001V3.54167C3.75 3.88667 3.47 4.16667 3.125 4.16667Z" fill="#5B73E8"/>
<path d="M7.08594 4.16667C6.74094 4.16667 6.46094 3.88667 6.46094 3.54167V0.625001C6.46094 0.28 6.74094 0 7.08594 0C7.43094 0 7.71094 0.28 7.71094 0.625001V3.54167C7.71094 3.88667 7.43094 4.16667 7.08594 4.16667Z" fill="#5B73E8"/>
<path d="M11.0391 4.16667C10.6941 4.16667 10.4141 3.88667 10.4141 3.54167V0.625001C10.4141 0.28 10.6941 0 11.0391 0C11.3841 0 11.6641 0.28 11.6641 0.625001V3.54167C11.6641 3.88667 11.3841 4.16667 11.0391 4.16667Z" fill="#5B73E8"/>
<path d="M9.37501 11.2495H3.125C2.78 11.2495 2.5 10.9695 2.5 10.6245C2.5 10.2795 2.78 9.99951 3.125 9.99951H9.37501C9.72001 9.99951 10 10.2795 10 10.6245C10 10.9695 9.72001 11.2495 9.37501 11.2495Z" fill="#5B73E8"/>
<path d="M6.87501 7.91699H3.125C2.78 7.91699 2.5 7.63699 2.5 7.29199C2.5 6.94699 2.78 6.66699 3.125 6.66699H6.87501C7.22001 6.66699 7.50001 6.94699 7.50001 7.29199C7.50001 7.63699 7.22001 7.91699 6.87501 7.91699Z" fill="#5B73E8"/>
</svg>
