<svg width="27" height="35" viewBox="0 0 27 35" fill="none" xmlns="http://www.w3.org/2000/svg">
<path d="M26.4426 27.8532C26.3423 27.7864 25.5874 27.244 24.8315 25.603C23.4433 22.5896 23.152 18.3446 23.152 15.3142C23.152 15.301 23.1517 15.288 23.1512 15.2748C23.1361 11.2697 20.798 7.81717 17.4521 6.26808V3.89895C17.4521 1.74904 15.7498 0 13.6572 0H13.3427C11.2502 0 9.54784 1.74904 9.54784 3.89895V6.26794C6.19079 7.82202 3.84801 11.2922 3.84801 15.3142C3.84801 18.3446 3.55664 22.5896 2.16849 25.603C1.41267 27.2439 0.657778 27.7864 0.55741 27.8532C0.134747 28.0539 -0.0736527 28.5173 0.0235825 28.987C0.121751 29.4614 0.554011 29.7884 1.02606 29.7884H8.35349C8.39441 32.6692 10.6866 35 13.5 35C16.3134 35 18.6056 32.6692 18.6466 29.7884H25.974C26.446 29.7884 26.8783 29.4614 26.9765 28.987C27.0736 28.5173 26.8652 28.0538 26.4426 27.8532ZM11.5473 3.89895C11.5473 2.88169 12.3527 2.05413 13.3428 2.05413H13.6573C14.6474 2.05413 15.4529 2.88169 15.4529 3.89895V5.60226C14.8219 5.46848 14.1687 5.39807 13.4998 5.39807C12.831 5.39807 12.1781 5.46841 11.5473 5.60205V3.89895H11.5473ZM13.5 32.9459C11.789 32.9459 10.3934 31.5365 10.3528 29.7885H16.6471C16.6066 31.5364 15.211 32.9459 13.5 32.9459ZM17.5254 27.7342C17.5252 27.7342 3.30432 27.7342 3.30432 27.7342C3.47727 27.4578 3.65328 27.1448 3.82822 26.791C5.16805 24.081 5.84743 20.2197 5.84743 15.3142C5.84743 10.9791 9.28026 7.4522 13.4997 7.4522C17.7191 7.4522 21.152 10.9791 21.152 15.3176C21.152 15.3303 21.1521 15.3429 21.1526 15.3554C21.1564 20.2412 21.8357 24.0887 23.1718 26.791C23.3468 27.1448 23.5229 27.4578 23.6957 27.7342H17.5254Z" fill="#949090"/>
</svg>
