<svg width="96" height="96" viewBox="0 0 96 96" fill="none" xmlns="http://www.w3.org/2000/svg">
<path d="M39.799 73.1711L28.4871 84.483C23.7974 89.1727 16.2028 89.1727 11.517 84.484C6.83034 79.7973 6.83034 72.2019 11.5161 67.5162L34.1439 44.8884C38.8297 40.2024 46.425 40.2024 51.1108 44.8884C52.6728 46.4504 55.2055 46.4504 56.7676 44.8884C58.3296 43.3263 58.3296 40.7936 56.7676 39.2316C48.9575 31.4215 36.2971 31.4215 28.4871 39.2316L5.85948 61.8594C-1.95056 69.6694 -1.95056 82.3298 5.85948 90.1399C13.6686 97.954 26.3299 97.954 34.1441 90.1399L45.456 78.8279C47.0181 77.2659 47.0181 74.7331 45.456 73.1711C43.894 71.6091 41.3611 71.6091 39.799 73.1711Z" fill="#5B73E8"/>
<path d="M90.1405 34.1399C97.9506 26.3299 97.9506 13.6695 90.1405 5.85946C82.3307 -1.95039 69.6708 -1.95039 61.8568 5.85852L48.2841 19.4313C46.722 20.9933 46.722 23.5261 48.2841 25.0881C49.8461 26.6502 52.3788 26.6502 53.9409 25.0881L67.5127 11.5163C72.2017 6.83032 79.7978 6.83032 84.4837 11.5163C89.1695 16.202 89.1695 23.7974 84.4837 28.4831L59.596 53.3708C54.91 58.0568 47.3149 58.0568 42.6291 53.3708C41.0671 51.8088 38.5344 51.8088 36.9723 53.3708C35.4103 54.9329 35.4103 57.4656 36.9723 59.0276C44.7823 66.8377 57.4428 66.8377 65.2528 59.0276L90.1405 34.1399Z" fill="#5B73E8"/>
<path d="M74.8303 69.1725C73.2682 67.6105 70.7355 67.6105 69.1735 69.1725C67.6114 70.7346 67.6114 73.2673 69.1735 74.8293L81.1694 86.8252C82.7314 88.3873 85.2642 88.3873 86.8262 86.8252C88.3883 85.2632 88.3883 82.7305 86.8262 81.1684L74.8303 69.1725Z" fill="#5B73E8"/>
<path d="M21.1756 26.8333C22.7376 28.3954 25.2703 28.3954 26.8324 26.8333C28.3944 25.2713 28.3944 22.7386 26.8324 21.1765L14.8244 9.1686C13.2624 7.60656 10.7297 7.60656 9.16763 9.1686C7.60558 10.7306 7.60558 13.2634 9.16763 14.8254L21.1756 26.8333Z" fill="#5B73E8"/>
<path d="M91.9998 59.999H79.9999C77.7908 59.999 76 61.7898 76 63.9989C76 66.208 77.7908 67.9988 79.9999 67.9988H91.9998C94.2089 67.9988 95.9997 66.208 95.9997 63.9989C95.9997 61.7898 94.2089 59.999 91.9998 59.999Z" fill="#5B73E8"/>
<path d="M31.9999 19.9998C34.209 19.9998 35.9998 18.209 35.9998 15.9999V4.00008C35.9998 1.79079 34.209 0 31.9999 0C29.7908 0 28 1.79079 28 3.99989V15.9998C27.9998 18.2088 29.7908 19.9998 31.9999 19.9998Z" fill="#5B73E8"/>
<path d="M3.99989 35.9998H15.9998C18.2088 35.9998 19.9996 34.209 19.9996 31.9999C19.9996 29.7908 18.2088 28 15.9998 28H3.99989C1.79079 28 0 29.7908 0 31.9999C0 34.209 1.79079 35.9998 3.99989 35.9998Z" fill="#5B73E8"/>
<path d="M63.9999 75.999C61.7908 75.999 60 77.7898 60 79.9989V91.9988C60 94.2079 61.7908 95.9987 63.9999 95.9987C66.209 95.9987 67.9998 94.2079 67.9998 91.9988V79.9989C68 77.79 66.209 75.999 63.9999 75.999Z" fill="#5B73E8"/>
</svg>
