<svg width="12" height="15" viewBox="0 0 12 15" fill="none" xmlns="http://www.w3.org/2000/svg">
<path d="M11.8812 3.2342L8.55445 0.111524C8.49505 0.0557621 8.43564 0 8.31683 0H1.30693C0.594059 0 0 0.557621 0 1.22677V13.7175C0 14.3866 0.594059 14.9442 1.30693 14.9442H10.6337C11.3465 14.9442 11.9406 14.3866 11.9406 13.7175V3.45725C12 3.34572 11.9406 3.28996 11.8812 3.2342ZM8.67327 1.05948L10.8713 3.12268H9.32673C8.9703 3.12268 8.67327 2.84387 8.67327 2.50929V1.05948ZM11.3465 13.7732C11.3465 14.1078 11.0495 14.3866 10.6931 14.3866H1.30693C0.950495 14.3866 0.653465 14.1078 0.653465 13.7732V1.22677C0.653465 0.892193 0.950495 0.613383 1.30693 0.613383H7.9604V2.50929C7.9604 3.17844 8.55446 3.73606 9.26733 3.73606H11.2871V13.7732H11.3465Z" fill="#5B73E8"/>
<path d="M7.66374 9.20077C7.36671 8.97772 7.06968 8.75468 6.89147 8.53163C6.65384 8.30858 6.41622 8.08553 6.238 7.86248C6.53503 6.97029 6.65384 6.52419 6.65384 6.24538C6.65384 5.1859 6.238 5.01862 5.64394 5.01862C5.16869 5.01862 4.63404 5.24166 4.63404 6.30114C4.63404 6.74724 4.93107 7.36062 5.46572 7.97401C5.34691 8.36434 5.16869 8.81044 4.99048 9.25653C4.93107 9.47958 4.81226 9.70263 4.69345 9.92568C4.63404 9.98144 4.51523 9.98144 4.45582 10.0372C4.2182 10.1487 3.92117 10.2603 3.68355 10.3718C2.61424 10.8179 1.90137 11.1524 1.90137 11.7658C1.90137 12.2119 2.43602 12.4907 2.91127 12.4907C3.50533 12.4907 4.45582 11.7101 5.16869 10.4275C5.88157 10.1487 6.77266 9.98144 7.42612 9.86992C7.96077 10.2603 8.61424 10.6506 8.91127 10.6506C9.74295 10.6506 9.92117 10.2045 9.92117 9.81416C9.92117 9.08925 9.03008 9.08925 8.61424 9.08925C8.49543 9.08925 8.13899 9.08925 7.66374 9.20077ZM2.97067 11.8774C2.79246 11.8774 2.67364 11.7658 2.61424 11.7658C2.61424 11.5428 3.32711 11.2082 3.98058 10.9294C4.03998 10.9294 4.03998 10.8736 4.09939 10.8736C3.68355 11.5428 3.2083 11.8774 2.97067 11.8774ZM5.34691 6.30114C5.34691 5.632 5.58454 5.632 5.70335 5.632C5.94097 5.632 6.05978 5.632 6.05978 6.24538C6.05978 6.35691 5.94097 6.69148 5.82216 7.2491C5.46572 6.85876 5.34691 6.52419 5.34691 6.30114ZM5.58454 9.64687C5.58454 9.59111 5.64394 9.53535 5.64394 9.47958C5.76275 9.14501 5.88157 8.81044 6.00038 8.53163C6.11919 8.69891 6.29741 8.81044 6.47563 8.97772C6.53503 9.03349 6.71325 9.14501 6.89147 9.3123C6.41622 9.42382 6.00038 9.53534 5.58454 9.64687ZM9.32711 9.81416C9.32711 9.98144 9.32711 10.0372 9.03008 10.0372C8.91127 10.0372 8.73305 9.92568 8.49543 9.75839C8.61424 9.75839 8.67365 9.75839 8.67365 9.75839C9.14889 9.70263 9.2677 9.75839 9.32711 9.81416Z" fill="#5B73E8"/>
</svg>
