<svg width="29" height="30" viewBox="0 0 29 30" fill="none" xmlns="http://www.w3.org/2000/svg">
<ellipse cx="14.5" cy="15" rx="14.5" ry="15" fill="#5B73E8" fill-opacity="0.2"/>
<path d="M28.5 15C28.5 23.0242 22.2161 29.5 14.5 29.5C6.78386 29.5 0.5 23.0242 0.5 15C0.5 6.97576 6.78386 0.5 14.5 0.5C22.2161 0.5 28.5 6.97576 28.5 15Z" stroke="#5B73E8" stroke-opacity="0.3"/>
<path d="M20.8812 10.2342L17.5545 7.11152C17.495 7.05576 17.4356 7 17.3168 7H10.3069C9.59406 7 9 7.55762 9 8.22677V20.7175C9 21.3866 9.59406 21.9442 10.3069 21.9442H19.6337C20.3465 21.9442 20.9406 21.3866 20.9406 20.7175V10.4572C21 10.3457 20.9406 10.29 20.8812 10.2342ZM17.6733 8.05948L19.8713 10.1227H18.3267C17.9703 10.1227 17.6733 9.84387 17.6733 9.50929V8.05948ZM20.3465 20.7732C20.3465 21.1078 20.0495 21.3866 19.6931 21.3866H10.3069C9.9505 21.3866 9.65347 21.1078 9.65347 20.7732V8.22677C9.65347 7.89219 9.9505 7.61338 10.3069 7.61338H16.9604V9.50929C16.9604 10.1784 17.5545 10.7361 18.2673 10.7361H20.2871V20.7732H20.3465Z" fill="#5B73E8"/>
<path d="M16.6628 16.2007C16.3657 15.9777 16.0687 15.7546 15.8905 15.5316C15.6529 15.3085 15.4152 15.0855 15.237 14.8625C15.5341 13.9703 15.6529 13.5242 15.6529 13.2454C15.6529 12.1859 15.237 12.0186 14.643 12.0186C14.1677 12.0186 13.6331 12.2416 13.6331 13.3011C13.6331 13.7472 13.9301 14.3606 14.4647 14.974C14.3459 15.3643 14.1677 15.8104 13.9895 16.2565C13.9301 16.4796 13.8113 16.7026 13.6925 16.9256C13.6331 16.9814 13.5143 16.9814 13.4548 17.0372C13.2172 17.1487 12.9202 17.2602 12.6826 17.3717C11.6133 17.8178 10.9004 18.1524 10.9004 18.7658C10.9004 19.2119 11.435 19.4907 11.9103 19.4907C12.5044 19.4907 13.4548 18.71 14.1677 17.4275C14.8806 17.1487 15.7717 16.9814 16.4251 16.8699C16.9598 17.2602 17.6133 17.6506 17.9103 17.6506C18.742 17.6506 18.9202 17.2045 18.9202 16.8141C18.9202 16.0892 18.0291 16.0892 17.6133 16.0892C17.4945 16.0892 17.138 16.0892 16.6628 16.2007ZM11.9697 18.8773C11.7915 18.8773 11.6727 18.7658 11.6133 18.7658C11.6133 18.5427 12.3261 18.2082 12.9796 17.9294C13.039 17.9294 13.039 17.8736 13.0984 17.8736C12.6826 18.5427 12.2073 18.8773 11.9697 18.8773ZM14.3459 13.3011C14.3459 12.632 14.5836 12.632 14.7024 12.632C14.94 12.632 15.0588 12.632 15.0588 13.2454C15.0588 13.3569 14.94 13.6914 14.8212 14.2491C14.4647 13.8587 14.3459 13.5242 14.3459 13.3011ZM14.5836 16.6468C14.5836 16.5911 14.643 16.5353 14.643 16.4796C14.7618 16.145 14.8806 15.8104 14.9994 15.5316C15.1182 15.6989 15.2964 15.8104 15.4746 15.9777C15.5341 16.0335 15.7123 16.145 15.8905 16.3123C15.4152 16.4238 14.9994 16.5353 14.5836 16.6468ZM18.3261 16.8141C18.3261 16.9814 18.3261 17.0372 18.0291 17.0372C17.9103 17.0372 17.7321 16.9256 17.4945 16.7584C17.6133 16.7584 17.6727 16.7584 17.6727 16.7584C18.1479 16.7026 18.2667 16.7584 18.3261 16.8141Z" fill="#5B73E8"/>
</svg>
