<svg width="24" height="20" viewBox="0 0 24 20" fill="none" xmlns="http://www.w3.org/2000/svg">
<path d="M14.483 3.43274C15.5927 4.12172 16.3708 5.28762 16.5125 6.64096C16.965 6.85036 17.4673 6.97077 17.9999 6.97077C19.944 6.97077 21.5197 5.41041 21.5197 3.48553C21.5197 1.56036 19.944 0 17.9999 0C16.0743 0.000593181 14.5123 1.53308 14.483 3.43274ZM12.177 10.5693C14.1212 10.5693 15.6969 9.00865 15.6969 7.08377C15.6969 5.1589 14.1209 3.59854 12.177 3.59854C10.2332 3.59854 8.65653 5.15919 8.65653 7.08407C8.65653 9.00894 10.2332 10.5693 12.177 10.5693ZM13.6701 10.8069H10.6833C8.19828 10.8069 6.17656 12.8092 6.17656 15.27V18.8869L6.18585 18.9435L6.43744 19.0215C8.80899 19.7553 10.8693 20 12.5652 20C15.8775 20 17.7974 19.0648 17.9157 19.0052L18.1508 18.8875H18.176V15.27C18.1769 12.8092 16.1551 10.8069 13.6701 10.8069ZM19.4935 7.20864H16.5298C16.4978 8.38284 15.9916 9.44019 15.191 10.2006C17.3999 10.8511 19.0161 12.8795 19.0161 15.2753V16.3899C21.9423 16.2837 23.6286 15.4625 23.7397 15.4073L23.9748 15.2892H24V11.6711C24 9.21062 21.9783 7.20864 19.4935 7.20864ZM6.00075 6.97136C6.68933 6.97136 7.32999 6.77235 7.87271 6.43335C8.04523 5.31906 8.64845 4.34535 9.51015 3.68217C9.51374 3.61692 9.52003 3.55227 9.52003 3.48642C9.52003 1.56125 7.94399 0.000889708 6.00075 0.000889708C4.05631 0.000889708 2.48087 1.56125 2.48087 3.48642C2.48087 5.4107 4.05631 6.97136 6.00075 6.97136ZM9.16181 10.2006C8.36511 9.44404 7.86073 8.39233 7.82389 7.22525C7.71397 7.21724 7.60524 7.20864 7.49322 7.20864H4.50678C2.02171 7.20864 0 9.21062 0 11.6711V15.2887L0.00928491 15.3444L0.260876 15.423C2.16338 16.0112 3.86133 16.2822 5.33613 16.3677V15.2753C5.33673 12.8795 6.9523 10.8517 9.16181 10.2006Z" fill="#949090"/>
</svg>
