<svg width="15" height="12" viewBox="0 0 15 12" fill="none" xmlns="http://www.w3.org/2000/svg">
<path d="M14.0426 0H0.957447C0.425532 0 0 0.436364 0 0.981818V11.0182C0 11.5636 0.425532 12 0.957447 12H14.0426C14.5745 12 15 11.5636 15 11.0182V0.981818C15 0.436364 14.5745 0 14.0426 0ZM14.0426 0.981818V8.07273L12.1277 6.32727C11.8085 6.10909 11.383 6.10909 11.1702 6.32727L9.25532 8.29091L5.53191 3.70909C5.21277 3.38182 4.68085 3.38182 4.46808 3.70909L0.957447 7.85455V0.981818H14.0426ZM10 3.49091C10 2.83636 10.5319 2.18182 11.2766 2.18182C12.0213 2.18182 12.5532 2.83636 12.5532 3.49091C12.5532 4.14545 11.9149 4.8 11.2766 4.8C10.5319 4.90909 10 4.25455 10 3.49091Z" fill="white"/>
</svg>
