<svg width="21" height="21" viewBox="0 0 21 21" fill="none" xmlns="http://www.w3.org/2000/svg">
<path d="M18.2371 3.43465H13.6778C14.2857 2.58359 14.1641 1.36778 13.4347 0.638298C12.5836 -0.212766 11.1854 -0.212766 10.3343 0.638298C10.2128 0.759878 10.152 0.881459 10.0304 1.12462C9.90881 0.881459 9.78723 0.759878 9.72644 0.638298C8.87538 -0.212766 7.4772 -0.212766 6.62614 0.638298C5.83587 1.42857 5.77508 2.58359 6.38298 3.43465H1.82371C0.851064 3.43465 0 4.22492 0 5.25836V6.65653C0 7.44681 0.547112 8.1155 1.2766 8.35866V18.2067C1.2766 19.1793 2.06687 20.0304 3.1003 20.0304H8.81459H11.307H17.0213C17.9939 20.0304 18.845 19.2401 18.845 18.2067V8.35866C19.5745 8.1155 20.1216 7.44681 20.1216 6.65653V5.19757C20 4.22492 19.2097 3.43465 18.2371 3.43465ZM10.6383 7.14286H9.3617V4.65045H10.6383V7.14286ZM10.7599 2.88754C10.9422 1.79331 11.1854 1.55015 11.1854 1.48936C11.3678 1.30699 11.6109 1.18541 11.8541 1.18541C12.0973 1.18541 12.3404 1.30699 12.5228 1.48936C12.8875 1.8541 12.8875 2.46201 12.5228 2.82675C12.5228 2.82675 12.2796 3.06991 11.1246 3.25228C10.9422 3.25228 10.8207 3.31307 10.6383 3.31307C10.7599 3.19149 10.7599 3.00912 10.7599 2.88754ZM7.4772 1.48936C7.65957 1.30699 7.90273 1.18541 8.1459 1.18541C8.38906 1.18541 8.63222 1.30699 8.81459 1.48936C8.81459 1.48936 9.05775 1.73252 9.24012 2.88754C9.24012 3.06991 9.30091 3.19149 9.30091 3.37386C9.17933 3.37386 8.99696 3.31307 8.87538 3.31307C7.78116 3.1307 7.53799 2.88754 7.4772 2.88754C7.11246 2.46201 7.11246 1.8541 7.4772 1.48936ZM1.2766 5.19757C1.2766 4.89362 1.51976 4.65045 1.82371 4.65045H8.1459V7.14286H1.8845H1.82371C1.51976 7.14286 1.2766 6.89969 1.2766 6.59574V5.19757ZM2.4924 18.2067V8.41945H8.1459V18.7538H3.03951C2.73556 18.7538 2.4924 18.5106 2.4924 18.2067ZM9.3617 18.7538V8.41945H10.6383V18.7538H9.3617ZM17.5076 18.2067C17.5076 18.5106 17.2644 18.7538 16.9605 18.7538H11.8541V8.41945H17.5076V18.2067ZM18.7842 6.59574C18.7842 6.89969 18.541 7.14286 18.2371 7.14286H18.1763H11.9149V4.65045H18.2371C18.541 4.65045 18.7842 4.89362 18.7842 5.19757V6.59574Z" fill="white"/>
</svg>
