<svg width="25" height="17" viewBox="0 0 25 17" fill="none" xmlns="http://www.w3.org/2000/svg">
<path d="M12.4993 0.262451H4.86813C2.17092 0.262451 0 2.42337 0 5.10814C0 7.79291 2.17092 9.95383 4.86813 9.95383H6.3812V12.966C6.3812 13.1625 6.51277 13.2934 6.64434 13.3589C6.71013 13.3589 6.77591 13.3589 6.77591 13.3589C6.90748 13.3589 6.97327 13.2934 7.03906 13.2279L10.2625 9.88834H12.4993C15.1965 9.88834 17.3674 7.66195 17.3674 5.04266C17.3674 2.42337 15.1965 0.262451 12.4993 0.262451ZM12.4993 9.16804H10.0652C9.93362 9.16804 9.86783 9.23352 9.80205 9.299L7.17063 12.0493V9.62642C7.17063 9.42997 6.97327 9.23352 6.77591 9.23352H4.86813C2.63142 9.23352 0.789427 7.40002 0.789427 5.17362C0.789427 2.88174 2.63142 1.11372 4.86813 1.04824H12.4993C14.736 1.04824 16.578 2.88174 16.578 5.10814C16.578 7.33454 14.736 9.16804 12.4993 9.16804Z" fill="#5B73E8"/>
<path d="M20.1963 2.88177H18.3543C18.157 2.88177 17.9596 3.07822 17.9596 3.27467C17.9596 3.47112 18.157 3.66756 18.3543 3.66756H20.1963C22.433 3.66756 24.275 5.50107 24.275 7.72746C24.275 9.95386 22.433 11.7874 20.1963 11.7874H18.2885C18.0912 11.7874 17.8938 11.9838 17.8938 12.2457V14.6686L15.2624 11.9183C15.1966 11.8528 15.0651 11.7874 14.9993 11.7874H12.5652C11.7758 11.7874 10.9863 11.5909 10.3285 11.1325C10.1311 11.0016 9.86799 11.0671 9.73642 11.2635C9.60485 11.46 9.67063 11.6564 9.86799 11.7874C10.6574 12.3112 11.5784 12.5731 12.4994 12.5731H14.7361L17.9596 15.9127C18.0254 15.9782 18.157 16.0437 18.2228 16.0437C18.2885 16.0437 18.3543 16.0437 18.3543 16.0437C18.4859 15.9782 18.6175 15.8473 18.6175 15.6508V12.5731H20.1305C22.8277 12.5731 24.9987 10.4122 24.9987 7.72746C25.0645 5.04269 22.8935 2.88177 20.1963 2.88177Z" fill="#5B73E8"/>
<path d="M8.68315 6.74518C8.55158 6.74518 8.42001 6.81066 8.35423 6.87614C8.28844 6.94163 8.22266 7.07259 8.22266 7.20355C8.22266 7.33452 8.28844 7.46548 8.35423 7.53097C8.42001 7.59645 8.55158 7.66193 8.68315 7.66193C8.81473 7.66193 8.9463 7.59645 9.01208 7.53097C9.07787 7.46548 9.14365 7.33452 9.14365 7.20355C9.14365 6.94163 8.9463 6.74518 8.68315 6.74518Z" fill="#5B73E8"/>
<path d="M10.0639 3.5366C9.93229 3.34015 9.73494 3.20919 9.53758 3.07822C9.27444 2.94726 9.0113 2.88177 8.74815 2.88177C8.41923 2.88177 8.15608 2.94726 7.89294 3.07822C7.69559 3.20919 7.49823 3.34015 7.30087 3.60208C7.1693 3.79853 7.10352 3.99497 7.10352 4.19142C7.10352 4.32238 7.1693 4.38787 7.23509 4.45335C7.30087 4.51883 7.43244 4.58431 7.56401 4.58431C7.76137 4.58431 7.89294 4.45335 7.95873 4.2569C8.02451 4.06046 8.15608 3.86401 8.22187 3.73304C8.35344 3.60208 8.48501 3.5366 8.74815 3.5366C8.94551 3.5366 9.07708 3.60208 9.20865 3.73304C9.34022 3.86401 9.40601 3.99497 9.40601 4.12594C9.40601 4.19142 9.40601 4.32238 9.34022 4.38787C9.27444 4.45335 9.27444 4.51883 9.20865 4.58431C9.14287 4.6498 9.07708 4.71528 8.94551 4.84624C8.81394 4.97721 8.68237 5.04269 8.5508 5.17365C8.35344 5.3701 8.22187 5.69751 8.22187 5.95944C8.22187 6.09041 8.28766 6.22137 8.35344 6.28685C8.41923 6.35233 8.5508 6.41782 8.61658 6.41782C8.81394 6.41782 8.94551 6.28685 9.0113 6.0904C9.0113 5.95944 9.07708 5.89396 9.07708 5.89396C9.07708 5.82848 9.07708 5.82848 9.14287 5.76299C9.14287 5.69751 9.20865 5.69751 9.20865 5.63203C9.27444 5.56655 9.34022 5.50107 9.40601 5.43558C9.66915 5.17365 9.86651 5.04269 9.93229 4.91172C9.99808 4.78076 10.1297 4.71528 10.1954 4.58431C10.2612 4.45335 10.327 4.2569 10.327 4.12594C10.2612 3.92949 10.1954 3.66756 10.0639 3.5366Z" fill="#5B73E8"/>
</svg>
