<svg width="84" height="75" viewBox="0 0 84 75" fill="none" xmlns="http://www.w3.org/2000/svg">
<g clip-path="url(#clip0)">
<path d="M67.5202 26.2182C68.2272 26.2182 68.8002 25.6491 68.8002 24.9471C68.8002 24.245 68.2272 23.6759 67.5202 23.6759C66.8133 23.6759 66.2402 24.245 66.2402 24.9471C66.2402 25.6491 66.8133 26.2182 67.5202 26.2182Z" fill="#D9D3D6"/>
<path d="M67.5198 6.03812C64.6398 6.03812 62.0798 8.10379 61.7598 10.964C61.7598 11.2818 61.7598 11.4407 61.7598 11.7585C61.7598 12.394 62.2398 13.0296 63.0398 13.0296C63.8398 13.0296 64.3198 12.5529 64.3198 11.7585C64.3198 11.5996 64.3198 11.4407 64.3198 11.2818C64.4798 9.69278 65.9198 8.42159 67.6798 8.58049C69.4398 8.58049 70.7198 10.0106 70.8798 11.5996C71.0398 13.5063 69.4398 14.9364 67.6798 14.9364C67.0398 14.9364 66.3998 15.4131 66.3998 16.2076V20.8157C66.3998 21.4513 66.8798 22.0868 67.6798 22.0868C68.3198 22.0868 68.9598 21.6101 68.9598 20.8157V17.3199C71.6798 16.6843 73.5998 14.3008 73.4398 11.4407C72.9598 8.42159 70.5598 6.03812 67.5198 6.03812Z" fill="#D9D3D6"/>
<path d="M10.7195 45.286H66.7195C67.3595 45.286 67.9995 44.8093 67.9995 44.0148C67.9995 43.3792 67.5195 42.7437 66.7195 42.7437H10.7195C10.0795 42.7437 9.43945 43.2203 9.43945 44.0148C9.43945 44.8093 9.91945 45.286 10.7195 45.286Z" fill="#D9D3D6"/>
<path d="M10.7195 33.8454H44.7995C45.4395 33.8454 46.0795 33.3687 46.0795 32.5742C46.0795 31.9386 45.5995 31.303 44.7995 31.303H10.7195C10.0795 31.303 9.43945 31.7797 9.43945 32.5742C9.43945 33.3687 9.91945 33.8454 10.7195 33.8454Z" fill="#D9D3D6"/>
<path d="M10.7195 22.5636H44.7995C45.4395 22.5636 46.0795 22.0869 46.0795 21.2924C46.0795 20.4979 45.5995 20.0212 44.7995 20.0212H10.7195C10.0795 20.0212 9.43945 20.4979 9.43945 21.2924C9.43945 22.0869 9.91945 22.5636 10.7195 22.5636Z" fill="#D9D3D6"/>
<path d="M67.521 0C58.401 0 51.041 7.30932 51.041 16.3665C51.041 25.4237 58.401 32.7331 67.521 32.7331C76.641 32.7331 84.001 25.4237 84.001 16.3665C84.001 7.30932 76.641 0 67.521 0ZM67.521 30.3496C59.681 30.3496 53.441 24.1525 53.441 16.3665C53.441 8.58051 59.681 2.38347 67.521 2.38347C75.361 2.38347 81.601 8.73941 81.601 16.3665C81.601 23.9936 75.201 30.3496 67.521 30.3496Z" fill="#D9D3D6"/>
<path d="M76 33.6864C75.36 33.6864 74.72 34.1631 74.72 34.9576V49.5762C74.72 53.072 71.84 55.9322 68.32 55.9322H37.28C35.84 55.9322 34.56 56.7267 33.92 57.839L25.6 72.1398C25.28 72.6165 24.96 72.6165 24.8 72.6165C24.64 72.6165 24.16 72.6165 24 72.1398L15.68 57.839C15.04 56.5678 13.6 55.9322 12.32 55.9322H9.12C5.6 55.9322 2.72 53.072 2.72 49.5762V16.2076C2.72 12.7118 5.6 9.85167 9.12 9.85167H48.64C49.28 9.85167 49.92 9.37497 49.92 8.58048C49.92 7.94489 49.44 7.3093 48.64 7.3093H8.8C4 7.3093 0 11.2818 0 16.0487V49.4173C0 54.1843 4 58.1567 8.8 58.1567H12C12.48 58.1567 13.12 58.4745 13.28 58.9512L21.6 73.2521C22.24 74.3644 23.36 75 24.64 75C25.92 75 27.04 74.3644 27.68 73.2521L36 58.9512C36.32 58.4745 36.8 58.1567 37.28 58.1567H68.48C73.28 58.1567 77.28 54.1843 77.28 49.4173V34.9576C77.28 34.322 76.8 33.6864 76 33.6864Z" fill="#D9D3D6"/>
</g>
<defs>
<clipPath id="clip0">
<rect width="84" height="75" fill="white"/>
</clipPath>
</defs>
</svg>
