<svg width="25" height="21" viewBox="0 0 25 21" fill="none" xmlns="http://www.w3.org/2000/svg">
<path fill-rule="evenodd" clip-rule="evenodd" d="M17.3946 6.09441C16.9428 6.09441 16.491 6.31469 16.1898 6.60839C15.8886 6.9021 15.6626 7.34266 15.6626 7.78322C15.6626 8.22378 15.8886 8.66434 16.1898 8.95804C16.491 9.25175 16.9428 9.47203 17.3946 9.47203C17.8464 9.47203 18.2982 9.25175 18.5994 8.95804C18.9006 8.66434 19.1265 8.22378 19.1265 7.78322C19.1265 7.34266 18.9006 6.9021 18.5994 6.60839C18.2982 6.24126 17.8464 6.09441 17.3946 6.09441ZM4.66867 5.43357C4.51807 5.43357 4.36747 5.28671 4.36747 5.06643C4.36747 4.84615 4.51807 4.6993 4.74398 4.6993H10.5422C10.7681 4.6993 10.9187 4.84615 10.9187 5.06643C10.9187 5.28671 10.7681 5.43357 10.5422 5.43357H4.66867ZM4.66867 3.37762C4.51807 3.37762 4.36747 3.15734 4.36747 3.01049C4.36747 2.79021 4.51807 2.64336 4.74398 2.64336H10.5422C10.7681 2.64336 10.9187 2.79021 10.9187 3.01049C10.9187 3.23077 10.7681 3.37762 10.5422 3.37762H4.66867ZM11.5964 0.660839H3.38855C3.01205 0.660839 2.71084 0.807692 2.48494 1.02797C2.25904 1.24825 2.10843 1.54196 2.10843 1.90909V6.24126C2.10843 6.60839 2.25904 6.9021 2.48494 7.12238C2.71084 7.34266 3.01205 7.48951 3.38855 7.48951H7.45482C7.60542 7.48951 7.68072 7.56294 7.75602 7.63636L10.6928 10.9406V7.85664C10.6928 7.63636 10.8434 7.48951 11.0693 7.48951H11.5964C11.9729 7.48951 12.2741 7.34266 12.5 7.12238C12.7259 6.9021 12.8012 6.60839 12.8012 6.24126V1.90909C12.8012 1.54196 12.6506 1.24825 12.4247 1.02797C12.1988 0.807692 11.8976 0.660839 11.5964 0.660839ZM3.38855 0C2.86145 0 2.33434 0.22028 2.03313 0.587413C1.65663 0.881119 1.43072 1.3951 1.43072 1.90909V6.24126C1.43072 6.75524 1.65663 7.26923 2.03313 7.56294C2.40964 7.93007 2.86145 8.15035 3.38855 8.15035H7.30422L10.7681 12.042C10.9187 12.1888 11.1446 12.1888 11.2952 12.042C11.3705 11.9685 11.4458 11.8951 11.4458 11.7483V8.07692H11.5964C12.1235 8.07692 12.6506 7.85664 12.9518 7.48951C13.3283 7.26923 13.5542 6.75524 13.5542 6.24126V1.90909C13.5542 1.3951 13.3283 0.881119 12.9518 0.587413C12.5753 0.22028 12.1235 0 11.5964 0H3.38855ZM8.96084 18.8706C9.03614 19.0909 8.88554 19.2378 8.65964 19.3112C8.43373 19.3846 8.28313 19.2378 8.20783 19.0175L7.30422 14.7587C7.22892 14.5385 7.37952 14.3916 7.60542 14.3182H7.68072H14.9096C15.0602 14.3182 15.2108 14.465 15.2861 14.6119L16.0392 18.5769H18.9759C19.2018 18.5769 19.3524 18.7238 19.3524 18.9441C19.3524 19.1643 19.2018 19.3112 18.9759 19.3112H15.738C15.5873 19.3112 15.4367 19.1643 15.3614 19.0175L14.6084 15.0524H8.13253L8.96084 18.8706ZM22.8916 18.9441C22.8916 19.1643 22.741 19.3112 22.5151 19.3112C22.2892 19.3112 22.1386 19.1643 22.1386 18.9441V15.7133C22.1386 14.5385 21.6867 13.5105 20.8584 12.7028C20.1054 11.9685 18.9759 11.4545 17.7711 11.4545H16.7922C16.0392 11.4545 15.2861 11.6748 14.6084 12.042C13.9307 12.4091 13.4036 12.9231 13.0271 13.5839C12.9518 13.7308 12.7259 13.8042 12.5753 13.7308C12.4247 13.6573 12.3494 13.4371 12.4247 13.2902C12.8765 12.5559 13.4789 11.8951 14.3072 11.4545C15.0602 11.014 15.8886 10.7937 16.7922 10.7937H17.7711C19.1265 10.7937 20.4066 11.3811 21.3102 12.2622C22.2139 13.1434 22.8163 14.3916 22.8163 15.7133V18.9441H22.8916ZM20.1054 15.3462V18.9441C20.1054 19.1643 20.256 19.3112 20.4819 19.3112C20.7078 19.3112 20.8584 19.1643 20.8584 18.9441V15.3462C20.8584 15.1259 20.7078 14.979 20.4819 14.979C20.256 15.0524 20.1054 15.1993 20.1054 15.3462ZM0.376506 21C0.150602 21 0 20.8531 0 20.6329C0 20.4126 0.150602 20.2657 0.376506 20.2657H24.6235C24.8494 20.2657 25 20.4126 25 20.6329C25 20.8531 24.8494 21 24.6235 21H0.376506ZM15.6626 6.09441C16.1145 5.65385 16.7169 5.43357 17.3946 5.43357C18.0723 5.43357 18.6747 5.72727 19.1265 6.09441C19.5783 6.53497 19.8042 7.12238 19.8042 7.78322C19.8042 8.44406 19.503 9.03147 19.1265 9.47203C18.6747 9.91259 18.0723 10.1329 17.3946 10.1329C16.7169 10.1329 16.1145 9.83916 15.6626 9.47203C15.2108 9.03147 14.9849 8.44406 14.9849 7.78322C14.9096 7.12238 15.2108 6.53497 15.6626 6.09441Z" fill="#5B73E8"/>
</svg>
