<svg width="19" height="14" viewBox="0 0 19 14" fill="none" xmlns="http://www.w3.org/2000/svg">
<path d="M13.7996 12L13.1996 11.3C14.4996 10.1 15.1996 8.4 15.1996 6.7C15.1996 4.9 14.4996 3.2 13.0996 2L13.6996 1.3C15.1996 2.7 15.9996 4.6 15.9996 6.6C16.0996 8.7 15.1996 10.6 13.7996 12Z" fill="white"/>
<path d="M12.3992 10.3L11.7992 9.6C12.4992 8.8 12.9992 7.8 12.9992 6.7C12.9992 5.6 12.4992 4.5 11.6992 3.7L12.2992 3C13.2992 3.9 13.8992 5.3 13.8992 6.6C13.8992 8 13.2992 9.3 12.3992 10.3Z" fill="white"/>
<path d="M15.1996 13.3L14.5996 12.6C16.1996 11.1 17.1996 8.9 17.1996 6.6C17.1996 4.3 16.1996 2.1 14.5996 0.6L15.1996 0C17.0996 1.7 18.0996 4.1 18.0996 6.7C18.0996 9.2 17.0996 11.6 15.1996 13.3Z" fill="white"/>
<path d="M4.39961 12C2.89961 10.6 2.09961 8.69999 2.09961 6.69999C2.09961 4.69999 2.99961 2.69999 4.39961 1.39999L4.99961 1.99999C3.69961 3.19999 2.99961 4.89999 2.99961 6.69999C2.99961 8.49999 3.69961 10.2 4.99961 11.3L4.39961 12Z" fill="white"/>
<path d="M5.79922 10.3C4.79922 9.3 4.19922 8 4.19922 6.7C4.19922 5.3 4.79922 4 5.79922 3L6.39922 3.7C5.59922 4.5 5.09922 5.5 5.09922 6.7C5.09922 7.8 5.59922 8.9 6.39922 9.6L5.79922 10.3Z" fill="white"/>
<path d="M2.9 13.3C1 11.6 0 9.2 0 6.7C0 4.2 1.1 1.7 2.9 0L3.5 0.7C1.8 2.2 0.9 4.4 0.9 6.7C0.9 8.9 1.8 11.1 3.5 12.7L2.9 13.3Z" fill="white"/>
<path d="M8.99922 8.9C10.2695 8.9 11.2992 7.87026 11.2992 6.6C11.2992 5.32975 10.2695 4.3 8.99922 4.3C7.72896 4.3 6.69922 5.32975 6.69922 6.6C6.69922 7.87026 7.72896 8.9 8.99922 8.9Z" fill="white"/>
</svg>
