<svg width="22" height="22" viewBox="0 0 22 22" fill="none" xmlns="http://www.w3.org/2000/svg">
<path d="M5.3846 5.07692C4.23076 5.07692 3.30768 4.15385 3.30768 3.07692C3.30768 1.92308 4.23076 1 5.3846 1C6.53845 1 7.46152 1.92308 7.46152 3.07692C7.46152 4.15385 6.53845 5.07692 5.3846 5.07692ZM5.3846 2.23077C4.92306 2.23077 4.53845 2.61538 4.53845 3.07692C4.53845 3.53846 4.92306 3.84615 5.3846 3.84615C5.84614 3.84615 6.23076 3.53846 6.23076 3.07692C6.23076 2.61538 5.84614 2.23077 5.3846 2.23077Z" fill="#949090"/>
<path d="M8.46154 9.23076C8.15385 9.23076 7.84615 8.92307 7.84615 8.61537V8.23076C7.84615 7.6923 7.38461 7.23076 6.84615 7.23076H3.92308C3.38461 7.23076 2.92308 7.6923 2.92308 8.23076V8.61537C2.92308 8.99999 2.61538 9.23076 2.30769 9.23076C2 9.23076 1.69231 8.92307 1.69231 8.61537V8.23076C1.69231 6.99999 2.69231 5.92307 4 5.92307H6.92308C8.15385 5.92307 9.23077 6.92307 9.23077 8.23076V8.61537C9.07692 8.99999 8.84615 9.23076 8.46154 9.23076Z" fill="#949090"/>
<path d="M16.3077 5.07691C15.1538 5.07691 14.2308 4.15383 14.2308 2.99999C14.2308 1.84614 15.1538 0.923065 16.3077 0.923065C17.4615 0.923065 18.3846 1.84614 18.3846 2.99999C18.3846 4.15383 17.4615 5.07691 16.3077 5.07691ZM16.3077 2.23076C15.8461 2.23076 15.4615 2.61537 15.4615 3.07691C15.4615 3.53845 15.8461 3.92307 16.3077 3.92307C16.7692 3.92307 17.1538 3.53845 17.1538 3.07691C17.1538 2.61537 16.7692 2.23076 16.3077 2.23076Z" fill="#949090"/>
<path d="M19.3846 9.23076C19.0769 9.23076 18.7692 8.92306 18.7692 8.61537V8.23076C18.7692 7.6923 18.3077 7.23076 17.7692 7.23076H14.8461C14.3077 7.23076 13.8461 7.6923 13.8461 8.23076V8.61537C13.8461 8.92306 13.5384 9.23076 13.2308 9.23076C12.9231 9.23076 12.6154 8.92306 12.6154 8.61537V8.23076C12.6154 6.99999 13.6154 5.92307 14.9231 5.92307H17.8461C19.0769 5.92307 20.1538 6.92306 20.1538 8.23076V8.61537C20 8.99999 19.7692 9.23076 19.3846 9.23076Z" fill="#949090"/>
<path d="M5.3846 16.8462C4.23076 16.8462 3.30768 15.9231 3.30768 14.7692C3.30768 13.6154 4.23076 12.6923 5.3846 12.6923C6.53845 12.6923 7.46152 13.6154 7.46152 14.7692C7.46152 15.9231 6.53845 16.8462 5.3846 16.8462ZM5.3846 14C4.92306 14 4.53845 14.3846 4.53845 14.8462C4.53845 15.3077 4.92306 15.6923 5.3846 15.6923C5.84614 15.6923 6.23076 15.3077 6.23076 14.8462C6.23076 14.3077 5.84614 14 5.3846 14Z" fill="#949090"/>
<path d="M8.46154 21C8.15385 21 7.84615 20.6923 7.84615 20.3846V20C7.84615 19.4616 7.38461 19 6.84615 19H3.92308C3.38461 19 2.92308 19.4616 2.92308 20V20.3846C2.92308 20.6923 2.61538 21 2.30769 21C2 21 1.69231 20.6923 1.69231 20.3846V20C1.69231 18.7692 2.69231 17.6923 4 17.6923H6.92308C8.15385 17.6923 9.23077 18.6923 9.23077 20V20.3846C9.07692 20.6923 8.84615 21 8.46154 21Z" fill="#949090"/>
<path d="M16.3077 16.8462C15.1538 16.8462 14.2308 15.9231 14.2308 14.7692C14.2308 13.6154 15.1538 12.6923 16.3077 12.6923C17.4615 12.6923 18.3846 13.6154 18.3846 14.7692C18.3846 15.9231 17.4615 16.8462 16.3077 16.8462ZM16.3077 14C15.8461 14 15.4615 14.3846 15.4615 14.8462C15.4615 15.3077 15.8461 15.6923 16.3077 15.6923C16.7692 15.6923 17.1538 15.3077 17.1538 14.8462C17.1538 14.3077 16.7692 14 16.3077 14Z" fill="#949090"/>
<path d="M19.3846 21C19.0769 21 18.7692 20.6923 18.7692 20.3846V20C18.7692 19.4616 18.3077 19 17.7692 19H14.8461C14.3077 19 13.8461 19.4616 13.8461 20V20.3846C13.8461 20.6923 13.5384 21 13.2308 21C12.9231 21 12.6154 20.6923 12.6154 20.3846V20C12.6154 18.7692 13.6154 17.6923 14.9231 17.6923H17.8461C19.0769 17.6923 20.1538 18.6923 20.1538 20V20.3846C20 20.6923 19.7692 21 19.3846 21Z" fill="#949090"/>
<path d="M11.3077 0H10.6923V22H11.3077V0Z" fill="#949090"/>
<path d="M22 10.6923H0V11.3077H22V10.6923Z" fill="#949090"/>
</svg>
