<svg width="21" height="20" viewBox="0 0 21 20" fill="none" xmlns="http://www.w3.org/2000/svg">
<path d="M17.6935 14.898H15.8467V13.0746C15.8467 12.8522 15.6665 12.6299 15.3962 12.6299C15.171 12.6299 14.9458 12.8078 14.9458 13.0746V14.898H13.0989C12.8737 14.898 12.6484 15.0758 12.6484 15.3427C12.6484 15.565 12.8286 15.7874 13.0989 15.7874H14.9458V17.6108C14.9458 17.8331 15.1259 18.0555 15.3962 18.0555C15.6214 18.0555 15.8467 17.8776 15.8467 17.6108V15.7874H17.6935C17.9187 15.7874 18.144 15.6095 18.144 15.3427C18.144 15.0758 17.9638 14.898 17.6935 14.898Z" fill="#5B73E8"/>
<path d="M4.8567 9.73905H11.5234C11.7486 9.73905 11.9739 9.56116 11.9739 9.29433C11.9739 9.0275 11.7937 8.84961 11.5234 8.84961H4.8567C4.63148 8.84961 4.40625 9.0275 4.40625 9.29433C4.40625 9.56116 4.58643 9.73905 4.8567 9.73905Z" fill="#5B73E8"/>
<path d="M8.8207 11.6519H4.8567C4.63148 11.6519 4.40625 11.8297 4.40625 12.0966C4.40625 12.3189 4.58643 12.5413 4.8567 12.5413H8.86574C9.09097 12.5413 9.3162 12.3634 9.3162 12.0966C9.27115 11.8297 9.09097 11.6519 8.8207 11.6519Z" fill="#5B73E8"/>
<path d="M16.2981 10.7178V3.37988C16.2981 2.22361 15.3521 1.24522 14.1359 1.24522H12.3792V0.444721C12.3792 0.222361 12.199 0 11.9287 0C11.7035 0 11.4782 0.177888 11.4782 0.444721V1.24522H5.62234V0.444721C5.62234 0.222361 5.44216 0 5.17189 0C4.94666 0 4.72144 0.177888 4.72144 0.444721V1.24522H3.05476C1.83853 1.24522 0.892578 2.17913 0.892578 3.37988V14.8982C0.892578 16.0544 1.83853 17.0328 3.05476 17.0328H11.0278C11.8386 19.123 14.0909 20.3238 16.2981 19.9235C18.5504 19.5233 20.172 17.5665 20.172 15.3429C20.172 13.0303 18.5053 11.118 16.2981 10.7178ZM3.05476 2.09019H4.81153V2.89069C4.81153 3.11305 4.99171 3.33541 5.26198 3.33541C5.48721 3.33541 5.71243 3.15752 5.71243 2.89069V2.09019H11.5683V2.89069C11.5683 3.11305 11.7485 3.33541 12.0188 3.33541C12.244 3.33541 12.4692 3.15752 12.4692 2.89069V2.09019H14.226C14.9467 2.09019 15.5323 2.66833 15.5323 3.37988V4.40274H1.74844V3.37988C1.74844 2.66833 2.33403 2.09019 3.05476 2.09019ZM3.05476 16.1434C2.33403 16.1434 1.74844 15.5652 1.74844 14.8537V5.24771H15.4422V10.6288C14.0458 10.6288 12.6945 11.2514 11.7936 12.3188C10.8927 13.3861 10.5323 14.8092 10.7575 16.1434H3.05476ZM15.4422 19.123C13.2801 19.123 11.5683 17.3886 11.5683 15.2984C11.5683 13.2082 13.3251 11.4738 15.4422 11.4738C17.6044 11.4738 19.3161 13.2082 19.3161 15.2984C19.3161 17.4331 17.5594 19.123 15.4422 19.123Z" fill="#5B73E8"/>
</svg>
