<svg width="17" height="17" viewBox="0 0 17 17" fill="none" xmlns="http://www.w3.org/2000/svg">
<path d="M12.1429 10.6857H11.3873L11.1175 10.4159C12.0889 9.33651 12.6286 7.87937 12.6286 6.31429C12.6286 2.80635 9.82222 0 6.31429 0C2.80635 0 0 2.80635 0 6.31429C0 9.82222 2.80635 12.6286 6.31429 12.6286C7.87937 12.6286 9.33651 12.0349 10.4159 11.1175L10.6857 11.3873V12.1429L15.5429 17L17 15.5429L12.1429 10.6857ZM6.31429 10.6857C3.88571 10.6857 1.94286 8.74286 1.94286 6.31429C1.94286 3.88571 3.88571 1.94286 6.31429 1.94286C8.74286 1.94286 10.6857 3.88571 10.6857 6.31429C10.6857 8.74286 8.74286 10.6857 6.31429 10.6857Z" fill="#5B73E8"/>
</svg>
