<svg width="23" height="22" viewBox="0 0 23 22" fill="none" xmlns="http://www.w3.org/2000/svg">
<path d="M8.5871 15.471H11.4968V17.1742H8.5871V15.471ZM5.39355 15.2581C4.82581 15.2581 4.32903 15.7548 4.32903 16.3226C4.32903 16.8903 4.82581 17.3871 5.39355 17.3871C5.96129 17.3871 6.45807 16.8903 6.45807 16.3226C6.45807 15.7548 5.96129 15.2581 5.39355 15.2581ZM17.2452 10.0065H8.5871V11.7097H17.2452V10.0065ZM5.39355 9.79355C4.82581 9.79355 4.32903 10.2903 4.32903 10.8581C4.32903 11.4258 4.82581 11.9226 5.39355 11.9226C5.96129 11.9226 6.45807 11.4258 6.45807 10.8581C6.45807 10.2903 5.96129 9.79355 5.39355 9.79355ZM17.2452 4.82581H8.5871V6.52903H17.2452V4.82581ZM5.39355 4.6129C4.82581 4.6129 4.32903 5.10968 4.32903 5.67742C4.32903 6.24516 4.82581 6.74194 5.39355 6.74194C5.96129 6.74194 6.45807 6.24516 6.45807 5.67742C6.45807 5.10968 5.96129 4.6129 5.39355 4.6129ZM1.70323 19.4452V2.55484C1.70323 2.12903 2.12903 1.70323 2.55484 1.70323H19.3742C19.871 1.70323 20.2258 2.05806 20.2258 2.55484V12.2774H22V2.55484C22 1.13548 20.8645 0 19.4452 0H2.55484C1.13548 0 0 1.13548 0 2.55484V19.3742C0 20.7935 1.13548 21.929 2.55484 21.929H12.4903V20.2258H2.55484C2.12903 20.2968 1.70323 19.871 1.70323 19.4452ZM20.7935 22L19.0903 20.2968C18.5226 20.6516 17.8129 20.8645 17.1032 20.8645C14.9742 20.8645 13.2 19.1613 13.2 16.9613C13.2 14.8323 14.9032 13.0581 17.1032 13.0581C19.2323 13.0581 21.0065 14.7613 21.0065 16.9613C21.0065 17.7419 20.7936 18.4516 20.3677 19.0903L22.071 20.7935L20.7935 22ZM17.1032 19.1613C18.3097 19.1613 19.2323 18.1677 19.2323 17.0323C19.2323 15.8258 18.2387 14.9032 17.1032 14.9032C15.8968 14.9032 14.9742 15.8968 14.9742 17.0323C14.9742 18.1677 15.8968 19.1613 17.1032 19.1613Z" fill="white"/>
</svg>
