<svg width="23" height="23" viewBox="0 0 23 23" fill="none" xmlns="http://www.w3.org/2000/svg">
<path d="M16.4286 14.4571H15.4064L15.0413 14.0921C16.3556 12.6317 17.0857 10.6603 17.0857 8.54286C17.0857 3.79683 13.2889 0 8.54286 0C3.79683 0 0 3.79683 0 8.54286C0 13.2889 3.79683 17.0857 8.54286 17.0857C10.6603 17.0857 12.6317 16.2825 14.0921 15.0413L14.4571 15.4064V16.4286L21.0286 23L23 21.0286L16.4286 14.4571ZM8.54286 14.4571C5.25714 14.4571 2.62857 11.8286 2.62857 8.54286C2.62857 5.25714 5.25714 2.62857 8.54286 2.62857C11.8286 2.62857 14.4571 5.25714 14.4571 8.54286C14.4571 11.8286 11.8286 14.4571 8.54286 14.4571Z" fill="white"/>
</svg>
