<svg width="16" height="16" viewBox="0 0 16 16" fill="none" xmlns="http://www.w3.org/2000/svg">
<g clip-path="url(#clip0)">
<path d="M14.6513 1.59387H13.3027V1.04215C13.3027 0.490421 12.8736 0 12.2605 0C11.6475 0 11.2184 0.490421 11.2184 1.04215V1.59387H9.0728V1.04215C9.0728 0.490421 8.58238 0 7.96935 0C7.35632 0 6.9272 0.490421 6.9272 1.04215V1.59387H4.78161V1.04215C4.78161 0.429119 4.29119 0 3.73946 0C3.18774 0 2.63602 0.490421 2.63602 1.04215V1.59387H1.34866C0.613027 1.59387 0 2.2069 0 2.94253V13.6092C0 14.3448 0.613027 14.9579 1.34866 14.9579H8.82759C8.95019 14.9579 9.0728 14.8352 9.0728 14.7126C9.0728 14.59 8.95019 14.4674 8.82759 14.4674H1.34866C0.91954 14.4674 0.551724 14.0996 0.551724 13.6705V5.33333H15.5096V9.86973C15.5096 9.99234 15.6322 10.1149 15.7548 10.1149C15.8774 10.1149 16 9.99234 16 9.86973V2.94253C16 2.2069 15.387 1.59387 14.6513 1.59387ZM11.7088 1.04215C11.7088 0.735632 11.954 0.490421 12.2605 0.490421C12.567 0.490421 12.8123 0.735632 12.8123 1.04215V2.63602C12.8123 2.94253 12.567 3.18774 12.2605 3.18774C11.954 3.18774 11.7088 2.94253 11.7088 2.63602V1.04215ZM7.47893 1.04215C7.47893 0.735632 7.72414 0.490421 8.03065 0.490421C8.33716 0.490421 8.58238 0.735632 8.58238 1.04215V2.63602C8.58238 2.94253 8.33716 3.18774 8.03065 3.18774C7.72414 3.18774 7.47893 2.94253 7.47893 2.63602V1.04215ZM3.18774 1.04215C3.18774 0.735632 3.43295 0.490421 3.73946 0.490421C4.04598 0.490421 4.29119 0.796935 4.29119 1.04215V2.63602C4.29119 2.94253 4.04598 3.18774 3.73946 3.18774C3.43295 3.18774 3.18774 2.94253 3.18774 2.63602V1.04215ZM15.4483 4.78161H0.551724V2.94253C0.551724 2.51341 0.91954 2.14559 1.34866 2.14559H2.69732V2.69732C2.69732 3.31034 3.18774 3.73946 3.73946 3.73946C4.29119 3.73946 4.78161 3.24904 4.78161 2.69732V2.14559H6.9272V2.69732C6.9272 3.31034 7.41762 3.73946 7.96935 3.73946C8.52107 3.73946 9.01149 3.24904 9.01149 2.69732V2.14559H11.1571V2.69732C11.1571 3.31034 11.6475 3.73946 12.1992 3.73946C12.8123 3.73946 13.2414 3.24904 13.2414 2.69732V2.14559H14.59C15.0192 2.14559 15.387 2.51341 15.387 2.94253V4.78161H15.4483Z" fill="#5B73E8"/>
<path d="M7.47958 7.17239C7.47958 6.86588 7.23437 6.62067 6.92785 6.62067H5.88571C5.5792 6.62067 5.33398 6.86588 5.33398 7.17239V7.96932C5.33398 8.27584 5.5792 8.52105 5.88571 8.52105H6.92785C7.23437 8.52105 7.47958 8.27584 7.47958 7.96932V7.17239ZM5.88571 7.96932V7.17239H6.92785V7.96932H5.88571Z" fill="#5B73E8"/>
<path d="M4.29088 7.17239C4.29088 6.86588 4.04567 6.62067 3.73916 6.62067H2.63571C2.3292 6.62067 2.08398 6.86588 2.08398 7.17239V7.96932C2.08398 8.27584 2.3292 8.52105 2.63571 8.52105H3.67785C4.04567 8.52105 4.29088 8.27584 4.29088 7.96932V7.17239ZM2.63571 7.96932V7.17239H3.67785V7.96932H2.63571Z" fill="#5B73E8"/>
<path d="M13.3029 8.52105C13.6094 8.52105 13.8546 8.27584 13.8546 7.96932V7.17239C13.8546 6.86588 13.6094 6.62067 13.3029 6.62067H12.2607C11.9542 6.62067 11.709 6.86588 11.709 7.17239V7.96932C11.709 8.27584 11.9542 8.52105 12.2607 8.52105H13.3029ZM12.2607 7.17239H13.3029V7.96932H12.2607V7.17239Z" fill="#5B73E8"/>
<path d="M7.47958 9.62454C7.47958 9.31803 7.23437 9.07281 6.92785 9.07281H5.88571C5.5792 9.07281 5.33398 9.31803 5.33398 9.62454V10.4215C5.33398 10.728 5.5792 10.9732 5.88571 10.9732H6.92785C7.23437 10.9732 7.47958 10.728 7.47958 10.4215V9.62454ZM5.88571 10.4215V9.62454H6.92785V10.4215H5.88571Z" fill="#5B73E8"/>
<path d="M4.29088 9.62454C4.29088 9.31803 4.04567 9.07281 3.73916 9.07281H2.63571C2.3292 9.07281 2.08398 9.31803 2.08398 9.62454V10.4215C2.08398 10.728 2.3292 10.9732 2.63571 10.9732H3.67785C4.04567 10.9119 4.29088 10.6667 4.29088 10.4215V9.62454ZM2.63571 10.4215V9.62454H3.67785V10.4215H2.63571Z" fill="#5B73E8"/>
<path d="M6.92785 11.4636H5.88571C5.5792 11.4636 5.33398 11.7088 5.33398 12.0153V12.8123C5.33398 13.1188 5.5792 13.364 5.88571 13.364H6.92785C7.23437 13.364 7.47958 13.1188 7.47958 12.8123V12.0153C7.47958 11.7088 7.23437 11.4636 6.92785 11.4636ZM5.88571 12.8123V12.0153H6.92785V12.8123H5.88571Z" fill="#5B73E8"/>
<path d="M9.07321 8.52105H10.1154C10.4219 8.52105 10.6671 8.27584 10.6671 7.96932V7.17239C10.6671 6.86588 10.4219 6.62067 10.1154 6.62067H9.07321C8.7667 6.62067 8.52148 6.86588 8.52148 7.17239V7.96932C8.52148 8.27584 8.7667 8.52105 9.07321 8.52105ZM9.07321 7.17239H10.1154V7.96932H9.07321V7.17239Z" fill="#5B73E8"/>
<path d="M8.52148 10.4215C8.52148 10.728 8.7667 10.9732 9.07321 10.9732C9.19581 10.9732 9.31842 10.8506 9.31842 10.728C9.31842 10.6054 9.19581 10.4215 9.07321 10.4215V9.62452H10.1154C10.238 9.62452 10.3606 9.50191 10.3606 9.37931C10.3606 9.2567 10.238 9.13409 10.1154 9.13409H9.07321C8.7667 9.13409 8.52148 9.37931 8.52148 9.68582V10.4215Z" fill="#5B73E8"/>
<path d="M3.73916 11.4636H2.63571C2.3292 11.4636 2.08398 11.7088 2.08398 12.0153V12.8123C2.08398 13.1188 2.3292 13.364 2.63571 13.364H3.67785C3.98437 13.364 4.22958 13.1188 4.22958 12.8123V12.0153C4.29088 11.7088 4.04567 11.4636 3.73916 11.4636ZM2.63571 12.8123V12.0153H3.67785V12.8123H2.63571Z" fill="#5B73E8"/>
<path d="M12.506 9.07281C10.6056 9.07281 9.01172 10.6054 9.01172 12.5671C9.01172 14.5288 10.5443 16.0613 12.506 16.0613C14.4677 16.0613 16.0002 14.5288 16.0002 12.5671C16.0002 10.6054 14.4677 9.07281 12.506 9.07281ZM12.506 15.4483C10.9121 15.4483 9.56344 14.1609 9.56344 12.5058C9.56344 10.8506 10.8508 9.56324 12.506 9.56324C14.1611 9.56324 15.4485 10.8506 15.4485 12.5058C15.4485 14.1609 14.1611 15.4483 12.506 15.4483Z" fill="#5B73E8"/>
<path d="M14.0991 11.4023L12.0148 13.4866L11.034 12.5671C10.9114 12.4444 10.7888 12.4444 10.6662 12.5671C10.5436 12.6897 10.5436 12.8123 10.6662 12.9349L11.7696 14.0383C11.8922 14.1609 12.0148 14.1609 12.1374 14.0383L14.4056 11.7701C14.5282 11.6475 14.5282 11.5249 14.4056 11.4023C14.3443 11.341 14.1604 11.341 14.0991 11.4023Z" fill="#5B73E8"/>
</g>
<defs>
<clipPath id="clip0">
<rect width="16" height="16" fill="white"/>
</clipPath>
</defs>
</svg>
