<svg width="20" height="20" viewBox="0 0 20 20" fill="none" xmlns="http://www.w3.org/2000/svg">
<path d="M18.3643 2.00744H16.7286V1.33829C16.7286 0.594796 16.1338 0 15.3903 0C14.6468 0 14.052 0.594796 14.052 1.33829V2.00744H11.3755V1.33829C11.3755 0.594796 10.7807 0 10.0372 0C9.29368 0 8.69888 0.594796 8.69888 1.33829V2.00744H6.02231V1.33829C6.02231 0.594796 5.42751 0 4.68402 0C3.94052 0 3.34573 0.594796 3.34573 1.33829V2.00744H1.63569C0.743494 2.00744 0 2.75093 0 3.64312V17.026C0 17.9182 0.743494 18.6617 1.63569 18.6617H11.0037C11.1524 18.6617 11.3011 18.513 11.3011 18.3643C11.3011 18.2156 11.1524 18.0669 11.0037 18.0669H1.63569C1.11524 18.0669 0.669145 17.6208 0.669145 17.1004V6.69145H19.3309V12.342C19.3309 12.4907 19.4796 12.6394 19.6283 12.6394C19.777 12.6394 19.9257 12.4907 19.9257 12.342V3.64312C20 2.75093 19.2565 2.00744 18.3643 2.00744ZM14.7212 1.33829C14.7212 0.966543 15.0186 0.669145 15.3903 0.669145C15.7621 0.669145 16.0595 0.966543 16.0595 1.33829V3.34573C16.0595 3.71747 15.7621 4.01487 15.3903 4.01487C15.0186 4.01487 14.7212 3.71747 14.7212 3.34573V1.33829ZM9.36803 1.33829C9.36803 0.966543 9.66543 0.669145 10.0372 0.669145C10.4089 0.669145 10.7063 0.966543 10.7063 1.33829V3.34573C10.7063 3.71747 10.4089 4.01487 10.0372 4.01487C9.66543 4.01487 9.36803 3.71747 9.36803 3.34573V1.33829ZM4.01487 1.33829C4.01487 0.966543 4.31227 0.669145 4.68402 0.669145C5.05576 0.669145 5.35316 0.966543 5.35316 1.33829V3.34573C5.35316 3.71747 5.05576 4.01487 4.68402 4.01487C4.31227 4.01487 4.01487 3.71747 4.01487 3.34573V1.33829ZM19.3309 6.02231H0.669145V3.64312C0.669145 3.12268 1.11524 2.67658 1.63569 2.67658H3.27138V3.34573C3.27138 4.08922 3.86617 4.68402 4.60967 4.68402C5.35316 4.68402 5.94796 4.08922 5.94796 3.34573V2.67658H8.62454V3.34573C8.62454 4.08922 9.21933 4.68402 9.96283 4.68402C10.7063 4.68402 11.3011 4.08922 11.3011 3.34573V2.67658H13.9777V3.34573C13.9777 4.08922 14.5725 4.68402 15.316 4.68402C16.0595 4.68402 16.6543 4.08922 16.6543 3.34573V2.67658H18.29C18.8104 2.67658 19.2565 3.12268 19.2565 3.64312V6.02231H19.3309Z" fill="#5B73E8"/>
<path d="M9.36802 8.99629C9.36802 8.62455 9.07062 8.32715 8.69887 8.32715H7.36058C6.98883 8.32715 6.69144 8.62455 6.69144 8.99629V9.96284C6.69144 10.3346 6.98883 10.632 7.36058 10.632H8.69887C9.07062 10.632 9.36802 10.3346 9.36802 9.96284V8.99629ZM7.36058 10.0372V9.07064H8.69887V10.0372H7.36058Z" fill="#5B73E8"/>
<path d="M5.35316 8.99629C5.35316 8.62455 5.05576 8.32715 4.68401 8.32715H3.34572C2.97397 8.32715 2.67657 8.62455 2.67657 8.99629V9.96284C2.67657 10.3346 2.97397 10.632 3.34572 10.632H4.68401C5.05576 10.632 5.35316 10.3346 5.35316 9.96284V8.99629ZM3.34572 10.0372V9.07064H4.68401V10.0372H3.34572Z" fill="#5B73E8"/>
<path d="M16.7286 10.7063C17.1004 10.7063 17.3978 10.4089 17.3978 10.0372V9.07063C17.3978 8.69889 17.1004 8.40149 16.7286 8.40149H15.3903C15.0186 8.40149 14.7212 8.69889 14.7212 9.07063V10.0372C14.7212 10.4089 15.0186 10.7063 15.3903 10.7063H16.7286ZM15.3903 8.99628H16.7286V9.96283H15.3903V8.99628Z" fill="#5B73E8"/>
<path d="M9.36802 12.0446C9.36802 11.6729 9.07062 11.3755 8.69887 11.3755H7.36058C6.98883 11.3755 6.69144 11.6729 6.69144 12.0446V13.0111C6.69144 13.3829 6.98883 13.6803 7.36058 13.6803H8.69887C9.07062 13.6803 9.36802 13.3829 9.36802 13.0111V12.0446ZM7.36058 13.0111V12.0446H8.69887V13.0111H7.36058Z" fill="#5B73E8"/>
<path d="M5.35316 12.0446C5.35316 11.6729 5.05576 11.3755 4.68401 11.3755H3.34572C2.97397 11.3755 2.67657 11.6729 2.67657 12.0446V13.0111C2.67657 13.3829 2.97397 13.6803 3.34572 13.6803H4.68401C5.05576 13.6803 5.35316 13.3829 5.35316 13.0111V12.0446ZM3.34572 13.0111V12.0446H4.68401V13.0111H3.34572Z" fill="#5B73E8"/>
<path d="M8.69887 14.3494H7.36058C6.98883 14.3494 6.69144 14.6468 6.69144 15.0186V15.9851C6.69144 16.3569 6.98883 16.6543 7.36058 16.6543H8.69887C9.07062 16.6543 9.36802 16.3569 9.36802 15.9851V15.0186C9.36802 14.6468 9.07062 14.3494 8.69887 14.3494ZM7.36058 16.0595V15.0929H8.69887V16.0595H7.36058Z" fill="#5B73E8"/>
<path d="M11.3755 10.7063H12.7138C13.0855 10.7063 13.3829 10.4089 13.3829 10.0372V9.07063C13.3829 8.69889 13.0855 8.40149 12.7138 8.40149H11.3755C11.0037 8.40149 10.7063 8.69889 10.7063 9.07063V10.0372C10.7063 10.4089 11.0037 10.7063 11.3755 10.7063ZM11.3755 8.99628H12.7138V9.96283H11.3755V8.99628Z" fill="#5B73E8"/>
<path d="M10.7063 13.0112C10.7063 13.3829 11.0037 13.6803 11.3755 13.6803C11.5242 13.6803 11.6729 13.5316 11.6729 13.3829C11.6729 13.2342 11.5242 13.0855 11.3755 13.0855V12.119H12.7138C12.8625 12.119 13.0112 11.9703 13.0112 11.8216C13.0112 11.6729 12.8625 11.5242 12.7138 11.5242H11.3755C11.0037 11.5242 10.7063 11.8216 10.7063 12.1933V13.0112Z" fill="#5B73E8"/>
<path d="M4.68401 14.3494H3.34572C2.97397 14.3494 2.67657 14.6468 2.67657 15.0186V15.9851C2.67657 16.3569 2.97397 16.6543 3.34572 16.6543H4.68401C5.05576 16.6543 5.35316 16.3569 5.35316 15.9851V15.0186C5.35316 14.6468 5.05576 14.3494 4.68401 14.3494ZM3.34572 16.0595V15.0929H4.68401V16.0595H3.34572Z" fill="#5B73E8"/>
<path d="M15.6877 11.3755C13.3085 11.3755 11.3755 13.3085 11.3755 15.6877C11.3755 18.0669 13.3085 20 15.6877 20C18.0669 20 20 18.0669 20 15.6877C20 13.3085 18.0669 11.3755 15.6877 11.3755ZM15.6877 19.3308C13.6803 19.3308 12.0446 17.6952 12.0446 15.6877C12.0446 13.6803 13.6803 12.0446 15.6877 12.0446C17.6952 12.0446 19.3308 13.6803 19.3308 15.6877C19.3308 17.6952 17.6952 19.3308 15.6877 19.3308Z" fill="#5B73E8"/>
<path d="M17.6208 14.2751L15.0186 16.8773L13.829 15.6877C13.6803 15.539 13.4572 15.539 13.3829 15.6877C13.2342 15.8364 13.2342 15.9851 13.3829 16.1338L14.7955 17.5465C14.9442 17.6952 15.1673 17.6952 15.2416 17.5465L18.0669 14.7212C18.2156 14.5725 18.2156 14.3494 18.0669 14.2751C17.9925 14.2007 17.7695 14.2007 17.6208 14.2751Z" fill="#5B73E8"/>
</svg>
