<svg width="18" height="16" viewBox="0 0 18 16" fill="none" xmlns="http://www.w3.org/2000/svg">
<g clip-path="url(#clip0)">
<path d="M17.2623 1.43498H6.56557C6.27049 0.64574 5.45902 0 4.5 0C3.54098 0 2.65574 0.64574 2.36066 1.43498H0.737705C0.295082 1.43498 0 1.79372 0 2.15247C0 2.51121 0.295082 2.86996 0.737705 2.86996H2.43443C2.72951 3.73094 3.54098 4.30493 4.5 4.30493C5.45902 4.30493 6.27049 3.65919 6.56557 2.86996H17.2623C17.6311 2.86996 18 2.58296 18 2.15247C18 1.72197 17.6311 1.43498 17.2623 1.43498ZM4.5 2.9417C4.05738 2.9417 3.68852 2.58296 3.68852 2.15247C3.68852 1.72197 4.05738 1.36323 4.5 1.36323C4.94262 1.36323 5.2377 1.72197 5.2377 2.15247C5.2377 2.58296 4.94262 2.9417 4.5 2.9417Z" fill="#5B73E8"/>
<path d="M17.2623 7.31839H15.5656C15.2705 6.4574 14.459 5.88341 13.5 5.88341C12.541 5.88341 11.7295 6.52915 11.4344 7.31839H0.737705C0.368852 7.31839 0 7.60538 0 8.03587C0 8.46637 0.295082 8.75336 0.737705 8.75336H11.4344C11.7295 9.61435 12.541 10.1883 13.5 10.1883C14.459 10.1883 15.2705 9.5426 15.5656 8.75336H17.2623C17.6311 8.75336 18 8.46637 18 8.03587C18 7.60538 17.6311 7.31839 17.2623 7.31839ZM13.5 8.82511C13.0574 8.82511 12.6885 8.46637 12.6885 8.03587C12.6885 7.60538 13.0574 7.24664 13.5 7.24664C13.9426 7.24664 14.3115 7.60538 14.3115 8.03587C14.3115 8.46637 13.9426 8.82511 13.5 8.82511Z" fill="#5B73E8"/>
<path d="M17.2623 13.2018H9.59016C9.29508 12.3408 8.48361 11.7668 7.52459 11.7668C6.56557 11.7668 5.7541 12.4126 5.45902 13.2018H0.737705C0.368852 13.2018 0 13.4888 0 13.9193C0 14.278 0.295082 14.6368 0.737705 14.6368H5.45902C5.7541 15.4978 6.56557 16.0717 7.52459 16.0717C8.48361 16.0717 9.29508 15.426 9.59016 14.6368H17.2623C17.6311 14.6368 18 14.3498 18 13.9193C18 13.4888 17.6311 13.2018 17.2623 13.2018ZM7.45082 14.6368C7.0082 14.6368 6.63934 14.278 6.63934 13.8475C6.63934 13.417 7.0082 13.0583 7.45082 13.0583C7.89344 13.0583 8.26229 13.417 8.26229 13.8475C8.26229 14.278 7.89344 14.6368 7.45082 14.6368Z" fill="#5B73E8"/>
</g>
<defs>
<clipPath id="clip0">
<rect width="18" height="16" fill="white"/>
</clipPath>
</defs>
</svg>
