<svg width="13" height="13" viewBox="0 0 13 13" fill="none" xmlns="http://www.w3.org/2000/svg">
<path d="M6.52756 12.1387C6.43024 12.1387 6.33538 12.1002 6.26572 12.03C6.18025 11.9446 6.14172 11.8225 6.16296 11.704L6.4248 10.2194C6.43814 10.1443 6.47421 10.0751 6.52756 10.0218L10.1958 6.35357C10.3519 6.19745 10.5174 6.09963 10.6878 6.06456C10.923 6.01515 11.1517 6.08679 11.3311 6.26612L11.9422 6.87725C12.2791 7.21467 12.2791 7.76256 11.9422 8.09999L8.27448 11.7682C8.22063 11.8216 8.15146 11.8581 8.07686 11.871L6.59228 12.1328C6.57054 12.1368 6.5493 12.1387 6.52756 12.1387ZM8.01264 11.5064H8.01758H8.01264ZM7.13424 10.463L6.98455 11.3112L7.83281 11.1615L11.418 7.57581C11.466 7.5274 11.466 7.44934 11.418 7.40092L10.8114 6.79425C10.8064 6.80363 10.7694 6.82685 10.7195 6.87675L7.13424 10.463Z" fill="white"/>
<path d="M5.28612 10.6572H1.69942C0.949967 10.6572 0.34082 10.0481 0.34082 9.2986V2.62911C0.34082 1.87965 0.949967 1.27051 1.69942 1.27051H7.38084C8.13029 1.27051 8.73944 1.87965 8.73944 2.62911V6.61104C8.73944 6.81557 8.57344 6.98157 8.36891 6.98157C8.16438 6.98157 7.99838 6.81557 7.99838 6.61104V2.62911C7.99838 2.28872 7.72123 2.01156 7.38084 2.01156H1.69942C1.35903 2.01156 1.08187 2.28872 1.08187 2.62911V9.2986C1.08187 9.63899 1.35903 9.91615 1.69942 9.91615H5.28612C5.49066 9.91615 5.65665 10.0821 5.65665 10.2867C5.65665 10.4912 5.49066 10.6572 5.28612 10.6572Z" fill="white"/>
<path d="M2.19377 2.75241C1.98924 2.75241 1.82324 2.58641 1.82324 2.38188V0.652754C1.82324 0.448223 1.98924 0.282227 2.19377 0.282227C2.3983 0.282227 2.5643 0.448223 2.5643 0.652754V2.38188C2.5643 2.58641 2.3983 2.75241 2.19377 2.75241Z" fill="white"/>
<path d="M4.5424 2.75241C4.33787 2.75241 4.17188 2.58641 4.17188 2.38188V0.652754C4.17188 0.448223 4.33787 0.282227 4.5424 0.282227C4.74693 0.282227 4.91293 0.448223 4.91293 0.652754V2.38188C4.91293 2.58641 4.74693 2.75241 4.5424 2.75241Z" fill="white"/>
<path d="M6.88518 2.75241C6.68064 2.75241 6.51465 2.58641 6.51465 2.38188V0.652754C6.51465 0.448223 6.68064 0.282227 6.88518 0.282227C7.08971 0.282227 7.2557 0.448223 7.2557 0.652754V2.38188C7.2557 2.58641 7.08971 2.75241 6.88518 2.75241Z" fill="white"/>
<path d="M5.89904 6.9515H2.19377C1.98924 6.9515 1.82324 6.78551 1.82324 6.58098C1.82324 6.37645 1.98924 6.21045 2.19377 6.21045H5.89904C6.10357 6.21045 6.26957 6.37645 6.26957 6.58098C6.26957 6.78551 6.10357 6.9515 5.89904 6.9515Z" fill="white"/>
<path d="M4.41693 4.97543H2.19377C1.98924 4.97543 1.82324 4.80943 1.82324 4.6049C1.82324 4.40037 1.98924 4.23438 2.19377 4.23438H4.41693C4.62146 4.23438 4.78746 4.40037 4.78746 4.6049C4.78746 4.80943 4.62146 4.97543 4.41693 4.97543Z" fill="white"/>
</svg>
