<svg width="19" height="18" viewBox="0 0 19 18" fill="none" xmlns="http://www.w3.org/2000/svg">
<path d="M11.0417 0.0628075C10.8213 -0.0423276 10.5616 -0.0144605 10.3716 0.138809L4.21047 5.06749H1.26669C0.568743 5.06749 0 5.63624 0 6.33418V11.4009C0 12.1001 0.568743 12.6676 1.26669 12.6676H4.21047L10.3704 17.5963C10.4856 17.6875 10.6263 17.7344 10.7669 17.7344C10.8606 17.7344 10.9543 17.7128 11.0417 17.671C11.2609 17.5659 11.4002 17.3442 11.4002 17.101V0.634084C11.4002 0.39088 11.2609 0.169209 11.0417 0.0628075Z" fill="#5B73E8"/>
<path d="M14.6076 4.38844C14.358 4.1427 13.9578 4.1465 13.712 4.3935C13.4663 4.64304 13.4688 5.04331 13.7171 5.29032C14.6747 6.23527 15.2016 7.50576 15.2016 8.86745C15.2016 10.2291 14.6747 11.4996 13.7171 12.4446C13.4688 12.689 13.4663 13.0906 13.712 13.3401C13.8362 13.4655 13.9996 13.5276 14.1617 13.5276C14.3226 13.5276 14.4834 13.4668 14.6076 13.3439C15.8084 12.1621 16.4683 10.5711 16.4683 8.86745C16.4683 7.16375 15.8084 5.57279 14.6076 4.38844Z" fill="#5B73E8"/>
<path d="M16.3922 2.60388C16.1427 2.35688 15.7424 2.35941 15.4954 2.60768C15.2496 2.85595 15.2522 3.25749 15.4992 3.50323C16.9394 4.93079 17.7324 6.83589 17.7324 8.86765C17.7324 10.8994 16.9394 12.8033 15.4992 14.2308C15.2522 14.4778 15.2496 14.8794 15.4954 15.1276C15.6208 15.2518 15.7829 15.3138 15.9451 15.3138C16.1059 15.3138 16.2681 15.253 16.3922 15.1302C18.0744 13.4645 18.9991 11.2402 18.9991 8.86765C18.9991 6.49515 18.0744 4.27084 16.3922 2.60388Z" fill="#5B73E8"/>
</svg>
