<svg width="12" height="16" viewBox="0 0 12 16" fill="none" xmlns="http://www.w3.org/2000/svg">
<path d="M11.3684 0H0.631579C0.282947 0 0 0.282947 0 0.631579V14.5263C0 14.8749 0.282947 15.1579 0.631579 15.1579H11.3684C11.7171 15.1579 12 14.8749 12 14.5263V0.631579C12 0.282947 11.7171 0 11.3684 0ZM10.7368 13.8947H1.26316V1.26316H10.7368V13.8947Z" fill="#565656"/>
<path d="M5.99959 2.21057C4.78096 2.21057 3.78906 3.20215 3.78906 4.4211C3.78906 5.64004 4.78096 6.63162 5.99959 6.63162C7.21822 6.63162 8.21011 5.64004 8.21011 4.4211C8.21011 3.20215 7.21822 2.21057 5.99959 2.21057ZM5.99959 5.36847C5.47727 5.36847 5.05222 4.94341 5.05222 4.4211C5.05222 3.89878 5.47727 3.47373 5.99959 3.47373C6.5219 3.47373 6.94696 3.89878 6.94696 4.4211C6.94696 4.94341 6.5219 5.36847 5.99959 5.36847Z" fill="#565656"/>
<path d="M6.00031 7.26306C4.43305 7.26306 3.1582 8.53822 3.1582 10.1052C3.1582 11.6721 4.43305 12.9473 6.00031 12.9473C7.56757 12.9473 8.84241 11.6721 8.84241 10.1052C8.84241 8.53822 7.56757 7.26306 6.00031 7.26306ZM6.00031 11.6841C5.12968 11.6841 4.42136 10.9758 4.42136 10.1052C4.42136 9.23454 5.12968 8.52622 6.00031 8.52622C6.87094 8.52622 7.57926 9.23454 7.57926 10.1052C7.57926 10.9758 6.87094 11.6841 6.00031 11.6841Z" fill="#565656"/>
<path d="M6.0001 9.15784C5.47779 9.15784 5.05273 9.58289 5.05273 10.1052C5.05273 10.6275 5.47779 11.0526 6.0001 11.0526C6.52242 11.0526 6.94747 10.6275 6.94747 10.1052C6.94747 9.58289 6.52242 9.15784 6.0001 9.15784Z" fill="#565656"/>
<path d="M9.31682 1.89478C8.88134 1.89478 8.52734 2.24909 8.52734 2.68425C8.52734 3.11941 8.88134 3.47372 9.31682 3.47372C9.75229 3.47372 10.1063 3.11941 10.1063 2.68425C10.1063 2.24909 9.75229 1.89478 9.31682 1.89478Z" fill="#565656"/>
</svg>
