<svg width="20" height="20" viewBox="0 0 20 20" fill="none" xmlns="http://www.w3.org/2000/svg">
<g clip-path="url(#clip0)">
<path d="M12.2222 7.08333C12.1528 7.08333 12.0833 7.08333 12.0139 7.01389C11.875 6.94444 11.8056 6.80556 11.8056 6.66667V5.90278H11.3194C10.9028 5.90278 10.4861 5.55556 10.4861 5.06944V0.833333C10.4861 0.416667 10.8333 0 11.3194 0H19.0972C19.5139 0 19.9306 0.347222 19.9306 0.833333V5.06944C19.9306 5.48611 19.5833 5.90278 19.0972 5.90278H13.8889L12.5 7.01389C12.4306 7.08333 12.3611 7.08333 12.2222 7.08333ZM11.3889 0.763889V5.06944H12.2222C12.4306 5.06944 12.6389 5.27778 12.6389 5.48611V5.90278L13.6111 5.13889C13.6806 5.06944 13.75 5.06944 13.8194 5.06944H19.1667V0.833333L11.3889 0.763889Z" fill="#5B73E8"/>
<path d="M17.5694 2.29168H12.9861C12.7778 2.29168 12.5694 2.08334 12.5694 1.87501C12.5694 1.66668 12.7778 1.45834 12.9861 1.45834H17.5694C17.7778 1.45834 17.9861 1.66668 17.9861 1.87501C17.9861 2.08334 17.7778 2.29168 17.5694 2.29168Z" fill="#5B73E8"/>
<path d="M17.5694 4.09722H12.9861C12.7778 4.09722 12.5694 3.88889 12.5694 3.68055C12.5694 3.47222 12.7778 3.26389 12.9861 3.26389H17.5694C17.7778 3.26389 17.9861 3.47222 17.9861 3.68055C17.9861 3.95833 17.7778 4.09722 17.5694 4.09722Z" fill="#5B73E8"/>
<path d="M6.45833 5.48611C4.93056 5.48611 3.75 4.23611 3.75 2.77778C3.75 1.31944 5 0 6.45833 0C7.98611 0 9.16667 1.25 9.16667 2.70833C9.23611 4.23611 7.98611 5.48611 6.45833 5.48611ZM6.45833 0.763889C5.34722 0.763889 4.51389 1.66667 4.51389 2.70833C4.51389 3.81944 5.41667 4.65278 6.45833 4.65278C7.5 4.65278 8.40278 3.75 8.40278 2.70833C8.40278 1.66667 7.56944 0.763889 6.45833 0.763889Z" fill="#5B73E8"/>
<path d="M8.54167 12.0834C8.40278 12.0834 8.26389 11.9445 8.19445 11.8056C8.125 11.6667 8.19445 11.4583 8.33334 11.3889C8.47223 11.3195 8.61112 11.25 8.75001 11.3889C8.88889 11.4583 8.95834 11.6667 8.95834 11.8056C8.88889 12.0139 8.75001 12.0834 8.54167 12.0834Z" fill="#5B73E8"/>
<path d="M12.5694 8.95832H9.72222V7.22221C9.72222 6.59721 9.16667 6.04166 8.54167 6.04166H4.375C3.75 6.04166 3.19444 6.59721 3.19444 7.22221V8.95832H2.22222V6.59721L3.40278 5.76388C3.61111 5.62499 3.61111 5.41666 3.47222 5.20832C3.40278 5.06943 3.125 4.99999 2.98611 5.13888L1.59722 6.04166C1.52778 6.18054 1.45833 6.24999 1.45833 6.38888V8.95832H0.416667C0.208333 8.95832 0 9.16666 0 9.37499V11.7361C0 11.9444 0.208333 12.1528 0.416667 12.1528H1.18056V19.6528C1.18056 19.8611 1.38889 20.0694 1.59722 20.0694H11.4583C11.6667 20.0694 11.875 19.8611 11.875 19.6528V12.0833H12.6389C12.8472 12.0833 13.0556 11.875 13.0556 11.6667V9.30554C12.9861 9.09721 12.7778 8.95832 12.5694 8.95832ZM4.02778 7.22221C4.02778 7.01388 4.23611 6.80554 4.44444 6.80554H8.61111C8.81944 6.80554 9.02778 7.01388 9.02778 7.22221V8.95832H4.02778V7.22221ZM12.1528 11.3194H10.2778C10.0694 11.3194 9.86111 11.5278 9.86111 11.7361C9.86111 11.9444 10.0694 12.1528 10.2778 12.1528H10.9722V19.2361H1.94444V12.0833H6.66667C6.875 12.0833 7.08333 11.875 7.08333 11.6667C7.08333 11.4583 6.875 11.25 6.66667 11.25H0.763889V9.72221H12.1528V11.3194Z" fill="#5B73E8"/>
</g>
<defs>
<clipPath id="clip0">
<rect width="20" height="20" fill="white"/>
</clipPath>
</defs>
</svg>
