<svg width="18" height="14" viewBox="0 0 18 14" fill="none" xmlns="http://www.w3.org/2000/svg">
<path d="M16.8511 0H1.14894C0.510638 0 0 0.509091 0 1.14545V12.8545C0 13.4909 0.510638 14 1.14894 14H16.8511C17.4894 14 18 13.4909 18 12.8545V1.14545C18 0.509091 17.4894 0 16.8511 0ZM16.8511 1.14545V9.41818L14.5532 7.38182C14.1702 7.12727 13.6596 7.12727 13.4043 7.38182L11.1064 9.67273L6.6383 4.32727C6.25532 3.94545 5.61702 3.94545 5.3617 4.32727L1.14894 9.16364V1.14545H16.8511ZM12 4.07273C12 3.30909 12.6383 2.54545 13.5319 2.54545C14.4255 2.54545 15.0638 3.30909 15.0638 4.07273C15.0638 4.83636 14.2979 5.6 13.5319 5.6C12.6383 5.72727 12 4.96364 12 4.07273Z" fill="white"/>
</svg>
