<svg width="24" height="23" viewBox="0 0 24 23" fill="none" xmlns="http://www.w3.org/2000/svg">
<g clip-path="url(#clip0)">
<path d="M15.8998 16.7L17.5998 11.9L19.2998 16.7H15.8998ZM18.6998 8.89999H16.5998L11.7998 22.2H13.8998L15.0998 18.9H20.1998L21.3998 22.2H23.4998L18.6998 8.89999Z" fill="white"/>
<path d="M12.7 14.5L10 11.7C11.9 9.5 13.2 7.1 14 4.4H17.1V2.2H9.6V0H7.5V2.2H0V4.4H11.9C11.2 6.5 10.1 8.6 8.5 10.4C7.5 9.2 6.7 8 6.1 6.7H3.9C4.7 8.5 5.7 10.2 7.1 11.8L1.7 17.4L3.2 19L8.5 13.4L11.8 16.9L12.7 14.5Z" fill="white"/>
</g>
<defs>
<clipPath id="clip0">
<rect width="23.5" height="22.2" fill="white"/>
</clipPath>
</defs>
</svg>
