<svg width="23" height="15" viewBox="0 0 23 15" fill="none" xmlns="http://www.w3.org/2000/svg">
<path d="M19.1667 13.125C20.2208 13.125 21.0737 12.2812 21.0737 11.25L21.0833 1.875C21.0833 0.834375 20.2208 0 19.1667 0H3.83333C2.76958 0 1.91667 0.834375 1.91667 1.875V11.25C1.91667 12.2812 2.76958 13.125 3.83333 13.125H0V15H23V13.125H19.1667ZM3.83333 11.25V1.875H19.1667V11.2594L3.83333 11.25ZM12.4583 4.80938C8.73042 5.31563 7.245 7.80938 6.70833 10.3125C8.04042 8.55938 9.79417 7.7625 12.4583 7.7625V9.81563L16.2917 6.30937L12.4583 2.8125V4.80938Z" fill="#616469"/>
</svg>
