<svg width="17" height="17" viewBox="0 0 17 17" fill="none" xmlns="http://www.w3.org/2000/svg">
<path d="M14.3158 4.47368V7.14895C14.3158 7.14895 12.5353 7.15789 12.5263 7.14895V4.47368H9.8421C9.8421 4.47368 9.85105 2.69316 9.8421 2.68421H12.5263V0H14.3158V2.68421H17V4.47368H14.3158ZM11.6316 8.05263V5.36842H8.94737V2.68421H1.78947C0.805263 2.68421 0 3.48947 0 4.47368V15.2105C0 16.1947 0.805263 17 1.78947 17H12.5263C13.5105 17 14.3158 16.1947 14.3158 15.2105V8.05263H11.6316ZM1.78947 15.2105L4.47368 11.6316L6.26316 14.3158L8.94737 10.7368L12.5263 15.2105H1.78947Z" fill="white"/>
</svg>
