<svg width="50" height="50" viewBox="0 0 50 50" fill="none" xmlns="http://www.w3.org/2000/svg">
<path d="M25 50C38.8071 50 50 38.8071 50 25C50 11.1929 38.8071 0 25 0C11.1929 0 0 11.1929 0 25C0 38.8071 11.1929 50 25 50Z" fill="#E2131B"/>
<path d="M29.0635 32.317H16.6651C15.7505 32.317 14.9375 31.504 14.9375 30.5894V19.4105C14.9375 18.4959 15.7505 17.6829 16.6651 17.6829H29.0635C29.9782 17.6829 30.7912 18.4959 30.7912 19.4105V30.691C30.7912 31.6056 30.0798 32.317 29.0635 32.317ZM16.6651 19.004C16.4619 19.004 16.3603 19.2073 16.3603 19.3089V30.5894C16.3603 30.7926 16.5635 30.8942 16.6651 30.8942H29.0635C29.2668 30.8942 29.3684 30.691 29.3684 30.5894V19.4105C29.3684 19.2073 29.1651 19.1056 29.0635 19.1056H16.6651V19.004Z" fill="white"/>
<path d="M34.3488 30.1828C34.1456 30.1828 34.044 30.0812 33.8407 29.9796L29.5724 25.9145C29.2675 25.7113 29.2675 25.2031 29.5724 24.9999L33.8407 20.0202C34.044 19.817 34.3488 19.7153 34.5521 19.817C34.857 19.9186 34.9586 20.2235 34.9586 20.4267V29.4714C34.9586 29.7763 34.7553 29.9796 34.5521 30.0812C34.5521 30.1828 34.4505 30.1828 34.3488 30.1828ZM31.0968 25.4064L33.7391 27.947V22.3576L31.0968 25.4064Z" fill="white"/>
<path d="M16.1562 15.8536L33.2294 32.2154" stroke="#E2131B" stroke-width="2" stroke-miterlimit="10" stroke-linecap="round"/>
<path d="M15.752 16.2601L32.8251 32.7235" stroke="white" stroke-width="1.3" stroke-miterlimit="10" stroke-linecap="round" stroke-linejoin="bevel"/>
</svg>
