<svg width="20" height="15" viewBox="0 0 20 15" fill="none" xmlns="http://www.w3.org/2000/svg">
<path d="M19.4 2.1C19.1 2 18.8 2.1 18.7 2.3L15.7 5.8V1.7C15.7 0.800001 14.9 0 14 0H1.7C0.799999 0 0 0.800001 0 1.7V12.8C0 13.7 0.799999 14.5 1.7 14.5H13.9C14.8 14.5 15.6 13.7 15.6 12.8V9.3L18.7 12.2C18.8 12.3 19 12.4 19.2 12.4C19.3 12.4 19.4 12.4 19.5 12.3C19.7 12.2 19.9 11.9 19.9 11.7V2.8C19.9 2.4 19.7 2.2 19.4 2.1ZM14.3 12.7C14.3 12.9 14.1 13 14 13H1.7C1.5 13 1.4 12.8 1.4 12.7V1.6C1.4 1.4 1.6 1.3 1.7 1.3H13.9C14.1 1.3 14.2 1.5 14.2 1.6V12.7H14.3ZM18.5 10L15.9 7.5L18.5 4.5V10Z" fill="#616469"/>
</svg>
